<svg width="445" height="292" viewBox="0 0 445 292" fill="none" xmlns="http://www.w3.org/2000/svg">
<rect width="445" height="292" rx="10" fill="#FFFDF2"/>
<rect x="45" y="38" width="254.348" height="46.5339" rx="8.40496" fill="#FAFAFA"/>
<rect x="45.4202" y="38.4202" width="253.508" height="45.6934" rx="7.98471" stroke="black" stroke-opacity="0.1" stroke-width="0.840496"/>
<path d="M71.2026 70.6034V67.9768C67.5674 67.7247 66.0125 65.7285 65.8444 63.081H68.9542C69.1013 64.2997 69.5426 65.2873 71.2026 65.5394V61.484C67.8616 60.9587 66.2646 59.74 66.2646 56.9664C66.2646 54.5499 68.1978 52.7639 71.2026 52.5537V50.6836H72.6944V52.5748C75.5521 52.8269 77.2751 54.2558 77.5273 56.9664H74.5225C74.3334 55.8737 73.8081 55.2013 72.6944 54.9912V58.7524C75.8463 59.2357 77.7794 60.2863 77.7794 63.207C77.7794 65.7285 76.0144 67.7457 72.6944 67.9768V70.6034H71.2026ZM74.6696 63.5642C74.6696 62.5556 74.2494 62.0514 72.6944 61.7152V65.5394C73.9132 65.3293 74.6696 64.5939 74.6696 63.5642ZM69.2904 56.6932C69.2904 57.6598 69.6476 58.1851 71.2026 58.5003V54.9492C69.9628 55.1173 69.2904 55.8107 69.2904 56.6932ZM86.177 65.3293C88.2993 65.3293 89.2658 63.7113 89.2658 60.5595V59.8871C89.2658 56.8613 88.2152 55.1593 86.135 55.1593C84.0337 55.1593 82.9621 56.7772 82.9621 59.8871V60.6015C82.9621 63.7534 84.0758 65.3293 86.177 65.3293ZM86.093 67.9979C82.1006 67.9979 79.5581 65.2242 79.5581 60.6225V59.9081C79.5581 55.2854 82.2477 52.5327 86.114 52.5327C89.9803 52.5327 92.6488 55.1803 92.6488 59.845V60.5385C92.6488 65.1402 90.1484 67.9979 86.093 67.9979ZM95.6134 67.9558C94.5628 67.9558 93.7433 67.1364 93.7433 66.1067C93.7433 65.0981 94.5628 64.2787 95.6134 64.2787C96.685 64.2787 97.5045 65.0981 97.5045 66.1067C97.5045 67.1364 96.685 67.9558 95.6134 67.9558ZM105.219 65.3293C107.342 65.3293 108.308 63.7113 108.308 60.5595V59.8871C108.308 56.8613 107.258 55.1593 105.177 55.1593C103.076 55.1593 102.005 56.7772 102.005 59.8871V60.6015C102.005 63.7534 103.118 65.3293 105.219 65.3293ZM105.135 67.9979C101.143 67.9979 98.6006 65.2242 98.6006 60.6225V59.9081C98.6006 55.2854 101.29 52.5327 105.156 52.5327C109.023 52.5327 111.691 55.1803 111.691 59.845V60.5385C111.691 65.1402 109.191 67.9979 105.135 67.9979ZM120.199 65.3293C122.321 65.3293 123.288 63.7113 123.288 60.5595V59.8871C123.288 56.8613 122.237 55.1593 120.157 55.1593C118.056 55.1593 116.984 56.7772 116.984 59.8871V60.6015C116.984 63.7534 118.098 65.3293 120.199 65.3293ZM120.115 67.9979C116.123 67.9979 113.58 65.2242 113.58 60.6225V59.9081C113.58 55.2854 116.27 52.5327 120.136 52.5327C124.002 52.5327 126.671 55.1803 126.671 59.845V60.5385C126.671 65.1402 124.17 67.9979 120.115 67.9979Z" fill="#181818"/>
<mask id="mask0_1522_6311" style="mask-type:alpha" maskUnits="userSpaceOnUse" x="200" y="56" width="16" height="16">
<circle cx="207.992" cy="64.267" r="7.56446" fill="#D9D9D9"/>
</mask>
<g mask="url(#mask0_1522_6311)">
<rect x="196.104" y="56.1611" width="23.2337" height="16.2096" rx="1.0086" fill="white"/>
<mask id="mask1_1522_6311" style="mask-type:luminance" maskUnits="userSpaceOnUse" x="196" y="56" width="24" height="17">
<rect x="196.104" y="56.1611" width="23.2337" height="16.2096" rx="1.0086" fill="white"/>
</mask>
<g mask="url(#mask1_1522_6311)">
<path fill-rule="evenodd" clip-rule="evenodd" d="M219.337 56.1611H196.104V57.2418H219.337V56.1611ZM219.337 58.3224H196.104V59.4031H219.337V58.3224ZM196.104 60.4837H219.337V61.5643H196.104V60.4837ZM219.337 62.645H196.104V63.7256H219.337V62.645ZM196.104 64.8062H219.337V65.8869H196.104V64.8062ZM219.337 66.9675H196.104V68.0482H219.337V66.9675ZM196.104 69.1288H219.337V70.2094H196.104V69.1288ZM219.337 71.2901H196.104V72.3707H219.337V71.2901Z" fill="#D02F44"/>
<rect x="196.104" y="56.1611" width="9.95731" height="7.56446" fill="#46467F"/>
<g filter="url(#filter0_d_1522_6311)">
<path fill-rule="evenodd" clip-rule="evenodd" d="M198.316 57.782C198.316 58.0804 198.069 58.3223 197.763 58.3223C197.458 58.3223 197.21 58.0804 197.21 57.782C197.21 57.4836 197.458 57.2417 197.763 57.2417C198.069 57.2417 198.316 57.4836 198.316 57.782ZM200.529 57.7821C200.529 58.0805 200.281 58.3224 199.976 58.3224C199.67 58.3224 199.423 58.0805 199.423 57.7821C199.423 57.4837 199.67 57.2418 199.976 57.2418C200.281 57.2418 200.529 57.4837 200.529 57.7821ZM202.189 58.3224C202.494 58.3224 202.742 58.0805 202.742 57.7821C202.742 57.4837 202.494 57.2418 202.189 57.2418C201.883 57.2418 201.635 57.4837 201.635 57.7821C201.635 58.0805 201.883 58.3224 202.189 58.3224ZM204.955 57.7821C204.955 58.0805 204.707 58.3224 204.401 58.3224C204.096 58.3224 203.848 58.0805 203.848 57.7821C203.848 57.4837 204.096 57.2418 204.401 57.2418C204.707 57.2418 204.955 57.4837 204.955 57.7821ZM198.869 59.403C199.175 59.403 199.423 59.1611 199.423 58.8627C199.423 58.5643 199.175 58.3224 198.869 58.3224C198.564 58.3224 198.316 58.5643 198.316 58.8627C198.316 59.1611 198.564 59.403 198.869 59.403ZM201.635 58.8627C201.635 59.1611 201.388 59.403 201.082 59.403C200.777 59.403 200.529 59.1611 200.529 58.8627C200.529 58.5643 200.777 58.3224 201.082 58.3224C201.388 58.3224 201.635 58.5643 201.635 58.8627ZM203.295 59.403C203.6 59.403 203.848 59.1611 203.848 58.8627C203.848 58.5643 203.6 58.3224 203.295 58.3224C202.989 58.3224 202.742 58.5643 202.742 58.8627C202.742 59.1611 202.989 59.403 203.295 59.403ZM204.955 59.9434C204.955 60.2418 204.707 60.4837 204.401 60.4837C204.096 60.4837 203.848 60.2418 203.848 59.9434C203.848 59.645 204.096 59.4031 204.401 59.4031C204.707 59.4031 204.955 59.645 204.955 59.9434ZM202.189 60.4837C202.494 60.4837 202.742 60.2418 202.742 59.9434C202.742 59.645 202.494 59.4031 202.189 59.4031C201.883 59.4031 201.635 59.645 201.635 59.9434C201.635 60.2418 201.883 60.4837 202.189 60.4837ZM200.529 59.9434C200.529 60.2418 200.281 60.4837 199.976 60.4837C199.67 60.4837 199.423 60.2418 199.423 59.9434C199.423 59.645 199.67 59.4031 199.976 59.4031C200.281 59.4031 200.529 59.645 200.529 59.9434ZM197.763 60.4837C198.069 60.4837 198.316 60.2418 198.316 59.9434C198.316 59.645 198.069 59.4031 197.763 59.4031C197.458 59.4031 197.21 59.645 197.21 59.9434C197.21 60.2418 197.458 60.4837 197.763 60.4837ZM199.423 61.024C199.423 61.3224 199.175 61.5643 198.869 61.5643C198.564 61.5643 198.316 61.3224 198.316 61.024C198.316 60.7256 198.564 60.4837 198.869 60.4837C199.175 60.4837 199.423 60.7256 199.423 61.024ZM201.082 61.5643C201.388 61.5643 201.635 61.3224 201.635 61.024C201.635 60.7256 201.388 60.4837 201.082 60.4837C200.777 60.4837 200.529 60.7256 200.529 61.024C200.529 61.3224 200.777 61.5643 201.082 61.5643ZM203.848 61.024C203.848 61.3224 203.6 61.5643 203.295 61.5643C202.989 61.5643 202.742 61.3224 202.742 61.024C202.742 60.7256 202.989 60.4837 203.295 60.4837C203.6 60.4837 203.848 60.7256 203.848 61.024ZM204.401 62.6449C204.707 62.6449 204.955 62.403 204.955 62.1046C204.955 61.8062 204.707 61.5643 204.401 61.5643C204.096 61.5643 203.848 61.8062 203.848 62.1046C203.848 62.403 204.096 62.6449 204.401 62.6449ZM202.742 62.1046C202.742 62.403 202.494 62.6449 202.189 62.6449C201.883 62.6449 201.635 62.403 201.635 62.1046C201.635 61.8062 201.883 61.5643 202.189 61.5643C202.494 61.5643 202.742 61.8062 202.742 62.1046ZM199.976 62.6449C200.281 62.6449 200.529 62.403 200.529 62.1046C200.529 61.8062 200.281 61.5643 199.976 61.5643C199.67 61.5643 199.423 61.8062 199.423 62.1046C199.423 62.403 199.67 62.6449 199.976 62.6449ZM198.316 62.1046C198.316 62.403 198.069 62.6449 197.763 62.6449C197.458 62.6449 197.21 62.403 197.21 62.1046C197.21 61.8062 197.458 61.5643 197.763 61.5643C198.069 61.5643 198.316 61.8062 198.316 62.1046Z" fill="url(#paint0_linear_1522_6311)"/>
</g>
</g>
</g>
<path d="M227.465 68.9031C224.984 68.9031 223.577 67.4508 223.577 64.8183V57.9498H224.893V64.667C224.893 66.9364 225.695 67.8138 227.495 67.8138C229.22 67.8138 230.249 67.1179 230.249 64.4704V57.9498H231.565V64.6519C231.565 67.2843 230.249 68.9031 227.465 68.9031ZM237.394 68.9031C234.504 68.9031 233.461 67.3146 233.264 65.4689H234.535C234.701 66.7548 235.215 67.8441 237.394 67.8441C238.786 67.8441 239.86 67.0271 239.86 65.8017C239.86 64.5763 239.3 64.0619 237.243 63.729C234.973 63.3811 233.627 62.67 233.627 60.7486C233.627 59.0845 235.064 57.8136 237.107 57.8136C239.27 57.8136 240.616 58.8726 240.828 60.794H239.648C239.391 59.4324 238.604 58.8726 237.107 58.8726C235.624 58.8726 234.852 59.614 234.852 60.6276C234.852 61.6866 235.246 62.2313 237.455 62.5641C239.86 62.9423 241.131 63.6685 241.131 65.7109C241.131 67.5264 239.542 68.9031 237.394 68.9031ZM244.398 67.6928H245.881C248.664 67.6928 250.056 66.0286 250.056 63.3811V63.26C250.056 60.7638 248.846 59.0088 245.866 59.0088H244.398V67.6928ZM243.082 68.767V57.9498H245.941C249.663 57.9498 251.418 60.2494 251.418 63.26V63.3962C251.418 66.3917 249.693 68.767 245.911 68.767H243.082Z" fill="#181818"/>
<path d="M266.568 62.0702L270.771 66.2727L274.973 62.0702" stroke="black" stroke-opacity="0.5" stroke-width="1.68099" stroke-linecap="round" stroke-linejoin="round"/>
<rect x="145" y="217" width="234.223" height="46.1191" rx="8.25681" fill="#FAFAFA"/>
<rect x="145.413" y="217.413" width="233.398" height="45.2934" rx="7.84397" stroke="black" stroke-opacity="0.1" stroke-width="0.825681"/>
<path d="M165.353 238.592V237.229H166.736C167.17 233.968 169.399 231.594 172.826 231.594C176.128 231.594 178.151 233.369 178.481 236.631H175.365C175.158 235.021 174.25 234.133 172.805 234.133C171.154 234.133 170.245 235.351 169.977 237.229H173.816L173.569 238.592H169.915V239.872H173.342L173.094 241.234H169.977C170.245 243.112 171.133 244.186 172.826 244.186C174.415 244.186 175.282 243.257 175.53 241.42H178.605C178.213 244.805 176.232 246.787 172.764 246.787C169.234 246.787 167.149 244.475 166.736 241.234H165.353V239.872H166.654V238.592H165.353ZM186.762 244.165C188.846 244.165 189.796 242.576 189.796 239.479V238.819C189.796 235.846 188.764 234.174 186.72 234.174C184.656 234.174 183.603 235.764 183.603 238.819V239.521C183.603 242.617 184.697 244.165 186.762 244.165ZM186.679 246.787C182.757 246.787 180.259 244.062 180.259 239.541V238.839C180.259 234.298 182.901 231.594 186.7 231.594C190.498 231.594 193.119 234.195 193.119 238.778V239.459C193.119 243.979 190.663 246.787 186.679 246.787ZM196.032 246.745C194.999 246.745 194.194 245.94 194.194 244.929C194.194 243.938 194.999 243.133 196.032 243.133C197.084 243.133 197.889 243.938 197.889 244.929C197.889 245.94 197.084 246.745 196.032 246.745ZM205.468 244.165C207.553 244.165 208.503 242.576 208.503 239.479V238.819C208.503 235.846 207.471 234.174 205.427 234.174C203.363 234.174 202.31 235.764 202.31 238.819V239.521C202.31 242.617 203.404 244.165 205.468 244.165ZM205.386 246.787C201.464 246.787 198.966 244.062 198.966 239.541V238.839C198.966 234.298 201.608 231.594 205.406 231.594C209.205 231.594 211.826 234.195 211.826 238.778V239.459C211.826 243.979 209.37 246.787 205.386 246.787ZM220.184 244.165C222.269 244.165 223.218 242.576 223.218 239.479V238.819C223.218 235.846 222.186 234.174 220.143 234.174C218.078 234.174 217.026 235.764 217.026 238.819V239.521C217.026 242.617 218.12 244.165 220.184 244.165ZM220.101 246.787C216.179 246.787 213.682 244.062 213.682 239.541V238.839C213.682 234.298 216.324 231.594 220.122 231.594C223.92 231.594 226.542 234.195 226.542 238.778V239.459C226.542 243.979 224.085 246.787 220.101 246.787Z" fill="#181818"/>
<g clip-path="url(#clip0_1522_6311)">
<g clip-path="url(#clip1_1522_6311)">
<path d="M282.306 235.615H297.593V250.902H282.306V235.615Z" fill="#012169"/>
<path d="M297.593 235.615V237.526L291.92 243.258L297.593 248.841V250.902H295.592L289.89 245.288L284.336 250.902H282.306V248.871L287.859 243.288L282.306 237.824V235.615H284.157L289.89 241.228L295.443 235.615H297.593Z" fill="white"/>
<path d="M287.8 245.288L288.128 246.304L283.56 250.902H282.306V250.812L287.8 245.288ZM291.502 244.93L293.114 245.169L297.593 249.558V250.902L291.502 244.93ZM297.593 235.615L291.86 241.467L291.741 240.153L296.219 235.615H297.593ZM282.306 235.645L288.068 241.288L286.307 241.049L282.306 237.078V235.645Z" fill="#C8102E"/>
<path d="M287.561 235.615V250.902H292.338V235.615H287.561ZM282.306 240.87V245.647H297.593V240.87H282.306Z" fill="white"/>
<path d="M282.306 241.825V244.691H297.593V241.825H282.306ZM288.516 235.615V250.902H291.383V235.615H288.516Z" fill="#C8102E"/>
</g>
</g>
<path d="M310.105 248.18C306.835 248.18 304.963 245.906 304.963 242.8V242.681C304.963 239.574 307.058 237.256 310.105 237.256C312.215 237.256 314.103 238.237 314.43 240.63H313.137C312.84 238.935 311.68 238.281 310.135 238.281C307.697 238.281 306.3 240.065 306.3 242.666V242.785C306.3 245.415 307.608 247.139 310.105 247.139C312.409 247.139 313.404 245.638 313.449 243.751H310.343V242.681H314.712V243.468C314.712 246.545 312.825 248.18 310.105 248.18ZM316.579 248.046L316.579 237.419H319.774C321.751 237.419 323.193 238.073 323.193 240.169V240.228C323.193 241.194 322.806 242.056 321.587 242.473C323.133 242.844 323.713 243.632 323.713 245.014V245.073C323.713 247.08 322.345 248.046 320.22 248.046H316.579ZM317.842 247.035H320.19C321.736 247.035 322.45 246.352 322.45 245.059V244.999C322.45 243.691 321.721 243.067 320.012 243.067H317.842V247.035ZM317.842 242.056H319.774C321.335 242.056 321.929 241.492 321.929 240.184V240.124C321.929 238.92 321.231 238.43 319.745 238.43H317.842V242.056ZM325.527 248.046L325.527 237.419H328.544C330.58 237.419 332.26 238.311 332.26 240.526V240.585C332.26 242.844 330.565 243.721 328.544 243.721H326.82V248.046H325.527ZM326.82 242.695H328.633C330.149 242.695 330.967 241.952 330.967 240.585V240.526C330.967 239.025 330.075 238.46 328.633 238.46H326.82V242.695Z" fill="#181818"/>
<path d="M347.022 241.238L351.15 245.367L355.279 241.238" stroke="black" stroke-opacity="0.5" stroke-width="1.65136" stroke-linecap="round" stroke-linejoin="round"/>
<g filter="url(#filter1_d_1522_6311)">
<path d="M171.562 179.607C188.407 179.607 202.062 166.487 202.062 150.303C202.062 134.12 188.407 121 171.562 121C154.717 121 141.062 134.12 141.062 150.303C141.062 166.487 154.717 179.607 171.562 179.607Z" fill="white"/>
<path d="M171.562 178.874C187.986 178.874 201.299 166.083 201.299 150.304C201.299 134.524 187.986 121.733 171.562 121.733C155.138 121.733 141.825 134.524 141.825 150.304C141.825 166.083 155.138 178.874 171.562 178.874Z" stroke="black" stroke-opacity="0.1" stroke-width="1.80211"/>
<path d="M168.512 157.63V137.117L162.412 142.977M174.612 142.977V163.49L180.71 157.63" stroke="#FFD900" stroke-width="3.6042" stroke-linecap="round" stroke-linejoin="round"/>
</g>
<defs>
<filter id="filter0_d_1522_6311" x="197.21" y="57.2417" width="7.74457" height="5.9075" filterUnits="userSpaceOnUse" color-interpolation-filters="sRGB">
<feFlood flood-opacity="0" result="BackgroundImageFix"/>
<feColorMatrix in="SourceAlpha" type="matrix" values="0 0 0 0 0 0 0 0 0 0 0 0 0 0 0 0 0 0 127 0" result="hardAlpha"/>
<feOffset dy="0.504298"/>
<feColorMatrix type="matrix" values="0 0 0 0 0 0 0 0 0 0 0 0 0 0 0 0 0 0 0.06 0"/>
<feBlend mode="normal" in2="BackgroundImageFix" result="effect1_dropShadow_1522_6311"/>
<feBlend mode="normal" in="SourceGraphic" in2="effect1_dropShadow_1522_6311" result="shape"/>
</filter>
<filter id="filter1_d_1522_6311" x="107.328" y="92.0357" width="128.468" height="126.134" filterUnits="userSpaceOnUse" color-interpolation-filters="sRGB">
<feFlood flood-opacity="0" result="BackgroundImageFix"/>
<feColorMatrix in="SourceAlpha" type="matrix" values="0 0 0 0 0 0 0 0 0 0 0 0 0 0 0 0 0 0 127 0" result="hardAlpha"/>
<feOffset dy="4.79933"/>
<feGaussianBlur stdDeviation="16.7977"/>
<feComposite in2="hardAlpha" operator="out"/>
<feColorMatrix type="matrix" values="0 0 0 0 0 0 0 0 0 0 0 0 0 0 0 0 0 0 0.08 0"/>
<feBlend mode="normal" in2="BackgroundImageFix" result="effect1_dropShadow_1522_6311"/>
<feBlend mode="normal" in="SourceGraphic" in2="effect1_dropShadow_1522_6311" result="shape"/>
</filter>
<linearGradient id="paint0_linear_1522_6311" x1="197.21" y1="57.2417" x2="197.21" y2="62.6449" gradientUnits="userSpaceOnUse">
<stop stop-color="white"/>
<stop offset="1" stop-color="#F0F0F0"/>
</linearGradient>
<clipPath id="clip0_1522_6311">
<rect x="282.517" y="235.615" width="14.8623" height="14.8623" rx="7.43113" fill="white"/>
</clipPath>
<clipPath id="clip1_1522_6311">
<rect width="15.2869" height="15.2869" fill="white" transform="translate(282.306 235.615)"/>
</clipPath>
</defs>
</svg>
