<svg width="473" height="707" viewBox="0 0 473 707" fill="none" xmlns="http://www.w3.org/2000/svg">
<g clip-path="url(#clip0_1106_2977)">
<g filter="url(#filter0_ii_1106_2977)">
<path d="M3.26207 246.106C3.26207 208.106 3.26207 189.106 10.6574 174.592C17.1625 161.825 27.5424 151.445 40.3094 144.94C54.8235 137.545 73.8236 137.545 111.824 137.545L361.176 137.545C399.176 137.545 418.176 137.545 432.691 144.94C445.458 151.445 455.837 161.825 462.343 174.592C469.738 189.106 469.738 208.106 469.738 246.106L469.738 383.505L471.695 383.505C472.416 383.505 473 384.089 473 384.81L473 495.72C473 496.441 472.416 497.025 471.695 497.025L469.738 497.025L469.738 986.074C469.738 1024.07 469.738 1043.07 462.343 1057.59C455.837 1070.36 445.458 1080.74 432.691 1087.24C418.176 1094.64 399.176 1094.64 361.176 1094.64L111.824 1094.64C73.8236 1094.64 54.8235 1094.64 40.3094 1087.24C27.5424 1080.74 17.1625 1070.36 10.6574 1057.59C3.26205 1043.07 3.26205 1024.07 3.26205 986.074L3.26206 519.859L1.30482 519.859C0.584184 519.859 -6.67072e-06 519.275 -6.65812e-06 518.554L-5.42683e-06 448.094C-5.41423e-06 447.373 0.584186 446.789 1.30482 446.789L3.26206 446.789L3.26206 430.479L1.30482 430.479C0.584186 430.479 -5.10879e-06 429.894 -5.0962e-06 429.174L-3.8649e-06 358.713C-3.85231e-06 357.992 0.584187 357.408 1.30482 357.408L3.26207 357.408L3.26207 326.745L1.30482 326.745C0.584188 326.745 -3.29605e-06 326.161 -3.28346e-06 325.44L-2.66781e-06 290.21C-2.65522e-06 289.489 0.584189 288.905 1.30482 288.905L3.26207 288.905L3.26207 246.106Z" fill="url(#paint0_linear_1106_2977)"/>
</g>
<g filter="url(#filter1_i_1106_2977)">
<path fill-rule="evenodd" clip-rule="evenodd" d="M15.3788 177.318C8.4812 190.855 8.4812 208.576 8.4812 244.019L8.4812 988.162C8.4812 1023.6 8.4812 1041.33 15.3788 1054.86C21.446 1066.77 31.1273 1076.45 43.0349 1082.52C56.5722 1089.42 74.2934 1089.42 109.736 1089.42L363.264 1089.42C398.706 1089.42 416.428 1089.42 429.965 1082.52C441.872 1076.45 451.554 1066.77 457.621 1054.86C464.518 1041.33 464.518 1023.6 464.518 988.162L464.518 244.019C464.518 208.576 464.518 190.855 457.621 177.318C451.554 165.41 441.872 155.729 429.965 149.662C416.428 142.764 398.706 142.764 363.264 142.764L109.736 142.764C74.2934 142.764 56.5722 142.764 43.0349 149.662C31.1273 155.729 21.446 165.41 15.3788 177.318ZM26.0964 232.014C26.0964 207.168 26.0964 194.745 30.9318 185.255C35.1851 176.907 41.972 170.12 50.3196 165.867C59.8096 161.032 72.2328 161.032 97.079 161.032L118.884 161.032C119.964 161.032 120.504 161.032 120.937 161.189C121.661 161.453 122.232 162.024 122.496 162.749C122.654 163.181 122.654 163.721 122.654 164.801C122.654 173.441 122.654 177.761 123.913 181.22C126.023 187.019 130.591 191.587 136.39 193.698C139.85 194.957 144.17 194.957 152.81 194.957L320.19 194.957C328.83 194.957 333.15 194.957 336.609 193.698C342.408 191.587 346.976 187.019 349.087 181.22C350.346 177.761 350.346 173.441 350.346 164.801C350.346 163.721 350.346 163.181 350.503 162.749C350.767 162.024 351.338 161.453 352.063 161.189C352.496 161.032 353.036 161.032 354.116 161.032L375.921 161.032C400.767 161.032 413.19 161.032 422.68 165.867C431.028 170.12 437.815 176.907 442.068 185.255C446.903 194.745 446.903 207.168 446.903 232.014L446.903 1000.17C446.903 1025.01 446.903 1037.44 442.068 1046.93C437.815 1055.27 431.028 1062.06 422.68 1066.31C413.19 1071.15 400.767 1071.15 375.921 1071.15L97.079 1071.15C72.2328 1071.15 59.8096 1071.15 50.3196 1066.31C41.972 1062.06 35.1851 1055.27 30.9318 1046.93C26.0964 1037.44 26.0964 1025.01 26.0964 1000.17L26.0964 232.014Z" fill="#F2F2F2"/>
</g>
<g filter="url(#filter2_dii_1106_2977)">
<path d="M211.382 173.428C211.382 170.905 213.427 168.861 215.949 168.861L257.703 168.861C260.225 168.861 262.27 170.905 262.27 173.428C262.27 175.95 260.225 177.994 257.703 177.994L215.949 177.994C213.427 177.994 211.382 175.95 211.382 173.428Z" fill="#F2F2F2"/>
<path d="M211.708 173.428C211.708 171.085 213.607 169.187 215.949 169.187L257.703 169.187C260.045 169.187 261.944 171.085 261.944 173.428C261.944 175.77 260.045 177.668 257.703 177.668L215.949 177.668C213.607 177.668 211.708 175.77 211.708 173.428Z" stroke="url(#paint1_linear_1106_2977)" stroke-width="0.652414"/>
</g>
<g filter="url(#filter3_dii_1106_2977)">
<path d="M272.709 173.428C272.709 168.383 276.798 164.294 281.843 164.294C286.887 164.294 290.977 168.383 290.977 173.428C290.977 178.472 286.887 182.561 281.843 182.561C276.798 182.561 272.709 178.472 272.709 173.428Z" fill="#F2F2F2"/>
</g>
<g filter="url(#filter4_i_1106_2977)">
<path d="M286.409 173.428C286.409 170.905 284.365 168.861 281.843 168.861C279.32 168.861 277.276 170.905 277.276 173.428C277.276 175.95 279.32 177.994 281.843 177.994C284.365 177.994 286.409 175.95 286.409 173.428Z" fill="url(#paint2_radial_1106_2977)"/>
<path d="M286.409 173.428C286.409 170.905 284.365 168.861 281.843 168.861C279.32 168.861 277.276 170.905 277.276 173.428C277.276 175.95 279.32 177.994 281.843 177.994C284.365 177.994 286.409 175.95 286.409 173.428Z" fill="url(#paint3_radial_1106_2977)" fill-opacity="0.17"/>
<path d="M286.409 173.428C286.409 170.905 284.365 168.861 281.843 168.861C279.32 168.861 277.276 170.905 277.276 173.428C277.276 175.95 279.32 177.994 281.843 177.994C284.365 177.994 286.409 175.95 286.409 173.428Z" fill="url(#paint4_radial_1106_2977)" fill-opacity="0.23"/>
</g>
<g style="mix-blend-mode:overlay">
<rect width="5.87172" height="7.17655" transform="matrix(1 8.5481e-07 8.54812e-07 1 366.656 137.545)" fill="url(#paint5_linear_1106_2977)"/>
</g>
<g style="mix-blend-mode:overlay">
<rect width="5.87172" height="7.17655" transform="matrix(1.10465e-06 1 -1 -1.19207e-06 469.738 236.059)" fill="url(#paint6_linear_1106_2977)"/>
</g>
<g style="mix-blend-mode:overlay">
<rect width="5.87172" height="7.17655" transform="matrix(1.19889e-06 1 1 1.11146e-06 3.26196 236.059)" fill="url(#paint7_linear_1106_2977)"/>
</g>
<path d="M30.9321 185.255C26.0967 194.745 26.0967 207.168 26.0967 232.014L26.0967 1000.17C26.0967 1025.01 26.0967 1037.44 30.9321 1046.93C35.1854 1055.27 41.9723 1062.06 50.3199 1066.31C59.8099 1071.15 72.2331 1071.15 97.0793 1071.15L375.921 1071.15C400.767 1071.15 413.19 1071.15 422.68 1066.31C431.028 1062.06 437.815 1055.27 442.068 1046.93C446.904 1037.44 446.904 1025.01 446.904 1000.17L446.904 232.014C446.904 207.168 446.904 194.745 442.068 185.255C437.815 176.907 431.028 170.12 422.68 165.867C413.19 161.032 400.767 161.032 375.921 161.032L354.116 161.032C353.036 161.032 352.496 161.032 352.063 161.189C351.339 161.453 350.768 162.024 350.504 162.749C350.346 163.181 350.346 163.721 350.346 164.801C350.346 173.441 350.346 177.761 349.087 181.22C346.977 187.019 342.409 191.588 336.61 193.698C333.15 194.957 328.83 194.957 320.19 194.957L152.81 194.957C144.17 194.957 139.85 194.957 136.391 193.698C130.592 191.588 126.024 187.019 123.913 181.22C122.654 177.761 122.654 173.441 122.654 164.801C122.654 163.721 122.654 163.181 122.497 162.749C122.233 162.024 121.662 161.453 120.937 161.189C120.504 161.032 119.964 161.032 118.884 161.032L97.0793 161.032C72.2331 161.032 59.8099 161.032 50.3199 165.867C41.9723 170.12 35.1854 176.907 30.9321 185.255Z" fill="white"/>
<g clip-path="url(#clip1_1106_2977)">
<g filter="url(#filter5_d_1106_2977)">
<rect x="41.1365" y="371.232" width="391.496" height="76.3328" rx="12.8887" fill="white" shape-rendering="crispEdges"/>
<path d="M65.2112 403.724C62.3692 403.724 61.0642 402.39 60.9337 400.317H63.1812C63.2827 401.245 63.6742 402.013 65.2112 402.013C66.2407 402.013 66.9222 401.448 66.9222 400.636C66.9222 399.809 66.4872 399.519 64.9647 399.287C62.3112 398.939 61.2237 398.142 61.2237 396.141C61.2237 394.372 62.7027 393.052 64.9937 393.052C67.3282 393.052 68.6911 394.096 68.8796 396.155H66.7192C66.5742 395.213 66.0232 394.778 64.9937 394.778C63.9642 394.778 63.4422 395.256 63.4422 395.952C63.4422 396.692 63.7757 397.04 65.3707 397.272C67.8791 397.591 69.1696 398.272 69.1696 400.418C69.1696 402.26 67.6616 403.724 65.2112 403.724ZM72.8347 403.724C71.3557 403.724 70.2537 402.854 70.2537 400.868V395.981H72.3417V400.578C72.3417 401.607 72.7622 402.1 73.6612 402.1C74.5457 402.1 75.2417 401.549 75.2417 400.433V395.981H77.3296V403.565H75.2417V402.376C74.8502 403.144 74.0817 403.724 72.8347 403.724ZM81.655 403.724C79.6105 403.724 78.4215 402.825 78.349 401.187H80.3065C80.3935 401.868 80.727 402.26 81.6405 402.26C82.4525 402.26 82.8295 401.955 82.8295 401.433C82.8295 400.911 82.38 400.694 81.2925 400.534C79.277 400.23 78.494 399.65 78.494 398.171C78.494 396.59 79.944 395.807 81.4955 395.807C83.1775 395.807 84.439 396.416 84.6275 398.156H82.699C82.583 397.533 82.235 397.243 81.51 397.243C80.8285 397.243 80.437 397.562 80.437 398.026C80.437 398.504 80.7995 398.693 81.9015 398.852C83.801 399.128 84.845 399.606 84.845 401.23C84.845 402.869 83.656 403.724 81.655 403.724ZM85.8883 406.146V395.981H87.9908V397.17C88.4113 396.445 89.2957 395.807 90.4122 395.807C92.2682 395.807 93.7182 397.185 93.7182 399.693V399.809C93.7182 402.318 92.2972 403.724 90.4122 403.724C89.2377 403.724 88.3823 403.144 87.9908 402.405V406.146H85.8883ZM89.7887 402.086C90.9487 402.086 91.5867 401.303 91.5867 399.824V399.708C91.5867 398.171 90.8327 397.417 89.7742 397.417C88.6723 397.417 87.9183 398.185 87.9183 399.708V399.824C87.9183 401.346 88.6433 402.086 89.7887 402.086ZM98.3251 403.724C96.0341 403.724 94.3666 402.289 94.3666 399.867V399.751C94.3666 397.359 96.0631 395.807 98.2671 395.807C100.225 395.807 101.965 396.953 101.965 399.664V400.244H96.4981C96.5561 401.506 97.2376 402.231 98.3831 402.231C99.3546 402.231 99.8331 401.81 99.9636 401.172H101.95C101.704 402.811 100.399 403.724 98.3251 403.724ZM96.5271 398.954H99.9201C99.8476 397.808 99.2676 397.257 98.2671 397.257C97.3246 397.257 96.6866 397.881 96.5271 398.954ZM103.051 403.565V395.981H105.153V397.185C105.53 396.431 106.357 395.807 107.618 395.807C109.112 395.807 110.17 396.706 110.17 398.736V403.565H108.068V399.041C108.068 398.011 107.662 397.518 106.734 397.518C105.835 397.518 105.153 398.069 105.153 399.186V403.565H103.051ZM114.524 403.724C112.682 403.724 111.232 402.405 111.232 399.882V399.766C111.232 397.272 112.668 395.807 114.567 395.807C115.785 395.807 116.539 396.344 116.96 397.112V392.545H119.047V403.565H116.96V402.303C116.568 403.072 115.64 403.724 114.524 403.724ZM115.147 402.086C116.249 402.086 117.018 401.346 117.018 399.809V399.693C117.018 398.185 116.351 397.417 115.205 397.417C114.031 397.417 113.378 398.214 113.378 399.722V399.838C113.378 401.346 114.103 402.086 115.147 402.086ZM126.985 403.724C124.766 403.724 123.084 402.347 123.084 399.867V399.751C123.084 397.301 124.839 395.807 126.999 395.807C128.754 395.807 130.378 396.576 130.566 398.751H128.58C128.435 397.866 127.898 397.46 127.043 397.46C125.955 397.46 125.23 398.272 125.23 399.722V399.838C125.23 401.361 125.912 402.144 127.086 402.144C127.927 402.144 128.609 401.651 128.71 400.679H130.61C130.494 402.477 129.189 403.724 126.985 403.724ZM133.685 403.724C132.308 403.724 131.148 403.057 131.148 401.462C131.148 399.693 132.772 399.026 135.092 399.026H135.947V398.722C135.947 397.823 135.672 397.33 134.715 397.33C133.888 397.33 133.511 397.75 133.424 398.403H131.438C131.568 396.605 132.989 395.807 134.845 395.807C136.701 395.807 138.021 396.561 138.021 398.62V403.565H135.976V402.651C135.541 403.26 134.874 403.724 133.685 403.724ZM134.309 402.26C135.237 402.26 135.947 401.752 135.947 400.911V400.273H135.135C133.917 400.273 133.207 400.534 133.207 401.346C133.207 401.897 133.54 402.26 134.309 402.26ZM139.535 403.565V395.981H141.638V397.431C142.116 396.416 142.856 395.88 144.088 395.865V397.823C142.537 397.808 141.638 398.316 141.638 399.766V403.565H139.535ZM147.879 403.724C146.037 403.724 144.587 402.405 144.587 399.882V399.766C144.587 397.272 146.023 395.807 147.922 395.807C149.14 395.807 149.894 396.344 150.315 397.112V392.545H152.403V403.565H150.315V402.303C149.923 403.072 148.995 403.724 147.879 403.724ZM148.502 402.086C149.604 402.086 150.373 401.346 150.373 399.809V399.693C150.373 398.185 149.706 397.417 148.56 397.417C147.386 397.417 146.733 398.214 146.733 399.722V399.838C146.733 401.346 147.458 402.086 148.502 402.086Z" fill="#181818"/>
<path d="M61.5409 426.231V418.168H62.522V426.231H61.5409ZM64.319 426.231V420.333H65.2551V421.269C65.5257 420.717 66.1799 420.232 67.1497 420.232C68.3677 420.232 69.2248 420.897 69.2248 422.611V426.231H68.2888V422.544C68.2888 421.506 67.8489 421.044 66.9016 421.044C66.0332 421.044 65.2551 421.596 65.2551 422.656V426.231H64.319ZM72.6606 426.333C71.2509 426.333 70.4051 425.622 70.3487 424.416H71.2622C71.3299 425.115 71.702 425.555 72.6493 425.555C73.5403 425.555 73.935 425.25 73.935 424.619C73.935 423.998 73.4726 423.795 72.5591 423.626C71.0254 423.344 70.5066 422.916 70.5066 421.889C70.5066 420.795 71.578 420.232 72.5027 420.232C73.5628 420.232 74.4763 420.66 74.6342 421.935H73.732C73.5967 421.292 73.2358 421.01 72.4915 421.01C71.8148 421.01 71.375 421.348 71.375 421.856C71.375 422.386 71.6682 422.6 72.7508 422.792C73.9688 423.017 74.8259 423.288 74.8259 424.54C74.8259 425.611 74.0929 426.333 72.6606 426.333ZM77.8198 426.31C76.7484 426.31 76.2296 425.679 76.2296 424.754V421.123H75.3838V420.333H76.2296V418.991H77.1657V420.333H78.5416V421.123H77.1657V424.664C77.1657 425.239 77.4251 425.521 77.8987 425.521C78.192 425.521 78.4175 425.476 78.6205 425.397V426.186C78.4288 426.254 78.2032 426.31 77.8198 426.31ZM81.3424 426.333C80.2485 426.333 79.3801 425.803 79.3801 424.596C79.3801 423.231 80.8236 422.769 82.3348 422.769H83.1806V422.341C83.1806 421.404 82.8198 421.01 81.9176 421.01C81.1056 421.01 80.6545 421.348 80.5642 422.07H79.6282C79.7522 420.728 80.8236 420.232 81.9627 420.232C83.0904 420.232 84.1167 420.694 84.1167 422.341V426.231H83.1806V425.487C82.7408 426.04 82.2108 426.333 81.3424 426.333ZM81.4326 425.588C82.425 425.588 83.1806 425.081 83.1806 424.168V423.434H82.3687C81.1845 423.434 80.3161 423.728 80.3161 424.596C80.3161 425.205 80.6093 425.588 81.4326 425.588ZM85.7298 426.231V420.333H86.6659V421.269C86.9365 420.717 87.5907 420.232 88.5605 420.232C89.7785 420.232 90.6356 420.897 90.6356 422.611V426.231H89.6996V422.544C89.6996 421.506 89.2597 421.044 88.3124 421.044C87.444 421.044 86.6659 421.596 86.6659 422.656V426.231H85.7298ZM94.0376 426.31C92.9662 426.31 92.4474 425.679 92.4474 424.754V421.123H91.6016V420.333H92.4474V418.991H93.3835V420.333H94.7594V421.123H93.3835V424.664C93.3835 425.239 93.6429 425.521 94.1165 425.521C94.4098 425.521 94.6353 425.476 94.8383 425.397V426.186C94.6466 426.254 94.421 426.31 94.0376 426.31ZM96.0503 426.231V417.514H96.9976V426.231H96.0503ZM99.2177 428.284L100.334 425.622L98.0223 420.333H99.026L100.83 424.562L102.466 420.333H103.424L100.165 428.284H99.2177ZM109.017 426.333C107.608 426.333 106.762 425.622 106.705 424.416H107.619C107.687 425.115 108.059 425.555 109.006 425.555C109.897 425.555 110.292 425.25 110.292 424.619C110.292 423.998 109.829 423.795 108.916 423.626C107.382 423.344 106.863 422.916 106.863 421.889C106.863 420.795 107.935 420.232 108.86 420.232C109.92 420.232 110.833 420.66 110.991 421.935H110.089C109.953 421.292 109.593 421.01 108.848 421.01C108.172 421.01 107.732 421.348 107.732 421.856C107.732 422.386 108.025 422.6 109.108 422.792C110.326 423.017 111.183 423.288 111.183 424.54C111.183 425.611 110.45 426.333 109.017 426.333ZM114.38 426.333C113.207 426.333 112.327 425.69 112.327 424.066V420.333H113.263V424.021C113.263 425.058 113.703 425.521 114.628 425.521C115.462 425.521 116.252 424.968 116.252 423.908V420.333H117.188V426.231H116.252V425.295C115.981 425.848 115.327 426.333 114.38 426.333ZM120.681 426.333C119.271 426.333 118.425 425.622 118.369 424.416H119.283C119.35 425.115 119.722 425.555 120.67 425.555C121.561 425.555 121.955 425.25 121.955 424.619C121.955 423.998 121.493 423.795 120.579 423.626C119.046 423.344 118.527 422.916 118.527 421.889C118.527 420.795 119.598 420.232 120.523 420.232C121.583 420.232 122.497 420.66 122.655 421.935H121.752C121.617 421.292 121.256 421.01 120.512 421.01C119.835 421.01 119.395 421.348 119.395 421.856C119.395 422.386 119.689 422.6 120.771 422.792C121.989 423.017 122.846 423.288 122.846 424.54C122.846 425.611 122.113 426.333 120.681 426.333ZM124.047 428.284V420.333H124.983V421.326C125.321 420.75 126.122 420.232 126.979 420.232C128.524 420.232 129.663 421.359 129.663 423.198V423.288C129.663 425.092 128.603 426.333 126.979 426.333C126.009 426.333 125.321 425.848 124.983 425.261V428.284H124.047ZM126.889 425.555C128.062 425.555 128.693 424.765 128.693 423.333V423.243C128.693 421.754 127.87 421.01 126.878 421.01C125.784 421.01 124.949 421.732 124.949 423.243V423.333C124.949 424.844 125.739 425.555 126.889 425.555ZM133.305 426.333C131.636 426.333 130.452 425.16 130.452 423.344V423.254C130.452 421.472 131.591 420.232 133.215 420.232C134.58 420.232 135.865 421.055 135.865 423.164V423.468H131.422C131.467 424.81 132.11 425.555 133.317 425.555C134.23 425.555 134.76 425.216 134.884 424.528H135.82C135.617 425.713 134.636 426.333 133.305 426.333ZM131.456 422.713H134.907C134.817 421.495 134.185 421.01 133.215 421.01C132.257 421.01 131.614 421.664 131.456 422.713ZM137.076 426.231V420.333H138.012V421.269C138.283 420.717 138.937 420.232 139.907 420.232C141.125 420.232 141.982 420.897 141.982 422.611V426.231H141.046V422.544C141.046 421.506 140.606 421.044 139.659 421.044C138.79 421.044 138.012 421.596 138.012 422.656V426.231H137.076ZM145.812 426.333C144.267 426.333 143.151 425.239 143.151 423.401V423.31C143.151 421.506 144.279 420.232 145.903 420.232C146.884 420.232 147.493 420.705 147.831 421.28V417.514H148.767V426.231H147.831V425.216C147.493 425.791 146.67 426.333 145.812 426.333ZM145.914 425.555C147.008 425.555 147.865 424.833 147.865 423.322V423.231C147.865 421.72 147.143 421.01 145.993 421.01C144.82 421.01 144.121 421.833 144.121 423.265V423.356C144.121 424.844 144.922 425.555 145.914 425.555ZM153.725 428.284L154.841 425.622L152.529 420.333H153.533L155.338 424.562L156.973 420.333H157.931L154.672 428.284H153.725ZM161.232 425.555C162.416 425.555 163.16 424.664 163.16 423.333V423.254C163.16 421.889 162.405 421.01 161.232 421.01C160.048 421.01 159.303 421.889 159.303 423.243V423.333C159.303 424.675 160.036 425.555 161.232 425.555ZM161.221 426.333C159.54 426.333 158.334 425.058 158.334 423.333V423.243C158.334 421.472 159.563 420.232 161.232 420.232C162.901 420.232 164.13 421.461 164.13 423.231V423.322C164.13 425.104 162.901 426.333 161.221 426.333ZM167.35 426.333C166.177 426.333 165.298 425.69 165.298 424.066V420.333H166.234V424.021C166.234 425.058 166.674 425.521 167.598 425.521C168.433 425.521 169.222 424.968 169.222 423.908V420.333H170.158V426.231H169.222V425.295C168.952 425.848 168.297 426.333 167.35 426.333ZM171.825 426.231V420.333H172.761V421.393C173.133 420.728 173.64 420.265 174.7 420.232V421.111C173.516 421.168 172.761 421.54 172.761 422.995V426.231H171.825ZM181.045 426.333C179.399 426.333 178.158 425.171 178.158 423.344V423.254C178.158 421.45 179.444 420.232 181.023 420.232C182.252 420.232 183.403 420.795 183.583 422.295H182.658C182.512 421.359 181.835 421.01 181.023 421.01C179.952 421.01 179.128 421.867 179.128 423.254V423.344C179.128 424.788 179.918 425.555 181.057 425.555C181.891 425.555 182.647 425.07 182.748 424.111H183.617C183.493 425.385 182.466 426.333 181.045 426.333ZM186.282 426.333C185.188 426.333 184.32 425.803 184.32 424.596C184.32 423.231 185.763 422.769 187.274 422.769H188.12V422.341C188.12 421.404 187.759 421.01 186.857 421.01C186.045 421.01 185.594 421.348 185.504 422.07H184.568C184.692 420.728 185.763 420.232 186.902 420.232C188.03 420.232 189.056 420.694 189.056 422.341V426.231H188.12V425.487C187.68 426.04 187.15 426.333 186.282 426.333ZM186.372 425.588C187.364 425.588 188.12 425.081 188.12 424.168V423.434H187.308C186.124 423.434 185.256 423.728 185.256 424.596C185.256 425.205 185.549 425.588 186.372 425.588ZM190.669 426.231V420.333H191.605V421.393C191.977 420.728 192.485 420.265 193.545 420.232V421.111C192.361 421.168 191.605 421.54 191.605 422.995V426.231H190.669ZM196.74 426.333C195.195 426.333 194.079 425.239 194.079 423.401V423.31C194.079 421.506 195.207 420.232 196.831 420.232C197.812 420.232 198.421 420.705 198.759 421.28V417.514H199.695V426.231H198.759V425.216C198.421 425.791 197.597 426.333 196.74 426.333ZM196.842 425.555C197.936 425.555 198.793 424.833 198.793 423.322V423.231C198.793 421.72 198.071 421.01 196.921 421.01C195.748 421.01 195.049 421.833 195.049 423.265V423.356C195.049 424.844 195.849 425.555 196.842 425.555ZM204.326 426.231V421.123H203.48V420.333H204.326V419.375C204.326 418.179 204.912 417.48 206.085 417.48C206.39 417.48 206.547 417.514 206.784 417.593V418.382C206.615 418.314 206.378 418.258 206.119 418.258C205.51 418.258 205.262 418.675 205.262 419.273V420.333H206.705V421.123H205.262V426.231H204.326ZM209.968 425.555C211.152 425.555 211.897 424.664 211.897 423.333V423.254C211.897 421.889 211.141 421.01 209.968 421.01C208.784 421.01 208.04 421.889 208.04 423.243V423.333C208.04 424.675 208.773 425.555 209.968 425.555ZM209.957 426.333C208.276 426.333 207.07 425.058 207.07 423.333V423.243C207.07 421.472 208.299 420.232 209.968 420.232C211.637 420.232 212.866 421.461 212.866 423.231V423.322C212.866 425.104 211.637 426.333 209.957 426.333ZM214.09 426.231V420.333H215.026V421.393C215.398 420.728 215.906 420.265 216.966 420.232V421.111C215.782 421.168 215.026 421.54 215.026 422.995V426.231H214.09ZM222.341 426.333C221.247 426.333 220.379 425.803 220.379 424.596C220.379 423.231 221.822 422.769 223.334 422.769H224.18V422.341C224.18 421.404 223.819 421.01 222.916 421.01C222.104 421.01 221.653 421.348 221.563 422.07H220.627C220.751 420.728 221.822 420.232 222.962 420.232C224.089 420.232 225.116 420.694 225.116 422.341V426.231H224.18V425.487C223.74 426.04 223.21 426.333 222.341 426.333ZM222.431 425.588C223.424 425.588 224.18 425.081 224.18 424.168V423.434H223.368C222.183 423.434 221.315 423.728 221.315 424.596C221.315 425.205 221.608 425.588 222.431 425.588ZM228.95 426.333C227.405 426.333 226.289 425.239 226.289 423.401V423.31C226.289 421.506 227.417 420.232 229.041 420.232C230.022 420.232 230.631 420.705 230.969 421.28V417.514H231.905V426.231H230.969V425.216C230.631 425.791 229.807 426.333 228.95 426.333ZM229.052 425.555C230.146 425.555 231.003 424.833 231.003 423.322V423.231C231.003 421.72 230.281 421.01 229.131 421.01C227.958 421.01 227.259 421.833 227.259 423.265V423.356C227.259 424.844 228.059 425.555 229.052 425.555ZM235.795 426.333C234.25 426.333 233.134 425.239 233.134 423.401V423.31C233.134 421.506 234.262 420.232 235.886 420.232C236.867 420.232 237.476 420.705 237.814 421.28V417.514H238.75V426.231H237.814V425.216C237.476 425.791 236.652 426.333 235.795 426.333ZM235.897 425.555C236.991 425.555 237.848 424.833 237.848 423.322V423.231C237.848 421.72 237.126 421.01 235.976 421.01C234.803 421.01 234.104 421.833 234.104 423.265V423.356C234.104 424.844 234.904 425.555 235.897 425.555ZM242.832 426.333C241.163 426.333 239.979 425.16 239.979 423.344V423.254C239.979 421.472 241.118 420.232 242.742 420.232C244.106 420.232 245.392 421.055 245.392 423.164V423.468H240.949C240.994 424.81 241.637 425.555 242.843 425.555C243.757 425.555 244.287 425.216 244.411 424.528H245.347C245.144 425.713 244.163 426.333 242.832 426.333ZM240.983 422.713H244.434C244.343 421.495 243.712 421.01 242.742 421.01C241.783 421.01 241.14 421.664 240.983 422.713ZM248.825 426.333C247.28 426.333 246.163 425.239 246.163 423.401V423.31C246.163 421.506 247.291 420.232 248.915 420.232C249.896 420.232 250.505 420.705 250.843 421.28V417.514H251.779V426.231H250.843V425.216C250.505 425.791 249.682 426.333 248.825 426.333ZM248.926 425.555C250.02 425.555 250.877 424.833 250.877 423.322V423.231C250.877 421.72 250.155 421.01 249.005 421.01C247.832 421.01 247.133 421.833 247.133 423.265V423.356C247.133 424.844 247.934 425.555 248.926 425.555ZM258.034 426.333C256.624 426.333 255.778 425.622 255.722 424.416H256.636C256.703 425.115 257.075 425.555 258.023 425.555C258.914 425.555 259.308 425.25 259.308 424.619C259.308 423.998 258.846 423.795 257.932 423.626C256.399 423.344 255.88 422.916 255.88 421.889C255.88 420.795 256.951 420.232 257.876 420.232C258.936 420.232 259.85 420.66 260.008 421.935H259.105C258.97 421.292 258.609 421.01 257.865 421.01C257.188 421.01 256.748 421.348 256.748 421.856C256.748 422.386 257.042 422.6 258.124 422.792C259.342 423.017 260.199 423.288 260.199 424.54C260.199 425.611 259.466 426.333 258.034 426.333ZM263.813 426.333C262.144 426.333 260.96 425.16 260.96 423.344V423.254C260.96 421.472 262.099 420.232 263.723 420.232C265.088 420.232 266.373 421.055 266.373 423.164V423.468H261.93C261.975 424.81 262.618 425.555 263.825 425.555C264.738 425.555 265.268 425.216 265.392 424.528H266.328C266.125 425.713 265.144 426.333 263.813 426.333ZM261.964 422.713H265.415C265.325 421.495 264.693 421.01 263.723 421.01C262.765 421.01 262.122 421.664 261.964 422.713ZM270.031 426.333C268.385 426.333 267.144 425.171 267.144 423.344V423.254C267.144 421.45 268.43 420.232 270.009 420.232C271.238 420.232 272.388 420.795 272.569 422.295H271.644C271.498 421.359 270.821 421.01 270.009 421.01C268.938 421.01 268.114 421.867 268.114 423.254V423.344C268.114 424.788 268.904 425.555 270.043 425.555C270.877 425.555 271.633 425.07 271.734 424.111H272.603C272.479 425.385 271.452 426.333 270.031 426.333ZM275.787 426.333C274.614 426.333 273.734 425.69 273.734 424.066V420.333H274.67V424.021C274.67 425.058 275.11 425.521 276.035 425.521C276.869 425.521 277.659 424.968 277.659 423.908V420.333H278.595V426.231H277.659V425.295C277.388 425.848 276.734 426.333 275.787 426.333ZM280.261 426.231V420.333H281.197V421.393C281.569 420.728 282.077 420.265 283.137 420.232V421.111C281.953 421.168 281.197 421.54 281.197 422.995V426.231H280.261ZM284.298 426.231V420.333H285.234V426.231H284.298ZM284.749 419.104C284.411 419.104 284.129 418.822 284.129 418.484C284.129 418.145 284.411 417.863 284.749 417.863C285.088 417.863 285.369 418.145 285.369 418.484C285.369 418.822 285.088 419.104 284.749 419.104ZM288.718 426.31C287.646 426.31 287.127 425.679 287.127 424.754V421.123H286.282V420.333H287.127V418.991H288.064V420.333H289.439V421.123H288.064V424.664C288.064 425.239 288.323 425.521 288.797 425.521C289.09 425.521 289.315 425.476 289.518 425.397V426.186C289.327 426.254 289.101 426.31 288.718 426.31ZM291.238 428.284L292.354 425.622L290.042 420.333H291.046L292.851 424.562L294.486 420.333H295.444L292.185 428.284H291.238ZM300.688 426.333C299.594 426.333 298.726 425.803 298.726 424.596C298.726 423.231 300.169 422.769 301.68 422.769H302.526V422.341C302.526 421.404 302.165 421.01 301.263 421.01C300.451 421.01 300 421.348 299.91 422.07H298.974C299.098 420.728 300.169 420.232 301.308 420.232C302.436 420.232 303.462 420.694 303.462 422.341V426.231H302.526V425.487C302.086 426.04 301.556 426.333 300.688 426.333ZM300.778 425.588C301.771 425.588 302.526 425.081 302.526 424.168V423.434H301.714C300.53 423.434 299.662 423.728 299.662 424.596C299.662 425.205 299.955 425.588 300.778 425.588ZM305.075 426.231V420.333H306.011V421.269C306.282 420.717 306.936 420.232 307.906 420.232C309.124 420.232 309.981 420.897 309.981 422.611V426.231H309.045V422.544C309.045 421.506 308.605 421.044 307.658 421.044C306.79 421.044 306.011 421.596 306.011 422.656V426.231H305.075ZM313.812 426.333C312.267 426.333 311.15 425.239 311.15 423.401V423.31C311.15 421.506 312.278 420.232 313.902 420.232C314.883 420.232 315.492 420.705 315.83 421.28V417.514H316.766V426.231H315.83V425.216C315.492 425.791 314.669 426.333 313.812 426.333ZM313.913 425.555C315.007 425.555 315.864 424.833 315.864 423.322V423.231C315.864 421.72 315.142 421.01 313.992 421.01C312.819 421.01 312.12 421.833 312.12 423.265V423.356C312.12 424.844 312.921 425.555 313.913 425.555ZM321.194 428.284V420.333H322.13V421.326C322.468 420.75 323.269 420.232 324.126 420.232C325.671 420.232 326.81 421.359 326.81 423.198V423.288C326.81 425.092 325.75 426.333 324.126 426.333C323.156 426.333 322.468 425.848 322.13 425.261V428.284H321.194ZM324.036 425.555C325.209 425.555 325.84 424.765 325.84 423.333V423.243C325.84 421.754 325.017 421.01 324.025 421.01C322.931 421.01 322.096 421.732 322.096 423.243V423.333C322.096 424.844 322.886 425.555 324.036 425.555ZM330.452 426.333C328.783 426.333 327.599 425.16 327.599 423.344V423.254C327.599 421.472 328.738 420.232 330.362 420.232C331.727 420.232 333.012 421.055 333.012 423.164V423.468H328.569C328.614 424.81 329.257 425.555 330.464 425.555C331.377 425.555 331.907 425.216 332.031 424.528H332.967C332.764 425.713 331.783 426.333 330.452 426.333ZM328.603 422.713H332.054C331.964 421.495 331.332 421.01 330.362 421.01C329.404 421.01 328.761 421.664 328.603 422.713ZM335.756 426.333C334.662 426.333 333.793 425.803 333.793 424.596C333.793 423.231 335.237 422.769 336.748 422.769H337.594V422.341C337.594 421.404 337.233 421.01 336.331 421.01C335.519 421.01 335.068 421.348 334.978 422.07H334.041C334.166 420.728 335.237 420.232 336.376 420.232C337.504 420.232 338.53 420.694 338.53 422.341V426.231H337.594V425.487C337.154 426.04 336.624 426.333 335.756 426.333ZM335.846 425.588C336.838 425.588 337.594 425.081 337.594 424.168V423.434H336.782C335.598 423.434 334.729 423.728 334.729 424.596C334.729 425.205 335.023 425.588 335.846 425.588ZM342.59 426.333C340.944 426.333 339.703 425.171 339.703 423.344V423.254C339.703 421.45 340.989 420.232 342.568 420.232C343.797 420.232 344.947 420.795 345.128 422.295H344.203C344.056 421.359 343.38 421.01 342.568 421.01C341.496 421.01 340.673 421.867 340.673 423.254V423.344C340.673 424.788 341.463 425.555 342.602 425.555C343.436 425.555 344.192 425.07 344.293 424.111H345.162C345.038 425.385 344.011 426.333 342.59 426.333ZM348.763 426.333C347.094 426.333 345.91 425.16 345.91 423.344V423.254C345.91 421.472 347.049 420.232 348.673 420.232C350.037 420.232 351.323 421.055 351.323 423.164V423.468H346.879C346.924 424.81 347.567 425.555 348.774 425.555C349.688 425.555 350.218 425.216 350.342 424.528H351.278C351.075 425.713 350.094 426.333 348.763 426.333ZM346.913 422.713H350.364C350.274 421.495 349.642 421.01 348.673 421.01C347.714 421.01 347.071 421.664 346.913 422.713ZM357.751 425.555C358.935 425.555 359.68 424.664 359.68 423.333V423.254C359.68 421.889 358.924 421.01 357.751 421.01C356.567 421.01 355.823 421.889 355.823 423.243V423.333C355.823 424.675 356.556 425.555 357.751 425.555ZM357.74 426.333C356.059 426.333 354.853 425.058 354.853 423.333V423.243C354.853 421.472 356.082 420.232 357.751 420.232C359.42 420.232 360.649 421.461 360.649 423.231V423.322C360.649 425.104 359.42 426.333 357.74 426.333ZM362.076 426.231V421.123H361.23V420.333H362.076V419.375C362.076 418.179 362.663 417.48 363.836 417.48C364.14 417.48 364.298 417.514 364.535 417.593V418.382C364.366 418.314 364.129 418.258 363.869 418.258C363.26 418.258 363.012 418.675 363.012 419.273V420.333H364.456V421.123H363.012V426.231H362.076ZM368.306 426.231V420.333H369.242V421.235C369.512 420.683 370.155 420.232 371.001 420.232C371.757 420.232 372.422 420.547 372.726 421.337C373.132 420.57 374.012 420.232 374.745 420.232C375.805 420.232 376.73 420.863 376.73 422.577V426.231H375.794V422.51C375.794 421.472 375.354 421.044 374.542 421.044C373.775 421.044 372.986 421.562 372.986 422.622V426.231H372.05V422.51C372.05 421.472 371.61 421.044 370.798 421.044C370.031 421.044 369.242 421.562 369.242 422.622V426.231H368.306ZM378.367 426.231V420.333H379.303V426.231H378.367ZM378.818 419.104C378.48 419.104 378.198 418.822 378.198 418.484C378.198 418.145 378.48 417.863 378.818 417.863C379.156 417.863 379.438 418.145 379.438 418.484C379.438 418.822 379.156 419.104 378.818 419.104ZM380.993 426.231V420.333H381.929V421.269C382.2 420.717 382.854 420.232 383.824 420.232C385.042 420.232 385.899 420.897 385.899 422.611V426.231H384.963V422.544C384.963 421.506 384.523 421.044 383.576 421.044C382.708 421.044 381.929 421.596 381.929 422.656V426.231H380.993ZM389.73 426.333C388.185 426.333 387.068 425.239 387.068 423.401V423.31C387.068 421.506 388.196 420.232 389.82 420.232C390.801 420.232 391.41 420.705 391.748 421.28V417.514H392.684V426.231H391.748V425.216C391.41 425.791 390.587 426.333 389.73 426.333ZM389.831 425.555C390.925 425.555 391.782 424.833 391.782 423.322V423.231C391.782 421.72 391.06 421.01 389.91 421.01C388.737 421.01 388.038 421.833 388.038 423.265V423.356C388.038 424.844 388.839 425.555 389.831 425.555ZM394.996 426.288C394.601 426.288 394.274 425.972 394.274 425.566C394.274 425.16 394.601 424.844 394.996 424.844C395.39 424.844 395.718 425.16 395.718 425.566C395.718 425.972 395.39 426.288 394.996 426.288Z" fill="black" fill-opacity="0.5"/>
</g>
</g>
</g>
<defs>
<filter id="filter0_ii_1106_2977" x="0" y="136.24" width="473" height="961.005" filterUnits="userSpaceOnUse" color-interpolation-filters="sRGB">
<feFlood flood-opacity="0" result="BackgroundImageFix"/>
<feBlend mode="normal" in="SourceGraphic" in2="BackgroundImageFix" result="shape"/>
<feColorMatrix in="SourceAlpha" type="matrix" values="0 0 0 0 0 0 0 0 0 0 0 0 0 0 0 0 0 0 127 0" result="hardAlpha"/>
<feOffset dy="2.60966"/>
<feGaussianBlur stdDeviation="1.30483"/>
<feComposite in2="hardAlpha" operator="arithmetic" k2="-1" k3="1"/>
<feColorMatrix type="matrix" values="0 0 0 0 1 0 0 0 0 1 0 0 0 0 1 0 0 0 0.5 0"/>
<feBlend mode="normal" in2="shape" result="effect1_innerShadow_1106_2977"/>
<feColorMatrix in="SourceAlpha" type="matrix" values="0 0 0 0 0 0 0 0 0 0 0 0 0 0 0 0 0 0 127 0" result="hardAlpha"/>
<feOffset dy="-4.5669"/>
<feGaussianBlur stdDeviation="0.652414"/>
<feComposite in2="hardAlpha" operator="arithmetic" k2="-1" k3="1"/>
<feColorMatrix type="matrix" values="0 0 0 0 0 0 0 0 0 0 0 0 0 0 0 0 0 0 0.15 0"/>
<feBlend mode="normal" in2="effect1_innerShadow_1106_2977" result="effect2_innerShadow_1106_2977"/>
</filter>
<filter id="filter1_i_1106_2977" x="8.4812" y="142.764" width="456.037" height="947.957" filterUnits="userSpaceOnUse" color-interpolation-filters="sRGB">
<feFlood flood-opacity="0" result="BackgroundImageFix"/>
<feBlend mode="normal" in="SourceGraphic" in2="BackgroundImageFix" result="shape"/>
<feColorMatrix in="SourceAlpha" type="matrix" values="0 0 0 0 0 0 0 0 0 0 0 0 0 0 0 0 0 0 127 0" result="hardAlpha"/>
<feOffset dy="1.30483"/>
<feGaussianBlur stdDeviation="1.30483"/>
<feComposite in2="hardAlpha" operator="arithmetic" k2="-1" k3="1"/>
<feColorMatrix type="matrix" values="0 0 0 0 0 0 0 0 0 0 0 0 0 0 0 0 0 0 0.15 0"/>
<feBlend mode="normal" in2="shape" result="effect1_innerShadow_1106_2977"/>
</filter>
<filter id="filter2_dii_1106_2977" x="207.794" y="166.577" width="56.1075" height="15.3317" filterUnits="userSpaceOnUse" color-interpolation-filters="sRGB">
<feFlood flood-opacity="0" result="BackgroundImageFix"/>
<feColorMatrix in="SourceAlpha" type="matrix" values="0 0 0 0 0 0 0 0 0 0 0 0 0 0 0 0 0 0 127 0" result="hardAlpha"/>
<feOffset dx="-0.978621" dy="1.30483"/>
<feGaussianBlur stdDeviation="1.30483"/>
<feColorMatrix type="matrix" values="0 0 0 0 0 0 0 0 0 0 0 0 0 0 0 0 0 0 0.1 0"/>
<feBlend mode="normal" in2="BackgroundImageFix" result="effect1_dropShadow_1106_2977"/>
<feBlend mode="normal" in="SourceGraphic" in2="effect1_dropShadow_1106_2977" result="shape"/>
<feColorMatrix in="SourceAlpha" type="matrix" values="0 0 0 0 0 0 0 0 0 0 0 0 0 0 0 0 0 0 127 0" result="hardAlpha"/>
<feOffset dx="1.63103" dy="-2.28345"/>
<feGaussianBlur stdDeviation="1.30483"/>
<feComposite in2="hardAlpha" operator="arithmetic" k2="-1" k3="1"/>
<feColorMatrix type="matrix" values="0 0 0 0 1 0 0 0 0 1 0 0 0 0 1 0 0 0 1 0"/>
<feBlend mode="normal" in2="shape" result="effect2_innerShadow_1106_2977"/>
<feColorMatrix in="SourceAlpha" type="matrix" values="0 0 0 0 0 0 0 0 0 0 0 0 0 0 0 0 0 0 127 0" result="hardAlpha"/>
<feOffset dx="-1.30483" dy="1.30483"/>
<feGaussianBlur stdDeviation="0.978621"/>
<feComposite in2="hardAlpha" operator="arithmetic" k2="-1" k3="1"/>
<feColorMatrix type="matrix" values="0 0 0 0 0 0 0 0 0 0 0 0 0 0 0 0 0 0 0.1 0"/>
<feBlend mode="normal" in2="effect2_innerShadow_1106_2977" result="effect3_innerShadow_1106_2977"/>
</filter>
<filter id="filter3_dii_1106_2977" x="269.121" y="162.01" width="23.4869" height="24.4655" filterUnits="userSpaceOnUse" color-interpolation-filters="sRGB">
<feFlood flood-opacity="0" result="BackgroundImageFix"/>
<feColorMatrix in="SourceAlpha" type="matrix" values="0 0 0 0 0 0 0 0 0 0 0 0 0 0 0 0 0 0 127 0" result="hardAlpha"/>
<feOffset dx="-0.978621" dy="1.30483"/>
<feGaussianBlur stdDeviation="1.30483"/>
<feColorMatrix type="matrix" values="0 0 0 0 0 0 0 0 0 0 0 0 0 0 0 0 0 0 0.1 0"/>
<feBlend mode="normal" in2="BackgroundImageFix" result="effect1_dropShadow_1106_2977"/>
<feBlend mode="normal" in="SourceGraphic" in2="effect1_dropShadow_1106_2977" result="shape"/>
<feColorMatrix in="SourceAlpha" type="matrix" values="0 0 0 0 0 0 0 0 0 0 0 0 0 0 0 0 0 0 127 0" result="hardAlpha"/>
<feOffset dx="1.63103" dy="-2.28345"/>
<feGaussianBlur stdDeviation="1.30483"/>
<feComposite in2="hardAlpha" operator="arithmetic" k2="-1" k3="1"/>
<feColorMatrix type="matrix" values="0 0 0 0 1 0 0 0 0 1 0 0 0 0 1 0 0 0 1 0"/>
<feBlend mode="normal" in2="shape" result="effect2_innerShadow_1106_2977"/>
<feColorMatrix in="SourceAlpha" type="matrix" values="0 0 0 0 0 0 0 0 0 0 0 0 0 0 0 0 0 0 127 0" result="hardAlpha"/>
<feOffset dx="-1.30483" dy="1.30483"/>
<feGaussianBlur stdDeviation="0.978621"/>
<feComposite in2="hardAlpha" operator="arithmetic" k2="-1" k3="1"/>
<feColorMatrix type="matrix" values="0 0 0 0 0 0 0 0 0 0 0 0 0 0 0 0 0 0 0.1 0"/>
<feBlend mode="normal" in2="effect2_innerShadow_1106_2977" result="effect3_innerShadow_1106_2977"/>
</filter>
<filter id="filter4_i_1106_2977" x="275.971" y="168.861" width="10.4386" height="11.091" filterUnits="userSpaceOnUse" color-interpolation-filters="sRGB">
<feFlood flood-opacity="0" result="BackgroundImageFix"/>
<feBlend mode="normal" in="SourceGraphic" in2="BackgroundImageFix" result="shape"/>
<feColorMatrix in="SourceAlpha" type="matrix" values="0 0 0 0 0 0 0 0 0 0 0 0 0 0 0 0 0 0 127 0" result="hardAlpha"/>
<feOffset dx="-1.30483" dy="1.95724"/>
<feGaussianBlur stdDeviation="0.978621"/>
<feComposite in2="hardAlpha" operator="arithmetic" k2="-1" k3="1"/>
<feColorMatrix type="matrix" values="0 0 0 0 1 0 0 0 0 1 0 0 0 0 1 0 0 0 0.65 0"/>
<feBlend mode="normal" in2="shape" result="effect1_innerShadow_1106_2977"/>
</filter>
<filter id="filter5_d_1106_2977" x="31.4699" y="361.565" width="410.829" height="95.6659" filterUnits="userSpaceOnUse" color-interpolation-filters="sRGB">
<feFlood flood-opacity="0" result="BackgroundImageFix"/>
<feColorMatrix in="SourceAlpha" type="matrix" values="0 0 0 0 0 0 0 0 0 0 0 0 0 0 0 0 0 0 127 0" result="hardAlpha"/>
<feMorphology radius="1.61109" operator="dilate" in="SourceAlpha" result="effect1_dropShadow_1106_2977"/>
<feOffset/>
<feGaussianBlur stdDeviation="4.02773"/>
<feComposite in2="hardAlpha" operator="out"/>
<feColorMatrix type="matrix" values="0 0 0 0 0 0 0 0 0 0 0 0 0 0 0 0 0 0 0.05 0"/>
<feBlend mode="normal" in2="BackgroundImageFix" result="effect1_dropShadow_1106_2977"/>
<feBlend mode="normal" in="SourceGraphic" in2="effect1_dropShadow_1106_2977" result="shape"/>
</filter>
<linearGradient id="paint0_linear_1106_2977" x1="236.5" y1="137.545" x2="236.5" y2="1094.64" gradientUnits="userSpaceOnUse">
<stop stop-color="#F2F2F2"/>
<stop offset="1" stop-color="#E0E0E0"/>
</linearGradient>
<linearGradient id="paint1_linear_1106_2977" x1="236.826" y1="168.861" x2="236.826" y2="177.994" gradientUnits="userSpaceOnUse">
<stop stop-color="white"/>
<stop offset="0.483028" stop-color="#E0E0E0"/>
<stop offset="1" stop-color="white"/>
</linearGradient>
<radialGradient id="paint2_radial_1106_2977" cx="0" cy="0" r="1" gradientUnits="userSpaceOnUse" gradientTransform="translate(278.58 177.016) rotate(-41.6335) scale(7.8561 7.85611)">
<stop stop-color="#C4D9FD"/>
<stop offset="1" stop-color="#CCD3E0" stop-opacity="0"/>
</radialGradient>
<radialGradient id="paint3_radial_1106_2977" cx="0" cy="0" r="1" gradientUnits="userSpaceOnUse" gradientTransform="translate(283.474 173.754) rotate(118.61) scale(4.08736 4.08736)">
<stop offset="0.146834" stop-color="#EE62C7"/>
<stop offset="1" stop-color="#B36B16" stop-opacity="0"/>
</radialGradient>
<radialGradient id="paint4_radial_1106_2977" cx="0" cy="0" r="1" gradientUnits="userSpaceOnUse" gradientTransform="translate(282.821 169.839) rotate(107.65) scale(7.53107 7.53107)">
<stop stop-color="#6BDCD5"/>
<stop offset="1" stop-color="#15368A" stop-opacity="0"/>
</radialGradient>
<linearGradient id="paint5_linear_1106_2977" x1="2.93586" y1="0" x2="2.93586" y2="7.17655" gradientUnits="userSpaceOnUse">
<stop offset="0.71828" stop-color="white"/>
<stop offset="0.792202" stop-color="#272727" stop-opacity="0.3"/>
<stop offset="1" stop-opacity="0"/>
</linearGradient>
<linearGradient id="paint6_linear_1106_2977" x1="2.93586" y1="0" x2="2.93586" y2="7.17655" gradientUnits="userSpaceOnUse">
<stop offset="0.71828" stop-color="white"/>
<stop offset="0.792202" stop-color="#272727" stop-opacity="0.3"/>
<stop offset="1" stop-opacity="0"/>
</linearGradient>
<linearGradient id="paint7_linear_1106_2977" x1="2.93586" y1="0" x2="2.93586" y2="7.17655" gradientUnits="userSpaceOnUse">
<stop offset="0.71828" stop-color="white"/>
<stop offset="0.792202" stop-color="#272727" stop-opacity="0.3"/>
<stop offset="1" stop-opacity="0"/>
</linearGradient>
<clipPath id="clip0_1106_2977">
<rect width="473" height="707" fill="white"/>
</clipPath>
<clipPath id="clip1_1106_2977">
<rect width="394" height="189.423" fill="white" transform="translate(40 314.288)"/>
</clipPath>
</defs>
</svg>
