<svg width="190" height="190" viewBox="0 0 190 190" fill="none" xmlns="http://www.w3.org/2000/svg">
<path d="M50.3414 57.109C46.6174 57.109 44.9074 55.361 44.7364 52.644H47.6814C47.8144 53.86 48.3274 54.867 50.3414 54.867C51.6904 54.867 52.5834 54.126 52.5834 53.062C52.5834 51.979 52.0134 51.599 50.0184 51.295C46.5414 50.839 45.1164 49.794 45.1164 47.172C45.1164 44.854 47.0544 43.125 50.0564 43.125C53.1154 43.125 54.9014 44.493 55.1484 47.191H52.3174C52.1274 45.956 51.4054 45.386 50.0564 45.386C48.7074 45.386 48.0234 46.013 48.0234 46.925C48.0234 47.894 48.4604 48.35 50.5504 48.654C53.8374 49.072 55.5284 49.965 55.5284 52.777C55.5284 55.19 53.5524 57.109 50.3414 57.109ZM62.0767 57.109C59.0747 57.109 56.8897 55.228 56.8897 52.055V51.903C56.8897 48.768 59.1127 46.735 62.0007 46.735C64.5657 46.735 66.8457 48.236 66.8457 51.789V52.549H59.6827C59.7587 54.202 60.6517 55.152 62.1527 55.152C63.4257 55.152 64.0527 54.601 64.2237 53.765H66.8267C66.5037 55.912 64.7937 57.109 62.0767 57.109ZM59.7207 50.858H64.1667C64.0717 49.357 63.3117 48.635 62.0007 48.635C60.7657 48.635 59.9297 49.452 59.7207 50.858ZM68.6491 56.9V46.963H71.4041V48.54C71.8981 47.552 72.9811 46.735 74.6341 46.735C76.5911 46.735 77.9781 47.913 77.9781 50.573V56.9H75.2231V50.972C75.2231 49.623 74.6911 48.977 73.4751 48.977C72.2971 48.977 71.4041 49.699 71.4041 51.162V56.9H68.6491ZM84.0626 57.109C81.6496 57.109 79.7496 55.38 79.7496 52.074V51.922C79.7496 48.654 81.6306 46.735 84.1196 46.735C85.7156 46.735 86.7036 47.438 87.2546 48.445V42.46H89.9906V56.9H87.2546V55.247C86.7416 56.254 85.5256 57.109 84.0626 57.109ZM84.8796 54.962C86.3236 54.962 87.3306 53.993 87.3306 51.979V51.827C87.3306 49.851 86.4566 48.844 84.9556 48.844C83.4166 48.844 82.5616 49.889 82.5616 51.865V52.017C82.5616 53.993 83.5116 54.962 84.8796 54.962ZM100.885 59.465V57.09C97.5981 56.862 96.1921 55.057 96.0401 52.663H98.8521C98.9851 53.765 99.3841 54.658 100.885 54.886V51.219C97.8641 50.744 96.4201 49.642 96.4201 47.134C96.4201 44.949 98.1681 43.334 100.885 43.144V41.453H102.234V43.163C104.818 43.391 106.376 44.683 106.604 47.134H103.887C103.716 46.146 103.241 45.538 102.234 45.348V48.749C105.084 49.186 106.832 50.136 106.832 52.777C106.832 55.057 105.236 56.881 102.234 57.09V59.465H100.885ZM104.02 53.1C104.02 52.188 103.64 51.732 102.234 51.428V54.886C103.336 54.696 104.02 54.031 104.02 53.1ZM99.1561 46.887C99.1561 47.761 99.4791 48.236 100.885 48.521V45.31C99.7641 45.462 99.1561 46.089 99.1561 46.887ZM113.228 57.109C109.884 57.109 108.326 55.285 108.193 52.853H111.024C111.195 53.993 111.651 54.753 113.209 54.753C114.596 54.753 115.337 53.784 115.337 52.34C115.337 50.877 114.501 49.965 113.133 49.965C111.86 49.965 111.081 50.421 110.53 51.048H108.82L109.01 43.315H117.617V45.652H111.309L111.252 49.053C111.784 48.407 112.734 47.799 114.273 47.799C116.743 47.799 118.434 49.49 118.434 52.378C118.434 55.266 116.363 57.109 113.228 57.109ZM126.022 54.696C127.941 54.696 128.815 53.233 128.815 50.383V49.775C128.815 47.039 127.865 45.5 125.984 45.5C124.084 45.5 123.115 46.963 123.115 49.775V50.421C123.115 53.271 124.122 54.696 126.022 54.696ZM125.946 57.109C122.336 57.109 120.037 54.601 120.037 50.44V49.794C120.037 45.614 122.469 43.125 125.965 43.125C129.461 43.125 131.874 45.519 131.874 49.737V50.364C131.874 54.525 129.613 57.109 125.946 57.109ZM139.567 54.696C141.486 54.696 142.36 53.233 142.36 50.383V49.775C142.36 47.039 141.41 45.5 139.529 45.5C137.629 45.5 136.66 46.963 136.66 49.775V50.421C136.66 53.271 137.667 54.696 139.567 54.696ZM139.491 57.109C135.881 57.109 133.582 54.601 133.582 50.44V49.794C133.582 45.614 136.014 43.125 139.51 43.125C143.006 43.125 145.419 45.519 145.419 49.737V50.364C145.419 54.525 143.158 57.109 139.491 57.109Z" fill="#181818"/>
<rect x="32.6165" y="81.3833" width="124.767" height="27.2333" rx="6.01667" fill="#FFD900"/>
<rect x="32.6165" y="81.3833" width="124.767" height="27.2333" rx="6.01667" stroke="#FFD900" stroke-width="0.633333"/>
<path d="M57.4353 98L59.6165 91.6603H60.6273L62.7731 98H62.0105L61.3899 96.1735H58.7742L58.1624 98H57.4353ZM60.0865 92.2987L58.987 95.5617H61.1859L60.0865 92.2987ZM65.0977 98.0798C64.1756 98.0798 63.484 97.5744 63.484 96.2976V93.3627H64.2199V96.2621C64.2199 97.0779 64.5657 97.4414 65.2928 97.4414C65.9489 97.4414 66.5696 97.0069 66.5696 96.1735V93.3627H67.3055V98H66.5696V97.2641C66.3568 97.6985 65.8425 98.0798 65.0977 98.0798ZM70.0254 98.0621C69.183 98.0621 68.7752 97.5655 68.7752 96.8385V93.9834H68.1102V93.3627H68.7752V92.3076H69.5111V93.3627H70.5928V93.9834H69.5111V96.7675C69.5111 97.2197 69.715 97.4414 70.0874 97.4414C70.318 97.4414 70.4953 97.4059 70.6549 97.3439V97.9645C70.5042 98.0177 70.3268 98.0621 70.0254 98.0621ZM71.5901 98V91.1461H72.326V94.0987C72.5388 93.6642 73.0531 93.2829 73.8156 93.2829C74.7732 93.2829 75.4471 93.8061 75.4471 95.1538V98H74.7111V95.1006C74.7111 94.2849 74.3653 93.9213 73.6205 93.9213C72.9378 93.9213 72.326 94.3558 72.326 95.1893V98H71.5901ZM78.6449 97.468C79.5759 97.468 80.1611 96.7675 80.1611 95.7213V95.6592C80.1611 94.5863 79.567 93.8947 78.6449 93.8947C77.7139 93.8947 77.1287 94.5863 77.1287 95.6503V95.7213C77.1287 96.7764 77.705 97.468 78.6449 97.468ZM78.636 98.0798C77.3149 98.0798 76.3661 97.0779 76.3661 95.7213V95.6503C76.3661 94.2583 77.3326 93.2829 78.6449 93.2829C79.9571 93.2829 80.9236 94.2494 80.9236 95.6415V95.7124C80.9236 97.1133 79.9571 98.0798 78.636 98.0798ZM81.8858 98V93.3627H82.6217V94.1962C82.9143 93.6731 83.3133 93.3095 84.1468 93.2829V93.9745C83.2158 94.0189 82.6217 94.3115 82.6217 95.4553V98H81.8858ZM85.0598 98V93.3627H85.7958V98H85.0598ZM85.4145 92.3963C85.1485 92.3963 84.9268 92.1746 84.9268 91.9086C84.9268 91.6426 85.1485 91.4209 85.4145 91.4209C85.6805 91.4209 85.9022 91.6426 85.9022 91.9086C85.9022 92.1746 85.6805 92.3963 85.4145 92.3963ZM86.5661 98V97.8936L89.3059 93.9834H86.8321V93.3627H90.4409V93.4957L87.7631 97.3527H90.4054V98H86.5661ZM93.0877 98.0798C91.7754 98.0798 90.8444 97.1577 90.8444 95.7301V95.6592C90.8444 94.2583 91.74 93.2829 93.0168 93.2829C94.0896 93.2829 95.1004 93.9302 95.1004 95.5883V95.8277H91.607C91.6424 96.8828 92.1478 97.468 93.0966 97.468C93.8148 97.468 94.2315 97.202 94.329 96.6611H95.065C94.9054 97.5921 94.134 98.0798 93.0877 98.0798ZM91.6336 95.2336H94.3468C94.2758 94.276 93.7793 93.8947 93.0168 93.8947C92.2631 93.8947 91.7577 94.409 91.6336 95.2336ZM98.2216 99.6137V93.3627H98.9575V94.143C99.2235 93.6908 99.853 93.2829 100.527 93.2829C101.742 93.2829 102.637 94.1696 102.637 95.6149V95.6858C102.637 97.1045 101.804 98.0798 100.527 98.0798C99.7644 98.0798 99.2235 97.6985 98.9575 97.2375V99.6137H98.2216ZM100.456 97.468C101.378 97.468 101.875 96.8473 101.875 95.7213V95.6503C101.875 94.4799 101.227 93.8947 100.447 93.8947C99.587 93.8947 98.9309 94.4622 98.9309 95.6503V95.7213C98.9309 96.9094 99.5516 97.468 100.456 97.468ZM104.765 98.0798C103.905 98.0798 103.222 97.6631 103.222 96.7143C103.222 95.6415 104.357 95.2779 105.545 95.2779H106.21V94.941C106.21 94.2051 105.926 93.8947 105.217 93.8947C104.579 93.8947 104.224 94.1607 104.153 94.7282H103.417C103.515 93.6731 104.357 93.2829 105.252 93.2829C106.139 93.2829 106.946 93.6465 106.946 94.941V98H106.21V97.4148C105.864 97.8493 105.447 98.0798 104.765 98.0798ZM104.836 97.4946C105.616 97.4946 106.21 97.0956 106.21 96.3774V95.8011H105.572C104.641 95.8011 103.958 96.0316 103.958 96.7143C103.958 97.1931 104.188 97.4946 104.836 97.4946ZM108.501 99.6137L109.379 97.5212L107.561 93.3627H108.35L109.769 96.6877L111.055 93.3627H111.808L109.246 99.6137H108.501ZM112.6 98V93.3627H113.336V94.0721C113.549 93.6376 114.054 93.2829 114.719 93.2829C115.313 93.2829 115.836 93.5312 116.076 94.1519C116.395 93.5489 117.087 93.2829 117.663 93.2829C118.496 93.2829 119.224 93.7795 119.224 95.1272V98H118.488V95.074C118.488 94.2583 118.142 93.9213 117.503 93.9213C116.9 93.9213 116.28 94.3292 116.28 95.1627V98H115.544V95.074C115.544 94.2583 115.198 93.9213 114.56 93.9213C113.957 93.9213 113.336 94.3292 113.336 95.1627V98H112.6ZM122.39 98.0798C121.078 98.0798 120.147 97.1577 120.147 95.7301V95.6592C120.147 94.2583 121.043 93.2829 122.319 93.2829C123.392 93.2829 124.403 93.9302 124.403 95.5883V95.8277H120.91C120.945 96.8828 121.45 97.468 122.399 97.468C123.117 97.468 123.534 97.202 123.632 96.6611H124.368C124.208 97.5921 123.437 98.0798 122.39 98.0798ZM120.936 95.2336H123.649C123.578 94.276 123.082 93.8947 122.319 93.8947C121.566 93.8947 121.06 94.409 120.936 95.2336ZM125.355 98V93.3627H126.091V94.0987C126.304 93.6642 126.818 93.2829 127.58 93.2829C128.538 93.2829 129.212 93.8061 129.212 95.1538V98H128.476V95.1006C128.476 94.2849 128.13 93.9213 127.385 93.9213C126.703 93.9213 126.091 94.3558 126.091 95.1893V98H125.355ZM131.887 98.0621C131.044 98.0621 130.636 97.5655 130.636 96.8385V93.9834H129.971V93.3627H130.636V92.3076H131.372V93.3627H132.454V93.9834H131.372V96.7675C131.372 97.2197 131.576 97.4414 131.949 97.4414C132.179 97.4414 132.357 97.4059 132.516 97.3439V97.9645C132.365 98.0177 132.188 98.0621 131.887 98.0621Z" fill="#181818"/>
</svg>
