<svg width="445" height="305" viewBox="0 0 445 305" fill="none" xmlns="http://www.w3.org/2000/svg">
<g clip-path="url(#clip0_1536_8439)">
<rect width="445" height="305" rx="10" fill="#FFFDF2"/>
<rect x="40" y="64" width="334" height="188" rx="6.87243" fill="#FAFAFA"/>
<rect x="40.3436" y="64.3436" width="333.313" height="187.313" rx="6.52881" stroke="black" stroke-opacity="0.1" stroke-width="0.687243"/>
<g filter="url(#filter0_f_1536_8439)">
<path d="M51.3692 107.5L53.9202 100.085H55.1024L57.6119 107.5H56.7201L55.9942 105.364H52.9351L52.2195 107.5H51.3692ZM54.4698 100.832L53.184 104.648H55.7557L54.4698 100.832ZM58.6472 107.5V102.076H59.5079V102.906C59.7568 102.398 60.3478 101.983 61.1256 101.983C61.8204 101.983 62.4322 102.274 62.7122 102.999C63.0855 102.294 63.8944 101.983 64.5684 101.983C65.5432 101.983 66.3936 102.564 66.3936 104.14V107.5H65.5328V104.078C65.5328 103.124 65.1284 102.73 64.3818 102.73C63.6766 102.73 62.9507 103.207 62.9507 104.182V107.5H62.09V104.078C62.09 103.124 61.6856 102.73 60.9389 102.73C60.2338 102.73 59.5079 103.207 59.5079 104.182V107.5H58.6472ZM70.1387 106.878C71.2276 106.878 71.912 106.059 71.912 104.835V104.762C71.912 103.508 71.2172 102.699 70.1387 102.699C69.0499 102.699 68.3655 103.508 68.3655 104.752V104.835C68.3655 106.069 69.0395 106.878 70.1387 106.878ZM70.1284 107.593C68.5832 107.593 67.4737 106.422 67.4737 104.835V104.752C67.4737 103.124 68.604 101.983 70.1387 101.983C71.6735 101.983 72.8038 103.113 72.8038 104.742V104.825C72.8038 106.463 71.6735 107.593 70.1284 107.593ZM75.7646 107.593C74.6862 107.593 73.8773 107.002 73.8773 105.509V102.076H74.738V105.467C74.738 106.422 75.1424 106.847 75.9928 106.847C76.7602 106.847 77.4861 106.339 77.4861 105.364V102.076H78.3468V107.5H77.4861V106.639C77.2372 107.147 76.6357 107.593 75.7646 107.593ZM79.8789 107.5V102.076H80.7396V102.937C80.9885 102.429 81.59 101.983 82.4818 101.983C83.6018 101.983 84.3899 102.595 84.3899 104.171V107.5H83.5292V104.109C83.5292 103.155 83.1247 102.73 82.2537 102.73C81.4552 102.73 80.7396 103.238 80.7396 104.213V107.5H79.8789ZM87.5181 107.573C86.5329 107.573 86.0559 106.992 86.0559 106.142V102.802H85.2781V102.076H86.0559V100.842H86.9166V102.076H88.1817V102.802H86.9166V106.059C86.9166 106.587 87.1551 106.847 87.5906 106.847C87.8603 106.847 88.0677 106.805 88.2543 106.733V107.459C88.078 107.521 87.8706 107.573 87.5181 107.573ZM93.5339 107.573C92.5487 107.573 92.0717 106.992 92.0717 106.142V102.802H91.294V102.076H92.0717V100.842H92.9324V102.076H94.1976V102.802H92.9324V106.059C92.9324 106.587 93.1709 106.847 93.6065 106.847C93.8761 106.847 94.0835 106.805 94.2701 106.733V107.459C94.0939 107.521 93.8865 107.573 93.5339 107.573ZM97.583 107.593C96.0483 107.593 94.9594 106.515 94.9594 104.845V104.762C94.9594 103.124 96.0068 101.983 97.5001 101.983C98.7548 101.983 99.937 102.74 99.937 104.679V104.959H95.8512C95.8927 106.193 96.4838 106.878 97.5934 106.878C98.4334 106.878 98.9208 106.567 99.0348 105.934H99.8955C99.7089 107.023 98.8067 107.593 97.583 107.593ZM95.8824 104.265H99.0556C98.9726 103.145 98.3919 102.699 97.5001 102.699C96.6186 102.699 96.0275 103.3 95.8824 104.265ZM101.05 107.5V102.076H101.911V102.937C102.16 102.429 102.761 101.983 103.653 101.983C104.773 101.983 105.561 102.595 105.561 104.171V107.5H104.701V104.109C104.701 103.155 104.296 102.73 103.425 102.73C102.627 102.73 101.911 103.238 101.911 104.213V107.5H101.05ZM109.084 107.593C107.663 107.593 106.636 106.587 106.636 104.897V104.814C106.636 103.155 107.673 101.983 109.166 101.983C110.069 101.983 110.629 102.419 110.94 102.948V99.484H111.8V107.5H110.94V106.567C110.629 107.096 109.872 107.593 109.084 107.593ZM109.177 106.878C110.183 106.878 110.971 106.214 110.971 104.825V104.742C110.971 103.352 110.307 102.699 109.249 102.699C108.171 102.699 107.528 103.456 107.528 104.773V104.856C107.528 106.224 108.264 106.878 109.177 106.878ZM115.554 107.593C114.019 107.593 112.93 106.515 112.93 104.845V104.762C112.93 103.124 113.978 101.983 115.471 101.983C116.726 101.983 117.908 102.74 117.908 104.679V104.959H113.822C113.864 106.193 114.455 106.878 115.564 106.878C116.404 106.878 116.892 106.567 117.006 105.934H117.866C117.68 107.023 116.778 107.593 115.554 107.593ZM113.853 104.265H117.026C116.943 103.145 116.363 102.699 115.471 102.699C114.59 102.699 113.998 103.3 113.853 104.265ZM119.021 107.5V102.076H119.882V103.051C120.224 102.439 120.691 102.014 121.666 101.983V102.792C120.577 102.844 119.882 103.186 119.882 104.524V107.5H119.021ZM124.78 107.593C123.245 107.593 122.156 106.515 122.156 104.845V104.762C122.156 103.124 123.204 101.983 124.697 101.983C125.952 101.983 127.134 102.74 127.134 104.679V104.959H123.048C123.09 106.193 123.681 106.878 124.79 106.878C125.63 106.878 126.118 106.567 126.232 105.934H127.092C126.906 107.023 126.004 107.593 124.78 107.593ZM123.079 104.265H126.253C126.17 103.145 125.589 102.699 124.697 102.699C123.816 102.699 123.224 103.3 123.079 104.265ZM130.29 107.593C128.869 107.593 127.843 106.587 127.843 104.897V104.814C127.843 103.155 128.88 101.983 130.373 101.983C131.275 101.983 131.835 102.419 132.146 102.948V99.484H133.007V107.5H132.146V106.567C131.835 107.096 131.078 107.593 130.29 107.593ZM130.384 106.878C131.389 106.878 132.178 106.214 132.178 104.825V104.742C132.178 103.352 131.514 102.699 130.456 102.699C129.378 102.699 128.735 103.456 128.735 104.773V104.856C128.735 106.224 129.471 106.878 130.384 106.878Z" fill="black"/>
</g>
<path d="M321.657 108.117C319.655 108.117 318.693 107.012 318.563 105.491H319.642C319.824 106.505 320.227 107.207 321.644 107.207C322.905 107.207 323.685 106.362 323.685 104.958C323.685 103.645 322.918 102.787 321.735 102.787C320.656 102.787 320.032 103.125 319.538 103.684H319.122V98.705H324.348V99.68H320.058V102.514C320.435 102.163 321.072 101.877 321.956 101.877C323.62 101.877 324.842 103.06 324.842 104.958C324.842 106.921 323.425 108.117 321.657 108.117ZM329.783 107.181C331.408 107.181 332.24 105.933 332.24 103.58V103.06C332.24 100.902 331.33 99.498 329.757 99.498C328.184 99.498 327.248 100.798 327.248 103.086V103.606C327.248 105.959 328.236 107.181 329.783 107.181ZM329.783 108.117C327.56 108.117 326.091 106.323 326.091 103.619V103.099C326.091 100.356 327.482 98.588 329.757 98.588C332.045 98.588 333.384 100.421 333.384 103.073V103.593C333.384 106.297 332.071 108.117 329.783 108.117ZM338.371 107.181C339.996 107.181 340.828 105.933 340.828 103.58V103.06C340.828 100.902 339.918 99.498 338.345 99.498C336.772 99.498 335.836 100.798 335.836 103.086V103.606C335.836 105.959 336.824 107.181 338.371 107.181ZM338.371 108.117C336.148 108.117 334.679 106.323 334.679 103.619V103.099C334.679 100.356 336.07 98.588 338.345 98.588C340.633 98.588 341.972 100.421 341.972 103.073V103.593C341.972 106.297 340.659 108.117 338.371 108.117ZM343.673 108.065C343.218 108.065 342.841 107.701 342.841 107.233C342.841 106.765 343.218 106.401 343.673 106.401C344.128 106.401 344.505 106.765 344.505 107.233C344.505 107.701 344.128 108.065 343.673 108.065ZM349.074 107.181C350.699 107.181 351.531 105.933 351.531 103.58V103.06C351.531 100.902 350.621 99.498 349.048 99.498C347.475 99.498 346.539 100.798 346.539 103.086V103.606C346.539 105.959 347.527 107.181 349.074 107.181ZM349.074 108.117C346.851 108.117 345.382 106.323 345.382 103.619V103.099C345.382 100.356 346.773 98.588 349.048 98.588C351.336 98.588 352.675 100.421 352.675 103.073V103.593C352.675 106.297 351.362 108.117 349.074 108.117ZM357.662 107.181C359.287 107.181 360.119 105.933 360.119 103.58V103.06C360.119 100.902 359.209 99.498 357.636 99.498C356.063 99.498 355.127 100.798 355.127 103.086V103.606C355.127 105.959 356.115 107.181 357.662 107.181ZM357.662 108.117C355.439 108.117 353.97 106.323 353.97 103.619V103.099C353.97 100.356 355.361 98.588 357.636 98.588C359.924 98.588 361.263 100.421 361.263 103.073V103.593C361.263 106.297 359.95 108.117 357.662 108.117Z" fill="black"/>
<g filter="url(#filter1_f_1536_8439)">
<path d="M55.0298 143.593C52.8832 143.593 51.5662 142.121 51.5662 139.839V139.756C51.5662 137.558 53.0388 135.971 55.0506 135.971C56.5957 135.971 57.9023 136.791 58.0579 138.398H57.166C56.9794 137.268 56.3261 136.687 55.0609 136.687C53.5262 136.687 52.4995 137.879 52.4995 139.746V139.829C52.4995 141.716 53.4536 142.857 55.0506 142.857C56.2638 142.857 57.1038 142.245 57.2905 141.042H58.1304C57.8712 142.753 56.689 143.593 55.0298 143.593ZM61.4952 142.878C62.584 142.878 63.2685 142.059 63.2685 140.835V140.762C63.2685 139.508 62.5737 138.699 61.4952 138.699C60.4063 138.699 59.7219 139.508 59.7219 140.752V140.835C59.7219 142.069 60.396 142.878 61.4952 142.878ZM61.4848 143.593C59.9397 143.593 58.8301 142.422 58.8301 140.835V140.752C58.8301 139.124 59.9604 137.983 61.4952 137.983C63.0299 137.983 64.1603 139.113 64.1603 140.742V140.825C64.1603 142.463 63.0299 143.593 61.4848 143.593ZM65.2856 143.5V138.076H66.1463V138.937C66.3952 138.429 66.9966 137.983 67.8885 137.983C69.0084 137.983 69.7965 138.595 69.7965 140.171V143.5H68.9358V140.109C68.9358 139.155 68.5314 138.73 67.6603 138.73C66.8618 138.73 66.1463 139.238 66.1463 140.213V143.5H65.2856ZM72.5331 143.5L70.5628 138.076H71.4961L73.1034 142.629L74.69 138.076H75.5819L73.6323 143.5H72.5331ZM78.5739 143.593C77.0392 143.593 75.9503 142.515 75.9503 140.845V140.762C75.9503 139.124 76.9977 137.983 78.491 137.983C79.7457 137.983 80.9279 138.74 80.9279 140.679V140.959H76.8421C76.8836 142.193 77.4747 142.878 78.5843 142.878C79.4243 142.878 79.9117 142.567 80.0257 141.934H80.8864C80.6998 143.023 79.7976 143.593 78.5739 143.593ZM76.8732 140.265H80.0465C79.9635 139.145 79.3828 138.699 78.491 138.699C77.6095 138.699 77.0184 139.3 76.8732 140.265ZM82.0412 143.5V138.076H82.9019V139.051C83.2442 138.439 83.7108 138.014 84.6856 137.983V138.792C83.5967 138.844 82.9019 139.186 82.9019 140.524V143.5H82.0412ZM87.362 143.593C86.0658 143.593 85.288 142.94 85.2362 141.83H86.0761C86.1384 142.473 86.4806 142.878 87.3516 142.878C88.1709 142.878 88.5338 142.598 88.5338 142.017C88.5338 141.447 88.1087 141.26 87.2687 141.105C85.8584 140.845 85.3813 140.451 85.3813 139.508C85.3813 138.502 86.3665 137.983 87.2168 137.983C88.1916 137.983 89.0316 138.377 89.1768 139.549H88.3472C88.2227 138.958 87.8909 138.699 87.2065 138.699C86.5843 138.699 86.1798 139.01 86.1798 139.476C86.1798 139.964 86.4495 140.161 87.445 140.337C88.5649 140.545 89.3531 140.793 89.3531 141.944C89.3531 142.93 88.679 143.593 87.362 143.593ZM90.4779 143.5V138.076H91.3386V143.5H90.4779ZM90.8927 136.946C90.5816 136.946 90.3223 136.687 90.3223 136.376C90.3223 136.065 90.5816 135.805 90.8927 135.805C91.2038 135.805 91.463 136.065 91.463 136.376C91.463 136.687 91.2038 136.946 90.8927 136.946ZM95.1535 142.878C96.2424 142.878 96.9268 142.059 96.9268 140.835V140.762C96.9268 139.508 96.232 138.699 95.1535 138.699C94.0647 138.699 93.3803 139.508 93.3803 140.752V140.835C93.3803 142.069 94.0543 142.878 95.1535 142.878ZM95.1432 143.593C93.598 143.593 92.4884 142.422 92.4884 140.835V140.752C92.4884 139.124 93.6188 137.983 95.1535 137.983C96.6883 137.983 97.8186 139.113 97.8186 140.742V140.825C97.8186 142.463 96.6883 143.593 95.1432 143.593ZM98.9439 143.5V138.076H99.8046V138.937C100.054 138.429 100.655 137.983 101.547 137.983C102.667 137.983 103.455 138.595 103.455 140.171V143.5H102.594V140.109C102.594 139.155 102.19 138.73 101.319 138.73C100.52 138.73 99.8046 139.238 99.8046 140.213V143.5H98.9439ZM107.658 143.5V138.802H106.88V138.076H107.658V137.195C107.658 136.096 108.197 135.453 109.276 135.453C109.556 135.453 109.701 135.484 109.919 135.557V136.282C109.763 136.22 109.545 136.168 109.307 136.168C108.747 136.168 108.519 136.552 108.519 137.102V138.076H109.846V138.802H108.519V143.5H107.658ZM112.805 143.593C111.27 143.593 110.181 142.515 110.181 140.845V140.762C110.181 139.124 111.228 137.983 112.722 137.983C113.976 137.983 115.159 138.74 115.159 140.679V140.959H111.073C111.114 142.193 111.705 142.878 112.815 142.878C113.655 142.878 114.142 142.567 114.256 141.934H115.117C114.931 143.023 114.028 143.593 112.805 143.593ZM111.104 140.265H114.277C114.194 139.145 113.614 138.699 112.722 138.699C111.84 138.699 111.249 139.3 111.104 140.265ZM118.491 143.593C116.956 143.593 115.868 142.515 115.868 140.845V140.762C115.868 139.124 116.915 137.983 118.408 137.983C119.663 137.983 120.845 138.74 120.845 140.679V140.959H116.759C116.801 142.193 117.392 142.878 118.502 142.878C119.341 142.878 119.829 142.567 119.943 141.934H120.804C120.617 143.023 119.715 143.593 118.491 143.593ZM116.79 140.265H119.964C119.881 139.145 119.3 138.699 118.408 138.699C117.527 138.699 116.936 139.3 116.79 140.265Z" fill="black"/>
</g>
<path d="M322.784 140.932V139.918H325.566V140.932H322.784ZM332.971 145.755V144.104C330.748 143.948 330.007 142.661 329.851 141.166H330.943C331.073 142.18 331.385 143.077 332.971 143.22V139.606C331.255 139.281 330.228 138.67 330.228 137.11C330.228 135.758 331.346 134.705 332.971 134.601V133.431H333.738V134.614C335.298 134.757 336.273 135.641 336.442 137.149H335.428C335.233 136.148 334.7 135.628 333.738 135.498V138.748C335.649 139.086 336.637 139.697 336.637 141.374C336.637 142.856 335.428 144 333.738 144.104V145.755H332.971ZM335.558 141.452C335.558 140.49 335.155 140.035 333.738 139.736V143.22C334.778 143.116 335.558 142.414 335.558 141.452ZM331.255 137.006C331.255 137.825 331.528 138.319 332.971 138.618V135.485C331.879 135.576 331.255 136.2 331.255 137.006ZM339.666 144V135.823L337.586 137.318V136.265L339.744 134.705H340.797V144H339.666ZM343.668 144.065C343.213 144.065 342.836 143.701 342.836 143.233C342.836 142.765 343.213 142.401 343.668 142.401C344.123 142.401 344.5 142.765 344.5 143.233C344.5 143.701 344.123 144.065 343.668 144.065ZM349.069 143.181C350.694 143.181 351.526 141.933 351.526 139.58V139.06C351.526 136.902 350.616 135.498 349.043 135.498C347.47 135.498 346.534 136.798 346.534 139.086V139.606C346.534 141.959 347.522 143.181 349.069 143.181ZM349.069 144.117C346.846 144.117 345.377 142.323 345.377 139.619V139.099C345.377 136.356 346.768 134.588 349.043 134.588C351.331 134.588 352.67 136.421 352.67 139.073V139.593C352.67 142.297 351.357 144.117 349.069 144.117ZM357.657 143.181C359.282 143.181 360.114 141.933 360.114 139.58V139.06C360.114 136.902 359.204 135.498 357.631 135.498C356.058 135.498 355.122 136.798 355.122 139.086V139.606C355.122 141.959 356.11 143.181 357.657 143.181ZM357.657 144.117C355.434 144.117 353.965 142.323 353.965 139.619V139.099C353.965 136.356 355.356 134.588 357.631 134.588C359.919 134.588 361.258 136.421 361.258 139.073V139.593C361.258 142.297 359.945 144.117 357.657 144.117Z" fill="black"/>
<g filter="url(#filter2_f_1536_8439)">
<path d="M51.3692 179.5L53.9202 172.085H55.1024L57.6119 179.5H56.7201L55.9942 177.364H52.9351L52.2195 179.5H51.3692ZM54.4698 172.832L53.184 176.648H55.7557L54.4698 172.832ZM58.6472 179.5V174.076H59.5079V174.906C59.7568 174.398 60.3478 173.983 61.1256 173.983C61.8204 173.983 62.4322 174.274 62.7122 174.999C63.0855 174.294 63.8944 173.983 64.5684 173.983C65.5432 173.983 66.3936 174.564 66.3936 176.14V179.5H65.5328V176.078C65.5328 175.124 65.1284 174.73 64.3818 174.73C63.6766 174.73 62.9507 175.207 62.9507 176.182V179.5H62.09V176.078C62.09 175.124 61.6856 174.73 60.9389 174.73C60.2338 174.73 59.5079 175.207 59.5079 176.182V179.5H58.6472ZM70.1387 178.878C71.2276 178.878 71.912 178.059 71.912 176.835V176.762C71.912 175.508 71.2172 174.699 70.1387 174.699C69.0499 174.699 68.3655 175.508 68.3655 176.752V176.835C68.3655 178.069 69.0395 178.878 70.1387 178.878ZM70.1284 179.593C68.5832 179.593 67.4737 178.422 67.4737 176.835V176.752C67.4737 175.124 68.604 173.983 70.1387 173.983C71.6735 173.983 72.8038 175.113 72.8038 176.742V176.825C72.8038 178.463 71.6735 179.593 70.1284 179.593ZM75.7646 179.593C74.6862 179.593 73.8773 179.002 73.8773 177.509V174.076H74.738V177.467C74.738 178.422 75.1424 178.847 75.9928 178.847C76.7602 178.847 77.4861 178.339 77.4861 177.364V174.076H78.3468V179.5H77.4861V178.639C77.2372 179.147 76.6357 179.593 75.7646 179.593ZM79.8789 179.5V174.076H80.7396V174.937C80.9885 174.429 81.59 173.983 82.4818 173.983C83.6018 173.983 84.3899 174.595 84.3899 176.171V179.5H83.5292V176.109C83.5292 175.155 83.1247 174.73 82.2537 174.73C81.4552 174.73 80.7396 175.238 80.7396 176.213V179.5H79.8789ZM87.5181 179.573C86.5329 179.573 86.0559 178.992 86.0559 178.142V174.802H85.2781V174.076H86.0559V172.842H86.9166V174.076H88.1817V174.802H86.9166V178.059C86.9166 178.587 87.1551 178.847 87.5906 178.847C87.8603 178.847 88.0677 178.805 88.2543 178.733V179.459C88.078 179.521 87.8706 179.573 87.5181 179.573ZM93.5339 179.573C92.5487 179.573 92.0717 178.992 92.0717 178.142V174.802H91.294V174.076H92.0717V172.842H92.9324V174.076H94.1976V174.802H92.9324V178.059C92.9324 178.587 93.1709 178.847 93.6065 178.847C93.8761 178.847 94.0835 178.805 94.2701 178.733V179.459C94.0939 179.521 93.8865 179.573 93.5339 179.573ZM97.6245 178.878C98.7134 178.878 99.3978 178.059 99.3978 176.835V176.762C99.3978 175.508 98.703 174.699 97.6245 174.699C96.5357 174.699 95.8512 175.508 95.8512 176.752V176.835C95.8512 178.069 96.5253 178.878 97.6245 178.878ZM97.6141 179.593C96.069 179.593 94.9594 178.422 94.9594 176.835V176.752C94.9594 175.124 96.0898 173.983 97.6245 173.983C99.1593 173.983 100.29 175.113 100.29 176.742V176.825C100.29 178.463 99.1593 179.593 97.6141 179.593ZM106.202 179.593C104.688 179.593 103.547 178.525 103.547 176.845V176.762C103.547 175.103 104.73 173.983 106.181 173.983C107.312 173.983 108.37 174.502 108.535 175.881H107.685C107.55 175.02 106.928 174.699 106.181 174.699C105.196 174.699 104.439 175.487 104.439 176.762V176.845C104.439 178.173 105.165 178.878 106.213 178.878C106.98 178.878 107.675 178.432 107.768 177.55H108.567C108.452 178.722 107.509 179.593 106.202 179.593ZM111.919 178.878C113.008 178.878 113.693 178.059 113.693 176.835V176.762C113.693 175.508 112.998 174.699 111.919 174.699C110.83 174.699 110.146 175.508 110.146 176.752V176.835C110.146 178.069 110.82 178.878 111.919 178.878ZM111.909 179.593C110.364 179.593 109.254 178.422 109.254 176.835V176.752C109.254 175.124 110.385 173.983 111.919 173.983C113.454 173.983 114.584 175.113 114.584 176.742V176.825C114.584 178.463 113.454 179.593 111.909 179.593ZM115.71 179.5V174.076H116.57V174.937C116.819 174.429 117.421 173.983 118.313 173.983C119.433 173.983 120.221 174.595 120.221 176.171V179.5H119.36V176.109C119.36 175.155 118.956 174.73 118.084 174.73C117.286 174.73 116.57 175.238 116.57 176.213V179.5H115.71ZM122.957 179.5L120.987 174.076H121.92L123.528 178.629L125.114 174.076H126.006L124.056 179.5H122.957ZM128.998 179.593C127.463 179.593 126.374 178.515 126.374 176.845V176.762C126.374 175.124 127.422 173.983 128.915 173.983C130.17 173.983 131.352 174.74 131.352 176.679V176.959H127.266C127.308 178.193 127.899 178.878 129.008 178.878C129.848 178.878 130.336 178.567 130.45 177.934H131.311C131.124 179.023 130.222 179.593 128.998 179.593ZM127.297 176.265H130.471C130.388 175.145 129.807 174.699 128.915 174.699C128.034 174.699 127.443 175.3 127.297 176.265ZM132.465 179.5V174.076H133.326V175.051C133.668 174.439 134.135 174.014 135.11 173.983V174.792C134.021 174.844 133.326 175.186 133.326 176.524V179.5H132.465ZM137.856 179.573C136.871 179.573 136.394 178.992 136.394 178.142V174.802H135.616V174.076H136.394V172.842H137.255V174.076H138.52V174.802H137.255V178.059C137.255 178.587 137.493 178.847 137.929 178.847C138.199 178.847 138.406 178.805 138.593 178.733V179.459C138.416 179.521 138.209 179.573 137.856 179.573Z" fill="black"/>
</g>
<path d="M305.524 177.452V176.516H310.776V177.452H305.524ZM305.524 175.112V174.176H310.776V175.112H305.524ZM317.926 181.755V180.104C315.703 179.948 314.962 178.661 314.806 177.166H315.898C316.028 178.18 316.34 179.077 317.926 179.22V175.606C316.21 175.281 315.183 174.67 315.183 173.11C315.183 171.758 316.301 170.705 317.926 170.601V169.431H318.693V170.614C320.253 170.757 321.228 171.641 321.397 173.149H320.383C320.188 172.148 319.655 171.628 318.693 171.498V174.748C320.604 175.086 321.592 175.697 321.592 177.374C321.592 178.856 320.383 180 318.693 180.104V181.755H317.926ZM320.513 177.452C320.513 176.49 320.11 176.035 318.693 175.736V179.22C319.733 179.116 320.513 178.414 320.513 177.452ZM316.21 173.006C316.21 173.825 316.483 174.319 317.926 174.618V171.485C316.834 171.576 316.21 172.2 316.21 173.006ZM325.765 180.117C323.763 180.117 322.801 179.012 322.671 177.491H323.75C323.932 178.505 324.335 179.207 325.752 179.207C327.013 179.207 327.793 178.362 327.793 176.958C327.793 175.645 327.026 174.787 325.843 174.787C324.764 174.787 324.14 175.125 323.646 175.684H323.23V170.705H328.456V171.68H324.166V174.514C324.543 174.163 325.18 173.877 326.064 173.877C327.728 173.877 328.95 175.06 328.95 176.958C328.95 178.921 327.533 180.117 325.765 180.117ZM333.89 179.181C335.515 179.181 336.347 177.933 336.347 175.58V175.06C336.347 172.902 335.437 171.498 333.864 171.498C332.291 171.498 331.355 172.798 331.355 175.086V175.606C331.355 177.959 332.343 179.181 333.89 179.181ZM333.89 180.117C331.667 180.117 330.198 178.323 330.198 175.619V175.099C330.198 172.356 331.589 170.588 333.864 170.588C336.152 170.588 337.491 172.421 337.491 175.073V175.593C337.491 178.297 336.178 180.117 333.89 180.117ZM340.516 180V171.823L338.436 173.318V172.265L340.594 170.705H341.647V180H340.516ZM344.518 180.065C344.063 180.065 343.686 179.701 343.686 179.233C343.686 178.765 344.063 178.401 344.518 178.401C344.973 178.401 345.35 178.765 345.35 179.233C345.35 179.701 344.973 180.065 344.518 180.065ZM349.919 179.181C351.544 179.181 352.376 177.933 352.376 175.58V175.06C352.376 172.902 351.466 171.498 349.893 171.498C348.32 171.498 347.384 172.798 347.384 175.086V175.606C347.384 177.959 348.372 179.181 349.919 179.181ZM349.919 180.117C347.696 180.117 346.227 178.323 346.227 175.619V175.099C346.227 172.356 347.618 170.588 349.893 170.588C352.181 170.588 353.52 172.421 353.52 175.073V175.593C353.52 178.297 352.207 180.117 349.919 180.117ZM358.507 179.181C360.132 179.181 360.964 177.933 360.964 175.58V175.06C360.964 172.902 360.054 171.498 358.481 171.498C356.908 171.498 355.972 172.798 355.972 175.086V175.606C355.972 177.959 356.96 179.181 358.507 179.181ZM358.507 180.117C356.284 180.117 354.815 178.323 354.815 175.619V175.099C354.815 172.356 356.206 170.588 358.481 170.588C360.769 170.588 362.108 172.421 362.108 175.073V175.593C362.108 178.297 360.795 180.117 358.507 180.117Z" fill="black"/>
<g filter="url(#filter3_f_1536_8439)">
<path d="M55.0298 215.593C52.8832 215.593 51.5662 214.121 51.5662 211.839V211.756C51.5662 209.558 53.0388 207.971 55.0506 207.971C56.5957 207.971 57.9023 208.791 58.0579 210.398H57.166C56.9794 209.268 56.3261 208.687 55.0609 208.687C53.5262 208.687 52.4995 209.879 52.4995 211.746V211.829C52.4995 213.716 53.4536 214.857 55.0506 214.857C56.2638 214.857 57.1038 214.245 57.2905 213.042H58.1304C57.8712 214.753 56.689 215.593 55.0298 215.593ZM61.07 215.593C59.9915 215.593 59.1827 215.002 59.1827 213.509V210.076H60.0434V213.467C60.0434 214.422 60.4478 214.847 61.2982 214.847C62.0655 214.847 62.7914 214.339 62.7914 213.364V210.076H63.6521V215.5H62.7914V214.639C62.5426 215.147 61.9411 215.593 61.07 215.593ZM65.1843 215.5V210.076H66.045V211.051C66.3872 210.439 66.8539 210.014 67.8287 209.983V210.792C66.7398 210.844 66.045 211.186 66.045 212.524V215.5H65.1843ZM68.8758 215.5V210.076H69.7365V211.051C70.0787 210.439 70.5454 210.014 71.5201 209.983V210.792C70.4313 210.844 69.7365 211.186 69.7365 212.524V215.5H68.8758ZM74.6345 215.593C73.0998 215.593 72.0109 214.515 72.0109 212.845V212.762C72.0109 211.124 73.0583 209.983 74.5516 209.983C75.8064 209.983 76.9885 210.74 76.9885 212.679V212.959H72.9028C72.9442 214.193 73.5353 214.878 74.6449 214.878C75.4849 214.878 75.9723 214.567 76.0863 213.934H76.9471C76.7604 215.023 75.8582 215.593 74.6345 215.593ZM72.9339 212.265H76.1071C76.0241 211.145 75.4434 210.699 74.5516 210.699C73.6701 210.699 73.079 211.3 72.9339 212.265ZM78.1019 215.5V210.076H78.9626V210.937C79.2114 210.429 79.8129 209.983 80.7047 209.983C81.8247 209.983 82.6128 210.595 82.6128 212.171V215.5H81.7521V212.109C81.7521 211.155 81.3477 210.73 80.4766 210.73C79.6781 210.73 78.9626 211.238 78.9626 212.213V215.5H78.1019ZM85.741 215.573C84.7558 215.573 84.2788 214.992 84.2788 214.142V210.802H83.5011V210.076H84.2788V208.842H85.1395V210.076H86.4047V210.802H85.1395V214.059C85.1395 214.587 85.378 214.847 85.8136 214.847C86.0832 214.847 86.2906 214.805 86.4772 214.733V215.459C86.301 215.521 86.0936 215.573 85.741 215.573ZM90.108 215.5V210.076H90.9687V211.051C91.3109 210.439 91.7775 210.014 92.7523 209.983V210.792C91.6635 210.844 90.9687 211.186 90.9687 212.524V215.5H90.108ZM95.1073 215.593C94.1014 215.593 93.3029 215.106 93.3029 213.996C93.3029 212.742 94.6303 212.316 96.0198 212.316H96.7976V211.922C96.7976 211.062 96.4657 210.699 95.6361 210.699C94.8895 210.699 94.4747 211.01 94.3917 211.673H93.531C93.6451 210.439 94.6303 209.983 95.6776 209.983C96.7146 209.983 97.6583 210.408 97.6583 211.922V215.5H96.7976V214.816C96.3932 215.324 95.9058 215.593 95.1073 215.593ZM95.1902 214.909C96.1028 214.909 96.7976 214.442 96.7976 213.602V212.928H96.0509C94.9621 212.928 94.1636 213.198 94.1636 213.996C94.1636 214.556 94.4332 214.909 95.1902 214.909ZM100.79 215.573C99.8053 215.573 99.3283 214.992 99.3283 214.142V210.802H98.5505V210.076H99.3283V208.842H100.189V210.076H101.454V210.802H100.189V214.059C100.189 214.587 100.427 214.847 100.863 214.847C101.133 214.847 101.34 214.805 101.527 214.733V215.459C101.35 215.521 101.143 215.573 100.79 215.573ZM104.84 215.593C103.305 215.593 102.216 214.515 102.216 212.845V212.762C102.216 211.124 103.263 209.983 104.757 209.983C106.011 209.983 107.194 210.74 107.194 212.679V212.959H103.108C103.149 214.193 103.74 214.878 104.85 214.878C105.69 214.878 106.177 214.567 106.291 213.934H107.152C106.965 215.023 106.063 215.593 104.84 215.593ZM103.139 212.265H106.312C106.229 211.145 105.648 210.699 104.757 210.699C103.875 210.699 103.284 211.3 103.139 212.265Z" fill="black"/>
</g>
<path d="M308.709 217.755V216.104C306.486 215.948 305.745 214.661 305.589 213.166H306.681C306.811 214.18 307.123 215.077 308.709 215.22V211.606C306.993 211.281 305.966 210.67 305.966 209.11C305.966 207.758 307.084 206.705 308.709 206.601V205.431H309.476V206.614C311.036 206.757 312.011 207.641 312.18 209.149H311.166C310.971 208.148 310.438 207.628 309.476 207.498V210.748C311.387 211.086 312.375 211.697 312.375 213.374C312.375 214.856 311.166 216 309.476 216.104V217.755H308.709ZM311.296 213.452C311.296 212.49 310.893 212.035 309.476 211.736V215.22C310.516 215.116 311.296 214.414 311.296 213.452ZM306.993 209.006C306.993 209.825 307.266 210.319 308.709 210.618V207.485C307.617 207.576 306.993 208.2 306.993 209.006ZM315.404 216V207.823L313.324 209.318V208.265L315.482 206.705H316.535V216H315.404ZM321.527 213.452V212.516H326.779V213.452H321.527ZM321.527 211.112V210.176H326.779V211.112H321.527ZM330.641 210.878V210.124H331.603C331.811 208.135 333.02 206.588 335.074 206.588C336.855 206.588 338.038 207.641 338.246 209.435H337.18C336.998 208.187 336.218 207.472 335.074 207.472C333.683 207.472 332.877 208.512 332.708 210.124H335.815L335.672 210.878H332.682V211.892H335.477L335.334 212.646H332.721C332.89 214.245 333.683 215.194 335.1 215.194C336.309 215.194 337.089 214.466 337.297 213.062H338.35C338.142 214.986 336.907 216.117 335.1 216.117C333.111 216.117 331.837 214.661 331.603 212.646H330.641V211.892H331.564V210.878H330.641ZM341.233 216V207.823L339.153 209.318V208.265L341.311 206.705H342.364V216H341.233ZM345.236 216.065C344.781 216.065 344.404 215.701 344.404 215.233C344.404 214.765 344.781 214.401 345.236 214.401C345.691 214.401 346.068 214.765 346.068 215.233C346.068 215.701 345.691 216.065 345.236 216.065ZM351.452 216V214.05H346.798V213.686L351.049 206.705H352.557V213.127H353.844V214.05H352.557V216H351.452ZM348.228 213.127H351.452V207.563L348.228 213.127ZM358.463 215.181C360.088 215.181 360.92 213.933 360.92 211.58V211.06C360.92 208.902 360.01 207.498 358.437 207.498C356.864 207.498 355.928 208.798 355.928 211.086V211.606C355.928 213.959 356.916 215.181 358.463 215.181ZM358.463 216.117C356.24 216.117 354.771 214.323 354.771 211.619V211.099C354.771 208.356 356.162 206.588 358.437 206.588C360.725 206.588 362.064 208.421 362.064 211.073V211.593C362.064 214.297 360.751 216.117 358.463 216.117Z" fill="black"/>
<path opacity="0.55" d="M340.919 232.162C381.405 232.162 414.225 199.341 414.225 158.856C414.225 118.37 381.405 85.5496 340.919 85.5496C300.433 85.5496 267.613 118.37 267.613 158.856C267.613 199.341 300.433 232.162 340.919 232.162Z" fill="#E4E6E7"/>
<path d="M267.629 157.527C310.151 147.118 383.434 146.612 414.197 156.884C413.713 138.786 406.567 120.833 392.755 107.02C364.127 78.3916 317.712 78.3916 289.084 107.02C275.108 120.996 267.958 139.212 267.629 157.527Z" fill="url(#paint0_linear_1536_8439)"/>
<path d="M268.184 167.986C269.274 176.716 271.932 185.285 276.16 193.242C333.85 184.728 402.79 198.194 402.79 198.194C409.282 188.005 413.008 176.563 413.97 164.935C351.575 147.67 268.184 167.986 268.184 167.986Z" fill="url(#paint1_linear_1536_8439)"/>
</g>
<defs>
<filter id="filter0_f_1536_8439" x="48.3692" y="96.4839" width="87.6379" height="14.1094" filterUnits="userSpaceOnUse" color-interpolation-filters="sRGB">
<feFlood flood-opacity="0" result="BackgroundImageFix"/>
<feBlend mode="normal" in="SourceGraphic" in2="BackgroundImageFix" result="shape"/>
<feGaussianBlur stdDeviation="1.5" result="effect1_foregroundBlur_1536_8439"/>
</filter>
<filter id="filter1_f_1536_8439" x="48.5662" y="132.453" width="75.2789" height="14.1404" filterUnits="userSpaceOnUse" color-interpolation-filters="sRGB">
<feFlood flood-opacity="0" result="BackgroundImageFix"/>
<feBlend mode="normal" in="SourceGraphic" in2="BackgroundImageFix" result="shape"/>
<feGaussianBlur stdDeviation="1.5" result="effect1_foregroundBlur_1536_8439"/>
</filter>
<filter id="filter2_f_1536_8439" x="48.3692" y="169.085" width="93.2234" height="13.5078" filterUnits="userSpaceOnUse" color-interpolation-filters="sRGB">
<feFlood flood-opacity="0" result="BackgroundImageFix"/>
<feBlend mode="normal" in="SourceGraphic" in2="BackgroundImageFix" result="shape"/>
<feGaussianBlur stdDeviation="1.5" result="effect1_foregroundBlur_1536_8439"/>
</filter>
<filter id="filter3_f_1536_8439" x="48.5662" y="204.971" width="61.6274" height="13.6218" filterUnits="userSpaceOnUse" color-interpolation-filters="sRGB">
<feFlood flood-opacity="0" result="BackgroundImageFix"/>
<feBlend mode="normal" in="SourceGraphic" in2="BackgroundImageFix" result="shape"/>
<feGaussianBlur stdDeviation="1.5" result="effect1_foregroundBlur_1536_8439"/>
</filter>
<linearGradient id="paint0_linear_1536_8439" x1="340.913" y1="172.587" x2="340.913" y2="71.0643" gradientUnits="userSpaceOnUse">
<stop offset="0.0482" stop-color="white"/>
<stop offset="0.693" stop-color="white" stop-opacity="0"/>
</linearGradient>
<linearGradient id="paint1_linear_1536_8439" x1="301.073" y1="135.096" x2="383.48" y2="217.503" gradientUnits="userSpaceOnUse">
<stop offset="0.0482" stop-color="white"/>
<stop offset="0.693" stop-color="white" stop-opacity="0"/>
</linearGradient>
<clipPath id="clip0_1536_8439">
<rect width="445" height="305" rx="10" fill="white"/>
</clipPath>
</defs>
</svg>
