<svg width="473" height="260" viewBox="0 0 473 260" fill="none" xmlns="http://www.w3.org/2000/svg">
<g clip-path="url(#clip0_1106_2959)">
<path d="M92.8135 259.6C112.328 256.348 163.148 245.728 177.574 238.651C257.588 200.091 295.805 66.5351 296.285 65.2596H360.705C360.225 66.5351 352.637 88.392 320.502 149.407C300.633 185.663 271.881 209.83 237.948 229.683C179.711 263.755 92.8135 259.6 92.8135 259.6Z" fill="#FFC727"/>
<g opacity="0.1">
<path d="M92.8135 259.6C112.328 256.348 163.148 245.728 177.574 238.651C257.588 200.091 295.805 66.5351 296.285 65.2596H360.705C360.225 66.5351 352.637 88.392 320.502 149.407C300.633 185.663 271.881 209.83 237.948 229.683C179.711 263.755 92.8135 259.6 92.8135 259.6Z" fill="black"/>
</g>
<path d="M281.317 58.5657L296.285 65.2596C295.877 66.3448 275.935 169.098 214.911 218.42C172.102 253.02 144.716 261.146 51.7051 259.741V241.691C104.194 241.691 141.635 239.991 175.796 222.168C252.885 181.95 281.203 58.8672 281.317 58.5657Z" fill="#FFC727"/>
<path d="M281.317 58.5657H350.751L360.705 65.2596H296.285L281.317 58.5657Z" fill="#FFC727"/>
<path d="M334.202 15.5479L379.351 72.6348L272.949 72.3498L334.202 15.5479Z" fill="#FFC727"/>
<g opacity="0.1">
<path d="M334.202 15.5479L379.351 72.6348L272.949 72.3498L334.202 15.5479Z" fill="black"/>
</g>
<path d="M272.949 72.3498L257.474 65.2596L318.728 8.45831L334.202 15.5479L272.949 72.3498Z" fill="#FFC727"/>
<path d="M161.079 99.5032C168.034 98.0763 174.988 96.6499 181.942 95.2234C182.618 95.0846 182.995 94.3009 182.823 93.6708C181.285 88.0081 179.278 82.515 176.838 77.1794C174.704 72.5154 172.335 67.8014 168.017 64.8108C163.903 61.961 158.357 61.8357 153.558 61.4616C153.021 61.4197 149.668 61.4474 149.517 60.7971C149.137 59.1672 148.921 57.4787 148.624 55.8312C147.97 52.1896 147.315 48.5481 146.661 44.9066C146.531 44.1876 145.734 43.9104 145.108 44.025C139.932 44.9712 134.774 46.0093 129.635 47.1394C128.939 47.2924 128.61 48.0487 128.753 48.692C129.979 54.1861 131.205 59.6807 132.431 65.1748C132.837 64.6421 133.242 64.1094 133.648 63.5767C123.81 64.3972 115.322 70.7699 111.684 79.9277C107.229 91.1426 108.075 103.894 114.484 114.151C121.111 124.757 134.144 126.978 144.795 131.762C146.651 132.595 146.84 136.9 147.261 138.633C148.106 142.121 148.918 145.617 149.709 149.117C151.316 156.22 152.796 163.352 154.178 170.501C154.796 170.026 155.414 169.551 156.032 169.076C151.969 166.306 148.528 163.49 146.381 158.967C144.433 154.863 143.873 150.089 143.292 145.638C143.184 144.805 142.572 144.23 141.694 144.421C134.56 145.977 127.417 147.507 120.132 148.156C119.324 148.229 118.686 148.908 118.915 149.754C120.465 155.467 120.7 161.636 122.92 167.139C124.797 171.791 127.881 176.26 130.953 180.206C133.944 184.048 137.44 187.3 142.157 188.803C144.702 189.614 147.516 189.589 150.154 189.616C153.336 189.649 156.518 189.672 159.7 189.7C159.28 189.279 158.859 188.858 158.438 188.438C158.663 193.273 159.299 198.053 160.346 202.779C160.496 203.454 161.261 203.832 161.899 203.661C167.24 202.225 172.656 201.189 178.154 200.586C178.947 200.499 179.621 199.844 179.372 198.988C178.003 194.285 176.635 189.582 175.266 184.88C175.072 185.355 174.879 185.83 174.686 186.305C176.573 185.168 178.631 184.384 180.579 183.363C182.485 182.362 184.22 180.953 185.86 179.571C189.135 176.812 191.736 173.257 193.515 169.377C197.47 160.749 195.331 150.835 193.128 142.034C191.169 134.21 186.393 127.53 180.265 122.403C177.308 119.929 174.023 117.874 170.617 116.082C167.153 114.26 163.226 112.307 159.336 111.705C159.63 111.999 159.924 112.293 160.218 112.587C158.379 102.457 156.387 92.356 154.242 82.2862C153.473 82.6104 152.704 82.9346 151.935 83.2587C152.257 83.906 152.807 84.3953 153.326 84.8866C154.433 85.9343 155.283 86.9664 156.085 88.2797C157.973 91.3744 158.742 95.1275 159.526 98.6211C159.883 100.209 162.317 99.5355 161.96 97.95C161.24 94.7402 160.413 91.6112 159.088 88.5923C158.469 87.182 157.605 85.6849 156.581 84.5271C155.834 83.6829 154.621 83.0017 154.114 81.9848C153.446 80.6442 151.522 81.6192 151.807 82.9573C153.952 93.027 155.944 103.128 157.783 113.258C157.853 113.643 158.272 114.079 158.665 114.139C165.434 115.186 172.579 119.551 177.902 123.72C183.828 128.362 188.305 134.552 190.446 141.79C192.868 149.98 194.648 159.452 191.524 167.649C190.014 171.613 187.206 174.996 184.075 177.785C180.85 180.658 177.033 181.944 173.412 184.124C172.931 184.413 172.672 185.002 172.831 185.55C174.2 190.252 175.569 194.955 176.938 199.658C177.343 199.126 177.749 198.593 178.155 198.06C172.432 198.687 166.789 199.73 161.228 201.225C161.746 201.519 162.263 201.813 162.781 202.107C161.782 197.597 161.178 193.05 160.963 188.436C160.931 187.744 160.413 187.18 159.701 187.174C154.447 187.128 148.829 187.625 143.658 186.582C138.871 185.616 135.277 181.785 132.465 178.049C129.618 174.265 126.815 170.085 125.039 165.683C122.944 160.49 122.816 154.483 121.35 149.082C120.944 149.615 120.538 150.147 120.132 150.68C127.643 150.01 135.009 148.458 142.365 146.854C141.833 146.448 141.3 146.043 140.767 145.637C141.42 150.641 142.175 155.58 144.2 160.24C146.338 165.158 150.452 168.319 154.757 171.254C155.752 171.933 156.804 170.821 156.612 169.829C154.209 157.402 151.569 144.99 148.403 132.732C148.034 131.302 147.377 130.286 146.068 129.581C143.632 128.268 140.807 127.455 138.24 126.426C132.543 124.145 126.163 122.319 121.378 118.339C104.477 104.284 109.182 68.1413 133.647 66.0998C134.486 66.0297 135.053 65.3495 134.865 64.5017C133.639 59.0077 132.413 53.5131 131.187 48.019C130.893 48.5365 130.599 49.0541 130.306 49.5716C135.445 48.4416 140.603 47.4034 145.779 46.4572C145.261 46.1634 144.743 45.8695 144.226 45.5756C144.821 48.8859 145.416 52.1967 146.011 55.507C146.308 57.1621 146.606 58.8173 146.904 60.4729C147.045 61.2616 147.113 62.2271 147.723 62.8375C149.002 64.116 151.929 63.8499 153.558 63.9837C156.401 64.2175 159.231 64.3987 162.021 65.0319C168.281 66.4533 171.245 71.446 173.88 76.8113C176.633 82.4175 178.752 88.3171 180.389 94.3393C180.683 93.8218 180.976 93.3042 181.27 92.7867C174.316 94.2131 167.362 95.64 160.407 97.0664C158.814 97.3961 159.49 99.8294 161.079 99.5032Z" fill="#FFD900"/>
<path d="M137.211 81.7544C132.288 83.1253 130.565 87.7403 131.343 92.4922C132.31 98.3912 136.318 102.227 140.774 105.906C142.019 106.934 143.816 105.158 142.56 104.121C139.72 101.776 136.645 99.1355 134.852 95.8752C132.714 91.9868 132.969 85.557 137.882 84.1887C139.448 83.7524 138.782 81.3167 137.211 81.7544Z" fill="#FFD900"/>
<path d="M136.813 83.1431C138.308 90.3675 139.803 97.592 141.298 104.816C141.628 106.411 144.061 105.734 143.732 104.145C142.237 96.921 140.742 89.6965 139.247 82.472C138.918 80.878 136.484 81.5541 136.813 83.1431Z" fill="#FFD900"/>
<path d="M163.513 201.394C161.497 201.957 159.47 202.46 157.425 202.904C157.684 203.051 157.942 203.198 158.201 203.345C157.125 198.385 156.087 193.417 155.086 188.441C154.926 187.643 153.71 187.982 153.869 188.777C154.869 193.753 155.908 198.721 156.984 203.681C157.06 204.03 157.439 204.191 157.761 204.122C159.806 203.677 161.833 203.174 163.849 202.611C164.632 202.392 164.299 201.174 163.513 201.394Z" fill="#FFD900"/>
<path d="M145.932 187.791C140.92 188.015 136.44 186.769 132.075 184.349C128.132 182.163 125.784 178.717 123.403 175.004C121.054 171.338 119.081 167.436 117.706 163.301C116.323 159.138 115.723 154.643 114.84 150.352C114.693 150.611 114.546 150.87 114.399 151.129C116.6 150.766 118.802 150.403 121.003 150.04C121.805 149.908 121.464 148.691 120.668 148.823C118.466 149.186 116.265 149.548 114.063 149.911C113.708 149.97 113.559 150.379 113.622 150.688C114.628 155.568 115.375 160.58 117.057 165.284C118.656 169.752 121.109 173.896 123.743 177.821C126.088 181.313 128.556 183.842 132.247 185.888C136.462 188.226 141.128 189.268 145.932 189.054C146.743 189.017 146.747 187.755 145.932 187.791Z" fill="#FFD900"/>
<path d="M149.863 164.891C148.178 158.237 146.646 151.548 145.267 144.825C144.61 141.624 144 138.413 143.417 135.198C143.019 133.007 140.555 132.662 138.767 131.981C132.395 129.555 126.127 126.872 120.548 122.9C117.946 121.048 114.755 118.636 112.932 116.014C111.162 113.468 109.766 110.556 108.646 107.676C104.113 96.0268 105.829 82.5468 114.802 73.5238C116.992 71.3213 119.63 69.6318 122.374 68.2094C123.929 67.4036 125.568 66.8032 127.229 66.2609C127.799 66.0746 128.698 65.9257 129.046 65.35C130.025 63.7272 128.927 61.655 128.585 59.9615C127.864 56.3841 127.143 52.8072 126.422 49.2298C126.275 49.4888 126.128 49.7473 125.981 50.0064C127.465 49.5858 128.949 49.1657 130.433 48.7451C131.215 48.5234 130.882 47.3055 130.097 47.5277C128.613 47.9483 127.129 48.3684 125.645 48.789C125.297 48.8874 125.136 49.2263 125.205 49.5656C125.86 52.8178 126.516 56.0695 127.171 59.3217C127.423 60.5699 127.702 61.7858 128.04 63.0122C128.634 65.1673 125.844 65.3713 124.34 65.9474C119.196 67.9181 114.403 71.39 111.099 75.8126C104.267 84.9588 103.519 96.6504 107.148 107.246C108.592 111.46 110.907 116.969 114.617 119.668C117.203 121.549 119.458 123.757 122.144 125.516C124.998 127.385 128.086 128.884 131.197 130.269C133.865 131.456 136.596 132.5 139.324 133.539C140.481 133.865 141.439 134.53 142.2 135.535C142.41 136.489 142.553 137.466 142.732 138.427C143.091 140.355 143.469 142.279 143.855 144.201C145.267 151.251 146.881 158.258 148.645 165.227C148.845 166.015 150.063 165.68 149.863 164.891Z" fill="#FFD900"/>
<path d="M133.649 85.4747C134.44 89.7256 135.643 94.114 135.877 98.4351C135.921 99.2445 137.183 99.249 137.139 98.4351C136.898 93.9882 135.68 89.51 134.866 85.1394C134.717 84.3396 133.501 84.6794 133.649 85.4747Z" fill="#FFD900"/>
<path d="M157.125 100.125C158.279 99.8859 159.433 99.647 160.587 99.4087C161.384 99.2436 161.046 98.0272 160.251 98.1913C159.097 98.4302 157.943 98.669 156.79 98.9073C155.993 99.0719 156.331 100.289 157.125 100.125Z" fill="#FFD900"/>
<path d="M164.092 143.584C165.575 150.615 167.022 157.653 168.433 164.699C168.671 165.883 170.157 165.793 170.74 165C172.246 162.956 173.551 160.947 174.126 158.449C174.712 155.902 174.167 153.105 173.741 150.572C172.988 146.095 170.497 141.47 165.651 140.654C164.059 140.386 163.377 142.819 164.98 143.089C169.088 143.78 170.579 147.585 171.306 151.243C171.698 153.212 171.875 155.214 171.766 157.217C171.632 159.69 169.966 161.818 168.561 163.726C169.33 163.826 170.099 163.927 170.868 164.027C169.456 156.982 168.009 149.944 166.526 142.912C166.191 141.32 163.757 141.996 164.092 143.584Z" fill="#FFD900"/>
<path d="M126.238 51.5382L126.198 51.2887L130.486 50.6172L130.525 50.8666L126.238 51.5382Z" fill="#FFD900"/>
<path d="M130.813 53.6287L126.837 54.5196L126.892 54.7659L130.869 53.8751L130.813 53.6287Z" fill="#FFD900"/>
<path d="M132.07 57.6707L127.994 58.4143L128.04 58.6627L132.116 57.919L132.07 57.6707Z" fill="#FFD900"/>
<path d="M132.836 61.2216L128.465 62.1839L128.519 62.4305L132.89 61.4682L132.836 61.2216Z" fill="#FFD900"/>
<path d="M112.104 75.6807L112.088 75.4287L115.495 75.2096L115.511 75.4616L112.104 75.6807Z" fill="#FFD900"/>
<path d="M113.636 78.4234H110.395V78.6759H113.636V78.4234Z" fill="#FFD900"/>
<path d="M107.988 82.249L107.961 82.5L112.037 82.9329L112.064 82.6819L107.988 82.249Z" fill="#FFD900"/>
<path d="M111.022 86.7978L106.623 86.3948L106.646 86.1434L111.044 86.5463L111.022 86.7978Z" fill="#FFD900"/>
<path d="M110.017 91.1189H105.723V91.3714H110.017V91.1189Z" fill="#FFD900"/>
<path d="M110.394 95.1493H105.556V95.4018H110.394V95.1493Z" fill="#FFD900"/>
<path d="M105.915 99.6415L105.895 99.39L110.388 99.032L110.407 99.2835L105.915 99.6415Z" fill="#FFD900"/>
<path d="M106.863 104.286L106.837 104.035L111.279 103.575L111.305 103.826L106.863 104.286Z" fill="#FFD900"/>
<path d="M113.009 108.542L108.545 109.034L108.573 109.285L113.036 108.793L113.009 108.542Z" fill="#FFD900"/>
<path d="M115.317 113.014L110.801 113.6L110.834 113.851L115.35 113.264L115.317 113.014Z" fill="#FFD900"/>
<path d="M118.873 117.583L113.906 118.13L113.934 118.381L118.901 117.834L118.873 117.583Z" fill="#FFD900"/>
<path d="M123.282 121.186L119.227 122.577L119.308 122.815L123.364 121.425L123.282 121.186Z" fill="#FFD900"/>
<path d="M127.327 123.303L123.876 125.797L124.024 126.002L127.475 123.508L127.327 123.303Z" fill="#FFD900"/>
<path d="M131.377 125.835L129.361 128.735L129.568 128.879L131.584 125.979L131.377 125.835Z" fill="#FFD900"/>
<path d="M133.707 130.674L133.487 130.55L135.34 127.278L135.56 127.402L133.707 130.674Z" fill="#FFD900"/>
<path d="M137.755 132.292L137.539 132.16L139.632 128.724L139.849 128.856L137.755 132.292Z" fill="#FFD900"/>
<path d="M141.332 133.718L141.218 133.493L145.873 131.139L145.987 131.364L141.332 133.718Z" fill="#FFD900"/>
<path d="M143.397 138.461L143.312 138.222L147.465 136.75L147.549 136.988L143.397 138.461Z" fill="#FFD900"/>
<path d="M149.125 140.924L144.02 141.753L144.06 142.003L149.166 141.174L149.125 140.924Z" fill="#FFD900"/>
<path d="M149.998 144.69L144.868 146.014L144.931 146.258L150.061 144.934L149.998 144.69Z" fill="#FFD900"/>
<path d="M145.96 150.562L145.908 150.315L150.638 149.308L150.69 149.555L145.96 150.562Z" fill="#FFD900"/>
<path d="M146.923 155.413L146.86 155.168L152.249 153.788L152.312 154.032L146.923 155.413Z" fill="#FFD900"/>
<path d="M148.053 160.277L148.012 160.028L153.195 159.194L153.236 159.442L148.053 160.277Z" fill="#FFD900"/>
<path d="M149.27 164.007L149.242 163.757L153.618 163.252L153.647 163.503L149.27 164.007Z" fill="#FFD900"/>
<path d="M138.665 86.3389L134.979 87.2578L135.04 87.5028L138.726 86.5839L138.665 86.3389Z" fill="#FFD900"/>
<path d="M139.737 88.8967L135.445 89.7165L135.492 89.9645L139.784 89.1447L139.737 88.8967Z" fill="#FFD900"/>
<path d="M139.719 92.2498L135.743 93.2941L135.808 93.5383L139.783 92.4939L139.719 92.2498Z" fill="#FFD900"/>
<path d="M140.682 95.7013L136.811 96.5379L136.864 96.7847L140.735 95.9481L140.682 95.7013Z" fill="#FFD900"/>
<path d="M140.982 99.0209L137.006 99.3802L137.029 99.6316L141.005 99.2723L140.982 99.0209Z" fill="#FFD900"/>
<path d="M156.497 98.0488L156.438 97.8034L160.387 96.8567L160.446 97.1021L156.497 98.0488Z" fill="#FFD900"/>
<path d="M155.598 94.9836L155.519 94.7443L159.205 93.5244L159.284 93.7637L155.598 94.9836Z" fill="#FFD900"/>
<path d="M157.746 89.7221L155.221 90.7947L155.32 91.0271L157.845 89.9545L157.746 89.7221Z" fill="#FFD900"/>
<path d="M166.207 146.251L166.165 146.002L170.015 145.341L170.058 145.59L166.207 146.251Z" fill="#FFD900"/>
<path d="M166.902 148.986L166.86 148.736L171.278 147.979L171.32 148.228L166.902 148.986Z" fill="#FFD900"/>
<path d="M167.726 153.242L167.68 152.993L172.708 152.066L172.754 152.315L167.726 153.242Z" fill="#FFD900"/>
<path d="M173.49 156.176L168.254 157.416L168.312 157.662L173.548 156.422L173.49 156.176Z" fill="#FFD900"/>
<path d="M120.758 151.805L114.657 152.55L114.688 152.8L120.789 152.056L120.758 151.805Z" fill="#FFD900"/>
<path d="M115.772 157.987L115.726 157.739L121.04 156.752L121.086 157.001L115.772 157.987Z" fill="#FFD900"/>
<path d="M122.296 162.108L116.983 163.057L117.028 163.305L122.34 162.357L122.296 162.108Z" fill="#FFD900"/>
<path d="M119.699 169.823L119.633 169.58L124.31 168.305L124.376 168.548L119.699 169.823Z" fill="#FFD900"/>
<path d="M128.018 174.544L123.41 176.125L123.492 176.364L128.1 174.783L128.018 174.544Z" fill="#FFD900"/>
<path d="M131.488 179.55L128.017 181.699L128.15 181.914L131.621 179.765L131.488 179.55Z" fill="#FFD900"/>
<path d="M135.401 183.324L133.436 185.761L133.632 185.919L135.597 183.482L135.401 183.324Z" fill="#FFD900"/>
<path d="M155.175 192.066L155.123 191.819L159.819 190.833L159.871 191.08L155.175 192.066Z" fill="#FFD900"/>
<path d="M160.265 195.087L155.906 195.533L155.931 195.784L160.291 195.339L160.265 195.087Z" fill="#FFD900"/>
<path d="M161.428 200.039L157.472 201.113L157.539 201.356L161.494 200.283L161.428 200.039Z" fill="#FFD900"/>
<path d="M131.252 70.7683C130.68 70.0327 130.149 69.2505 129.672 68.4437L130.107 68.1866C130.572 68.9748 131.092 69.7393 131.651 70.4578L131.252 70.7683Z" fill="#FFD900"/>
<path d="M129.447 71.3657C128.9 70.8249 128.436 70.2079 128.069 69.5328L128.513 69.2914C128.856 69.9231 129.29 70.5002 129.802 71.0067L129.447 71.3657Z" fill="#FFD900"/>
<path d="M127.14 72.674C126.592 72.3594 126.13 71.8782 125.839 71.3178L126.287 71.0845C126.534 71.5601 126.926 71.9691 127.392 72.2357L127.14 72.674Z" fill="#FFD900"/>
<path d="M124.529 74.7229L123.479 74.1927C122.917 73.9089 122.671 73.4823 122.856 73.1051L123.309 73.3263C123.259 73.4303 123.474 73.6252 123.706 73.7423L124.757 74.2725L124.529 74.7229Z" fill="#FFD900"/>
<path d="M121.04 76.2958L119.504 75.7474C119.123 75.6116 118.931 75.4046 118.934 75.1319L119.439 75.1374L119.438 75.1359C119.438 75.1359 119.466 75.198 119.674 75.2718L121.209 75.8201L121.04 76.2958Z" fill="#FFD900"/>
<path d="M119.419 79.6045C118.729 79.5551 118.064 79.3193 117.498 78.9219L117.788 78.5089C118.279 78.8537 118.856 79.0582 119.455 79.1011L119.419 79.6045Z" fill="#FFD900"/>
<path d="M118.821 82.4391C118.343 82.3603 117.855 82.3447 117.37 82.3957C117.195 82.4139 116.946 82.3775 116.81 82.2149C116.73 82.1185 116.704 81.9938 116.739 81.8716L117.224 82.0119C117.24 81.9549 117.209 81.8918 117.181 81.8756C117.196 81.8852 117.258 81.8988 117.318 81.8938C117.849 81.8387 118.381 81.8549 118.904 81.9412L118.821 82.4391Z" fill="#FFD900"/>
<path d="M116.152 85.3945C115.953 85.3945 115.756 85.3909 115.558 85.3834L115.578 84.8789C116.321 84.9057 117.073 84.88 117.812 84.7982L117.868 85.3001C117.301 85.3627 116.726 85.3945 116.152 85.3945Z" fill="#FFD900"/>
<path d="M115.351 87.5879C115.28 87.5879 115.21 87.5869 115.139 87.5859L115.148 87.081C116.441 87.1027 117.7 86.8967 118.909 86.4609L119.081 86.9356C117.879 87.3688 116.626 87.5879 115.351 87.5879Z" fill="#FFD900"/>
<path d="M144.925 127.62C144.811 126.676 144.67 125.723 144.506 124.79L145.002 124.702C145.169 125.645 145.311 126.606 145.426 127.56L144.925 127.62Z" fill="#FFD900"/>
<path d="M142.554 126.199C142.345 125.209 142.187 124.2 142.085 123.198L142.587 123.147C142.687 124.131 142.842 125.123 143.047 126.095L142.554 126.199Z" fill="#FFD900"/>
<path d="M140.014 125.823C139.721 124.729 139.586 123.602 139.614 122.472L140.118 122.484C140.092 123.566 140.221 124.645 140.502 125.692L140.014 125.823Z" fill="#FFD900"/>
<path d="M137.722 121.405H137.218V124.119H137.722V121.405Z" fill="#FFD900"/>
<path d="M134.277 122.994C134.243 122.064 134.237 121.124 134.259 120.2L134.764 120.212C134.742 121.127 134.748 122.056 134.781 122.975L134.277 122.994Z" fill="#FFD900"/>
<path d="M132.484 118.755H131.979V121.595H132.484V118.755Z" fill="#FFD900"/>
<path d="M130.336 117.618H129.831V120.964H130.336V117.618Z" fill="#FFD900"/>
<path d="M126.933 117.113H126.428V119.196H126.933V117.113Z" fill="#FFD900"/>
<path d="M124.41 118.069C124.373 116.969 124.388 115.857 124.455 114.762L124.959 114.793C124.893 115.871 124.878 116.967 124.915 118.051L124.41 118.069Z" fill="#FFD900"/>
<path d="M122.078 116.614C122.051 115.296 122.059 113.953 122.101 112.623L122.606 112.639C122.564 113.96 122.556 115.294 122.583 116.603L122.078 116.614Z" fill="#FFD900"/>
<path d="M158.304 185.973C158.136 185.315 157.925 184.659 157.678 184.024L158.149 183.84C158.404 184.495 158.621 185.17 158.793 185.848L158.304 185.973Z" fill="#FFD900"/>
<path d="M156.872 183.652L156.386 183.79L157.121 186.367L157.606 186.228L156.872 183.652Z" fill="#FFD900"/>
<path d="M154.881 186.352C154.483 185.125 154.29 183.849 154.309 182.561L154.814 182.568C154.796 183.801 154.98 185.022 155.362 186.197L154.881 186.352Z" fill="#FFD900"/>
<path d="M151.963 186.422C151.64 185.143 151.478 183.823 151.48 182.501L151.985 182.502C151.983 183.782 152.14 185.059 152.453 186.298L151.963 186.422Z" fill="#FFD900"/>
<path d="M150.341 181.673L149.836 181.681L149.895 185.278L150.4 185.27L150.341 181.673Z" fill="#FFD900"/>
<path d="M146.314 184.501C146.098 183.301 145.983 182.077 145.97 180.863L146.475 180.857C146.487 182.043 146.6 183.239 146.811 184.412L146.314 184.501Z" fill="#FFD900"/>
<path d="M145.047 180.797H144.542V184.332H145.047V180.797Z" fill="#FFD900"/>
<path d="M142.204 179.03H141.699V183.385H142.204V179.03Z" fill="#FFD900"/>
<path d="M139.364 179.346H138.859V182.375H139.364V179.346Z" fill="#FFD900"/>
<path d="M136.902 177.389H136.397V180.103H136.902V177.389Z" fill="#FFD900"/>
<path d="M134.692 175.306H134.187V178.462H134.692V175.306Z" fill="#FFD900"/>
<path d="M133.241 172.781H132.736V176.127H133.241V172.781Z" fill="#FFD900"/>
<path d="M173.405 182.098C173.139 181.49 172.979 180.847 172.931 180.185L173.435 180.149C173.479 180.753 173.624 181.34 173.868 181.896L173.405 182.098Z" fill="#FFD900"/>
<path d="M174.456 179.39L173.976 179.547L174.632 181.559L175.113 181.402L174.456 179.39Z" fill="#FFD900"/>
<path d="M176.718 180.56C176.404 179.516 176.163 178.438 176.003 177.359L176.502 177.284C176.659 178.34 176.894 179.393 177.202 180.415L176.718 180.56Z" fill="#FFD900"/>
<path d="M178.173 176.246L177.69 176.394L178.662 179.561L179.145 179.413L178.173 176.246Z" fill="#FFD900"/>
<path d="M180.469 174.844L179.986 174.991L180.661 177.206L181.144 177.059L180.469 174.844Z" fill="#FFD900"/>
<path d="M183.497 177.094C183.307 176.566 183.131 176.033 182.956 175.501C182.847 175.172 182.735 174.833 182.669 174.475C182.573 173.952 182.585 173.422 182.607 173.02L183.111 173.047C183.091 173.422 183.078 173.912 183.165 174.384C183.225 174.708 183.332 175.031 183.435 175.342C183.61 175.871 183.783 176.399 183.972 176.923L183.497 177.094Z" fill="#FFD900"/>
<path d="M184.641 174.873C184.338 173.913 184.131 172.919 184.024 171.921L184.526 171.867C184.629 172.833 184.83 173.793 185.123 174.721L184.641 174.873Z" fill="#FFD900"/>
<path d="M186.019 173.321C185.642 172.193 185.215 170.914 185.231 169.615L185.736 169.622C185.721 170.835 186.116 172.018 186.498 173.161L186.019 173.321Z" fill="#FFD900"/>
<path d="M187.422 171.136C187.088 169.863 186.881 168.554 186.808 167.242L187.312 167.214C187.384 168.492 187.585 169.768 187.91 171.008L187.422 171.136Z" fill="#FFD900"/>
<path d="M188.846 169.43C188.504 168.843 188.447 168.177 188.392 167.532C188.348 167.023 188.306 166.543 188.135 166.105L188.606 165.922C188.804 166.427 188.849 166.967 188.894 167.489C188.948 168.105 188.998 168.687 189.282 169.176L188.846 169.43Z" fill="#FFD900"/>
<path d="M190.144 167.529C189.923 167.063 189.851 166.543 189.789 166.084L189.569 164.481L190.068 164.412L190.289 166.016C190.35 166.459 190.413 166.917 190.6 167.312L190.144 167.529Z" fill="#FFD900"/>
<path d="M163.183 92.3926L162.704 92.5546L163.644 95.3268L164.122 95.1648L163.183 92.3926Z" fill="#FFD900"/>
<path d="M164.811 92.9601L164.346 93.1583L165.114 94.9569L165.578 94.7587L164.811 92.9601Z" fill="#FFD900"/>
<path d="M166.728 92.8176L166.252 92.986L166.847 94.6673L167.323 94.499L166.728 92.8176Z" fill="#FFD900"/>
<path d="M168.548 94.1155C168.256 93.6222 168.085 93.0597 168.053 92.4887L168.557 92.4604C168.585 92.9512 168.732 93.4349 168.983 93.8585L168.548 94.1155Z" fill="#FFD900"/>
<path d="M170.399 93.9277C170.161 93.4531 169.943 92.9603 169.751 92.4639L170.223 92.2822C170.409 92.7644 170.62 93.2415 170.851 93.702L170.399 93.9277Z" fill="#FFD900"/>
<path d="M171.753 92.042L171.29 92.2415L171.902 93.6624L172.365 93.4628L171.753 92.042Z" fill="#FFD900"/>
<path d="M173.781 92.4216C173.295 91.227 172.868 89.9909 172.512 88.7478L172.997 88.6089C173.348 89.8349 173.769 91.0538 174.248 92.2323L173.781 92.4216Z" fill="#FFD900"/>
</g>
<defs>
<clipPath id="clip0_1106_2959">
<rect width="473" height="260" fill="white"/>
</clipPath>
</defs>
</svg>
