<svg width="124" height="90" viewBox="0 0 124 90" fill="none" xmlns="http://www.w3.org/2000/svg">
<rect x="0.5" y="1.0376" width="123" height="88" rx="9.5" fill="#FAFAFA" stroke="#FFD900"/>
<path d="M61 25.5376H63M62 38.5376V38.5476M56 26.5376C56 26.0072 56.2107 25.4985 56.5858 25.1234C56.9609 24.7483 57.4696 24.5376 58 24.5376H66C66.5304 24.5376 67.0391 24.7483 67.4142 25.1234C67.7893 25.4985 68 26.0072 68 26.5376V40.5376C68 41.068 67.7893 41.5767 67.4142 41.9518C67.0391 42.3269 66.5304 42.5376 66 42.5376H58C57.4696 42.5376 56.9609 42.3269 56.5858 41.9518C56.2107 41.5767 56 41.068 56 40.5376V26.5376Z" stroke="#FFD900" stroke-width="1.5" stroke-linecap="round" stroke-linejoin="round"/>
<path d="M40.148 66.5376V56.5276H42.64L45.272 63.3596L47.848 56.5276H50.312V66.5376H48.45V58.9776L45.468 66.5376H44.866L41.828 58.9776V66.5376H40.148ZM55.6707 65.3616C56.9307 65.3616 57.6867 64.4236 57.6867 62.9256V62.8276C57.6867 61.3156 56.9307 60.3916 55.6707 60.3916C54.4107 60.3916 53.6407 61.3016 53.6407 62.8136V62.9256C53.6407 64.4236 54.3827 65.3616 55.6707 65.3616ZM55.6567 66.6776C53.5007 66.6776 51.9047 65.1796 51.9047 62.9536V62.8416C51.9047 60.5736 53.5147 59.0616 55.6707 59.0616C57.8127 59.0616 59.4227 60.5596 59.4227 62.7996V62.9116C59.4227 65.1936 57.8127 66.6776 55.6567 66.6776ZM65.0413 66.6776C63.8793 66.6776 63.0393 66.1036 62.6473 65.3616V66.5376H60.9533V55.8276H62.6473V60.3916C63.0533 59.6916 63.9633 59.0616 65.0413 59.0616C66.8753 59.0616 68.2893 60.4196 68.2893 62.7856V62.8976C68.2893 65.2496 66.9313 66.6776 65.0413 66.6776ZM64.6213 65.3336C65.8673 65.3336 66.5533 64.4936 66.5533 62.9256V62.8136C66.5533 61.1896 65.7133 60.3916 64.6073 60.3916C63.4313 60.3916 62.5913 61.1896 62.5913 62.8136V62.9256C62.5913 64.5636 63.3893 65.3336 64.6213 65.3336ZM69.8547 66.5376V59.2156H71.5487V66.5376H69.8547ZM70.6807 58.0116C70.1207 58.0116 69.6727 57.5916 69.6727 57.0456C69.6727 56.4856 70.1207 56.0656 70.6807 56.0656C71.2407 56.0656 71.6887 56.4856 71.6887 57.0456C71.6887 57.5916 71.2407 58.0116 70.6807 58.0116ZM73.6555 66.5376V55.8276H75.3495V66.5376H73.6555ZM80.6343 66.6776C78.4783 66.6776 76.9243 65.2636 76.9243 62.9536V62.8416C76.9243 60.5736 78.4783 59.0616 80.5643 59.0616C82.3843 59.0616 84.0223 60.1396 84.0223 62.7576V63.2476H78.6603C78.7163 64.6336 79.4163 65.4176 80.6763 65.4176C81.6983 65.4176 82.2303 65.0116 82.3563 64.2976H83.9943C83.7563 65.8376 82.5103 66.6776 80.6343 66.6776ZM78.6883 62.1136H82.3423C82.2583 60.8536 81.6143 60.2936 80.5643 60.2936C79.5423 60.2936 78.8563 60.9796 78.6883 62.1136Z" fill="#FFD900"/>
</svg>
