<svg width="124" height="90" viewBox="0 0 124 90" fill="none" xmlns="http://www.w3.org/2000/svg">
<rect y="0.537598" width="124" height="89" rx="10" fill="#FAFAFA"/>
<rect x="0.5" y="1.0376" width="123" height="88" rx="9.5" stroke="black" stroke-opacity="0.1"/>
<path d="M61 25.5376H63M62 38.5376V38.5476M56 26.5376C56 26.0072 56.2107 25.4985 56.5858 25.1234C56.9609 24.7483 57.4696 24.5376 58 24.5376H66C66.5304 24.5376 67.0391 24.7483 67.4142 25.1234C67.7893 25.4985 68 26.0072 68 26.5376V40.5376C68 41.068 67.7893 41.5767 67.4142 41.9518C67.0391 42.3269 66.5304 42.5376 66 42.5376H58C57.4696 42.5376 56.9609 42.3269 56.5858 41.9518C56.2107 41.5767 56 41.068 56 40.5376V26.5376Z" stroke="black" stroke-opacity="0.5" stroke-width="1.5" stroke-linecap="round" stroke-linejoin="round"/>
<path d="M49.856 66.5376L47.364 56.5276H49.268L51.004 63.8776L52.95 56.5276H54.49L56.478 63.9196L58.27 56.5276H60.006L57.5 66.5376H55.638L53.664 59.2436L51.634 66.5376H49.856ZM63.9702 66.6776C61.8142 66.6776 60.2602 65.2636 60.2602 62.9536V62.8416C60.2602 60.5736 61.8142 59.0616 63.9002 59.0616C65.7202 59.0616 67.3582 60.1396 67.3582 62.7576V63.2476H61.9962C62.0522 64.6336 62.7522 65.4176 64.0122 65.4176C65.0342 65.4176 65.5662 65.0116 65.6922 64.2976H67.3302C67.0922 65.8376 65.8462 66.6776 63.9702 66.6776ZM62.0242 62.1136H65.6782C65.5942 60.8536 64.9502 60.2936 63.9002 60.2936C62.8782 60.2936 62.1922 60.9796 62.0242 62.1136ZM72.9593 66.6776C71.7973 66.6776 70.9573 66.1036 70.5653 65.3616V66.5376H68.8713V55.8276H70.5653V60.3916C70.9713 59.6916 71.8813 59.0616 72.9593 59.0616C74.7933 59.0616 76.2073 60.4196 76.2073 62.7856V62.8976C76.2073 65.2496 74.8493 66.6776 72.9593 66.6776ZM72.5393 65.3336C73.7853 65.3336 74.4713 64.4936 74.4713 62.9256V62.8136C74.4713 61.1896 73.6313 60.3916 72.5253 60.3916C71.3493 60.3916 70.5093 61.1896 70.5093 62.8136V62.9256C70.5093 64.5636 71.3073 65.3336 72.5393 65.3336Z" fill="black" fill-opacity="0.5"/>
</svg>
