<svg width="473" height="707" viewBox="0 0 473 707" fill="none" xmlns="http://www.w3.org/2000/svg">
<g clip-path="url(#clip0_1106_2977)">
<path d="M93.0662 442.26C92.0022 442.176 90.9422 442.134 89.8892 442.134C80.5422 442.134 71.5962 445.422 64.4072 451.553C56.4092 458.375 51.5442 467.905 50.7122 478.386C49.8802 488.869 53.1802 499.045 60.0022 507.045C66.8262 515.043 76.3572 519.908 86.8372 520.74C97.3382 521.565 107.497 518.27 115.496 511.448C123.494 504.626 128.359 495.095 129.191 484.615C130.908 462.977 114.702 443.978 93.0662 442.26Z" fill="#FCE354"/>
<path d="M93.1471 441.22C70.9011 439.455 51.4361 456.058 49.6711 478.304C47.9061 500.55 64.5091 520.015 86.7551 521.78C109.001 523.545 128.466 506.942 130.231 484.696C131.996 462.45 115.393 442.985 93.1471 441.22ZM129.191 484.614C128.359 495.094 123.494 504.625 115.496 511.447C107.496 518.269 97.3371 521.565 86.8371 520.739C76.3571 519.907 66.8261 515.042 60.0021 507.044C53.1801 499.044 49.8801 488.867 50.7121 478.385C51.5441 467.904 56.4091 458.374 64.4071 451.552C71.5961 445.421 80.5421 442.133 89.8891 442.133C90.9431 442.133 92.0031 442.176 93.0661 442.259C114.702 443.978 130.908 462.977 129.191 484.614Z" fill="url(#paint0_linear_1106_2977)"/>
<path d="M93.1461 441.222C82.3931 440.362 71.9421 443.753 63.7311 450.759C55.5191 457.763 50.5261 467.544 49.6741 478.303C48.8181 489.062 52.2051 499.509 59.2091 507.72C66.2131 515.932 75.9961 520.925 86.7571 521.777C87.8481 521.864 88.9351 521.908 90.0181 521.908C99.6111 521.908 108.796 518.534 116.173 512.24C124.385 505.236 129.378 495.455 130.23 484.694C131.992 462.486 115.357 442.985 93.1461 441.222ZM128.202 484.536C127.391 494.752 122.649 504.043 114.852 510.693C107.053 517.343 97.1511 520.556 86.9151 519.751C76.6991 518.94 67.4081 514.198 60.7561 506.401C54.1061 498.603 50.8891 488.682 51.7001 478.464C52.5111 468.248 57.2531 458.957 65.0501 452.307C72.0581 446.331 80.7781 443.126 89.8901 443.126C90.9171 443.126 91.9501 443.168 92.9881 443.249C114.078 444.924 129.875 463.443 128.202 484.536Z" fill="#DDC226"/>
<path opacity="0.3" d="M124.171 484.215C122.672 503.114 106.135 517.219 87.2371 515.719C68.3381 514.22 54.2331 497.684 55.7331 478.785C57.2331 459.886 73.7691 445.781 92.6681 447.281C111.565 448.78 125.67 465.316 124.171 484.215Z" fill="#BCA20C"/>
<g opacity="0.4">
<path d="M87.5872 465.093V459.33H92.7342V464.939C97.8292 465.249 102.718 466.844 105.549 469.056L102.718 475.335C100.145 473.431 96.4392 472.041 92.7342 471.681V480.276C98.4472 481.666 104.828 483.57 104.828 490.93C104.828 496.384 100.865 501.068 92.7342 501.994V507.708H87.5872V502.098C83.7262 501.789 79.9702 500.76 77.1392 498.959L79.7132 492.628C82.3382 494.121 85.0132 494.996 87.5872 495.305V486.555C81.8732 485.217 75.5952 483.313 75.5952 476.056C75.5952 470.703 79.5072 466.072 87.5872 465.093ZM92.7342 487.842V495.151C95.4612 494.534 96.5422 493.041 96.5422 491.342C96.5412 489.54 94.9982 488.563 92.7342 487.842ZM83.8812 475.439C83.8812 477.24 85.3742 478.218 87.5872 478.99V471.888C85.0132 472.454 83.8812 473.792 83.8812 475.439Z" fill="#493F07"/>
</g>
<path d="M86.8812 464.152V458.389H92.0282V463.998C97.1232 464.308 102.012 465.903 104.843 468.115L102.012 474.394C99.4392 472.49 95.7332 471.1 92.0282 470.74V479.335C97.7412 480.725 104.122 482.629 104.122 489.989C104.122 495.443 100.159 500.127 92.0282 501.053V506.767H86.8812V501.157C83.0202 500.848 79.2642 499.819 76.4332 498.018L79.0072 491.687C81.6322 493.18 84.3072 494.055 86.8812 494.364V485.614C81.1672 484.276 74.8892 482.372 74.8892 475.115C74.8892 469.762 78.8002 465.13 86.8812 464.152ZM92.0272 486.9V494.209C94.7542 493.592 95.8352 492.099 95.8352 490.4C95.8352 488.599 94.2922 487.621 92.0272 486.9ZM83.1742 474.497C83.1742 476.298 84.6672 477.276 86.8802 478.048V470.946C84.3072 471.512 83.1742 472.85 83.1742 474.497Z" fill="#D2B826"/>
<mask id="mask0_1106_2977" style="mask-type:luminance" maskUnits="userSpaceOnUse" x="55" y="447" width="70" height="69">
<path d="M124.171 484.215C122.672 503.114 106.135 517.219 87.2371 515.719C68.3381 514.22 54.2331 497.684 55.7331 478.785C57.2331 459.886 73.7691 445.781 92.6681 447.281C111.565 448.78 125.67 465.316 124.171 484.215Z" fill="white"/>
</mask>
<g mask="url(#mask0_1106_2977)">
<g opacity="0.2">
<path d="M133.391 454.097L127.642 447.358L47.4862 515.735L53.2351 522.474L133.391 454.097Z" fill="#FFF4B3"/>
<path d="M121.631 447.29L111.316 435.198L31.1606 503.575L41.4751 515.667L121.631 447.29Z" fill="#FFF4B3"/>
<path d="M138.877 461.77L136.002 458.401L55.8468 526.777L58.7213 530.147L138.877 461.77Z" fill="#FFF4B3"/>
</g>
</g>
<path opacity="0.3" d="M56.8291 479.882C58.3291 460.983 74.8651 446.878 93.7641 448.378C101.849 449.02 109.043 452.428 114.527 457.581C108.923 451.819 101.309 447.966 92.6671 447.28C73.7681 445.78 57.2321 459.885 55.7321 478.784C54.8741 489.598 59.1391 499.623 66.4741 506.515C59.8231 499.677 56.0151 490.139 56.8291 479.882Z" fill="#BCA20C"/>
<path opacity="0.3" d="M113.53 456.572C120.3 463.424 124.183 473.051 123.362 483.406C121.862 502.305 105.326 516.41 86.4272 514.91C78.2942 514.265 71.0592 510.823 65.5642 505.618C71.1492 511.271 78.6932 515.041 87.2362 515.719C106.135 517.218 122.671 503.114 124.17 484.215C125.025 473.449 120.804 463.462 113.53 456.572Z" fill="#BCA20C"/>
<path d="M137.642 528.274V547.97C137.642 551.396 116.288 554.176 89.9492 554.176C63.6102 554.176 42.2612 551.396 42.2612 547.97V528.274H137.642Z" fill="#635D39"/>
<path d="M89.9512 534.48C116.29 534.48 137.641 531.701 137.641 528.274C137.641 524.847 116.29 522.068 89.9512 522.068C63.6128 522.068 42.2612 524.847 42.2612 528.274C42.2612 531.701 63.6128 534.48 89.9512 534.48Z" fill="#E9E4C5"/>
<path d="M89.9511 530.768C100.536 530.768 109.117 529.651 109.117 528.274C109.117 526.897 100.536 525.78 89.9511 525.78C79.3661 525.78 70.7852 526.897 70.7852 528.274C70.7852 529.651 79.3661 530.768 89.9511 530.768Z" fill="#C9C29B"/>
<path d="M431.739 528.274V547.97C431.739 551.396 410.385 554.176 384.046 554.176C357.707 554.176 336.358 551.396 336.358 547.97V528.274H431.739Z" fill="#635D39"/>
<path d="M384.048 534.48C410.387 534.48 431.738 531.701 431.738 528.274C431.738 524.847 410.387 522.068 384.048 522.068C357.71 522.068 336.358 524.847 336.358 528.274C336.358 531.701 357.71 534.48 384.048 534.48Z" fill="#E9E4C5"/>
<path d="M384.048 530.768C394.633 530.768 403.213 529.651 403.213 528.274C403.213 526.897 394.633 525.78 384.048 525.78C373.464 525.78 364.883 526.897 364.883 528.274C364.883 529.651 373.464 530.768 384.048 530.768Z" fill="#C9C29B"/>
<path d="M392.622 442.429C391.563 442.327 390.507 442.266 389.456 442.247C380.136 442.083 371.159 445.204 363.883 451.19C355.789 457.851 350.77 467.269 349.757 477.704C348.744 488.141 351.855 498.346 358.517 506.442C365.18 514.536 374.598 519.555 385.033 520.568C395.489 521.575 405.675 518.468 413.772 511.806C421.866 505.145 426.885 495.727 427.898 485.292C429.989 463.749 414.164 444.522 392.622 442.429Z" fill="#FCE354"/>
<path d="M392.721 441.393C370.571 439.242 350.872 455.455 348.721 477.605C346.57 499.755 362.783 519.454 384.933 521.605C407.083 523.756 426.782 507.543 428.933 485.393C431.084 463.243 414.871 443.544 392.721 441.393ZM427.897 485.294C426.884 495.729 421.866 505.146 413.771 511.808C405.675 518.47 395.488 521.577 385.032 520.57C374.597 519.557 365.18 514.538 358.516 506.444C351.855 498.348 348.743 488.143 349.756 477.706C350.769 467.271 355.788 457.853 363.882 451.192C371.157 445.205 380.135 442.084 389.455 442.249C390.506 442.267 391.562 442.329 392.621 442.431C414.164 444.522 429.989 463.749 427.897 485.294Z" fill="url(#paint1_linear_1106_2977)"/>
<path d="M392.72 441.396C382.014 440.349 371.534 443.547 363.223 450.388C354.912 457.227 349.762 466.892 348.723 477.604C347.68 488.316 350.874 498.792 357.713 507.103C364.552 515.414 374.219 520.564 384.933 521.603C386.019 521.709 387.102 521.772 388.182 521.791C397.747 521.96 406.964 518.757 414.43 512.611C422.741 505.772 427.891 496.107 428.93 485.393C431.078 463.279 414.835 443.543 392.72 441.396ZM426.913 485.198C425.925 495.37 421.033 504.55 413.143 511.044C405.251 517.538 395.321 520.567 385.129 519.585C374.957 518.597 365.777 513.705 359.281 505.815C352.788 497.923 349.755 487.975 350.742 477.801C351.73 467.629 356.621 458.449 364.512 451.955C371.604 446.119 380.355 443.077 389.44 443.237C390.464 443.255 391.494 443.315 392.526 443.414C413.525 445.454 428.951 464.197 426.913 485.198Z" fill="#DDC226"/>
<path opacity="0.3" d="M422.898 484.807C421.071 503.624 404.336 517.397 385.519 515.57C366.702 513.743 352.929 497.008 354.756 478.191C356.583 459.374 373.319 445.601 392.136 447.428C410.952 449.255 424.725 465.99 422.898 484.807Z" fill="#BCA20C"/>
<g opacity="0.4">
<path d="M408.852 474.923L408.859 474.356C408.919 469.236 404.97 465.008 399.933 464.644C399.738 464.63 399.543 464.621 399.348 464.619L393.838 464.554L393.899 459.325L390.852 459.289L390.79 464.518L388.639 464.493L388.7 459.264L383.331 459.201L383.269 464.43L371.793 464.295L371.691 472.98L374.434 473.012L374.162 496.136L371.419 496.104L371.324 504.137L382.8 504.272L382.751 508.465L388.121 508.528L388.17 504.335L390.321 504.36L390.272 508.553L393.319 508.589L393.368 504.396L398.768 504.46C399 504.463 399.237 504.459 399.463 504.444C404.52 504.144 408.555 499.992 408.616 494.848L408.623 494.281C408.683 489.161 404.734 484.933 399.697 484.569C399.502 484.555 399.307 484.546 399.112 484.544C399.307 484.546 399.508 484.536 399.697 484.526C404.756 484.226 408.792 480.068 408.852 474.923ZM394.52 492.651C394.501 494.278 393.169 495.585 391.541 495.566L388.274 495.528L388.368 487.501L391.738 487.541C393.304 487.559 394.563 488.848 394.545 490.421L394.52 492.651ZM394.688 478.432C394.669 480.059 393.337 481.36 391.71 481.341L388.443 481.303L388.537 473.282L391.907 473.322C393.473 473.34 394.732 474.629 394.714 476.195L394.688 478.432Z" fill="#493F07"/>
</g>
<path d="M408.148 473.984L408.155 473.417C408.215 468.297 404.266 464.069 399.229 463.705C399.034 463.691 398.839 463.682 398.644 463.68L393.134 463.615L393.196 458.386L390.149 458.35L390.088 463.579L387.936 463.554L387.998 458.325L382.628 458.262L382.566 463.491L371.09 463.356L370.988 472.041L373.731 472.073L373.459 495.197L370.716 495.165L370.621 503.198L382.098 503.333L382.049 507.526L387.419 507.589L387.468 503.396L389.619 503.421L389.57 507.614L392.617 507.65L392.666 503.457L398.066 503.521C398.298 503.524 398.535 503.52 398.761 503.505C403.818 503.205 407.853 499.052 407.914 493.909L407.921 493.342C407.981 488.222 404.032 483.994 398.995 483.63C398.8 483.616 398.605 483.607 398.41 483.605C398.605 483.607 398.806 483.597 398.995 483.588C404.052 483.287 408.087 479.128 408.148 473.984ZM393.816 491.712C393.797 493.339 392.465 494.646 390.838 494.627L387.571 494.589L387.666 486.562L391.036 486.602C392.602 486.62 393.861 487.909 393.843 489.482L393.816 491.712ZM393.983 477.493C393.964 479.12 392.632 480.421 391.005 480.402L387.738 480.363L387.832 472.342L391.202 472.382C392.768 472.4 394.027 473.689 394.009 475.256L393.983 477.493Z" fill="#D2B826"/>
<mask id="mask1_1106_2977" style="mask-type:luminance" maskUnits="userSpaceOnUse" x="354" y="447" width="70" height="69">
<path d="M422.898 484.807C421.071 503.624 404.336 517.397 385.519 515.57C366.702 513.743 352.929 497.008 354.756 478.191C356.583 459.374 373.319 445.601 392.136 447.428C410.952 449.255 424.725 465.99 422.898 484.807Z" fill="white"/>
</mask>
<g mask="url(#mask1_1106_2977)">
<g opacity="0.2">
<path d="M432.633 454.93L427.02 448.11L345.899 514.879L351.512 521.699L432.633 454.93Z" fill="#FFF4B3"/>
<path d="M421.029 447.933L410.957 435.696L329.836 502.465L339.908 514.702L421.029 447.933Z" fill="#FFF4B3"/>
<path d="M437.969 462.677L435.162 459.266L354.041 526.035L356.848 529.446L437.969 462.677Z" fill="#FFF4B3"/>
</g>
</g>
<path opacity="0.3" d="M355.83 479.304C357.657 460.487 374.393 446.714 393.21 448.541C401.26 449.323 408.373 452.847 413.75 458.082C408.264 452.238 400.74 448.263 392.135 447.427C373.318 445.6 356.583 459.373 354.755 478.19C353.709 488.957 357.786 499.028 364.978 506.029C358.468 499.094 354.839 489.517 355.83 479.304Z" fill="#BCA20C"/>
<path opacity="0.3" d="M412.774 457.059C419.404 464.01 423.107 473.676 422.106 483.987C420.279 502.804 403.544 516.577 384.726 514.75C376.628 513.964 369.475 510.405 364.087 505.119C369.557 510.853 377.012 514.745 385.518 515.571C404.335 517.398 421.07 503.625 422.897 484.808C423.939 474.088 419.907 464.056 412.774 457.059Z" fill="#BCA20C"/>
<path d="M323.36 475.159V510.825C323.36 517.029 284.691 522.063 236.996 522.063C189.301 522.063 150.641 517.028 150.641 510.825V475.159H323.36Z" fill="#635D39"/>
<path d="M236.999 486.397C284.694 486.397 323.358 481.366 323.358 475.159C323.358 468.952 284.694 463.921 236.999 463.921C189.304 463.921 150.64 468.952 150.64 475.159C150.64 481.366 189.304 486.397 236.999 486.397Z" fill="#E9E4C5"/>
<path d="M236.999 479.675C256.167 479.675 271.705 477.653 271.705 475.159C271.705 472.665 256.167 470.643 236.999 470.643C217.832 470.643 202.293 472.665 202.293 475.159C202.293 477.653 217.832 479.675 236.999 479.675Z" fill="#C9C29B"/>
<path d="M201.4 251.362H281.074C288.964 251.362 295.36 257.758 295.36 265.648V442.08C295.36 449.97 288.964 456.366 281.074 456.366H201.4C193.51 456.366 187.114 449.97 187.114 442.08V265.648C187.113 257.758 193.51 251.362 201.4 251.362Z" fill="#635D39"/>
<path d="M202.046 256.969H280.427C285.675 256.969 289.929 261.223 289.929 266.471V441.257C289.929 446.505 285.675 450.759 280.427 450.759H202.046C196.798 450.759 192.544 446.505 192.544 441.257V266.471C192.544 261.223 196.798 256.969 202.046 256.969Z" fill="#FAFAFA"/>
<path opacity="0.4" d="M267.104 263.197H215.369C214.667 263.197 214.098 262.628 214.098 261.926V261.862C214.098 261.16 214.667 260.591 215.369 260.591H267.104C267.806 260.591 268.375 261.16 268.375 261.862V261.926C268.375 262.628 267.806 263.197 267.104 263.197Z" fill="#635D39"/>
<path opacity="0.4" d="M267.104 444.439H215.369C214.667 444.439 214.098 443.87 214.098 443.168V443.104C214.098 442.402 214.667 441.833 215.369 441.833H267.104C267.806 441.833 268.375 442.402 268.375 443.104V443.168C268.375 443.87 267.806 444.439 267.104 444.439Z" fill="#635D39"/>
<path d="M256.11 337.91H255.11V302.859H277.975V281.425H278.975V303.859H256.11V337.91Z" fill="#181818"/>
<path d="M278.472 283.2C277.492 283.2 276.697 282.405 276.697 281.425C276.697 280.445 277.492 279.65 278.472 279.65C279.452 279.65 280.247 280.445 280.247 281.425C280.247 282.405 279.452 283.2 278.472 283.2Z" fill="#181818"/>
<path d="M238.487 300.132H237.487V337.91H238.487V300.132Z" fill="#181818"/>
<path d="M237.987 301.907C237.007 301.907 236.212 301.112 236.212 300.132C236.212 299.152 237.007 298.357 237.987 298.357C238.967 298.357 239.762 299.152 239.762 300.132C239.762 301.112 238.967 301.907 237.987 301.907Z" fill="#181818"/>
<path d="M219.441 337.91H218.441V300.632H200.531V281.425H201.531V299.632H219.441V337.91Z" fill="#181818"/>
<path d="M201.031 283.2C200.051 283.2 199.256 282.405 199.256 281.425C199.256 280.445 200.051 279.65 201.031 279.65C202.011 279.65 202.806 280.445 202.806 281.425C202.806 282.405 202.011 283.2 201.031 283.2Z" fill="#181818"/>
<path d="M247.876 336.368H246.876V295.035H262.527V272.868H263.527V296.035H247.876V336.368Z" fill="#181818"/>
<path d="M227.693 337.91H226.693V288.368H208.36V272.202H209.36V287.368H227.693V337.91Z" fill="#181818"/>
<path d="M208.86 273.976C209.841 273.976 210.635 273.181 210.635 272.201C210.635 271.221 209.841 270.426 208.86 270.426C207.88 270.426 207.085 271.221 207.085 272.201C207.085 273.181 207.88 273.976 208.86 273.976Z" fill="#181818"/>
<path d="M263.027 274.643C262.047 274.643 261.252 273.848 261.252 272.868C261.252 271.888 262.047 271.093 263.027 271.093C264.007 271.093 264.802 271.888 264.802 272.868C264.802 273.848 264.007 274.643 263.027 274.643Z" fill="#181818"/>
<path d="M201.528 412.783H200.528V390.348H223.393V356.298H224.393V391.348H201.528V412.783Z" fill="#181818"/>
<path d="M201.031 411.007C202.011 411.007 202.806 411.802 202.806 412.782C202.806 413.762 202.011 414.557 201.031 414.557C200.051 414.557 199.256 413.762 199.256 412.782C199.256 411.802 200.05 411.007 201.031 411.007Z" fill="#181818"/>
<path d="M242.015 360.118H241.015V418.455H242.015V360.118Z" fill="#181818"/>
<path d="M241.516 416.681C242.496 416.681 243.291 417.476 243.291 418.456C243.291 419.436 242.496 420.231 241.516 420.231C240.536 420.231 239.741 419.436 239.741 418.456C239.74 417.475 240.535 416.681 241.516 416.681Z" fill="#181818"/>
<path d="M278.971 412.783H277.971V394.576H260.061V356.298H261.061V393.576H278.971V412.783Z" fill="#181818"/>
<path d="M278.472 411.007C279.452 411.007 280.247 411.802 280.247 412.782C280.247 413.762 279.452 414.557 278.472 414.557C277.492 414.557 276.697 413.762 276.697 412.782C276.697 411.802 277.491 411.007 278.472 411.007Z" fill="#181818"/>
<path d="M216.976 421.339H215.976V398.172H231.627V357.839H232.627V399.172H216.976V421.339Z" fill="#181818"/>
<path d="M271.142 422.006H270.142V406.839H251.809V356.298H252.809V405.839H271.142V422.006Z" fill="#181818"/>
<path d="M270.643 420.231C271.623 420.231 272.418 421.026 272.418 422.006C272.418 422.986 271.623 423.781 270.643 423.781C269.663 423.781 268.868 422.986 268.868 422.006C268.867 421.026 269.662 420.231 270.643 420.231Z" fill="#181818"/>
<path d="M216.476 419.564C217.456 419.564 218.251 420.359 218.251 421.339C218.251 422.319 217.456 423.114 216.476 423.114C215.496 423.114 214.701 422.319 214.701 421.339C214.701 420.359 215.496 419.564 216.476 419.564Z" fill="#181818"/>
<path d="M278.971 336.868H261.476V335.868H277.971V319.021H278.971V336.868Z" fill="#181818"/>
<path d="M278.475 317.245C279.455 317.245 280.25 318.04 280.25 319.02C280.25 320 279.455 320.795 278.475 320.795C277.495 320.795 276.7 320 276.7 319.02C276.7 318.04 277.494 317.245 278.475 317.245Z" fill="#181818"/>
<path d="M281.36 343.879H261.476V344.879H281.36V343.879Z" fill="#181818"/>
<path d="M281.36 346.154C282.34 346.154 283.135 345.359 283.135 344.379C283.135 343.399 282.34 342.604 281.36 342.604C280.38 342.604 279.585 343.399 279.585 344.379C279.585 345.359 280.38 346.154 281.36 346.154Z" fill="#181818"/>
<path d="M278.971 377.397H277.971V353.748H261.476V352.748H278.971V377.397Z" fill="#181818"/>
<path d="M278.472 375.235C279.452 375.235 280.247 376.03 280.247 377.01C280.247 377.99 279.452 378.785 278.472 378.785C277.492 378.785 276.697 377.99 276.697 377.01C276.697 376.03 277.491 375.235 278.472 375.235Z" fill="#181818"/>
<path d="M217.148 336.868H199.652V319.021H200.652V335.868H217.148V336.868Z" fill="#181818"/>
<path d="M200.149 317.245C199.169 317.245 198.374 318.04 198.374 319.02C198.374 320 199.169 320.795 200.149 320.795C201.129 320.795 201.924 320 201.924 319.02C201.924 318.04 201.129 317.245 200.149 317.245Z" fill="#181818"/>
<path d="M217.148 343.879H197.264V344.879H217.148V343.879Z" fill="#181818"/>
<path d="M197.264 346.154C198.244 346.154 199.039 345.359 199.039 344.379C199.039 343.399 198.244 342.604 197.264 342.604C196.284 342.604 195.489 343.399 195.489 344.379C195.489 345.359 196.284 346.154 197.264 346.154Z" fill="#181818"/>
<path d="M200.652 377.397H199.652V352.748H217.148V353.748H200.652V377.397Z" fill="#181818"/>
<path d="M200.152 375.235C199.172 375.235 198.377 376.03 198.377 377.01C198.377 377.99 199.172 378.785 200.152 378.785C201.132 378.785 201.927 377.99 201.927 377.01C201.927 376.03 201.132 375.235 200.152 375.235Z" fill="#181818"/>
<path d="M239.762 386.003C206.931 367.302 208.178 324.497 208.178 324.497L239.762 309.952L271.346 324.497C271.346 324.497 272.593 367.302 239.762 386.003Z" fill="#C1A716"/>
<path d="M239.762 379.642C212.424 364.07 213.462 328.426 213.462 328.426L239.762 316.314L266.062 328.426C266.062 328.426 267.1 364.069 239.762 379.642Z" fill="#E8CF43"/>
<path d="M247.376 338.212C247.376 340.922 245.963 343.315 243.819 344.645V353.987C243.819 356.298 241.957 358.159 239.647 358.159C237.336 358.159 235.475 356.297 235.475 353.987V344.512C233.464 343.132 232.15 340.822 232.15 338.212C232.15 334.006 235.558 330.599 239.763 330.599C243.968 330.599 247.376 334.006 247.376 338.212Z" fill="#5B5117"/>
<path d="M274.127 232.761C274.127 234.293 272.885 235.536 271.352 235.536C269.82 235.536 268.577 234.294 268.577 232.761C268.577 231.229 269.819 229.986 271.352 229.986C272.885 229.986 274.127 231.229 274.127 232.761Z" fill="#FFD900"/>
<path d="M433.48 575.522C435.013 575.522 436.255 574.28 436.255 572.747C436.255 571.214 435.013 569.972 433.48 569.972C431.948 569.972 430.705 571.214 430.705 572.747C430.705 574.28 431.948 575.522 433.48 575.522Z" fill="#FFD900"/>
<path d="M38.6722 260.811C40.2048 260.811 41.4472 259.569 41.4472 258.036C41.4472 256.503 40.2048 255.261 38.6722 255.261C37.1396 255.261 35.8972 256.503 35.8972 258.036C35.8972 259.569 37.1396 260.811 38.6722 260.811Z" fill="#FFD900"/>
<path d="M59.5251 579.659C59.5251 581.191 58.2831 582.434 56.7501 582.434C55.2181 582.434 53.9751 581.192 53.9751 579.659C53.9751 578.126 55.2171 576.884 56.7501 576.884C58.2821 576.884 59.5251 578.126 59.5251 579.659Z" fill="#FFD900"/>
<path d="M474.505 306.439C474.505 307.971 473.263 309.214 471.73 309.214C470.198 309.214 468.955 307.972 468.955 306.439C468.955 304.907 470.197 303.664 471.73 303.664C473.263 303.664 474.505 304.906 474.505 306.439Z" fill="#FFD900"/>
<path d="M427.314 112.649C427.314 114.181 426.072 115.424 424.539 115.424C423.007 115.424 421.764 114.182 421.764 112.649C421.764 111.116 423.006 109.874 424.539 109.874C426.072 109.875 427.314 111.117 427.314 112.649Z" fill="#FFD900"/>
<path d="M479.231 414.048V415.668H476.291V418.608H474.671V415.668H471.731V414.048H474.671V411.108H476.291V414.048H479.231Z" fill="#FFD900"/>
<path d="M149.481 388.342V389.962H146.541V392.902H144.921V389.962H141.981V388.342H144.921V385.402H146.541V388.342H149.481Z" fill="#FFD900"/>
<path d="M295.231 562.861V564.481H292.291V567.421H290.671V564.481H287.731V562.861H290.671V559.921H292.291V562.861H295.231Z" fill="#FFD900"/>
<path d="M38.6721 401.772V403.392H35.7321V406.332H34.1121V403.392H31.1721V401.772H34.1121V398.832H35.7321V401.772H38.6721Z" fill="#FFD900"/>
<path d="M432.871 220.955V222.575H429.931V225.515H428.311V222.575H425.371V220.955H428.311V218.015H429.931V220.955H432.871Z" fill="#FFD900"/>
<path d="M42.4221 127.827V129.447H39.4821V132.387H37.8621V129.447H34.9221V127.827H37.8621V124.887H39.4821V127.827H42.4221Z" fill="#FFD900"/>
<path d="M181.36 313.551H89.8821V440.469" stroke="#181818" stroke-miterlimit="10" stroke-dasharray="5 5"/>
<path d="M296.41 313.551H387.888V440.469" stroke="#181818" stroke-miterlimit="10" stroke-dasharray="5 5"/>
<path d="M89.8821 426.742L83.5671 437.242H96.1961L89.8821 426.742Z" fill="#181818"/>
<path d="M387.888 437.242L394.203 426.742H381.573L387.888 437.242Z" fill="#181818"/>
<path d="M180.784 344.374H175.157V364.387H160.152V344.374H154.525L167.655 324.371L180.784 344.374Z" fill="#FFD900"/>
<path d="M300.34 344.384H305.967V324.371H320.972V344.384H326.599L313.47 364.387L300.34 344.384Z" fill="#FFD900"/>
<path d="M112.72 329.26C125.334 316.646 125.334 296.194 112.72 283.58C100.106 270.966 79.6539 270.966 67.0397 283.58C54.4255 296.194 54.4255 316.646 67.0398 329.26C79.654 341.874 100.106 341.874 112.72 329.26Z" fill="#B53D08"/>
<path d="M100.452 331.446C114.272 325.608 120.743 309.673 114.906 295.853C109.068 282.033 93.1329 275.561 79.3128 281.399C65.4927 287.236 59.0214 303.172 64.8588 316.992C70.6962 330.812 86.6317 337.283 100.452 331.446Z" fill="#DD510B"/>
<path d="M89.88 288.425V288.475L89.77 288.425H89.88Z" fill="#F5FAFF"/>
<path d="M75.2501 306.425C75.2501 312.044 78.5121 317.165 83.4961 319.592C84.2591 319.963 84.6281 320.838 84.3381 321.635L84.3051 321.726C83.9781 322.625 82.9411 323.059 82.0801 322.643C75.9161 319.672 71.8901 313.358 71.8901 306.425C71.8901 298.555 76.9601 291.855 84.0001 289.415L83.1501 285.485L89.7701 288.425L89.8801 288.475L92.1701 289.495L85.6201 296.905L84.7201 292.735C79.1901 294.825 75.2501 300.175 75.2501 306.425Z" fill="#F5FAFF"/>
<path d="M93.8102 323.975L94.0202 327.975L85.7502 322.575L93.4002 316.305L93.6302 320.565C99.8902 318.905 104.51 313.185 104.51 306.425C104.51 300.555 101.06 295.355 95.7902 293.035C95.0102 292.695 94.6102 291.825 94.8702 291.015C95.1102 290.285 95.7902 289.815 96.5102 289.815C96.7302 289.815 96.9502 289.865 97.1602 289.955C103.64 292.815 107.88 299.215 107.88 306.425C107.88 314.995 101.85 322.185 93.8102 323.975Z" fill="#F5FAFF"/>
<path d="M419.346 313.731C423.388 296.356 412.58 278.993 395.204 274.951C377.829 270.908 360.466 281.717 356.424 299.093C352.381 316.468 363.19 333.831 380.565 337.873C397.941 341.916 415.304 331.107 419.346 313.731Z" fill="#1D964E"/>
<path d="M414.346 312.576C417.753 297.966 408.67 283.359 394.06 279.952C379.449 276.545 364.843 285.628 361.436 300.238C358.029 314.849 367.111 329.455 381.722 332.862C396.332 336.269 410.939 327.187 414.346 312.576Z" fill="#3DDB86"/>
<path d="M371.716 299.517L386.101 306.599L407.195 290.276L385.66 317.986L371.716 299.517Z" fill="#F5FAFF"/>
</g>
<defs>
<linearGradient id="paint0_linear_1106_2977" x1="49.6714" y1="478.304" x2="130.232" y2="484.696" gradientUnits="userSpaceOnUse">
<stop stop-color="#FCE354"/>
<stop offset="0.9996" stop-color="#FED803"/>
</linearGradient>
<linearGradient id="paint1_linear_1106_2977" x1="348.537" y1="480.79" x2="429.117" y2="482.208" gradientUnits="userSpaceOnUse">
<stop stop-color="#FCE354"/>
<stop offset="0.9996" stop-color="#FED803"/>
</linearGradient>
<clipPath id="clip0_1106_2977">
<rect width="473" height="707" fill="white"/>
</clipPath>
</defs>
</svg>
