<svg width="711" height="623" viewBox="0 0 711 623" fill="none" xmlns="http://www.w3.org/2000/svg">
<g filter="url(#filter0_f_1217_1918)">
<circle cx="480.5" cy="230.5" r="43.5" fill="#A28B0F"/>
</g>
<g filter="url(#filter1_f_1217_1918)">
<circle cx="191" cy="432" r="36" fill="black" fill-opacity="0.5"/>
</g>
<g filter="url(#filter2_bdd_1217_1918)">
<rect x="155" y="258" width="375" height="159.218" rx="5.84424" fill="#FAFAFA"/>
<rect x="155.584" y="258.584" width="373.831" height="158.049" rx="5.25981" stroke="white" stroke-opacity="0.5" stroke-width="1.16885"/>
<path d="M164.729 295.063L167.317 287.541H168.516L171.062 295.063H170.157L169.421 292.896H166.318L165.592 295.063H164.729ZM167.875 288.299L166.57 292.17H169.179L167.875 288.299ZM172.112 295.063V289.561H172.985V290.403C173.238 289.887 173.837 289.466 174.626 289.466C175.331 289.466 175.952 289.761 176.236 290.497C176.615 289.782 177.435 289.466 178.119 289.466C179.108 289.466 179.97 290.055 179.97 291.654V295.063H179.097V291.591C179.097 290.624 178.687 290.224 177.93 290.224C177.214 290.224 176.478 290.708 176.478 291.697V295.063H175.605V291.591C175.605 290.624 175.195 290.224 174.437 290.224C173.722 290.224 172.985 290.708 172.985 291.697V295.063H172.112ZM183.77 294.432C184.874 294.432 185.569 293.601 185.569 292.359V292.286C185.569 291.013 184.864 290.192 183.77 290.192C182.665 290.192 181.971 291.013 181.971 292.275V292.359C181.971 293.611 182.655 294.432 183.77 294.432ZM183.759 295.157C182.192 295.157 181.066 293.969 181.066 292.359V292.275C181.066 290.624 182.213 289.466 183.77 289.466C185.327 289.466 186.473 290.613 186.473 292.265V292.349C186.473 294.011 185.327 295.157 183.759 295.157ZM189.477 295.157C188.383 295.157 187.562 294.558 187.562 293.043V289.561H188.435V293.001C188.435 293.969 188.846 294.4 189.708 294.4C190.487 294.4 191.223 293.885 191.223 292.896V289.561H192.096V295.063H191.223V294.19C190.97 294.705 190.36 295.157 189.477 295.157ZM193.65 295.063V289.561H194.523V290.434C194.776 289.919 195.386 289.466 196.291 289.466C197.427 289.466 198.226 290.087 198.226 291.686V295.063H197.353V291.623C197.353 290.655 196.943 290.224 196.059 290.224C195.249 290.224 194.523 290.739 194.523 291.728V295.063H193.65ZM201.4 295.136C200.4 295.136 199.916 294.547 199.916 293.685V290.297H199.127V289.561H199.916V288.309H200.79V289.561H202.073V290.297H200.79V293.601C200.79 294.137 201.032 294.4 201.473 294.4C201.747 294.4 201.957 294.358 202.147 294.284V295.021C201.968 295.084 201.757 295.136 201.4 295.136ZM207.502 295.136C206.503 295.136 206.019 294.547 206.019 293.685V290.297H205.23V289.561H206.019V288.309H206.892V289.561H208.176V290.297H206.892V293.601C206.892 294.137 207.134 294.4 207.576 294.4C207.849 294.4 208.06 294.358 208.249 294.284V295.021C208.07 295.084 207.86 295.136 207.502 295.136ZM211.61 295.157C210.053 295.157 208.948 294.063 208.948 292.37V292.286C208.948 290.624 210.011 289.466 211.526 289.466C212.799 289.466 213.998 290.234 213.998 292.201V292.485H209.853C209.895 293.737 210.495 294.432 211.62 294.432C212.473 294.432 212.967 294.116 213.083 293.474H213.956C213.766 294.579 212.851 295.157 211.61 295.157ZM209.885 291.781H213.104C213.02 290.645 212.43 290.192 211.526 290.192C210.632 290.192 210.032 290.802 209.885 291.781ZM215.127 295.063V289.561H216V290.434C216.253 289.919 216.863 289.466 217.768 289.466C218.904 289.466 219.703 290.087 219.703 291.686V295.063H218.83V291.623C218.83 290.655 218.42 290.224 217.536 290.224C216.726 290.224 216 290.739 216 291.728V295.063H215.127ZM223.276 295.157C221.835 295.157 220.794 294.137 220.794 292.422V292.338C220.794 290.655 221.846 289.466 223.36 289.466C224.276 289.466 224.844 289.908 225.159 290.445V286.931H226.032V295.063H225.159V294.116C224.844 294.653 224.076 295.157 223.276 295.157ZM223.371 294.432C224.391 294.432 225.191 293.758 225.191 292.349V292.265C225.191 290.855 224.518 290.192 223.445 290.192C222.351 290.192 221.698 290.96 221.698 292.296V292.38C221.698 293.769 222.445 294.432 223.371 294.432ZM229.84 295.157C228.283 295.157 227.179 294.063 227.179 292.37V292.286C227.179 290.624 228.241 289.466 229.756 289.466C231.029 289.466 232.228 290.234 232.228 292.201V292.485H228.083C228.125 293.737 228.725 294.432 229.851 294.432C230.703 294.432 231.197 294.116 231.313 293.474H232.186C231.997 294.579 231.081 295.157 229.84 295.157ZM228.115 291.781H231.334C231.25 290.645 230.661 290.192 229.756 290.192C228.862 290.192 228.262 290.802 228.115 291.781ZM233.357 295.063V289.561H234.231V290.55C234.578 289.929 235.051 289.498 236.04 289.466V290.287C234.935 290.339 234.231 290.687 234.231 292.044V295.063H233.357ZM239.199 295.157C237.642 295.157 236.538 294.063 236.538 292.37V292.286C236.538 290.624 237.6 289.466 239.115 289.466C240.388 289.466 241.587 290.234 241.587 292.201V292.485H237.442C237.485 293.737 238.084 294.432 239.21 294.432C240.062 294.432 240.556 294.116 240.672 293.474H241.545C241.356 294.579 240.441 295.157 239.199 295.157ZM237.474 291.781H240.693C240.609 290.645 240.02 290.192 239.115 290.192C238.221 290.192 237.621 290.802 237.474 291.781ZM244.789 295.157C243.348 295.157 242.306 294.137 242.306 292.422V292.338C242.306 290.655 243.358 289.466 244.873 289.466C245.788 289.466 246.356 289.908 246.672 290.445V286.931H247.545V295.063H246.672V294.116C246.356 294.653 245.588 295.157 244.789 295.157ZM244.884 294.432C245.904 294.432 246.704 293.758 246.704 292.349V292.265C246.704 290.855 246.03 290.192 244.957 290.192C243.863 290.192 243.211 290.96 243.211 292.296V292.38C243.211 293.769 243.958 294.432 244.884 294.432Z" fill="black"/>
<path d="M491.276 295.147C489.836 295.147 489.145 294.352 489.051 293.258H489.827C489.958 293.987 490.248 294.492 491.267 294.492C492.174 294.492 492.735 293.885 492.735 292.875C492.735 291.93 492.184 291.313 491.333 291.313C490.556 291.313 490.108 291.556 489.752 291.958H489.453V288.377H493.212V289.078H490.126V291.117C490.398 290.864 490.856 290.659 491.492 290.659C492.688 290.659 493.567 291.51 493.567 292.875C493.567 294.287 492.548 295.147 491.276 295.147ZM497.121 294.474C498.29 294.474 498.888 293.576 498.888 291.884V291.51C498.888 289.957 498.234 288.947 497.102 288.947C495.971 288.947 495.298 289.882 495.298 291.528V291.902C495.298 293.595 496.008 294.474 497.121 294.474ZM497.121 295.147C495.522 295.147 494.465 293.857 494.465 291.912V291.538C494.465 289.565 495.466 288.293 497.102 288.293C498.748 288.293 499.711 289.611 499.711 291.519V291.893C499.711 293.838 498.767 295.147 497.121 295.147ZM503.299 294.474C504.468 294.474 505.066 293.576 505.066 291.884V291.51C505.066 289.957 504.411 288.947 503.28 288.947C502.149 288.947 501.475 289.882 501.475 291.528V291.902C501.475 293.595 502.186 294.474 503.299 294.474ZM503.299 295.147C501.7 295.147 500.643 293.857 500.643 291.912V291.538C500.643 289.565 501.644 288.293 503.28 288.293C504.926 288.293 505.889 289.611 505.889 291.519V291.893C505.889 293.838 504.944 295.147 503.299 295.147ZM507.113 295.11C506.785 295.11 506.514 294.848 506.514 294.511C506.514 294.174 506.785 293.913 507.113 293.913C507.44 293.913 507.711 294.174 507.711 294.511C507.711 294.848 507.44 295.11 507.113 295.11ZM510.997 294.474C512.166 294.474 512.764 293.576 512.764 291.884V291.51C512.764 289.957 512.11 288.947 510.978 288.947C509.847 288.947 509.174 289.882 509.174 291.528V291.902C509.174 293.595 509.884 294.474 510.997 294.474ZM510.997 295.147C509.398 295.147 508.341 293.857 508.341 291.912V291.538C508.341 289.565 509.342 288.293 510.978 288.293C512.624 288.293 513.587 289.611 513.587 291.519V291.893C513.587 293.838 512.643 295.147 510.997 295.147ZM517.175 294.474C518.344 294.474 518.942 293.576 518.942 291.884V291.51C518.942 289.957 518.288 288.947 517.156 288.947C516.025 288.947 515.351 289.882 515.351 291.528V291.902C515.351 293.595 516.062 294.474 517.175 294.474ZM517.175 295.147C515.576 295.147 514.519 293.857 514.519 291.912V291.538C514.519 289.565 515.52 288.293 517.156 288.293C518.802 288.293 519.765 289.611 519.765 291.519V291.893C519.765 293.838 518.821 295.147 517.175 295.147Z" fill="black"/>
<path d="M168.443 325.866C166.265 325.866 164.929 324.372 164.929 322.058V321.974C164.929 319.744 166.423 318.134 168.464 318.134C170.031 318.134 171.357 318.965 171.514 320.596H170.61C170.42 319.449 169.758 318.86 168.474 318.86C166.917 318.86 165.876 320.07 165.876 321.963V322.047C165.876 323.962 166.844 325.119 168.464 325.119C169.695 325.119 170.547 324.498 170.736 323.278H171.588C171.325 325.014 170.126 325.866 168.443 325.866ZM175.001 325.14C176.106 325.14 176.8 324.309 176.8 323.068V322.994C176.8 321.721 176.095 320.901 175.001 320.901C173.897 320.901 173.203 321.721 173.203 322.984V323.068C173.203 324.32 173.886 325.14 175.001 325.14ZM174.991 325.866C173.423 325.866 172.298 324.677 172.298 323.068V322.984C172.298 321.332 173.444 320.175 175.001 320.175C176.558 320.175 177.705 321.322 177.705 322.973V323.057C177.705 324.719 176.558 325.866 174.991 325.866ZM178.846 325.771V320.27H179.72V321.143C179.972 320.627 180.582 320.175 181.487 320.175C182.623 320.175 183.422 320.796 183.422 322.395V325.771H182.549V322.331C182.549 321.364 182.139 320.932 181.255 320.932C180.445 320.932 179.72 321.448 179.72 322.437V325.771H178.846ZM186.199 325.771L184.2 320.27H185.147L186.777 324.888L188.387 320.27H189.291L187.314 325.771H186.199ZM192.327 325.866C190.77 325.866 189.665 324.772 189.665 323.078V322.994C189.665 321.332 190.728 320.175 192.242 320.175C193.515 320.175 194.714 320.943 194.714 322.91V323.194H190.57C190.612 324.446 191.211 325.14 192.337 325.14C193.189 325.14 193.684 324.825 193.799 324.183H194.672C194.483 325.287 193.568 325.866 192.327 325.866ZM190.601 322.489H193.82C193.736 321.353 193.147 320.901 192.242 320.901C191.348 320.901 190.749 321.511 190.601 322.489ZM195.844 325.771V320.27H196.717V321.258C197.064 320.638 197.538 320.206 198.526 320.175V320.995C197.422 321.048 196.717 321.395 196.717 322.752V325.771H195.844ZM201.241 325.866C199.926 325.866 199.138 325.203 199.085 324.078H199.937C200 324.73 200.347 325.14 201.231 325.14C202.062 325.14 202.43 324.856 202.43 324.267C202.43 323.688 201.999 323.499 201.147 323.341C199.716 323.078 199.232 322.679 199.232 321.721C199.232 320.701 200.232 320.175 201.094 320.175C202.083 320.175 202.935 320.575 203.082 321.763H202.241C202.115 321.164 201.778 320.901 201.084 320.901C200.452 320.901 200.042 321.216 200.042 321.69C200.042 322.184 200.316 322.384 201.326 322.563C202.462 322.773 203.261 323.026 203.261 324.193C203.261 325.193 202.577 325.866 201.241 325.866ZM204.402 325.771V320.27H205.275V325.771H204.402ZM204.823 319.123C204.507 319.123 204.244 318.86 204.244 318.544C204.244 318.229 204.507 317.966 204.823 317.966C205.139 317.966 205.402 318.229 205.402 318.544C205.402 318.86 205.139 319.123 204.823 319.123ZM209.145 325.14C210.25 325.14 210.944 324.309 210.944 323.068V322.994C210.944 321.721 210.239 320.901 209.145 320.901C208.041 320.901 207.347 321.721 207.347 322.984V323.068C207.347 324.32 208.03 325.14 209.145 325.14ZM209.135 325.866C207.567 325.866 206.442 324.677 206.442 323.068V322.984C206.442 321.332 207.588 320.175 209.145 320.175C210.702 320.175 211.849 321.322 211.849 322.973V323.057C211.849 324.719 210.702 325.866 209.135 325.866ZM212.99 325.771V320.27H213.864V321.143C214.116 320.627 214.726 320.175 215.631 320.175C216.767 320.175 217.566 320.796 217.566 322.395V325.771H216.693V322.331C216.693 321.364 216.283 320.932 215.399 320.932C214.589 320.932 213.864 321.448 213.864 322.437V325.771H212.99ZM221.83 325.771V321.006H221.041V320.27H221.83V319.375C221.83 318.26 222.377 317.608 223.471 317.608C223.755 317.608 223.903 317.64 224.123 317.713V318.45C223.966 318.387 223.745 318.334 223.503 318.334C222.935 318.334 222.703 318.723 222.703 319.281V320.27H224.05V321.006H222.703V325.771H221.83ZM227.051 325.866C225.494 325.866 224.39 324.772 224.39 323.078V322.994C224.39 321.332 225.452 320.175 226.967 320.175C228.24 320.175 229.439 320.943 229.439 322.91V323.194H225.294C225.336 324.446 225.936 325.14 227.062 325.14C227.914 325.14 228.408 324.825 228.524 324.183H229.397C229.208 325.287 228.292 325.866 227.051 325.866ZM225.326 322.489H228.545C228.461 321.353 227.872 320.901 226.967 320.901C226.073 320.901 225.473 321.511 225.326 322.489ZM232.82 325.866C231.263 325.866 230.158 324.772 230.158 323.078V322.994C230.158 321.332 231.221 320.175 232.736 320.175C234.008 320.175 235.208 320.943 235.208 322.91V323.194H231.063C231.105 324.446 231.705 325.14 232.83 325.14C233.682 325.14 234.177 324.825 234.292 324.183H235.166C234.976 325.287 234.061 325.866 232.82 325.866ZM231.094 322.489H234.313C234.229 321.353 233.64 320.901 232.736 320.901C231.841 320.901 231.242 321.511 231.094 322.489Z" fill="black"/>
<path d="M492.21 323.565V322.835H494.211V323.565H492.21ZM499.538 327.034V325.846C497.939 325.734 497.406 324.808 497.293 323.733H498.079C498.172 324.462 498.397 325.107 499.538 325.21V322.611C498.303 322.377 497.565 321.938 497.565 320.815C497.565 319.843 498.369 319.086 499.538 319.011V318.169H500.089V319.02C501.211 319.123 501.913 319.759 502.034 320.844H501.305C501.165 320.123 500.781 319.749 500.089 319.656V321.994C501.464 322.237 502.174 322.676 502.174 323.883C502.174 324.948 501.305 325.771 500.089 325.846V327.034H499.538ZM501.398 323.939C501.398 323.247 501.108 322.919 500.089 322.704V325.21C500.837 325.136 501.398 324.631 501.398 323.939ZM498.303 320.741C498.303 321.33 498.5 321.685 499.538 321.9V319.647C498.752 319.712 498.303 320.161 498.303 320.741ZM504.353 325.771V319.89L502.857 320.965V320.208L504.409 319.086H505.166V325.771H504.353ZM507.232 325.818C506.904 325.818 506.633 325.556 506.633 325.22C506.633 324.883 506.904 324.621 507.232 324.621C507.559 324.621 507.83 324.883 507.83 325.22C507.83 325.556 507.559 325.818 507.232 325.818ZM511.116 325.182C512.285 325.182 512.884 324.285 512.884 322.592V322.218C512.884 320.666 512.229 319.656 511.098 319.656C509.966 319.656 509.293 320.591 509.293 322.237V322.611C509.293 324.303 510.003 325.182 511.116 325.182ZM511.116 325.856C509.517 325.856 508.461 324.565 508.461 322.62V322.246C508.461 320.273 509.461 319.001 511.098 319.001C512.743 319.001 513.706 320.32 513.706 322.227V322.601C513.706 324.546 512.762 325.856 511.116 325.856ZM517.294 325.182C518.463 325.182 519.061 324.285 519.061 322.592V322.218C519.061 320.666 518.407 319.656 517.275 319.656C516.144 319.656 515.471 320.591 515.471 322.237V322.611C515.471 324.303 516.181 325.182 517.294 325.182ZM517.294 325.856C515.695 325.856 514.638 324.565 514.638 322.62V322.246C514.638 320.273 515.639 319.001 517.275 319.001C518.921 319.001 519.884 320.32 519.884 322.227V322.601C519.884 324.546 518.94 325.856 517.294 325.856Z" fill="black"/>
<path d="M164.729 356.48L167.317 348.958H168.516L171.062 356.48H170.157L169.421 354.313H166.318L165.592 356.48H164.729ZM167.875 349.716L166.57 353.587H169.179L167.875 349.716ZM172.112 356.48V350.978H172.985V351.82C173.238 351.304 173.837 350.883 174.626 350.883C175.331 350.883 175.952 351.178 176.236 351.914C176.615 351.199 177.435 350.883 178.119 350.883C179.108 350.883 179.97 351.473 179.97 353.072V356.48H179.097V353.008C179.097 352.041 178.687 351.641 177.93 351.641C177.214 351.641 176.478 352.125 176.478 353.114V356.48H175.605V353.008C175.605 352.041 175.195 351.641 174.437 351.641C173.722 351.641 172.985 352.125 172.985 353.114V356.48H172.112ZM183.77 355.849C184.874 355.849 185.569 355.018 185.569 353.776V353.703C185.569 352.43 184.864 351.609 183.77 351.609C182.665 351.609 181.971 352.43 181.971 353.692V353.776C181.971 355.028 182.655 355.849 183.77 355.849ZM183.759 356.575C182.192 356.575 181.066 355.386 181.066 353.776V353.692C181.066 352.041 182.213 350.883 183.77 350.883C185.327 350.883 186.473 352.03 186.473 353.682V353.766C186.473 355.428 185.327 356.575 183.759 356.575ZM189.477 356.575C188.383 356.575 187.562 355.975 187.562 354.46V350.978H188.435V354.418C188.435 355.386 188.846 355.817 189.708 355.817C190.487 355.817 191.223 355.302 191.223 354.313V350.978H192.096V356.48H191.223V355.607C190.97 356.122 190.36 356.575 189.477 356.575ZM193.65 356.48V350.978H194.523V351.851C194.776 351.336 195.386 350.883 196.291 350.883C197.427 350.883 198.226 351.504 198.226 353.103V356.48H197.353V353.04C197.353 352.072 196.943 351.641 196.059 351.641C195.249 351.641 194.523 352.156 194.523 353.145V356.48H193.65ZM201.4 356.554C200.4 356.554 199.916 355.964 199.916 355.102V351.715H199.127V350.978H199.916V349.726H200.79V350.978H202.073V351.715H200.79V355.018C200.79 355.554 201.032 355.817 201.473 355.817C201.747 355.817 201.957 355.775 202.147 355.701V356.438C201.968 356.501 201.757 356.554 201.4 356.554ZM207.502 356.554C206.503 356.554 206.019 355.964 206.019 355.102V351.715H205.23V350.978H206.019V349.726H206.892V350.978H208.176V351.715H206.892V355.018C206.892 355.554 207.134 355.817 207.576 355.817C207.849 355.817 208.06 355.775 208.249 355.701V356.438C208.07 356.501 207.86 356.554 207.502 356.554ZM211.652 355.849C212.757 355.849 213.451 355.018 213.451 353.776V353.703C213.451 352.43 212.746 351.609 211.652 351.609C210.547 351.609 209.853 352.43 209.853 353.692V353.776C209.853 355.028 210.537 355.849 211.652 355.849ZM211.641 356.575C210.074 356.575 208.948 355.386 208.948 353.776V353.692C208.948 352.041 210.095 350.883 211.652 350.883C213.209 350.883 214.356 352.03 214.356 353.682V353.766C214.356 355.428 213.209 356.575 211.641 356.575ZM220.353 356.575C218.818 356.575 217.66 355.491 217.66 353.787V353.703C217.66 352.02 218.86 350.883 220.332 350.883C221.479 350.883 222.552 351.409 222.72 352.809H221.858C221.721 351.935 221.09 351.609 220.332 351.609C219.333 351.609 218.565 352.409 218.565 353.703V353.787C218.565 355.133 219.301 355.849 220.364 355.849C221.142 355.849 221.847 355.396 221.942 354.502H222.752C222.636 355.691 221.679 356.575 220.353 356.575ZM226.153 355.849C227.258 355.849 227.952 355.018 227.952 353.776V353.703C227.952 352.43 227.247 351.609 226.153 351.609C225.048 351.609 224.354 352.43 224.354 353.692V353.776C224.354 355.028 225.038 355.849 226.153 355.849ZM226.143 356.575C224.575 356.575 223.45 355.386 223.45 353.776V353.692C223.45 352.041 224.596 350.883 226.153 350.883C227.71 350.883 228.857 352.03 228.857 353.682V353.766C228.857 355.428 227.71 356.575 226.143 356.575ZM229.998 356.48V350.978H230.871V351.851C231.124 351.336 231.734 350.883 232.639 350.883C233.775 350.883 234.574 351.504 234.574 353.103V356.48H233.701V353.04C233.701 352.072 233.291 351.641 232.407 351.641C231.597 351.641 230.871 352.156 230.871 353.145V356.48H229.998ZM237.35 356.48L235.351 350.978H236.298L237.929 355.596L239.538 350.978H240.443L238.465 356.48H237.35ZM243.478 356.575C241.921 356.575 240.817 355.481 240.817 353.787V353.703C240.817 352.041 241.879 350.883 243.394 350.883C244.667 350.883 245.866 351.651 245.866 353.619V353.903H241.721C241.764 355.154 242.363 355.849 243.489 355.849C244.341 355.849 244.835 355.533 244.951 354.891H245.824C245.635 355.996 244.72 356.575 243.478 356.575ZM241.753 353.198H244.972C244.888 352.062 244.299 351.609 243.394 351.609C242.5 351.609 241.9 352.219 241.753 353.198ZM246.996 356.48V350.978H247.869V351.967C248.216 351.346 248.689 350.915 249.678 350.883V351.704C248.573 351.757 247.869 352.104 247.869 353.461V356.48H246.996ZM252.464 356.554C251.465 356.554 250.981 355.964 250.981 355.102V351.715H250.192V350.978H250.981V349.726H251.854V350.978H253.138V351.715H251.854V355.018C251.854 355.554 252.096 355.817 252.538 355.817C252.811 355.817 253.022 355.775 253.211 355.701V356.438C253.032 356.501 252.822 356.554 252.464 356.554Z" fill="black"/>
<path d="M479.023 354.647V353.974H482.801V354.647H479.023ZM479.023 352.964V352.291H482.801V352.964H479.023ZM487.944 357.742V356.555C486.345 356.443 485.812 355.517 485.7 354.441H486.485C486.579 355.171 486.803 355.816 487.944 355.919V353.319C486.71 353.086 485.971 352.646 485.971 351.524C485.971 350.552 486.775 349.794 487.944 349.719V348.878H488.496V349.729C489.618 349.832 490.319 350.467 490.44 351.552H489.711C489.571 350.832 489.187 350.458 488.496 350.365V352.702C489.87 352.945 490.581 353.385 490.581 354.591C490.581 355.657 489.711 356.48 488.496 356.555V357.742H487.944ZM489.805 354.647C489.805 353.955 489.515 353.628 488.496 353.413V355.919C489.244 355.844 489.805 355.339 489.805 354.647ZM486.71 351.449C486.71 352.038 486.906 352.394 487.944 352.609V350.355C487.158 350.421 486.71 350.869 486.71 351.449ZM493.582 356.564C492.142 356.564 491.45 355.769 491.356 354.675H492.133C492.263 355.405 492.553 355.91 493.573 355.91C494.48 355.91 495.041 355.302 495.041 354.292C495.041 353.347 494.489 352.73 493.638 352.73C492.862 352.73 492.413 352.973 492.058 353.375H491.758V349.794H495.518V350.495H492.432V352.534C492.703 352.281 493.161 352.076 493.797 352.076C494.994 352.076 495.873 352.927 495.873 354.292C495.873 355.704 494.854 356.564 493.582 356.564ZM499.426 355.891C500.595 355.891 501.194 354.993 501.194 353.301V352.927C501.194 351.374 500.539 350.365 499.408 350.365C498.276 350.365 497.603 351.3 497.603 352.945V353.319C497.603 355.012 498.314 355.891 499.426 355.891ZM499.426 356.564C497.827 356.564 496.771 355.274 496.771 353.329V352.955C496.771 350.982 497.771 349.71 499.408 349.71C501.053 349.71 502.017 351.028 502.017 352.936V353.31C502.017 355.255 501.072 356.564 499.426 356.564ZM504.192 356.48V350.598L502.696 351.674V350.916L504.248 349.794H505.006V356.48H504.192ZM507.071 356.527C506.744 356.527 506.473 356.265 506.473 355.928C506.473 355.592 506.744 355.33 507.071 355.33C507.398 355.33 507.67 355.592 507.67 355.928C507.67 356.265 507.398 356.527 507.071 356.527ZM510.956 355.891C512.124 355.891 512.723 354.993 512.723 353.301V352.927C512.723 351.374 512.068 350.365 510.937 350.365C509.805 350.365 509.132 351.3 509.132 352.945V353.319C509.132 355.012 509.843 355.891 510.956 355.891ZM510.956 356.564C509.357 356.564 508.3 355.274 508.3 353.329V352.955C508.3 350.982 509.301 349.71 510.937 349.71C512.583 349.71 513.546 351.028 513.546 352.936V353.31C513.546 355.255 512.601 356.564 510.956 356.564ZM517.133 355.891C518.302 355.891 518.901 354.993 518.901 353.301V352.927C518.901 351.374 518.246 350.365 517.115 350.365C515.983 350.365 515.31 351.3 515.31 352.945V353.319C515.31 355.012 516.021 355.891 517.133 355.891ZM517.133 356.564C515.534 356.564 514.478 355.274 514.478 353.329V352.955C514.478 350.982 515.478 349.71 517.115 349.71C518.76 349.71 519.724 351.028 519.724 352.936V353.31C519.724 355.255 518.779 356.564 517.133 356.564Z" fill="black"/>
<path d="M168.443 387.283C166.265 387.283 164.929 385.789 164.929 383.475V383.391C164.929 381.161 166.423 379.551 168.464 379.551C170.031 379.551 171.357 380.382 171.514 382.013H170.61C170.42 380.866 169.758 380.277 168.474 380.277C166.917 380.277 165.876 381.487 165.876 383.38V383.465C165.876 385.379 166.844 386.536 168.464 386.536C169.695 386.536 170.547 385.916 170.736 384.695H171.588C171.325 386.431 170.126 387.283 168.443 387.283ZM174.57 387.283C173.476 387.283 172.656 386.684 172.656 385.169V381.687H173.529V385.127C173.529 386.094 173.939 386.526 174.802 386.526C175.58 386.526 176.316 386.01 176.316 385.021V381.687H177.189V387.188H176.316V386.315C176.064 386.831 175.454 387.283 174.57 387.283ZM178.744 387.188V381.687H179.617V382.676C179.964 382.055 180.437 381.624 181.426 381.592V382.413C180.322 382.465 179.617 382.812 179.617 384.169V387.188H178.744ZM182.488 387.188V381.687H183.362V382.676C183.709 382.055 184.182 381.624 185.171 381.592V382.413C184.066 382.465 183.362 382.812 183.362 384.169V387.188H182.488ZM188.33 387.283C186.773 387.283 185.669 386.189 185.669 384.495V384.411C185.669 382.749 186.731 381.592 188.246 381.592C189.519 381.592 190.718 382.36 190.718 384.327V384.611H186.574C186.616 385.863 187.215 386.557 188.341 386.557C189.193 386.557 189.687 386.242 189.803 385.6H190.676C190.487 386.705 189.572 387.283 188.33 387.283ZM186.605 383.906H189.824C189.74 382.77 189.151 382.318 188.246 382.318C187.352 382.318 186.752 382.928 186.605 383.906ZM191.848 387.188V381.687H192.721V382.56C192.973 382.044 193.583 381.592 194.488 381.592C195.624 381.592 196.424 382.213 196.424 383.812V387.188H195.551V383.749C195.551 382.781 195.14 382.349 194.257 382.349C193.447 382.349 192.721 382.865 192.721 383.854V387.188H191.848ZM199.597 387.262C198.598 387.262 198.114 386.673 198.114 385.81V382.423H197.325V381.687H198.114V380.435H198.987V381.687H200.27V382.423H198.987V385.726C198.987 386.263 199.229 386.526 199.671 386.526C199.944 386.526 200.155 386.484 200.344 386.41V387.146C200.165 387.21 199.955 387.262 199.597 387.262ZM204.027 387.188V381.687H204.9V382.676C205.247 382.055 205.721 381.624 206.709 381.592V382.413C205.605 382.465 204.9 382.812 204.9 384.169V387.188H204.027ZM209.098 387.283C208.078 387.283 207.268 386.789 207.268 385.663C207.268 384.39 208.615 383.959 210.024 383.959H210.813V383.559C210.813 382.686 210.477 382.318 209.635 382.318C208.878 382.318 208.457 382.633 208.373 383.307H207.499C207.615 382.055 208.615 381.592 209.677 381.592C210.729 381.592 211.686 382.023 211.686 383.559V387.188H210.813V386.494C210.403 387.01 209.908 387.283 209.098 387.283ZM209.183 386.589C210.108 386.589 210.813 386.115 210.813 385.263V384.58H210.056C208.951 384.58 208.141 384.853 208.141 385.663C208.141 386.231 208.415 386.589 209.183 386.589ZM214.864 387.262C213.864 387.262 213.38 386.673 213.38 385.81V382.423H212.591V381.687H213.38V380.435H214.253V381.687H215.537V382.423H214.253V385.726C214.253 386.263 214.495 386.526 214.937 386.526C215.211 386.526 215.421 386.484 215.61 386.41V387.146C215.432 387.21 215.221 387.262 214.864 387.262ZM218.971 387.283C217.414 387.283 216.31 386.189 216.31 384.495V384.411C216.31 382.749 217.372 381.592 218.887 381.592C220.16 381.592 221.359 382.36 221.359 384.327V384.611H217.214C217.256 385.863 217.856 386.557 218.982 386.557C219.834 386.557 220.328 386.242 220.444 385.6H221.317C221.128 386.705 220.213 387.283 218.971 387.283ZM217.246 383.906H220.465C220.381 382.77 219.792 382.318 218.887 382.318C217.993 382.318 217.393 382.928 217.246 383.906Z" fill="black"/>
<path d="M481.314 388.451V387.263C479.715 387.151 479.182 386.225 479.07 385.15H479.855C479.949 385.879 480.173 386.525 481.314 386.627V384.028C480.08 383.794 479.341 383.355 479.341 382.233C479.341 381.26 480.145 380.503 481.314 380.428V379.586H481.866V380.437C482.988 380.54 483.689 381.176 483.811 382.261H483.081C482.941 381.541 482.558 381.167 481.866 381.073V383.411C483.24 383.654 483.951 384.093 483.951 385.3C483.951 386.366 483.081 387.188 481.866 387.263V388.451H481.314ZM483.175 385.356C483.175 384.664 482.885 384.336 481.866 384.121V386.627C482.614 386.553 483.175 386.048 483.175 385.356ZM480.08 382.158C480.08 382.747 480.276 383.102 481.314 383.317V381.064C480.528 381.129 480.08 381.578 480.08 382.158ZM486.129 387.188V381.307L484.633 382.382V381.625L486.185 380.503H486.943V387.188H486.129ZM490.534 385.356V384.682H494.312V385.356H490.534ZM490.534 383.673V382.999H494.312V383.673H490.534ZM497.089 383.504V382.962H497.781C497.931 381.531 498.8 380.419 500.278 380.419C501.559 380.419 502.41 381.176 502.559 382.466H501.792C501.662 381.569 501.101 381.054 500.278 381.054C499.277 381.054 498.697 381.802 498.576 382.962H500.811L500.708 383.504H498.557V384.234H500.568L500.465 384.776H498.585C498.707 385.926 499.277 386.609 500.296 386.609C501.166 386.609 501.727 386.085 501.877 385.075H502.634C502.484 386.459 501.596 387.273 500.296 387.273C498.866 387.273 497.949 386.225 497.781 384.776H497.089V384.234H497.753V383.504H497.089ZM504.708 387.188V381.307L503.212 382.382V381.625L504.764 380.503H505.522V387.188H504.708ZM507.587 387.235C507.26 387.235 506.989 386.973 506.989 386.637C506.989 386.3 507.26 386.038 507.587 386.038C507.915 386.038 508.186 386.3 508.186 386.637C508.186 386.973 507.915 387.235 507.587 387.235ZM512.059 387.188V385.786H508.711V385.524L511.769 380.503H512.853V385.122H513.779V385.786H512.853V387.188H512.059ZM509.74 385.122H512.059V381.12L509.74 385.122ZM517.102 386.599C518.27 386.599 518.869 385.702 518.869 384.009V383.635C518.869 382.083 518.214 381.073 517.083 381.073C515.951 381.073 515.278 382.008 515.278 383.654V384.028C515.278 385.72 515.989 386.599 517.102 386.599ZM517.102 387.273C515.503 387.273 514.446 385.982 514.446 384.037V383.663C514.446 381.69 515.446 380.419 517.083 380.419C518.729 380.419 519.692 381.737 519.692 383.645V384.019C519.692 385.964 518.747 387.273 517.102 387.273Z" fill="black"/>
</g>
<defs>
<filter id="filter0_f_1217_1918" x="250.164" y="0.16394" width="460.672" height="460.672" filterUnits="userSpaceOnUse" color-interpolation-filters="sRGB">
<feFlood flood-opacity="0" result="BackgroundImageFix"/>
<feBlend mode="normal" in="SourceGraphic" in2="BackgroundImageFix" result="shape"/>
<feGaussianBlur stdDeviation="93.418" result="effect1_foregroundBlur_1217_1918"/>
</filter>
<filter id="filter1_f_1217_1918" x="0.37706" y="241.377" width="381.246" height="381.246" filterUnits="userSpaceOnUse" color-interpolation-filters="sRGB">
<feFlood flood-opacity="0" result="BackgroundImageFix"/>
<feBlend mode="normal" in="SourceGraphic" in2="BackgroundImageFix" result="shape"/>
<feGaussianBlur stdDeviation="77.3115" result="effect1_foregroundBlur_1217_1918"/>
</filter>
<filter id="filter2_bdd_1217_1918" x="114" y="217" width="457" height="241.218" filterUnits="userSpaceOnUse" color-interpolation-filters="sRGB">
<feFlood flood-opacity="0" result="BackgroundImageFix"/>
<feGaussianBlur in="BackgroundImageFix" stdDeviation="9.9352"/>
<feComposite in2="SourceAlpha" operator="in" result="effect1_backgroundBlur_1217_1918"/>
<feColorMatrix in="SourceAlpha" type="matrix" values="0 0 0 0 0 0 0 0 0 0 0 0 0 0 0 0 0 0 127 0" result="hardAlpha"/>
<feMorphology radius="2.33769" operator="dilate" in="SourceAlpha" result="effect2_dropShadow_1217_1918"/>
<feOffset/>
<feGaussianBlur stdDeviation="16.9483"/>
<feComposite in2="hardAlpha" operator="out"/>
<feColorMatrix type="matrix" values="0 0 0 0 0 0 0 0 0 0 0 0 0 0 0 0 0 0 0.08 0"/>
<feBlend mode="normal" in2="effect1_backgroundBlur_1217_1918" result="effect2_dropShadow_1217_1918"/>
<feColorMatrix in="SourceAlpha" type="matrix" values="0 0 0 0 0 0 0 0 0 0 0 0 0 0 0 0 0 0 127 0" result="hardAlpha"/>
<feMorphology radius="2" operator="dilate" in="SourceAlpha" result="effect3_dropShadow_1217_1918"/>
<feOffset/>
<feGaussianBlur stdDeviation="19.5"/>
<feComposite in2="hardAlpha" operator="out"/>
<feColorMatrix type="matrix" values="0 0 0 0 0 0 0 0 0 0 0 0 0 0 0 0 0 0 0.1 0"/>
<feBlend mode="normal" in2="effect2_dropShadow_1217_1918" result="effect3_dropShadow_1217_1918"/>
<feBlend mode="normal" in="SourceGraphic" in2="effect3_dropShadow_1217_1918" result="shape"/>
</filter>
</defs>
</svg>
