<svg width="500" height="590" viewBox="0 0 500 590" fill="none" xmlns="http://www.w3.org/2000/svg">
<rect width="500" height="590" rx="8" fill="#FAFAFA"/>
<rect x="24.5" y="111.5" width="392.004" height="221" rx="19.5" fill="white"/>
<rect x="24.5" y="111.5" width="392.004" height="221" rx="19.5" stroke="url(#paint0_linear_1252_16825)"/>
<path d="M51.01 138.03H52.102C54.342 138.03 55.42 136.742 55.42 134.53V134.418C55.42 132.262 54.44 130.96 52.088 130.96H51.01V138.03ZM49.148 139.5V129.49H52.186C55.672 129.49 57.366 131.478 57.366 134.39V134.516C57.366 137.428 55.672 139.5 52.158 139.5H49.148ZM61.9421 139.64C59.7861 139.64 58.2321 138.226 58.2321 135.916V135.804C58.2321 133.536 59.7861 132.024 61.8721 132.024C63.6921 132.024 65.3301 133.102 65.3301 135.72V136.21H59.9681C60.0241 137.596 60.7241 138.38 61.9841 138.38C63.0061 138.38 63.5381 137.974 63.6641 137.26H65.3021C65.0641 138.8 63.8181 139.64 61.9421 139.64ZM59.9961 135.076H63.6501C63.5661 133.816 62.9221 133.256 61.8721 133.256C60.8501 133.256 60.1641 133.942 59.9961 135.076ZM66.5632 142.006V132.178H68.2572V133.354C68.6632 132.654 69.5732 132.024 70.6512 132.024C72.4852 132.024 73.8992 133.382 73.8992 135.748V135.86C73.8992 138.212 72.5412 139.64 70.6512 139.64C69.4892 139.64 68.6492 139.066 68.2572 138.352V142.006H66.5632ZM70.2312 138.296C71.4772 138.296 72.1632 137.456 72.1632 135.888V135.776C72.1632 134.152 71.3232 133.354 70.2172 133.354C69.0412 133.354 68.2012 134.152 68.2012 135.776V135.888C68.2012 137.526 68.9992 138.296 70.2312 138.296ZM78.4186 138.324C79.6786 138.324 80.4346 137.386 80.4346 135.888V135.79C80.4346 134.278 79.6786 133.354 78.4186 133.354C77.1586 133.354 76.3886 134.264 76.3886 135.776V135.888C76.3886 137.386 77.1306 138.324 78.4186 138.324ZM78.4046 139.64C76.2486 139.64 74.6526 138.142 74.6526 135.916V135.804C74.6526 133.536 76.2626 132.024 78.4186 132.024C80.5606 132.024 82.1706 133.522 82.1706 135.762V135.874C82.1706 138.156 80.5606 139.64 78.4046 139.64ZM85.9272 139.64C84.0372 139.64 82.9312 138.772 82.8612 137.218H84.4572C84.5412 137.96 84.9192 138.394 85.9132 138.394C86.8232 138.394 87.2292 138.072 87.2292 137.456C87.2292 136.854 86.7392 136.63 85.6612 136.448C83.7292 136.14 83.0152 135.594 83.0152 134.222C83.0152 132.752 84.3872 132.024 85.7592 132.024C87.2572 132.024 88.4472 132.584 88.6292 134.236H87.0612C86.9212 133.564 86.5432 133.256 85.7592 133.256C85.0312 133.256 84.5972 133.606 84.5972 134.124C84.5972 134.656 84.9472 134.866 86.1092 135.062C87.8312 135.328 88.8532 135.748 88.8532 137.302C88.8532 138.786 87.8032 139.64 85.9272 139.64ZM90.1012 139.5V132.178H91.7952V139.5H90.1012ZM90.9272 130.974C90.3672 130.974 89.9192 130.554 89.9192 130.008C89.9192 129.448 90.3672 129.028 90.9272 129.028C91.4872 129.028 91.9352 129.448 91.9352 130.008C91.9352 130.554 91.4872 130.974 90.9272 130.974ZM96.072 139.626C94.616 139.626 93.86 138.842 93.86 137.456V133.452H92.88V132.178H93.86V130.568H95.554V132.178H97.164V133.452H95.554V137.302C95.554 137.946 95.862 138.24 96.394 138.24C96.73 138.24 96.982 138.198 97.22 138.1V139.444C96.954 139.542 96.59 139.626 96.072 139.626ZM101.566 139.5V128.79H103.26V139.5H101.566ZM105.087 139.5V132.178H106.781V139.5H105.087ZM105.913 130.974C105.353 130.974 104.905 130.554 104.905 130.008C104.905 129.448 105.353 129.028 105.913 129.028C106.473 129.028 106.921 129.448 106.921 130.008C106.921 130.554 106.473 130.974 105.913 130.974ZM108.565 139.5V132.178H110.259V133.298C110.609 132.612 111.407 132.024 112.485 132.024C113.437 132.024 114.193 132.43 114.557 133.34C115.117 132.43 116.125 132.024 117.035 132.024C118.379 132.024 119.471 132.85 119.471 134.866V139.5H117.777V134.978C117.777 133.9 117.315 133.438 116.475 133.438C115.635 133.438 114.865 133.998 114.865 135.118V139.5H113.171V134.978C113.171 133.9 112.695 133.438 111.869 133.438C111.029 133.438 110.259 133.998 110.259 135.118V139.5H108.565ZM121.179 139.5V132.178H122.873V139.5H121.179ZM122.005 130.974C121.445 130.974 120.997 130.554 120.997 130.008C120.997 129.448 121.445 129.028 122.005 129.028C122.565 129.028 123.013 129.448 123.013 130.008C123.013 130.554 122.565 130.974 122.005 130.974ZM127.15 139.626C125.694 139.626 124.938 138.842 124.938 137.456V133.452H123.958V132.178H124.938V130.568H126.632V132.178H128.242V133.452H126.632V137.302C126.632 137.946 126.94 138.24 127.472 138.24C127.808 138.24 128.06 138.198 128.298 138.1V139.444C128.032 139.542 127.668 139.626 127.15 139.626Z" fill="black"/>
<path d="M145 133H145.007M144.334 135H145V137.667H145.667M150.25 131.18C150.717 131.445 151.004 131.942 151 132.479V137.335C151 137.874 150.705 138.371 150.228 138.633L145.728 141.48C145.505 141.602 145.255 141.667 145 141.667C144.746 141.667 144.496 141.602 144.272 141.48L139.772 138.633C139.539 138.506 139.345 138.318 139.209 138.09C139.073 137.861 139.001 137.6 139 137.335V132.478C139 131.939 139.296 131.442 139.772 131.18L144.272 128.527C144.502 128.4 144.76 128.333 145.022 128.333C145.285 128.333 145.543 128.4 145.772 128.527L150.272 131.18H150.25Z" stroke="black" stroke-opacity="0.5" stroke-width="1.84615" stroke-linecap="round" stroke-linejoin="round"/>
<g filter="url(#filter0_d_1252_16825)">
<rect x="48" y="161" width="345.004" height="156" rx="10" fill="white" fill-opacity="0.1" shape-rendering="crispEdges"/>
<path d="M183.137 223.034C186.508 233.411 186.508 244.589 183.137 254.966C179.765 265.343 173.195 274.386 164.368 280.799C155.541 287.212 144.91 290.666 133.999 290.666C123.088 290.666 112.457 287.212 103.63 280.799C94.8027 274.386 88.2325 265.343 84.8608 254.966C81.4891 244.589 81.4891 233.411 84.8607 223.034C88.2324 212.657 94.8026 203.614 103.63 197.201C112.457 190.787 123.088 187.333 133.999 187.333L133.999 201.8C126.143 201.8 118.489 204.287 112.133 208.904C105.777 213.522 101.047 220.033 98.6194 227.504C96.1918 234.976 96.1918 243.024 98.6194 250.495C101.047 257.967 105.778 264.478 112.133 269.095C118.489 273.713 126.143 276.2 133.999 276.2C141.855 276.2 149.509 273.713 155.864 269.095C162.22 264.478 166.95 257.967 169.378 250.495C171.806 243.024 171.806 234.976 169.378 227.504L183.137 223.034Z" fill="black" fill-opacity="0.1"/>
<path d="M133.999 187.333C144.91 187.333 155.54 190.787 164.368 197.201C173.195 203.614 179.765 212.657 183.137 223.034L169.378 227.504C166.95 220.033 162.22 213.522 155.864 208.904C149.509 204.287 141.855 201.8 133.999 201.8V187.333Z" fill="#FFD900"/>
<path d="M153.161 180.034C167.999 184.855 180.474 195.093 188.097 208.705C195.72 222.317 197.931 238.303 194.289 253.474C190.647 268.644 181.419 281.883 168.447 290.551C155.475 299.219 139.712 302.677 124.303 300.237C108.894 297.796 94.971 289.636 85.3123 277.384C75.6536 265.132 70.969 249.689 72.1931 234.135C73.4172 218.582 80.4599 204.062 91.9163 193.472C103.373 182.882 118.401 177 134.002 177L134.002 180.1C119.181 180.1 104.904 185.688 94.0206 195.748C83.137 205.809 76.4464 219.603 75.2835 234.379C74.1207 249.154 78.571 263.825 87.7468 275.464C96.9225 287.104 110.149 294.856 124.788 297.175C139.427 299.493 154.402 296.208 166.725 287.973C179.048 279.739 187.815 267.162 191.275 252.75C194.734 238.338 192.634 223.152 185.392 210.22C178.15 197.289 166.299 187.563 152.203 182.983L153.161 180.034Z" fill="black" fill-opacity="0.1"/>
<path d="M134.002 177C142.144 177 150.206 178.604 157.728 181.719C165.251 184.835 172.085 189.402 177.843 195.159C183.6 200.916 188.167 207.751 191.282 215.274C194.398 222.796 196.002 230.858 196.002 239H192.902C192.902 231.265 191.378 223.606 188.418 216.46C185.458 209.314 181.12 202.821 175.651 197.351C170.181 191.882 163.688 187.543 156.542 184.583C149.396 181.623 141.737 180.1 134.002 180.1V177Z" fill="#0ACF83"/>
<circle cx="280.004" cy="225.5" r="3" fill="#FFD900"/>
<path d="M289.482 229.006H290.854C293.43 229.006 294.718 227.466 294.718 225.016V224.904C294.718 222.594 293.598 220.97 290.84 220.97H289.482V229.006ZM288.264 230V219.99H290.91C294.354 219.99 295.978 222.118 295.978 224.904V225.03C295.978 227.802 294.382 230 290.882 230H288.264ZM299.482 230.126C298.124 230.126 297.046 229.468 297.046 227.97C297.046 226.276 298.838 225.702 300.714 225.702H301.764V225.17C301.764 224.008 301.316 223.518 300.196 223.518C299.188 223.518 298.628 223.938 298.516 224.834H297.354C297.508 223.168 298.838 222.552 300.252 222.552C301.652 222.552 302.926 223.126 302.926 225.17V230H301.764V229.076C301.218 229.762 300.56 230.126 299.482 230.126ZM299.594 229.202C300.826 229.202 301.764 228.572 301.764 227.438V226.528H300.756C299.286 226.528 298.208 226.892 298.208 227.97C298.208 228.726 298.572 229.202 299.594 229.202ZM304.957 230V222.678H306.119V230H304.957ZM305.517 221.152C305.097 221.152 304.747 220.802 304.747 220.382C304.747 219.962 305.097 219.612 305.517 219.612C305.937 219.612 306.287 219.962 306.287 220.382C306.287 220.802 305.937 221.152 305.517 221.152ZM308.245 230V219.178H309.421V230H308.245ZM312.177 232.548L313.563 229.244L310.693 222.678H311.939L314.179 227.928L316.209 222.678H317.399L313.353 232.548H312.177ZM322.102 230V219.178H323.278V230H322.102ZM325.404 230V222.678H326.566V230H325.404ZM325.964 221.152C325.544 221.152 325.194 220.802 325.194 220.382C325.194 219.962 325.544 219.612 325.964 219.612C326.384 219.612 326.734 219.962 326.734 220.382C326.734 220.802 326.384 221.152 325.964 221.152ZM328.665 230V222.678H329.827V223.798C330.163 223.112 330.961 222.552 332.011 222.552C332.949 222.552 333.775 222.944 334.153 223.924C334.657 222.972 335.749 222.552 336.659 222.552C337.975 222.552 339.123 223.336 339.123 225.464V230H337.961V225.38C337.961 224.092 337.415 223.56 336.407 223.56C335.455 223.56 334.475 224.204 334.475 225.52V230H333.313V225.38C333.313 224.092 332.767 223.56 331.759 223.56C330.807 223.56 329.827 224.204 329.827 225.52V230H328.665ZM341.155 230V222.678H342.317V230H341.155ZM341.715 221.152C341.295 221.152 340.945 220.802 340.945 220.382C340.945 219.962 341.295 219.612 341.715 219.612C342.135 219.612 342.485 219.962 342.485 220.382C342.485 220.802 342.135 221.152 341.715 221.152ZM346.641 230.098C345.311 230.098 344.667 229.314 344.667 228.166V223.658H343.617V222.678H344.667V221.012H345.829V222.678H347.537V223.658H345.829V228.054C345.829 228.768 346.151 229.118 346.739 229.118C347.103 229.118 347.383 229.062 347.635 228.964V229.944C347.397 230.028 347.117 230.098 346.641 230.098Z" fill="#181818"/>
<circle cx="280.004" cy="252.5" r="3" fill="#0ACF83"/>
<path d="M288.264 257V246.99H289.958L293.052 254.788L296.048 246.99H297.728V257H296.51V248.572L293.192 257H292.814L289.384 248.572V257H288.264ZM302.942 256.16C304.412 256.16 305.336 255.054 305.336 253.402V253.304C305.336 251.61 304.398 250.518 302.942 250.518C301.472 250.518 300.548 251.61 300.548 253.29V253.402C300.548 255.068 301.458 256.16 302.942 256.16ZM302.928 257.126C300.842 257.126 299.344 255.544 299.344 253.402V253.29C299.344 251.092 300.87 249.552 302.942 249.552C305.014 249.552 306.54 251.078 306.54 253.276V253.388C306.54 255.6 305.014 257.126 302.928 257.126ZM308.059 257V249.678H309.221V250.84C309.557 250.154 310.369 249.552 311.573 249.552C313.085 249.552 314.149 250.378 314.149 252.506V257H312.987V252.422C312.987 251.134 312.441 250.56 311.265 250.56C310.187 250.56 309.221 251.246 309.221 252.562V257H308.059ZM318.373 257.098C317.043 257.098 316.399 256.314 316.399 255.166V250.658H315.349V249.678H316.399V248.012H317.561V249.678H319.269V250.658H317.561V255.054C317.561 255.768 317.883 256.118 318.471 256.118C318.835 256.118 319.115 256.062 319.367 255.964V256.944C319.129 257.028 318.849 257.098 318.373 257.098ZM320.843 257V246.178H322.005V250.84C322.341 250.154 323.153 249.552 324.357 249.552C325.869 249.552 326.933 250.378 326.933 252.506V257H325.771V252.422C325.771 251.134 325.225 250.56 324.049 250.56C322.971 250.56 322.005 251.246 322.005 252.562V257H320.843ZM328.958 257V246.178H330.134V257H328.958ZM332.89 259.548L334.276 256.244L331.406 249.678H332.652L334.892 254.928L336.922 249.678H338.112L334.066 259.548H332.89ZM342.816 257V246.178H343.992V257H342.816ZM346.118 257V249.678H347.28V257H346.118ZM346.678 248.152C346.258 248.152 345.908 247.802 345.908 247.382C345.908 246.962 346.258 246.612 346.678 246.612C347.098 246.612 347.448 246.962 347.448 247.382C347.448 247.802 347.098 248.152 346.678 248.152ZM349.378 257V249.678H350.54V250.798C350.876 250.112 351.674 249.552 352.724 249.552C353.662 249.552 354.488 249.944 354.866 250.924C355.37 249.972 356.462 249.552 357.372 249.552C358.688 249.552 359.836 250.336 359.836 252.464V257H358.674V252.38C358.674 251.092 358.128 250.56 357.12 250.56C356.168 250.56 355.188 251.204 355.188 252.52V257H354.026V252.38C354.026 251.092 353.48 250.56 352.472 250.56C351.52 250.56 350.54 251.204 350.54 252.52V257H349.378ZM361.868 257V249.678H363.03V257H361.868ZM362.428 248.152C362.008 248.152 361.658 247.802 361.658 247.382C361.658 246.962 362.008 246.612 362.428 246.612C362.848 246.612 363.198 246.962 363.198 247.382C363.198 247.802 362.848 248.152 362.428 248.152ZM367.354 257.098C366.024 257.098 365.38 256.314 365.38 255.166V250.658H364.33V249.678H365.38V248.012H366.542V249.678H368.25V250.658H366.542V255.054C366.542 255.768 366.864 256.118 367.452 256.118C367.816 256.118 368.096 256.062 368.348 255.964V256.944C368.11 257.028 367.83 257.098 367.354 257.098Z" fill="#181818"/>
</g>
<rect x="82.5" y="257.5" width="392.004" height="221" rx="19.5" fill="white"/>
<rect x="82.5" y="257.5" width="392.004" height="221" rx="19.5" stroke="url(#paint1_linear_1252_16825)"/>
<path d="M108.856 285.5L106.364 275.49H108.268L110.004 282.84L111.95 275.49H113.49L115.478 282.882L117.27 275.49H119.006L116.5 285.5H114.638L112.664 278.206L110.634 285.5H108.856ZM120.004 285.5V278.178H121.698V285.5H120.004ZM120.83 276.974C120.27 276.974 119.822 276.554 119.822 276.008C119.822 275.448 120.27 275.028 120.83 275.028C121.39 275.028 121.838 275.448 121.838 276.008C121.838 276.554 121.39 276.974 120.83 276.974ZM125.975 285.626C124.519 285.626 123.763 284.842 123.763 283.456V279.452H122.783V278.178H123.763V276.568H125.457V278.178H127.067V279.452H125.457V283.302C125.457 283.946 125.765 284.24 126.297 284.24C126.633 284.24 126.885 284.198 127.123 284.1V285.444C126.857 285.542 126.493 285.626 125.975 285.626ZM128.371 285.5V274.79H130.065V279.34C130.415 278.626 131.227 278.024 132.431 278.024C133.901 278.024 134.937 278.878 134.937 280.894V285.5H133.243V281.048C133.243 279.942 132.795 279.438 131.787 279.438C130.835 279.438 130.065 280.026 130.065 281.188V285.5H128.371ZM139.353 285.64C137.519 285.64 136.133 284.338 136.133 281.958V281.846C136.133 279.508 137.519 278.024 139.423 278.024C140.613 278.024 141.355 278.57 141.761 279.298V274.79H143.455V285.5H141.761V284.268C141.369 284.996 140.431 285.64 139.353 285.64ZM139.773 284.296C140.949 284.296 141.817 283.512 141.817 281.874V281.762C141.817 280.152 141.075 279.354 139.843 279.354C138.597 279.354 137.869 280.222 137.869 281.804V281.916C137.869 283.526 138.681 284.296 139.773 284.296ZM145.188 285.5V278.178H146.882V279.55C147.344 278.626 148.03 278.08 149.262 278.066V279.648C147.778 279.662 146.882 280.138 146.882 281.692V285.5H145.188ZM152.254 285.64C150.91 285.64 149.804 284.996 149.804 283.47C149.804 281.762 151.456 281.146 153.556 281.146H154.466V280.768C154.466 279.788 154.13 279.298 153.136 279.298C152.254 279.298 151.82 279.718 151.736 280.446H150.098C150.238 278.738 151.596 278.024 153.234 278.024C154.872 278.024 156.16 278.696 156.16 280.698V285.5H154.494V284.604C154.018 285.234 153.374 285.64 152.254 285.64ZM152.66 284.422C153.696 284.422 154.466 283.876 154.466 282.938V282.21H153.598C152.31 282.21 151.484 282.504 151.484 283.4C151.484 284.016 151.82 284.422 152.66 284.422ZM159.197 285.5L156.957 278.178H158.763L160.219 283.47L161.773 278.178H163.187L164.615 283.47L166.141 278.178H167.793L165.497 285.5H163.775L162.417 280.572L160.933 285.5H159.197ZM170.52 285.64C169.176 285.64 168.07 284.996 168.07 283.47C168.07 281.762 169.722 281.146 171.822 281.146H172.732V280.768C172.732 279.788 172.396 279.298 171.402 279.298C170.52 279.298 170.086 279.718 170.002 280.446H168.364C168.504 278.738 169.862 278.024 171.5 278.024C173.138 278.024 174.426 278.696 174.426 280.698V285.5H172.76V284.604C172.284 285.234 171.64 285.64 170.52 285.64ZM170.926 284.422C171.962 284.422 172.732 283.876 172.732 282.938V282.21H171.864C170.576 282.21 169.75 282.504 169.75 283.4C169.75 284.016 170.086 284.422 170.926 284.422ZM176.13 285.5V274.79H177.824V285.5H176.13ZM182.706 285.5V274.79H184.4V285.5H182.706ZM186.227 285.5V278.178H187.921V285.5H186.227ZM187.053 276.974C186.493 276.974 186.045 276.554 186.045 276.008C186.045 275.448 186.493 275.028 187.053 275.028C187.613 275.028 188.061 275.448 188.061 276.008C188.061 276.554 187.613 276.974 187.053 276.974ZM189.706 285.5V278.178H191.4V279.298C191.75 278.612 192.548 278.024 193.626 278.024C194.578 278.024 195.334 278.43 195.698 279.34C196.258 278.43 197.266 278.024 198.176 278.024C199.52 278.024 200.612 278.85 200.612 280.866V285.5H198.918V280.978C198.918 279.9 198.456 279.438 197.616 279.438C196.776 279.438 196.006 279.998 196.006 281.118V285.5H194.312V280.978C194.312 279.9 193.836 279.438 193.01 279.438C192.17 279.438 191.4 279.998 191.4 281.118V285.5H189.706ZM202.319 285.5V278.178H204.013V285.5H202.319ZM203.145 276.974C202.585 276.974 202.137 276.554 202.137 276.008C202.137 275.448 202.585 275.028 203.145 275.028C203.705 275.028 204.153 275.448 204.153 276.008C204.153 276.554 203.705 276.974 203.145 276.974ZM208.29 285.626C206.834 285.626 206.078 284.842 206.078 283.456V279.452H205.098V278.178H206.078V276.568H207.772V278.178H209.382V279.452H207.772V283.302C207.772 283.946 208.08 284.24 208.612 284.24C208.948 284.24 209.2 284.198 209.438 284.1V285.444C209.172 285.542 208.808 285.626 208.29 285.626Z" fill="black"/>
<path d="M226 279H226.007M225.334 281H226V283.667H226.667M231.25 277.18C231.717 277.445 232.004 277.942 232 278.479V283.335C232 283.874 231.705 284.371 231.228 284.633L226.728 287.48C226.505 287.602 226.255 287.667 226 287.667C225.746 287.667 225.496 287.602 225.272 287.48L220.772 284.633C220.539 284.506 220.345 284.318 220.209 284.09C220.073 283.861 220.001 283.6 220 283.335V278.478C220 277.939 220.296 277.442 220.772 277.18L225.272 274.527C225.502 274.4 225.76 274.333 226.022 274.333C226.285 274.333 226.543 274.4 226.772 274.527L231.272 277.18H231.25Z" stroke="black" stroke-opacity="0.5" stroke-width="1.84615" stroke-linecap="round" stroke-linejoin="round"/>
<g filter="url(#filter1_d_1252_16825)">
<rect x="106" y="307" width="345.004" height="156" rx="10" fill="white" fill-opacity="0.1" shape-rendering="crispEdges"/>
<path d="M241.137 369.034C244.508 379.411 244.508 390.589 241.137 400.966C237.765 411.343 231.195 420.386 222.368 426.799C213.541 433.212 202.91 436.666 191.999 436.666C181.088 436.666 170.457 433.212 161.63 426.799C152.803 420.386 146.232 411.343 142.861 400.966C139.489 390.589 139.489 379.411 142.861 369.034C146.232 358.657 152.803 349.614 161.63 343.201C170.457 336.787 181.088 333.333 191.999 333.333L191.999 347.8C184.143 347.8 176.489 350.287 170.133 354.904C163.777 359.522 159.047 366.033 156.619 373.504C154.192 380.976 154.192 389.024 156.619 396.495C159.047 403.967 163.778 410.478 170.133 415.095C176.489 419.713 184.143 422.2 191.999 422.2C199.855 422.2 207.509 419.713 213.864 415.095C220.22 410.478 224.95 403.967 227.378 396.495C229.806 389.024 229.806 380.976 227.378 373.504L241.137 369.034Z" fill="black" fill-opacity="0.1"/>
<path d="M191.999 333.333C202.91 333.333 213.54 336.787 222.368 343.201C231.195 349.614 237.765 358.657 241.137 369.034L227.378 373.504C224.95 366.033 220.22 359.522 213.864 354.904C207.509 350.287 199.855 347.8 191.999 347.8V333.333Z" fill="#FFD900"/>
<path d="M211.161 326.034C225.999 330.855 238.474 341.093 246.097 354.705C253.72 368.317 255.931 384.303 252.289 399.474C248.647 414.644 239.419 427.883 226.447 436.551C213.475 445.219 197.712 448.677 182.303 446.237C166.894 443.796 152.971 435.636 143.312 423.384C133.654 411.132 128.969 395.689 130.193 380.135C131.417 364.582 138.46 350.062 149.916 339.472C161.373 328.882 176.401 323 192.002 323L192.002 326.1C177.181 326.1 162.904 331.688 152.021 341.748C141.137 351.809 134.446 365.603 133.284 380.379C132.121 395.154 136.571 409.825 145.747 421.464C154.923 433.104 168.149 440.856 182.788 443.175C197.427 445.493 212.402 442.208 224.725 433.973C237.048 425.739 245.815 413.162 249.275 398.75C252.734 384.338 250.634 369.152 243.392 356.22C236.15 343.289 224.299 333.563 210.203 328.983L211.161 326.034Z" fill="black" fill-opacity="0.1"/>
<path d="M192.002 323C200.144 323 208.206 324.604 215.728 327.719C223.251 330.835 230.085 335.402 235.843 341.159C241.6 346.916 246.167 353.751 249.282 361.274C252.398 368.796 254.002 376.858 254.002 385H250.902C250.902 377.265 249.378 369.606 246.418 362.46C243.458 355.314 239.12 348.821 233.651 343.351C228.181 337.882 221.688 333.543 214.542 330.583C207.396 327.623 199.737 326.1 192.002 326.1V323Z" fill="#0ACF83"/>
<circle cx="338.004" cy="371.5" r="3" fill="#FFD900"/>
<path d="M347.482 375.006H348.854C351.43 375.006 352.718 373.466 352.718 371.016V370.904C352.718 368.594 351.598 366.97 348.84 366.97H347.482V375.006ZM346.264 376V365.99H348.91C352.354 365.99 353.978 368.118 353.978 370.904V371.03C353.978 373.802 352.382 376 348.882 376H346.264ZM357.482 376.126C356.124 376.126 355.046 375.468 355.046 373.97C355.046 372.276 356.838 371.702 358.714 371.702H359.764V371.17C359.764 370.008 359.316 369.518 358.196 369.518C357.188 369.518 356.628 369.938 356.516 370.834H355.354C355.508 369.168 356.838 368.552 358.252 368.552C359.652 368.552 360.926 369.126 360.926 371.17V376H359.764V375.076C359.218 375.762 358.56 376.126 357.482 376.126ZM357.594 375.202C358.826 375.202 359.764 374.572 359.764 373.438V372.528H358.756C357.286 372.528 356.208 372.892 356.208 373.97C356.208 374.726 356.572 375.202 357.594 375.202ZM362.957 376V368.678H364.119V376H362.957ZM363.517 367.152C363.097 367.152 362.747 366.802 362.747 366.382C362.747 365.962 363.097 365.612 363.517 365.612C363.937 365.612 364.287 365.962 364.287 366.382C364.287 366.802 363.937 367.152 363.517 367.152ZM366.245 376V365.178H367.421V376H366.245ZM370.177 378.548L371.563 375.244L368.693 368.678H369.939L372.179 373.928L374.209 368.678H375.399L371.353 378.548H370.177ZM380.102 376V365.178H381.278V376H380.102ZM383.404 376V368.678H384.566V376H383.404ZM383.964 367.152C383.544 367.152 383.194 366.802 383.194 366.382C383.194 365.962 383.544 365.612 383.964 365.612C384.384 365.612 384.734 365.962 384.734 366.382C384.734 366.802 384.384 367.152 383.964 367.152ZM386.665 376V368.678H387.827V369.798C388.163 369.112 388.961 368.552 390.011 368.552C390.949 368.552 391.775 368.944 392.153 369.924C392.657 368.972 393.749 368.552 394.659 368.552C395.975 368.552 397.123 369.336 397.123 371.464V376H395.961V371.38C395.961 370.092 395.415 369.56 394.407 369.56C393.455 369.56 392.475 370.204 392.475 371.52V376H391.313V371.38C391.313 370.092 390.767 369.56 389.759 369.56C388.807 369.56 387.827 370.204 387.827 371.52V376H386.665ZM399.155 376V368.678H400.317V376H399.155ZM399.715 367.152C399.295 367.152 398.945 366.802 398.945 366.382C398.945 365.962 399.295 365.612 399.715 365.612C400.135 365.612 400.485 365.962 400.485 366.382C400.485 366.802 400.135 367.152 399.715 367.152ZM404.641 376.098C403.311 376.098 402.667 375.314 402.667 374.166V369.658H401.617V368.678H402.667V367.012H403.829V368.678H405.537V369.658H403.829V374.054C403.829 374.768 404.151 375.118 404.739 375.118C405.103 375.118 405.383 375.062 405.635 374.964V375.944C405.397 376.028 405.117 376.098 404.641 376.098Z" fill="#181818"/>
<circle cx="338.004" cy="398.5" r="3" fill="#0ACF83"/>
<path d="M346.264 403V392.99H347.958L351.052 400.788L354.048 392.99H355.728V403H354.51V394.572L351.192 403H350.814L347.384 394.572V403H346.264ZM360.942 402.16C362.412 402.16 363.336 401.054 363.336 399.402V399.304C363.336 397.61 362.398 396.518 360.942 396.518C359.472 396.518 358.548 397.61 358.548 399.29V399.402C358.548 401.068 359.458 402.16 360.942 402.16ZM360.928 403.126C358.842 403.126 357.344 401.544 357.344 399.402V399.29C357.344 397.092 358.87 395.552 360.942 395.552C363.014 395.552 364.54 397.078 364.54 399.276V399.388C364.54 401.6 363.014 403.126 360.928 403.126ZM366.059 403V395.678H367.221V396.84C367.557 396.154 368.369 395.552 369.573 395.552C371.085 395.552 372.149 396.378 372.149 398.506V403H370.987V398.422C370.987 397.134 370.441 396.56 369.265 396.56C368.187 396.56 367.221 397.246 367.221 398.562V403H366.059ZM376.373 403.098C375.043 403.098 374.399 402.314 374.399 401.166V396.658H373.349V395.678H374.399V394.012H375.561V395.678H377.269V396.658H375.561V401.054C375.561 401.768 375.883 402.118 376.471 402.118C376.835 402.118 377.115 402.062 377.367 401.964V402.944C377.129 403.028 376.849 403.098 376.373 403.098ZM378.843 403V392.178H380.005V396.84C380.341 396.154 381.153 395.552 382.357 395.552C383.869 395.552 384.933 396.378 384.933 398.506V403H383.771V398.422C383.771 397.134 383.225 396.56 382.049 396.56C380.971 396.56 380.005 397.246 380.005 398.562V403H378.843ZM386.958 403V392.178H388.134V403H386.958ZM390.89 405.548L392.276 402.244L389.406 395.678H390.652L392.892 400.928L394.922 395.678H396.112L392.066 405.548H390.89ZM400.816 403V392.178H401.992V403H400.816ZM404.118 403V395.678H405.28V403H404.118ZM404.678 394.152C404.258 394.152 403.908 393.802 403.908 393.382C403.908 392.962 404.258 392.612 404.678 392.612C405.098 392.612 405.448 392.962 405.448 393.382C405.448 393.802 405.098 394.152 404.678 394.152ZM407.378 403V395.678H408.54V396.798C408.876 396.112 409.674 395.552 410.724 395.552C411.662 395.552 412.488 395.944 412.866 396.924C413.37 395.972 414.462 395.552 415.372 395.552C416.688 395.552 417.836 396.336 417.836 398.464V403H416.674V398.38C416.674 397.092 416.128 396.56 415.12 396.56C414.168 396.56 413.188 397.204 413.188 398.52V403H412.026V398.38C412.026 397.092 411.48 396.56 410.472 396.56C409.52 396.56 408.54 397.204 408.54 398.52V403H407.378ZM419.868 403V395.678H421.03V403H419.868ZM420.428 394.152C420.008 394.152 419.658 393.802 419.658 393.382C419.658 392.962 420.008 392.612 420.428 392.612C420.848 392.612 421.198 392.962 421.198 393.382C421.198 393.802 420.848 394.152 420.428 394.152ZM425.354 403.098C424.024 403.098 423.38 402.314 423.38 401.166V396.658H422.33V395.678H423.38V394.012H424.542V395.678H426.25V396.658H424.542V401.054C424.542 401.768 424.864 402.118 425.452 402.118C425.816 402.118 426.096 402.062 426.348 401.964V402.944C426.11 403.028 425.83 403.098 425.354 403.098Z" fill="#181818"/>
</g>
<defs>
<filter id="filter0_d_1252_16825" x="38" y="155" width="365.004" height="176" filterUnits="userSpaceOnUse" color-interpolation-filters="sRGB">
<feFlood flood-opacity="0" result="BackgroundImageFix"/>
<feColorMatrix in="SourceAlpha" type="matrix" values="0 0 0 0 0 0 0 0 0 0 0 0 0 0 0 0 0 0 127 0" result="hardAlpha"/>
<feOffset dy="4"/>
<feGaussianBlur stdDeviation="5"/>
<feComposite in2="hardAlpha" operator="out"/>
<feColorMatrix type="matrix" values="0 0 0 0 0 0 0 0 0 0 0 0 0 0 0 0 0 0 0.05 0"/>
<feBlend mode="normal" in2="BackgroundImageFix" result="effect1_dropShadow_1252_16825"/>
<feBlend mode="normal" in="SourceGraphic" in2="effect1_dropShadow_1252_16825" result="shape"/>
</filter>
<filter id="filter1_d_1252_16825" x="96" y="301" width="365.004" height="176" filterUnits="userSpaceOnUse" color-interpolation-filters="sRGB">
<feFlood flood-opacity="0" result="BackgroundImageFix"/>
<feColorMatrix in="SourceAlpha" type="matrix" values="0 0 0 0 0 0 0 0 0 0 0 0 0 0 0 0 0 0 127 0" result="hardAlpha"/>
<feOffset dy="4"/>
<feGaussianBlur stdDeviation="5"/>
<feComposite in2="hardAlpha" operator="out"/>
<feColorMatrix type="matrix" values="0 0 0 0 0 0 0 0 0 0 0 0 0 0 0 0 0 0 0.05 0"/>
<feBlend mode="normal" in2="BackgroundImageFix" result="effect1_dropShadow_1252_16825"/>
<feBlend mode="normal" in="SourceGraphic" in2="effect1_dropShadow_1252_16825" result="shape"/>
</filter>
<linearGradient id="paint0_linear_1252_16825" x1="220.502" y1="111" x2="220.502" y2="333" gradientUnits="userSpaceOnUse">
<stop stop-color="#FDEE97" stop-opacity="0.58"/>
<stop offset="1" stop-color="#998200" stop-opacity="0"/>
</linearGradient>
<linearGradient id="paint1_linear_1252_16825" x1="278.502" y1="257" x2="278.502" y2="479" gradientUnits="userSpaceOnUse">
<stop stop-color="#FDEE97" stop-opacity="0.58"/>
<stop offset="1" stop-color="#998200" stop-opacity="0"/>
</linearGradient>
</defs>
</svg>
