<svg width="93" height="93" viewBox="0 0 93 93" fill="none" xmlns="http://www.w3.org/2000/svg">
<g filter="url(#filter0_d_1293_30420)">
<rect x="18" y="18" width="57" height="57" rx="10" fill="black" shape-rendering="crispEdges"/>
<path d="M59.625 45.0417V40.6667C59.625 39.8931 59.3177 39.1513 58.7707 38.6043C58.2237 38.0573 57.4819 37.75 56.7083 37.75H47.9583M47.9583 37.75L52.3333 42.125M47.9583 37.75L52.3333 33.375M33.375 47.9583V52.3333C33.375 53.1069 33.6823 53.8487 34.2293 54.3957C34.7763 54.9427 35.5181 55.25 36.2917 55.25H45.0417M45.0417 55.25L40.6667 50.875M45.0417 55.25L40.6667 59.625M33.375 37.75C33.375 38.9103 33.8359 40.0231 34.6564 40.8436C35.4769 41.6641 36.5897 42.125 37.75 42.125C38.9103 42.125 40.0231 41.6641 40.8436 40.8436C41.6641 40.0231 42.125 38.9103 42.125 37.75C42.125 36.5897 41.6641 35.4769 40.8436 34.6564C40.0231 33.8359 38.9103 33.375 37.75 33.375C36.5897 33.375 35.4769 33.8359 34.6564 34.6564C33.8359 35.4769 33.375 36.5897 33.375 37.75ZM50.875 55.25C50.875 56.4103 51.3359 57.5231 52.1564 58.3436C52.9769 59.1641 54.0897 59.625 55.25 59.625C56.4103 59.625 57.5231 59.1641 58.3436 58.3436C59.1641 57.5231 59.625 56.4103 59.625 55.25C59.625 54.0897 59.1641 52.9769 58.3436 52.1564C57.5231 51.3359 56.4103 50.875 55.25 50.875C54.0897 50.875 52.9769 51.3359 52.1564 52.1564C51.3359 52.9769 50.875 54.0897 50.875 55.25Z" stroke="#FFD900" stroke-width="2" stroke-linecap="round" stroke-linejoin="round"/>
</g>
<defs>
<filter id="filter0_d_1293_30420" x="0" y="0" width="93" height="93" filterUnits="userSpaceOnUse" color-interpolation-filters="sRGB">
<feFlood flood-opacity="0" result="BackgroundImageFix"/>
<feColorMatrix in="SourceAlpha" type="matrix" values="0 0 0 0 0 0 0 0 0 0 0 0 0 0 0 0 0 0 127 0" result="hardAlpha"/>
<feMorphology radius="1" operator="dilate" in="SourceAlpha" result="effect1_dropShadow_1293_30420"/>
<feOffset/>
<feGaussianBlur stdDeviation="8.5"/>
<feComposite in2="hardAlpha" operator="out"/>
<feColorMatrix type="matrix" values="0 0 0 0 0 0 0 0 0 0 0 0 0 0 0 0 0 0 0.07 0"/>
<feBlend mode="normal" in2="BackgroundImageFix" result="effect1_dropShadow_1293_30420"/>
<feBlend mode="normal" in="SourceGraphic" in2="effect1_dropShadow_1293_30420" result="shape"/>
</filter>
</defs>
</svg>
