<svg width="93" height="93" viewBox="0 0 93 93" fill="none" xmlns="http://www.w3.org/2000/svg">
<g filter="url(#filter0_d_1293_30412)">
<rect x="18" y="18" width="57" height="57" rx="10" fill="black" shape-rendering="crispEdges"/>
<path d="M33.375 43.5833H59.625M39.2083 50.875H39.2229M45.0417 50.875H47.9583M33.375 40.6666C33.375 39.5063 33.8359 38.3935 34.6564 37.573C35.4769 36.7526 36.5897 36.2916 37.75 36.2916H55.25C56.4103 36.2916 57.5231 36.7526 58.3436 37.573C59.1641 38.3935 59.625 39.5063 59.625 40.6666V52.3333C59.625 53.4936 59.1641 54.6064 58.3436 55.4269C57.5231 56.2474 56.4103 56.7083 55.25 56.7083H37.75C36.5897 56.7083 35.4769 56.2474 34.6564 55.4269C33.8359 54.6064 33.375 53.4936 33.375 52.3333V40.6666Z" stroke="#FFD900" stroke-width="2" stroke-linecap="round" stroke-linejoin="round"/>
</g>
<defs>
<filter id="filter0_d_1293_30412" x="0" y="0" width="93" height="93" filterUnits="userSpaceOnUse" color-interpolation-filters="sRGB">
<feFlood flood-opacity="0" result="BackgroundImageFix"/>
<feColorMatrix in="SourceAlpha" type="matrix" values="0 0 0 0 0 0 0 0 0 0 0 0 0 0 0 0 0 0 127 0" result="hardAlpha"/>
<feMorphology radius="1" operator="dilate" in="SourceAlpha" result="effect1_dropShadow_1293_30412"/>
<feOffset/>
<feGaussianBlur stdDeviation="8.5"/>
<feComposite in2="hardAlpha" operator="out"/>
<feColorMatrix type="matrix" values="0 0 0 0 0 0 0 0 0 0 0 0 0 0 0 0 0 0 0.07 0"/>
<feBlend mode="normal" in2="BackgroundImageFix" result="effect1_dropShadow_1293_30412"/>
<feBlend mode="normal" in="SourceGraphic" in2="effect1_dropShadow_1293_30412" result="shape"/>
</filter>
</defs>
</svg>
