<svg width="93" height="93" viewBox="0 0 93 93" fill="none" xmlns="http://www.w3.org/2000/svg">
<g filter="url(#filter0_d_1293_30442)">
<rect x="18" y="18" width="57" height="57" rx="10" fill="black" shape-rendering="crispEdges"/>
<path d="M46.5 46.5H42.125C39.8044 46.5 37.5788 45.5782 35.9378 43.9372C34.2969 42.2963 33.375 40.0707 33.375 37.75V34.8334H37.75C40.0706 34.8334 42.2962 35.7552 43.9372 37.3962C45.5781 39.0371 46.5 41.2627 46.5 43.5834V58.1667M46.5 49.4167C46.5 47.0961 47.4219 44.8705 49.0628 43.2295C50.7038 41.5886 52.9294 40.6667 55.25 40.6667H59.625V42.125C59.625 44.4457 58.7031 46.6713 57.0622 48.3122C55.4212 49.9532 53.1956 50.875 50.875 50.875H46.5" stroke="#FFD900" stroke-width="2" stroke-linecap="round" stroke-linejoin="round"/>
</g>
<defs>
<filter id="filter0_d_1293_30442" x="0" y="0" width="93" height="93" filterUnits="userSpaceOnUse" color-interpolation-filters="sRGB">
<feFlood flood-opacity="0" result="BackgroundImageFix"/>
<feColorMatrix in="SourceAlpha" type="matrix" values="0 0 0 0 0 0 0 0 0 0 0 0 0 0 0 0 0 0 127 0" result="hardAlpha"/>
<feMorphology radius="1" operator="dilate" in="SourceAlpha" result="effect1_dropShadow_1293_30442"/>
<feOffset/>
<feGaussianBlur stdDeviation="8.5"/>
<feComposite in2="hardAlpha" operator="out"/>
<feColorMatrix type="matrix" values="0 0 0 0 0 0 0 0 0 0 0 0 0 0 0 0 0 0 0.07 0"/>
<feBlend mode="normal" in2="BackgroundImageFix" result="effect1_dropShadow_1293_30442"/>
<feBlend mode="normal" in="SourceGraphic" in2="effect1_dropShadow_1293_30442" result="shape"/>
</filter>
</defs>
</svg>
