<svg width="294" height="260" viewBox="0 0 294 260" fill="none" xmlns="http://www.w3.org/2000/svg">
<path d="M211.908 195.293C247.756 159.558 247.756 101.62 211.908 65.8849C176.061 30.1499 117.94 30.1499 82.0925 65.8849C46.2448 101.62 46.2448 159.558 82.0925 195.293C117.94 231.028 176.061 231.028 211.908 195.293Z" fill="#D9D3B2"/>
<path d="M227.076 111.962C230.782 111.508 234.236 116.701 237.867 117.574C241.417 142.357 234.749 168.265 218.026 188.567C218.368 184.408 217.286 180.135 214.978 176.638C212.652 173.12 209.138 170.343 207.626 166.408C205.65 161.265 208.04 154.841 212.898 152.224C215.739 150.696 219.224 150.344 221.64 148.218C224.562 145.656 225.025 141.218 224.184 137.432C223.348 133.643 221.46 130.172 220.361 126.448C219.718 124.269 219.4 121.756 220.65 119.855C221.928 117.914 224.765 112.245 227.076 111.962Z" fill="#514D33"/>
<path d="M143.923 39.1315C169.201 38.296 194.707 47.8155 213.507 67.5171C221.587 75.9856 227.72 85.5909 231.919 95.7883C227.059 94.2995 222.151 92.8553 217.089 92.4076C211.718 91.9293 206.096 92.6537 201.484 95.4298C197.481 97.8379 194.43 101.656 190.271 103.781C182.88 107.564 173.194 104.788 169.153 97.5479C166.745 93.2391 168.565 87.9439 169.096 83.0424C169.265 81.4811 169.29 79.8539 168.737 78.3818C167.836 75.9716 165.314 74.262 162.733 74.3079C160.154 74.3571 157.701 76.1579 156.884 78.5993C156.15 80.8032 156.688 83.1908 156.903 85.5025C157.466 91.5228 155.007 98.4879 149.305 100.548C147.112 101.341 144.692 101.31 142.391 100.919C138.092 100.185 133.953 98.1393 131.087 94.855C128.227 91.5721 122.811 83.6358 123.644 79.3657C125.072 72.0793 136.139 71.0056 141.39 65.7409C144.966 62.1527 147.978 57.4335 147.576 52.3883C147.401 50.1718 146.583 48.069 145.867 45.9595C145.105 43.715 144.459 41.4379 143.923 39.1315Z" fill="#514D33"/>
<path d="M71.5996 78.3704C72.0821 78.5027 72.5605 78.6444 73.0356 78.7895C77.2069 80.0694 81.4049 81.7165 84.5919 84.6901C87.7789 87.6637 89.7828 92.2286 88.6704 96.4402C87.5794 100.568 83.8192 103.557 82.5893 107.645C81.2848 111.975 83.3954 117.078 87.3885 119.225C90.2145 120.747 93.5757 120.818 96.6793 121.652C103.903 123.599 109.56 129.954 111.334 137.203C113.114 144.452 111.234 152.351 106.984 158.492C102.623 164.796 96.0901 169.216 90.5702 174.54C86.7499 178.226 84.702 182.342 81.9207 186.71C81.144 187.922 79.9281 188.72 79.6465 190.197C79.4363 191.31 79.8527 192.379 80.2918 193.452C49.9124 161.42 47.2626 113.213 71.5996 78.3704Z" fill="#514D33"/>
<path d="M120.417 129.473C119.206 136.547 119.675 142.978 126.148 147.428C130.634 150.511 136.08 152.031 140.433 155.299C145.642 159.21 148.724 165.638 148.916 172.095C149 174.899 147.657 177.387 147.578 180.015C147.494 182.797 149.677 185.6 151.248 187.769C154.915 192.829 160.269 196.931 166.449 197.934C172.629 198.937 179.555 196.317 182.571 190.847C186.664 183.424 182.742 173.869 185.525 165.865C188.115 158.416 195.914 153.89 199.231 146.733C200.615 143.746 201.148 140.427 201.25 137.139C201.393 132.574 200.681 127.855 198.3 123.954C195.919 120.053 191.653 117.11 187.072 117.156C178.284 117.245 172.357 127.416 163.606 128.222C158.976 128.649 154.601 126.34 150.374 124.408C147.505 123.096 144.568 121.931 141.579 120.918C137.883 119.666 133.927 118.638 130.107 119.438C125.266 120.452 121.249 124.612 120.417 129.473Z" fill="#514D33"/>
<path d="M164.108 131.708C164.108 132.885 163.15 133.84 161.969 133.84C160.788 133.84 159.83 132.885 159.83 131.708C159.83 130.53 160.788 129.575 161.969 129.575C163.15 129.575 164.108 130.53 164.108 131.708Z" fill="#181818"/>
<path d="M83.9392 174.18C83.9392 175.358 82.9816 176.313 81.8004 176.313C80.6192 176.313 79.6616 175.358 79.6616 174.18C79.6616 173.003 80.6192 172.048 81.8004 172.048C82.9823 172.048 83.9392 173.003 83.9392 174.18Z" fill="#181818"/>
<path d="M135.769 76.5582C135.769 77.7357 134.812 78.6903 133.631 78.6903C132.449 78.6903 131.492 77.7357 131.492 76.5582C131.492 75.3808 132.449 74.4261 133.631 74.4261C134.812 74.4268 135.769 75.3808 135.769 76.5582Z" fill="#F2B92C"/>
<path d="M230.302 118.287C230.302 119.465 229.344 120.419 228.163 120.419C226.982 120.419 226.024 119.465 226.024 118.287C226.024 117.11 226.982 116.155 228.163 116.155C229.344 116.155 230.302 117.11 230.302 118.287Z" fill="#F2B92C"/>
<path d="M77.5231 109.721C78.7043 109.721 79.6619 108.766 79.6619 107.589C79.6619 106.411 78.7043 105.457 77.5231 105.457C76.3419 105.457 75.3843 106.411 75.3843 107.589C75.3843 108.766 76.3419 109.721 77.5231 109.721Z" fill="#F2B92C"/>
<path d="M82.4543 106.072C82.3548 106.072 82.2547 106.032 82.1813 105.953C82.0419 105.803 82.0512 105.568 82.202 105.43C82.4843 105.17 82.7846 104.923 83.0956 104.696C83.2611 104.576 83.4933 104.612 83.6148 104.777C83.7355 104.942 83.6995 105.174 83.534 105.294C83.2464 105.504 82.9681 105.733 82.7065 105.974C82.6344 106.04 82.5444 106.072 82.4543 106.072Z" fill="#181818"/>
<path d="M157.668 124.78C157.546 124.78 157.428 124.721 157.356 124.611L156.991 124.051C156.71 123.62 156.432 123.193 156.152 122.769C156.04 122.598 156.088 122.369 156.259 122.257C156.431 122.144 156.661 122.192 156.774 122.363C157.053 122.787 157.333 123.216 157.614 123.649L157.979 124.209C158.091 124.381 158.042 124.609 157.87 124.721C157.808 124.76 157.737 124.78 157.668 124.78ZM154.805 120.511C154.69 120.511 154.576 120.458 154.503 120.357C154.046 119.725 153.613 119.157 153.18 118.623C153.051 118.464 153.075 118.231 153.234 118.102C153.394 117.974 153.628 117.999 153.757 118.157C154.199 118.702 154.641 119.28 155.106 119.925C155.226 120.091 155.188 120.322 155.021 120.441C154.956 120.488 154.881 120.511 154.805 120.511ZM151.505 116.575C151.409 116.575 151.314 116.54 151.242 116.467C150.729 115.954 150.191 115.46 149.642 114.997C149.485 114.866 149.466 114.632 149.598 114.476C149.73 114.32 149.964 114.299 150.121 114.432C150.686 114.908 151.24 115.417 151.767 115.944C151.912 116.089 151.911 116.323 151.766 116.468C151.694 116.54 151.599 116.575 151.505 116.575ZM147.544 113.303C147.47 113.303 147.395 113.281 147.329 113.235C146.733 112.812 146.128 112.404 145.516 112.009C145.343 111.897 145.295 111.668 145.406 111.496C145.517 111.325 145.748 111.276 145.919 111.387C146.541 111.788 147.155 112.203 147.76 112.631C147.927 112.749 147.966 112.98 147.848 113.147C147.774 113.249 147.66 113.303 147.544 113.303ZM143.203 110.544C143.14 110.544 143.077 110.528 143.019 110.495C142.384 110.134 141.741 109.785 141.093 109.449C140.911 109.355 140.84 109.131 140.935 108.95C141.029 108.769 141.254 108.698 141.435 108.793C142.092 109.133 142.743 109.487 143.387 109.853C143.565 109.954 143.627 110.181 143.525 110.358C143.456 110.477 143.332 110.544 143.203 110.544ZM138.617 108.206C138.566 108.206 138.514 108.195 138.464 108.173C137.798 107.871 137.127 107.581 136.45 107.303C136.26 107.226 136.169 107.009 136.248 106.82C136.326 106.631 136.543 106.542 136.733 106.618C137.417 106.9 138.097 107.193 138.771 107.499C138.958 107.583 139.04 107.804 138.955 107.989C138.893 108.125 138.758 108.206 138.617 108.206ZM133.843 106.278C133.802 106.278 133.76 106.271 133.718 106.256C133.029 106.01 132.336 105.776 131.638 105.553C131.442 105.491 131.335 105.282 131.398 105.088C131.46 104.894 131.671 104.787 131.864 104.849C132.569 105.074 133.271 105.311 133.968 105.559C134.161 105.628 134.262 105.84 134.192 106.032C134.139 106.184 133.995 106.278 133.843 106.278ZM128.93 104.737C128.897 104.737 128.865 104.732 128.832 104.724C128.126 104.531 127.416 104.35 126.704 104.178C126.504 104.13 126.382 103.931 126.43 103.732C126.478 103.533 126.679 103.41 126.878 103.459C127.598 103.632 128.315 103.815 129.028 104.01C129.226 104.064 129.342 104.267 129.288 104.465C129.242 104.629 129.093 104.737 128.93 104.737ZM85.908 103.99C85.7572 103.99 85.6157 103.899 85.5603 103.75C85.4882 103.558 85.5863 103.345 85.7785 103.273C86.4451 103.026 87.1558 102.823 87.9512 102.653C88.1501 102.607 88.3489 102.738 88.3916 102.938C88.435 103.138 88.3069 103.335 88.106 103.377C87.3466 103.539 86.67 103.732 86.0374 103.968C85.9947 103.983 85.9513 103.99 85.908 103.99ZM123.915 103.558C123.891 103.558 123.867 103.556 123.842 103.551C123.124 103.408 122.403 103.275 121.681 103.152C121.479 103.117 121.343 102.926 121.377 102.725C121.412 102.523 121.606 102.389 121.806 102.422C122.535 102.546 123.263 102.68 123.988 102.824C124.189 102.864 124.32 103.059 124.279 103.26C124.244 103.437 124.089 103.558 123.915 103.558ZM90.938 102.949C90.7499 102.949 90.5891 102.808 90.569 102.617C90.5477 102.414 90.6965 102.232 90.9 102.211C91.5927 102.139 92.2893 102.082 92.9826 102.025L93.1074 102.015C93.3196 102.001 93.4918 102.15 93.5078 102.353C93.5245 102.557 93.3723 102.736 93.1682 102.752L93.0434 102.762C92.3554 102.819 91.6641 102.876 90.9767 102.947C90.9641 102.949 90.9507 102.949 90.938 102.949ZM118.833 102.715C118.817 102.715 118.8 102.714 118.784 102.712C118.058 102.615 117.33 102.527 116.602 102.449C116.397 102.427 116.25 102.245 116.272 102.042C116.293 101.838 116.475 101.691 116.68 101.713C117.415 101.792 118.15 101.88 118.882 101.978C119.086 102.005 119.228 102.192 119.201 102.394C119.175 102.58 119.016 102.715 118.833 102.715ZM96.0689 102.473C95.8814 102.473 95.7199 102.332 95.6999 102.142C95.6785 101.938 95.8267 101.757 96.0302 101.735C96.7649 101.658 97.5003 101.589 98.237 101.528C98.4391 101.514 98.62 101.663 98.6373 101.867C98.654 102.071 98.5019 102.25 98.2977 102.267C97.567 102.327 96.837 102.395 96.1076 102.471C96.0949 102.472 96.0816 102.473 96.0689 102.473ZM113.709 102.186C113.7 102.186 113.69 102.186 113.681 102.185C112.949 102.131 112.218 102.086 111.485 102.049C111.281 102.039 111.123 101.865 111.133 101.661C111.144 101.457 111.32 101.3 111.523 101.31C112.26 101.347 112.998 101.392 113.736 101.447C113.94 101.462 114.093 101.64 114.079 101.843C114.064 102.038 113.901 102.186 113.709 102.186ZM101.204 102.068C101.009 102.068 100.845 101.915 100.834 101.717C100.823 101.514 100.98 101.34 101.185 101.328C101.922 101.289 102.661 101.258 103.399 101.235C103.61 101.236 103.776 101.389 103.782 101.594C103.788 101.798 103.627 101.969 103.423 101.975C102.689 101.997 101.957 102.029 101.224 102.068C101.218 102.068 101.211 102.068 101.204 102.068ZM108.563 101.947C108.56 101.947 108.558 101.947 108.555 101.947C107.884 101.934 107.213 101.926 106.541 101.926H106.355C106.149 101.926 105.983 101.761 105.983 101.556C105.983 101.352 106.149 101.187 106.355 101.187H106.541C107.217 101.187 107.894 101.193 108.57 101.206C108.776 101.21 108.938 101.379 108.934 101.584C108.93 101.786 108.764 101.947 108.563 101.947Z" fill="#181818"/>
<path d="M159.95 128.148C159.834 128.148 159.72 128.094 159.647 127.993C159.428 127.686 159.214 127.382 159.003 127.078C158.887 126.909 158.93 126.679 159.099 126.563C159.268 126.448 159.499 126.489 159.615 126.658C159.822 126.958 160.034 127.26 160.251 127.562C160.371 127.728 160.332 127.96 160.165 128.079C160.1 128.125 160.024 128.148 159.95 128.148Z" fill="#181818"/>
<path d="M163.061 126.174C163.053 126.174 163.045 126.174 163.038 126.173C162.834 126.161 162.678 125.985 162.69 125.781C162.734 125.047 162.768 124.311 162.79 123.575C162.796 123.37 162.996 123.221 163.172 123.215C163.377 123.221 163.538 123.392 163.532 123.596C163.51 124.341 163.476 125.084 163.431 125.826C163.419 126.023 163.255 126.174 163.061 126.174ZM163.187 120.994C162.985 120.994 162.818 120.831 162.816 120.628C162.807 119.892 162.786 119.156 162.752 118.421C162.743 118.217 162.902 118.044 163.106 118.034C163.308 118.025 163.484 118.183 163.494 118.387C163.528 119.131 163.549 119.874 163.558 120.62C163.561 120.824 163.397 120.991 163.191 120.994C163.19 120.994 163.189 120.994 163.187 120.994ZM162.919 115.821C162.729 115.821 162.568 115.676 162.55 115.484C162.482 114.751 162.401 114.02 162.307 113.291C162.281 113.088 162.425 112.902 162.628 112.876C162.838 112.854 163.018 112.994 163.044 113.196C163.139 113.935 163.221 114.675 163.289 115.417C163.308 115.62 163.157 115.801 162.953 115.819C162.943 115.82 162.931 115.821 162.919 115.821ZM162.222 110.688C162.046 110.688 161.89 110.562 161.857 110.383C161.725 109.659 161.58 108.938 161.419 108.221C161.375 108.021 161.501 107.823 161.701 107.778C161.902 107.736 162.1 107.86 162.144 108.059C162.306 108.786 162.454 109.517 162.588 110.251C162.624 110.451 162.49 110.644 162.288 110.681C162.267 110.686 162.244 110.688 162.222 110.688ZM161.054 105.64C160.893 105.64 160.743 105.533 160.697 105.37C160.496 104.663 160.28 103.961 160.048 103.264C159.984 103.069 160.089 102.86 160.284 102.796C160.478 102.733 160.689 102.836 160.753 103.031C160.989 103.739 161.208 104.452 161.411 105.169C161.467 105.366 161.352 105.57 161.155 105.626C161.122 105.636 161.088 105.64 161.054 105.64ZM159.381 100.737C159.234 100.737 159.095 100.649 159.037 100.505C158.763 99.8229 158.469 99.1424 158.165 98.4811C158.079 98.2955 158.161 98.0753 158.348 97.9902C158.535 97.9057 158.755 97.9869 158.84 98.1725C159.15 98.845 159.447 99.5369 159.726 100.229C159.803 100.418 159.71 100.635 159.52 100.71C159.474 100.728 159.427 100.737 159.381 100.737ZM157.171 96.049C157.04 96.049 156.912 95.9792 156.845 95.8561C156.495 95.2162 156.122 94.5755 155.736 93.9515C155.629 93.7779 155.683 93.5498 155.858 93.442C156.031 93.3349 156.261 93.3894 156.369 93.5631C156.761 94.1977 157.14 94.8496 157.497 95.5016C157.595 95.6812 157.529 95.9054 157.349 96.0038C157.293 96.0351 157.231 96.049 157.171 96.049ZM154.407 91.6638C154.292 91.6638 154.178 91.6106 154.105 91.5095C153.677 90.9161 153.228 90.326 152.77 89.7572C152.641 89.5976 152.667 89.3648 152.826 89.237C152.986 89.1086 153.219 89.1339 153.348 89.2936C153.815 89.873 154.272 90.4737 154.708 91.0777C154.828 91.2434 154.79 91.4749 154.623 91.594C154.558 91.6419 154.482 91.6638 154.407 91.6638ZM151.115 87.6578C151.015 87.6578 150.916 87.6178 150.842 87.54C150.345 87.0065 149.823 86.4796 149.294 85.974C149.145 85.8324 149.14 85.5982 149.282 85.4505C149.424 85.3028 149.66 85.2975 149.807 85.4392C150.347 85.9548 150.878 86.4916 151.386 87.0351C151.526 87.1848 151.518 87.4189 151.368 87.5586C151.296 87.6252 151.205 87.6578 151.115 87.6578ZM147.327 84.1147C147.245 84.1147 147.162 84.0874 147.092 84.0309C146.522 83.5666 145.934 83.1162 145.344 82.6924C145.178 82.5727 145.14 82.3412 145.26 82.1755C145.379 82.0099 145.61 81.972 145.778 82.0917C146.38 82.5241 146.981 82.9845 147.562 83.4575C147.721 83.5872 147.744 83.82 147.615 83.9783C147.541 84.0681 147.435 84.1147 147.327 84.1147ZM143.082 81.1344C143.017 81.1344 142.951 81.1178 142.892 81.0819C142.262 80.706 141.614 80.3475 140.966 80.0169C140.784 79.9237 140.712 79.7002 140.804 79.5186C140.898 79.337 141.121 79.2651 141.304 79.3576C141.967 79.6962 142.629 80.0621 143.273 80.4466C143.449 80.5517 143.506 80.7792 143.401 80.9542C143.331 81.0699 143.208 81.1344 143.082 81.1344ZM138.432 78.8307C138.386 78.8307 138.339 78.8228 138.294 78.8041C137.615 78.5327 136.918 78.2826 136.224 78.0604C136.028 77.9985 135.921 77.7896 135.984 77.5954C136.046 77.4011 136.253 77.2934 136.45 77.3559C137.161 77.5828 137.875 77.8395 138.57 78.1176C138.76 78.1934 138.853 78.409 138.776 78.5986C138.719 78.7429 138.58 78.8307 138.432 78.8307Z" fill="#181818"/>
<path d="M165.738 128.248C165.683 128.248 165.627 128.236 165.574 128.209C165.39 128.118 165.315 127.897 165.406 127.713C165.735 127.051 166.092 126.385 166.467 125.735C166.57 125.558 166.795 125.497 166.974 125.599C167.152 125.701 167.214 125.927 167.111 126.105C166.744 126.742 166.394 127.394 166.071 128.043C166.007 128.172 165.874 128.248 165.738 128.248ZM168.371 123.785C168.298 123.785 168.225 123.764 168.161 123.72C167.992 123.604 167.949 123.374 168.065 123.205C168.485 122.595 168.932 121.986 169.393 121.395C169.519 121.234 169.752 121.204 169.914 121.33C170.076 121.455 170.105 121.687 169.979 121.849C169.527 122.429 169.09 123.027 168.677 123.624C168.606 123.729 168.489 123.785 168.371 123.785ZM171.598 119.727C171.508 119.727 171.419 119.695 171.348 119.63C171.197 119.493 171.186 119.259 171.324 119.108C171.827 118.556 172.351 118.013 172.884 117.493C173.029 117.349 173.265 117.351 173.409 117.498C173.552 117.644 173.55 117.879 173.404 118.022C172.882 118.532 172.367 119.065 171.874 119.607C171.799 119.686 171.699 119.727 171.598 119.727ZM175.341 116.137C175.235 116.137 175.13 116.092 175.057 116.005C174.924 115.849 174.944 115.615 175.101 115.483C175.669 115.006 176.261 114.537 176.861 114.088C177.025 113.965 177.258 113.999 177.381 114.162C177.504 114.326 177.471 114.558 177.307 114.68C176.718 115.121 176.137 115.582 175.58 116.05C175.51 116.108 175.425 116.137 175.341 116.137ZM225.46 116.073C225.379 116.073 225.299 116.048 225.23 115.994C224.663 115.551 224.066 115.113 223.454 114.693C223.285 114.577 223.243 114.347 223.359 114.178C223.476 114.01 223.707 113.967 223.875 114.083C224.5 114.512 225.111 114.959 225.69 115.412C225.851 115.539 225.879 115.771 225.752 115.932C225.679 116.025 225.57 116.073 225.46 116.073ZM221.153 113.178C221.089 113.178 221.026 113.162 220.967 113.128C220.339 112.767 219.686 112.413 219.027 112.079C218.845 111.986 218.772 111.763 218.865 111.581C218.957 111.398 219.181 111.327 219.364 111.419C220.034 111.759 220.699 112.119 221.339 112.488C221.516 112.59 221.577 112.816 221.474 112.993C221.406 113.112 221.281 113.178 221.153 113.178ZM179.525 113.067C179.402 113.067 179.283 113.007 179.212 112.896C179.102 112.724 179.152 112.495 179.325 112.385C179.951 111.987 180.6 111.599 181.254 111.233C181.433 111.133 181.659 111.197 181.76 111.374C181.86 111.553 181.796 111.778 181.617 111.878C180.975 112.238 180.339 112.618 179.725 113.009C179.662 113.049 179.593 113.067 179.525 113.067ZM216.502 110.867C216.453 110.867 216.404 110.857 216.356 110.837C215.683 110.552 214.992 110.278 214.302 110.024C214.109 109.953 214.011 109.74 214.082 109.548C214.153 109.357 214.367 109.259 214.559 109.329C215.261 109.587 215.963 109.866 216.647 110.156C216.836 110.236 216.924 110.454 216.843 110.642C216.783 110.782 216.646 110.867 216.502 110.867ZM184.08 110.579C183.94 110.579 183.805 110.499 183.743 110.364C183.657 110.179 183.737 109.959 183.924 109.873C184.602 109.559 185.297 109.262 185.99 108.989C186.18 108.914 186.397 109.007 186.472 109.197C186.547 109.387 186.454 109.602 186.263 109.677C185.583 109.945 184.901 110.237 184.237 110.544C184.184 110.567 184.132 110.579 184.08 110.579ZM211.612 109.11C211.577 109.11 211.541 109.105 211.506 109.095C210.802 108.886 210.084 108.691 209.373 108.516C209.174 108.468 209.052 108.267 209.101 108.069C209.151 107.87 209.352 107.748 209.55 107.798C210.273 107.976 211.002 108.174 211.718 108.387C211.914 108.445 212.026 108.651 211.967 108.847C211.919 109.007 211.772 109.11 211.612 109.11ZM188.929 108.726C188.77 108.726 188.623 108.623 188.574 108.464C188.514 108.268 188.625 108.061 188.82 108.002C189.537 107.784 190.267 107.586 190.991 107.412C191.19 107.366 191.391 107.487 191.439 107.686C191.487 107.884 191.364 108.084 191.164 108.132C190.455 108.302 189.74 108.496 189.038 108.709C189.001 108.721 188.965 108.726 188.929 108.726ZM206.557 107.909C206.535 107.909 206.514 107.907 206.492 107.903C205.764 107.773 205.03 107.66 204.308 107.568C204.105 107.542 203.961 107.357 203.987 107.154C204.013 106.952 204.199 106.815 204.402 106.834C205.136 106.928 205.883 107.043 206.622 107.175C206.825 107.211 206.959 107.403 206.923 107.604C206.89 107.783 206.734 107.909 206.557 107.909ZM193.993 107.582C193.812 107.582 193.653 107.449 193.626 107.264C193.597 107.062 193.738 106.875 193.94 106.845C194.671 106.74 195.424 106.656 196.178 106.598C196.377 106.585 196.562 106.734 196.578 106.938C196.594 107.142 196.441 107.32 196.236 107.336C195.499 107.393 194.762 107.475 194.046 107.578C194.028 107.58 194.01 107.582 193.993 107.582ZM201.4 107.296C201.393 107.296 201.385 107.295 201.378 107.295C200.639 107.252 199.897 107.23 199.173 107.228C198.968 107.228 198.802 107.062 198.802 106.857C198.802 106.653 198.969 106.487 199.173 106.487H199.175C199.912 106.489 200.668 106.512 201.421 106.556C201.626 106.567 201.782 106.743 201.77 106.946C201.759 107.144 201.595 107.296 201.4 107.296Z" fill="#181818"/>
<path d="M84.224 170.328C84.2086 170.328 84.1933 170.327 84.1772 170.325C83.9737 170.3 83.8296 170.115 83.8549 169.912C83.947 169.177 84.0611 168.433 84.1933 167.698C84.2293 167.496 84.4221 167.364 84.6243 167.399C84.8265 167.435 84.9607 167.628 84.924 167.829C84.7938 168.55 84.6817 169.282 84.5916 170.005C84.5683 170.191 84.4088 170.328 84.224 170.328ZM85.1875 165.239C85.1575 165.239 85.1268 165.236 85.0961 165.228C84.8973 165.177 84.7771 164.976 84.8272 164.778C85.01 164.059 85.2136 163.333 85.4338 162.622C85.4945 162.426 85.7 162.317 85.8982 162.377C86.0937 162.438 86.2038 162.644 86.1438 162.84C85.9276 163.539 85.7274 164.252 85.5479 164.96C85.5045 165.127 85.353 165.239 85.1875 165.239ZM86.7564 160.303C86.7123 160.303 86.6676 160.295 86.6236 160.278C86.432 160.206 86.3366 159.992 86.4094 159.801C86.6729 159.112 86.9599 158.415 87.2608 157.73C87.3429 157.543 87.5605 157.457 87.75 157.54C87.9381 157.622 88.0236 157.841 87.9408 158.028C87.6439 158.702 87.3623 159.388 87.102 160.066C87.0466 160.212 86.9058 160.303 86.7564 160.303ZM88.8804 155.576C88.823 155.576 88.7649 155.563 88.7102 155.535C88.528 155.441 88.4566 155.218 88.5507 155.036C88.891 154.378 89.2534 153.718 89.6264 153.072C89.7285 152.895 89.9554 152.834 90.1336 152.937C90.3111 153.038 90.3724 153.265 90.2697 153.442C89.902 154.078 89.5457 154.729 89.2107 155.377C89.1446 155.504 89.0152 155.576 88.8804 155.576ZM91.5082 151.109C91.4381 151.109 91.3674 151.089 91.304 151.047C91.1325 150.934 91.0858 150.705 91.1986 150.535C91.6076 149.917 92.0374 149.298 92.4764 148.696C92.5966 148.53 92.8288 148.494 92.9949 148.614C93.1604 148.734 93.1978 148.965 93.077 149.131C92.6446 149.724 92.2215 150.334 91.8185 150.942C91.7471 151.05 91.629 151.109 91.5082 151.109ZM94.5924 146.94C94.5097 146.94 94.4263 146.912 94.3569 146.855C94.1981 146.725 94.1754 146.492 94.3055 146.334C94.7799 145.758 95.2671 145.191 95.7669 144.637C95.9043 144.485 96.1392 144.472 96.2914 144.609C96.4442 144.745 96.4569 144.979 96.3194 145.131C95.8269 145.678 95.3471 146.236 94.8787 146.805C94.8066 146.894 94.6999 146.94 94.5924 146.94ZM98.0911 143.11C97.9956 143.11 97.9002 143.073 97.8275 143C97.6834 142.855 97.684 142.621 97.8295 142.477C98.1351 142.175 98.4434 141.877 98.7564 141.584C98.9886 141.366 99.2221 141.15 99.4584 140.937C99.6105 140.799 99.8447 140.81 99.9829 140.962C100.121 141.113 100.11 141.347 99.9575 141.485C99.7253 141.695 99.4944 141.908 99.2655 142.123C98.9572 142.412 98.6529 142.705 98.3527 143.002C98.2799 143.074 98.1858 143.11 98.0911 143.11ZM101.962 139.653C101.854 139.653 101.747 139.606 101.673 139.516C101.544 139.357 101.568 139.124 101.728 138.995C102.308 138.526 102.898 138.068 103.497 137.622C103.661 137.5 103.895 137.533 104.017 137.697C104.139 137.861 104.105 138.093 103.941 138.215C103.35 138.655 102.768 139.106 102.196 139.57C102.127 139.625 102.044 139.653 101.962 139.653ZM106.145 136.581C106.025 136.581 105.907 136.523 105.835 136.416C105.721 136.246 105.767 136.016 105.938 135.903C106.559 135.489 107.189 135.088 107.826 134.698C107.999 134.591 108.229 134.645 108.337 134.82C108.444 134.994 108.389 135.222 108.215 135.329C107.586 135.714 106.964 136.11 106.351 136.519C106.287 136.561 106.215 136.581 106.145 136.581ZM110.59 133.898C110.459 133.898 110.331 133.829 110.264 133.705C110.165 133.526 110.232 133.302 110.411 133.203C111.067 132.846 111.729 132.501 112.396 132.167C112.581 132.076 112.802 132.15 112.894 132.332C112.986 132.515 112.912 132.737 112.729 132.829C112.069 133.158 111.414 133.499 110.767 133.852C110.712 133.884 110.65 133.898 110.59 133.898ZM115.251 131.607C115.108 131.607 114.972 131.525 114.911 131.386C114.828 131.199 114.912 130.981 115.1 130.898C115.782 130.597 116.47 130.307 117.164 130.029C117.353 129.953 117.57 130.044 117.647 130.235C117.724 130.424 117.632 130.64 117.441 130.716C116.756 130.991 116.075 131.277 115.401 131.575C115.352 131.596 115.301 131.607 115.251 131.607ZM157.57 130.406C157.508 130.406 157.445 130.391 157.388 130.359C156.757 130.003 156.099 129.664 155.435 129.351C155.249 129.264 155.17 129.044 155.257 128.859C155.344 128.674 155.565 128.594 155.751 128.682C156.433 129.002 157.106 129.349 157.753 129.715C157.932 129.815 157.995 130.041 157.894 130.219C157.825 130.339 157.699 130.406 157.57 130.406ZM120.083 129.701C119.929 129.701 119.786 129.606 119.732 129.453C119.664 129.26 119.766 129.049 119.96 128.982C120.664 128.735 121.373 128.501 122.086 128.278C122.281 128.217 122.489 128.326 122.551 128.521C122.612 128.716 122.503 128.924 122.307 128.985C121.603 129.205 120.902 129.437 120.205 129.68C120.165 129.695 120.123 129.701 120.083 129.701ZM152.849 128.256C152.807 128.256 152.765 128.25 152.723 128.235C152.043 127.991 151.338 127.765 150.626 127.563C150.429 127.507 150.314 127.302 150.371 127.106C150.426 126.909 150.632 126.792 150.829 126.851C151.557 127.058 152.279 127.289 152.974 127.537C153.166 127.607 153.267 127.819 153.197 128.011C153.144 128.163 153.002 128.256 152.849 128.256ZM125.05 128.179C124.886 128.179 124.736 128.07 124.692 127.904C124.639 127.706 124.757 127.503 124.955 127.451C125.677 127.259 126.401 127.08 127.129 126.912C127.329 126.866 127.528 126.99 127.574 127.189C127.62 127.388 127.496 127.587 127.296 127.634C126.577 127.799 125.86 127.977 125.146 128.167C125.114 128.175 125.082 128.179 125.05 128.179ZM130.121 127.042C129.945 127.042 129.788 126.917 129.756 126.738C129.719 126.537 129.852 126.344 130.055 126.307C130.789 126.174 131.527 126.054 132.267 125.948C132.468 125.916 132.658 126.059 132.688 126.262C132.716 126.464 132.576 126.652 132.373 126.681C131.641 126.786 130.913 126.904 130.188 127.036C130.165 127.04 130.143 127.042 130.121 127.042ZM147.841 126.888C147.817 126.888 147.793 126.886 147.769 126.881C147.056 126.742 146.324 126.621 145.592 126.521C145.389 126.493 145.247 126.307 145.274 126.104C145.302 125.902 145.49 125.762 145.693 125.787C146.438 125.889 147.185 126.013 147.912 126.155C148.112 126.194 148.244 126.389 148.204 126.589C148.17 126.766 148.015 126.888 147.841 126.888ZM135.269 126.342C135.079 126.342 134.917 126.198 134.899 126.005C134.881 125.801 135.031 125.621 135.236 125.603C135.982 125.536 136.728 125.485 137.474 125.45C137.695 125.448 137.853 125.599 137.863 125.803C137.872 126.007 137.714 126.181 137.509 126.19C136.772 126.224 136.037 126.275 135.302 126.341C135.291 126.342 135.28 126.342 135.269 126.342ZM142.688 126.23C142.68 126.23 142.671 126.229 142.663 126.229C141.945 126.183 141.203 126.154 140.456 126.143C140.251 126.14 140.087 125.972 140.09 125.767C140.093 125.563 140.268 125.407 140.466 125.403C141.225 125.414 141.981 125.443 142.711 125.491C142.916 125.504 143.071 125.681 143.058 125.885C143.046 126.08 142.882 126.23 142.688 126.23Z" fill="#181818"/>
<path d="M147.267 230.536C147.063 230.536 146.896 230.371 146.896 230.167C146.895 229.963 147.061 229.796 147.266 229.796C148.256 229.793 149.241 229.777 150.224 229.745C150.432 229.725 150.601 229.898 150.607 230.103C150.613 230.307 150.453 230.478 150.248 230.485C149.258 230.517 148.265 230.534 147.268 230.536H147.267ZM143.556 230.478C143.551 230.478 143.547 230.478 143.543 230.478C142.546 230.444 141.554 230.396 140.567 230.334C140.362 230.321 140.206 230.145 140.219 229.941C140.232 229.737 140.404 229.582 140.613 229.595C141.594 229.656 142.579 229.705 143.568 229.738C143.773 229.745 143.934 229.916 143.926 230.12C143.92 230.321 143.755 230.478 143.556 230.478ZM153.943 230.299C153.749 230.299 153.586 230.15 153.572 229.955C153.558 229.751 153.713 229.574 153.917 229.56C154.903 229.493 155.887 229.411 156.865 229.316C157.075 229.298 157.251 229.444 157.271 229.647C157.291 229.85 157.142 230.032 156.938 230.052C155.952 230.149 154.962 230.232 153.968 230.299C153.959 230.299 153.951 230.299 153.943 230.299ZM136.891 230.033C136.879 230.033 136.866 230.032 136.853 230.031C135.861 229.932 134.874 229.818 133.893 229.69C133.689 229.663 133.546 229.478 133.573 229.276C133.599 229.073 133.783 228.929 133.988 228.956C134.964 229.083 135.943 229.196 136.928 229.294C137.131 229.315 137.28 229.496 137.26 229.7C137.241 229.89 137.079 230.033 136.891 230.033ZM160.588 229.622C160.405 229.622 160.246 229.488 160.22 229.302C160.193 229.099 160.335 228.912 160.539 228.885C161.518 228.753 162.493 228.605 163.464 228.445C163.666 228.409 163.857 228.547 163.891 228.749C163.925 228.95 163.788 229.141 163.585 229.174C162.607 229.337 161.625 229.484 160.638 229.619C160.622 229.622 160.605 229.622 160.588 229.622ZM130.27 229.146C130.25 229.146 130.229 229.144 130.208 229.141C129.226 228.976 128.249 228.796 127.277 228.602C127.075 228.562 126.945 228.368 126.985 228.167C127.025 227.967 127.221 227.835 127.421 227.877C128.386 228.069 129.356 228.246 130.331 228.41C130.533 228.444 130.67 228.636 130.635 228.837C130.605 229.017 130.448 229.146 130.27 229.146ZM167.173 228.505C167 228.505 166.845 228.384 166.81 228.209C166.769 228.009 166.898 227.813 167.099 227.772C168.067 227.575 169.029 227.362 169.987 227.137C170.189 227.09 170.387 227.213 170.434 227.412C170.482 227.611 170.358 227.81 170.159 227.857C169.194 228.085 168.223 228.298 167.248 228.497C167.223 228.502 167.198 228.505 167.173 228.505ZM123.724 227.818C123.695 227.818 123.667 227.815 123.637 227.808C122.669 227.578 121.705 227.333 120.749 227.076C120.551 227.022 120.434 226.819 120.488 226.622C120.541 226.424 120.746 226.307 120.943 226.361C121.894 226.617 122.849 226.859 123.81 227.088C124.01 227.136 124.132 227.336 124.085 227.535C124.044 227.704 123.892 227.818 123.724 227.818ZM173.668 226.947C173.505 226.947 173.356 226.84 173.31 226.676C173.255 226.478 173.372 226.275 173.569 226.22C174.521 225.958 175.468 225.682 176.408 225.393C176.604 225.333 176.812 225.442 176.872 225.637C176.933 225.832 176.823 226.039 176.627 226.099C175.68 226.391 174.726 226.669 173.767 226.933C173.734 226.943 173.701 226.947 173.668 226.947ZM117.282 226.054C117.246 226.054 117.208 226.049 117.172 226.038C116.218 225.743 115.271 225.433 114.329 225.109C114.136 225.043 114.032 224.832 114.1 224.639C114.166 224.445 114.378 224.344 114.572 224.409C115.506 224.73 116.446 225.037 117.393 225.331C117.588 225.391 117.698 225.599 117.637 225.794C117.587 225.953 117.44 226.054 117.282 226.054ZM180.044 224.958C179.89 224.958 179.747 224.863 179.694 224.711C179.625 224.518 179.728 224.306 179.921 224.239C180.853 223.913 181.779 223.574 182.698 223.222C182.888 223.149 183.104 223.244 183.178 223.435C183.252 223.626 183.156 223.84 182.965 223.913C182.038 224.268 181.106 224.61 180.167 224.938C180.126 224.952 180.085 224.958 180.044 224.958ZM110.955 223.855C110.91 223.855 110.864 223.847 110.82 223.83C109.89 223.471 108.967 223.098 108.05 222.713C107.861 222.633 107.772 222.416 107.852 222.228C107.932 222.039 108.149 221.952 108.338 222.031C109.248 222.413 110.165 222.783 111.089 223.139C111.28 223.213 111.375 223.427 111.301 223.618C111.244 223.765 111.103 223.855 110.955 223.855ZM186.26 222.549C186.116 222.549 185.979 222.465 185.919 222.325C185.839 222.136 185.926 221.919 186.114 221.839C187.019 221.453 187.917 221.054 188.808 220.641C188.996 220.555 189.215 220.637 189.301 220.822C189.387 221.007 189.307 221.228 189.12 221.313C188.223 221.728 187.317 222.13 186.406 222.519C186.359 222.54 186.31 222.549 186.26 222.549ZM104.794 221.237C104.741 221.237 104.688 221.226 104.637 221.202C103.734 220.782 102.838 220.348 101.95 219.902C101.767 219.81 101.693 219.588 101.785 219.405C101.877 219.223 102.1 219.148 102.284 219.24C103.166 219.684 104.055 220.113 104.952 220.531C105.138 220.618 105.218 220.838 105.131 221.023C105.068 221.158 104.934 221.237 104.794 221.237ZM192.295 219.733C192.16 219.733 192.03 219.66 191.964 219.531C191.871 219.349 191.944 219.126 192.127 219.034C193.003 218.587 193.874 218.13 194.736 217.659C194.915 217.56 195.141 217.627 195.24 217.806C195.338 217.985 195.272 218.21 195.092 218.308C194.223 218.782 193.347 219.244 192.464 219.693C192.41 219.72 192.352 219.733 192.295 219.733ZM98.8284 218.212C98.7677 218.212 98.7063 218.197 98.6496 218.166C97.7774 217.687 96.9133 217.194 96.0571 216.69C95.8803 216.586 95.8222 216.359 95.9263 216.183C96.0318 216.007 96.258 215.95 96.4348 216.053C97.2843 216.554 98.1424 217.042 99.0079 217.518C99.1874 217.617 99.2528 217.842 99.1534 218.02C99.086 218.144 98.9592 218.212 98.8284 218.212ZM198.131 216.519C198.004 216.519 197.881 216.454 197.812 216.339C197.707 216.163 197.764 215.936 197.94 215.831C198.786 215.328 199.624 214.812 200.453 214.284C200.626 214.174 200.856 214.225 200.966 214.397C201.076 214.569 201.026 214.798 200.852 214.908C200.016 215.439 199.173 215.959 198.32 216.466C198.262 216.502 198.196 216.519 198.131 216.519ZM93.0816 214.797C93.0129 214.797 92.9435 214.779 92.8815 214.739C92.044 214.203 91.2152 213.654 90.3951 213.094C90.2263 212.978 90.1829 212.748 90.2983 212.579C90.4145 212.411 90.6453 212.367 90.8148 212.482C91.6289 213.038 92.4517 213.583 93.2825 214.115C93.4553 214.225 93.5054 214.455 93.3946 214.626C93.3232 214.737 93.2038 214.797 93.0816 214.797ZM203.741 212.921C203.623 212.921 203.507 212.865 203.435 212.761C203.319 212.593 203.361 212.363 203.529 212.246C204.34 211.687 205.142 211.117 205.934 210.535C206.1 210.415 206.332 210.449 206.454 210.614C206.575 210.778 206.54 211.01 206.375 211.131C205.576 211.717 204.768 212.292 203.952 212.855C203.888 212.899 203.814 212.921 203.741 212.921ZM87.5784 211.008C87.5017 211.008 87.4243 210.985 87.3576 210.936C86.5581 210.345 85.7681 209.743 84.988 209.13C84.8272 209.003 84.7991 208.77 84.9266 208.61C85.0541 208.45 85.2876 208.422 85.4478 208.549C86.2225 209.157 87.0066 209.755 87.8 210.341C87.9648 210.463 87.9988 210.695 87.8774 210.859C87.8047 210.957 87.6926 211.008 87.5784 211.008ZM209.101 208.957C208.992 208.957 208.884 208.909 208.81 208.817C208.683 208.657 208.709 208.424 208.87 208.297C209.641 207.686 210.403 207.063 211.157 206.429C211.313 206.298 211.548 206.318 211.68 206.473C211.812 206.63 211.792 206.863 211.636 206.995C210.877 207.633 210.109 208.261 209.332 208.877C209.264 208.931 209.182 208.957 209.101 208.957ZM82.3448 206.864C82.2594 206.864 82.174 206.835 82.1046 206.775C81.3472 206.133 80.5992 205.481 79.8618 204.817C79.7097 204.68 79.6977 204.446 79.8351 204.294C79.9726 204.142 80.2075 204.13 80.3596 204.267C81.0923 204.926 81.8343 205.574 82.5857 206.211C82.7419 206.344 82.7606 206.577 82.6284 206.733C82.555 206.819 82.4503 206.864 82.3448 206.864ZM214.187 204.644C214.086 204.644 213.985 204.603 213.913 204.523C213.774 204.372 213.786 204.138 213.937 204C214.666 203.339 215.386 202.666 216.095 201.984C216.243 201.843 216.478 201.847 216.62 201.994C216.763 202.141 216.759 202.375 216.611 202.517C215.896 203.204 215.172 203.882 214.437 204.547C214.366 204.613 214.276 204.644 214.187 204.644ZM77.4008 202.383C77.3074 202.383 77.214 202.349 77.1419 202.279C76.4292 201.588 75.7272 200.888 75.0359 200.177C74.8931 200.03 74.8965 199.796 75.0439 199.653C75.1914 199.511 75.4256 199.514 75.5691 199.661C76.2557 200.367 76.9524 201.063 77.6604 201.747C77.8072 201.89 77.8105 202.124 77.6677 202.271C77.5943 202.346 77.4976 202.383 77.4008 202.383ZM218.976 200.003C218.883 200.003 218.791 199.969 218.718 199.9C218.57 199.758 218.566 199.524 218.708 199.377C219.392 198.668 220.066 197.95 220.729 197.221C220.867 197.069 221.101 197.058 221.254 197.196C221.406 197.334 221.417 197.567 221.279 197.719C220.612 198.453 219.933 199.176 219.244 199.89C219.17 199.965 219.073 200.003 218.976 200.003ZM72.7671 197.587C72.6657 197.587 72.5642 197.546 72.4915 197.465C71.8269 196.73 71.1736 195.984 70.5303 195.229C70.3975 195.073 70.4169 194.84 70.573 194.707C70.7298 194.575 70.9641 194.595 71.0969 194.75C71.7348 195.5 72.3834 196.239 73.0434 196.969C73.1802 197.121 73.1681 197.355 73.016 197.492C72.9446 197.556 72.8559 197.587 72.7671 197.587ZM223.447 195.053C223.363 195.053 223.278 195.024 223.208 194.966C223.051 194.834 223.031 194.601 223.163 194.444C223.798 193.692 224.423 192.93 225.036 192.159C225.163 191.999 225.397 191.971 225.557 192.099C225.718 192.226 225.744 192.459 225.617 192.618C225 193.395 224.371 194.163 223.731 194.921C223.658 195.007 223.553 195.053 223.447 195.053ZM68.4657 192.497C68.3556 192.497 68.2468 192.448 68.1734 192.356C67.5602 191.579 66.9576 190.792 66.3664 189.996C66.2443 189.832 66.279 189.6 66.4438 189.479C66.6079 189.357 66.8415 189.391 66.9629 189.556C67.5495 190.345 68.1474 191.126 68.7566 191.897C68.8834 192.058 68.8554 192.29 68.6939 192.417C68.6272 192.471 68.5458 192.497 68.4657 192.497ZM227.579 189.814C227.503 189.814 227.426 189.79 227.359 189.742C227.194 189.622 227.158 189.389 227.28 189.225C227.864 188.432 228.436 187.63 228.996 186.82C229.112 186.651 229.343 186.608 229.513 186.725C229.682 186.841 229.724 187.072 229.607 187.24C229.043 188.057 228.466 188.864 227.878 189.663C227.806 189.761 227.693 189.814 227.579 189.814ZM64.5153 187.135C64.3965 187.135 64.2804 187.078 64.2083 186.974C63.6478 186.158 63.1 185.334 62.5635 184.501C62.4527 184.329 62.5027 184.1 62.6756 183.99C62.8471 183.879 63.0773 183.929 63.1887 184.101C63.7212 184.928 64.2651 185.747 64.8209 186.556C64.9364 186.724 64.8937 186.955 64.7242 187.07C64.6608 187.114 64.5874 187.135 64.5153 187.135ZM231.354 184.311C231.286 184.311 231.217 184.292 231.155 184.253C230.982 184.143 230.931 183.914 231.041 183.742C231.57 182.912 232.088 182.074 232.593 181.227C232.698 181.051 232.925 180.993 233.101 181.098C233.278 181.202 233.336 181.429 233.231 181.605C232.722 182.458 232.201 183.303 231.667 184.139C231.597 184.25 231.477 184.311 231.354 184.311ZM60.9333 181.525C60.8065 181.525 60.6823 181.46 60.6129 181.343C60.1091 180.493 59.6173 179.634 59.1389 178.768C59.0401 178.589 59.1049 178.364 59.285 178.265C59.4639 178.167 59.6901 178.232 59.7895 178.411C60.2646 179.271 60.7531 180.123 61.2529 180.967C61.357 181.143 61.2989 181.37 61.1221 181.474C61.062 181.508 60.9973 181.525 60.9333 181.525ZM234.752 178.567C234.692 178.567 234.631 178.552 234.574 178.521C234.394 178.424 234.327 178.199 234.426 178.019C234.898 177.156 235.359 176.284 235.806 175.404C235.898 175.221 236.122 175.148 236.305 175.241C236.488 175.334 236.561 175.556 236.468 175.739C236.017 176.625 235.554 177.503 235.078 178.373C235.011 178.497 234.883 178.567 234.752 178.567ZM57.7362 175.692C57.6001 175.692 57.47 175.618 57.4046 175.489C56.9588 174.607 56.5264 173.718 56.1067 172.822C56.0199 172.637 56.1007 172.417 56.2862 172.33C56.4717 172.244 56.6932 172.324 56.78 172.509C57.1964 173.398 57.6255 174.281 58.0672 175.155C58.16 175.338 58.0859 175.56 57.9031 175.652C57.8497 175.68 57.7923 175.692 57.7362 175.692ZM237.757 172.604C237.705 172.604 237.652 172.593 237.602 172.57C237.415 172.484 237.334 172.265 237.42 172.079C237.834 171.186 238.234 170.284 238.621 169.376C238.701 169.188 238.92 169.1 239.108 169.181C239.297 169.261 239.385 169.478 239.305 169.666C238.914 170.581 238.511 171.489 238.095 172.39C238.031 172.524 237.897 172.604 237.757 172.604ZM54.9402 169.663C54.7954 169.663 54.658 169.578 54.5986 169.437C54.2142 168.529 53.8425 167.614 53.4842 166.692C53.4101 166.501 53.5056 166.287 53.6964 166.213C53.8873 166.139 54.1028 166.234 54.1769 166.425C54.5325 167.34 54.9009 168.248 55.2826 169.15C55.362 169.338 55.2739 169.555 55.0851 169.635C55.0377 169.654 54.9883 169.663 54.9402 169.663ZM240.354 166.45C240.31 166.45 240.265 166.443 240.222 166.426C240.031 166.353 239.935 166.139 240.007 165.948C240.36 165.028 240.699 164.102 241.024 163.169C241.09 162.975 241.302 162.872 241.496 162.941C241.689 163.007 241.792 163.219 241.725 163.412C241.397 164.352 241.056 165.286 240.701 166.213C240.645 166.36 240.504 166.45 240.354 166.45ZM52.5533 163.454C52.3992 163.454 52.255 163.357 52.2023 163.204C51.8787 162.269 51.5684 161.328 51.2721 160.381C51.2114 160.186 51.3202 159.979 51.5163 159.917C51.7132 159.858 51.9207 159.965 51.9815 160.161C52.2757 161.101 52.5827 162.035 52.9043 162.963C52.9711 163.156 52.8683 163.367 52.6748 163.433C52.6341 163.448 52.5934 163.454 52.5533 163.454ZM242.53 160.132C242.494 160.132 242.458 160.127 242.422 160.116C242.226 160.056 242.115 159.849 242.176 159.654C242.464 158.715 242.739 157.771 242.999 156.821C243.053 156.623 243.26 156.508 243.455 156.561C243.653 156.615 243.769 156.819 243.715 157.016C243.453 157.974 243.176 158.925 242.886 159.87C242.837 160.03 242.69 160.132 242.53 160.132ZM50.5875 157.089C50.424 157.089 50.2745 156.98 50.2298 156.815C49.9702 155.861 49.7246 154.902 49.4924 153.936C49.4444 153.737 49.5678 153.538 49.7674 153.49C49.9669 153.445 50.1671 153.565 50.2151 153.763C50.4447 154.722 50.6889 155.674 50.9465 156.621C50.9999 156.819 50.8831 157.022 50.6856 157.075C50.6529 157.085 50.6202 157.089 50.5875 157.089ZM244.269 153.701C244.241 153.701 244.213 153.698 244.185 153.691C243.985 153.645 243.861 153.446 243.908 153.246C244.132 152.292 244.341 151.331 244.537 150.365C244.578 150.164 244.771 150.032 244.975 150.075C245.175 150.116 245.306 150.311 245.265 150.512C245.067 151.485 244.856 152.453 244.63 153.415C244.59 153.586 244.437 153.701 244.269 153.701ZM49.0574 150.606C48.8839 150.606 48.729 150.484 48.6937 150.309C48.4995 149.339 48.3187 148.366 48.1525 147.387C48.1185 147.185 48.2546 146.995 48.4568 146.96C48.6603 146.928 48.8505 147.062 48.8852 147.263C49.05 148.235 49.2288 149.202 49.4217 150.163C49.4617 150.364 49.3316 150.559 49.1308 150.599C49.1061 150.604 49.0814 150.606 49.0574 150.606ZM245.569 147.169C245.549 147.169 245.529 147.167 245.509 147.164C245.307 147.131 245.169 146.941 245.202 146.739C245.361 145.771 245.506 144.799 245.637 143.821C245.664 143.618 245.851 143.475 246.054 143.503C246.257 143.531 246.4 143.716 246.373 143.919C246.241 144.904 246.095 145.883 245.936 146.858C245.906 147.04 245.748 147.169 245.569 147.169ZM47.967 144.036C47.7828 144.036 47.6233 143.901 47.5993 143.714C47.4705 142.735 47.3557 141.751 47.2556 140.763C47.235 140.56 47.3838 140.378 47.588 140.357C47.7995 140.341 47.9743 140.485 47.995 140.689C48.0944 141.669 48.2085 142.646 48.336 143.618C48.3627 143.821 48.2199 144.006 48.0164 144.033C47.999 144.035 47.983 144.036 47.967 144.036ZM246.427 140.564C246.415 140.564 246.404 140.564 246.392 140.562C246.188 140.543 246.038 140.363 246.058 140.159C246.151 139.184 246.23 138.203 246.296 137.22C246.309 137.015 246.485 136.864 246.691 136.874C246.896 136.888 247.051 137.064 247.037 137.268C246.972 138.259 246.892 139.247 246.797 140.229C246.778 140.421 246.617 140.564 246.427 140.564ZM47.319 137.408C47.1249 137.408 46.9614 137.258 46.9487 137.062C46.8853 136.077 46.8366 135.087 46.8026 134.094C46.7952 133.89 46.956 133.718 47.1609 133.712C47.3704 133.694 47.5379 133.865 47.5446 134.069C47.5786 135.055 47.6273 136.037 47.6901 137.015C47.7034 137.219 47.5479 137.395 47.3431 137.408C47.3357 137.408 47.3271 137.408 47.319 137.408ZM246.843 133.918C246.84 133.918 246.836 133.918 246.832 133.918C246.627 133.912 246.465 133.742 246.471 133.537C246.5 132.558 246.515 131.574 246.515 130.588C246.515 130.383 246.681 130.218 246.886 130.218C247.091 130.218 247.257 130.384 247.257 130.588C247.257 131.582 247.242 132.572 247.213 133.558C247.207 133.76 247.043 133.918 246.843 133.918ZM47.1142 130.751H47.1135C46.908 130.75 46.7425 130.584 46.7432 130.38C46.7452 129.386 46.7618 128.396 46.7925 127.41C46.7986 127.206 46.9667 127.041 47.1749 127.051C47.3798 127.058 47.5406 127.228 47.5339 127.433C47.5039 128.412 47.4872 129.396 47.4852 130.382C47.4852 130.586 47.319 130.751 47.1142 130.751ZM246.832 127.671C246.632 127.671 246.467 127.513 246.461 127.313C246.429 126.327 246.383 125.345 246.322 124.367C246.309 124.163 246.465 123.987 246.67 123.974C246.874 123.971 247.051 124.117 247.063 124.321C247.125 125.307 247.171 126.296 247.203 127.289C247.21 127.493 247.049 127.664 246.844 127.671C246.84 127.671 246.836 127.671 246.832 127.671ZM47.3477 124.096C47.3397 124.096 47.3311 124.095 47.3224 124.095C47.1175 124.081 46.9634 123.905 46.9774 123.701C47.0455 122.709 47.1275 121.723 47.2236 120.74C47.2436 120.537 47.4291 120.389 47.6287 120.408C47.8329 120.428 47.9823 120.608 47.9623 120.812C47.8669 121.787 47.7855 122.767 47.7181 123.751C47.7047 123.945 47.5413 124.096 47.3477 124.096ZM246.395 121.026C246.206 121.026 246.044 120.883 246.026 120.692C245.928 119.711 245.816 118.734 245.69 117.761C245.664 117.558 245.807 117.374 246.011 117.347C246.214 117.324 246.4 117.464 246.427 117.667C246.553 118.647 246.666 119.631 246.764 120.619C246.784 120.822 246.636 121.003 246.431 121.024C246.419 121.025 246.407 121.026 246.395 121.026ZM48.023 117.47C48.007 117.47 47.9897 117.469 47.973 117.467C47.7695 117.439 47.6273 117.252 47.6547 117.05C47.7888 116.066 47.9363 115.086 48.0984 114.113C48.1318 113.911 48.3227 113.77 48.5255 113.808C48.7277 113.841 48.8645 114.031 48.8311 114.234C48.6703 115.2 48.5235 116.173 48.3907 117.149C48.3654 117.335 48.2059 117.47 48.023 117.47ZM245.514 114.425C245.336 114.425 245.179 114.296 245.149 114.115C244.986 113.143 244.808 112.176 244.618 111.214C244.578 111.014 244.708 110.819 244.91 110.779C245.111 110.736 245.306 110.869 245.346 111.07C245.538 112.039 245.717 113.014 245.881 113.993C245.915 114.194 245.779 114.385 245.577 114.419C245.555 114.423 245.534 114.425 245.514 114.425ZM49.1408 110.904C49.1161 110.904 49.0914 110.901 49.066 110.897C48.8652 110.856 48.735 110.661 48.7764 110.46C48.9759 109.488 49.1895 108.521 49.417 107.559C49.4637 107.36 49.6646 107.236 49.8634 107.283C50.063 107.33 50.1864 107.53 50.1397 107.728C49.9135 108.683 49.702 109.643 49.5038 110.609C49.4684 110.784 49.3129 110.904 49.1408 110.904ZM244.193 107.897C244.024 107.897 243.872 107.782 243.832 107.612C243.604 106.653 243.362 105.7 243.106 104.753C243.053 104.555 243.17 104.352 243.368 104.299C243.566 104.246 243.77 104.363 243.824 104.56C244.081 105.515 244.325 106.476 244.554 107.442C244.602 107.64 244.478 107.84 244.279 107.887C244.25 107.894 244.221 107.897 244.193 107.897ZM50.6982 104.429C50.6655 104.429 50.6322 104.424 50.5995 104.415C50.402 104.362 50.2858 104.157 50.3406 103.96C50.6055 103.004 50.8831 102.053 51.1754 101.108C51.2361 100.912 51.4423 100.801 51.6398 100.863C51.8353 100.924 51.9454 101.13 51.8847 101.326C51.5951 102.263 51.3182 103.207 51.0559 104.157C51.0105 104.321 50.8611 104.429 50.6982 104.429ZM242.434 101.472C242.275 101.472 242.129 101.371 242.08 101.212C241.788 100.271 241.482 99.3364 241.163 98.4083C241.096 98.2148 241.2 98.0046 241.394 97.938C241.587 97.8722 241.799 97.9746 241.866 98.1682C242.187 99.1035 242.496 100.045 242.789 100.993C242.85 101.188 242.741 101.396 242.544 101.456C242.507 101.466 242.47 101.472 242.434 101.472ZM52.6935 98.0604C52.6528 98.0604 52.6114 98.0538 52.5707 98.0398C52.3772 97.972 52.2751 97.7611 52.3425 97.5682C52.6721 96.6288 53.0151 95.6955 53.3721 94.7702C53.4455 94.5792 53.6597 94.4848 53.8519 94.5573C54.0434 94.6305 54.1388 94.8447 54.0654 95.0356C53.7118 95.955 53.3708 96.8803 53.0438 97.813C52.9904 97.9653 52.8469 98.0604 52.6935 98.0604ZM240.244 95.18C240.095 95.18 239.955 95.0902 239.897 94.9431C239.544 94.0278 239.177 93.119 238.797 92.2163C238.717 92.0281 238.806 91.8112 238.995 91.732C239.186 91.6522 239.402 91.742 239.481 91.9303C239.864 92.839 240.234 93.755 240.59 94.677C240.664 94.868 240.568 95.0822 240.378 95.1553C240.334 95.172 240.288 95.18 240.244 95.18ZM55.1177 91.8365C55.069 91.8365 55.0197 91.8272 54.9716 91.8065C54.7828 91.726 54.696 91.5085 54.7761 91.3203C55.1678 90.4062 55.5735 89.4995 55.9919 88.6001C56.078 88.4145 56.2989 88.3327 56.4844 88.4198C56.6706 88.5056 56.7513 88.7258 56.6652 88.9114C56.2502 89.8042 55.8478 90.7049 55.4587 91.6123C55.3993 91.752 55.2619 91.8365 55.1177 91.8365ZM237.643 89.0678C237.503 89.0678 237.369 88.9886 237.306 88.8536C236.892 87.9635 236.464 87.0807 236.024 86.2046C235.932 86.0217 236.006 85.7995 236.19 85.7077C236.373 85.6165 236.597 85.6904 236.687 85.8726C237.131 86.7547 237.562 87.6448 237.98 88.5416C238.066 88.7272 237.985 88.9474 237.799 89.0332C237.748 89.0565 237.696 89.0678 237.643 89.0678ZM57.9564 85.7915C57.8997 85.7915 57.8423 85.7782 57.7883 85.7509C57.6054 85.6578 57.5334 85.4356 57.6261 85.2533C58.0786 84.3685 58.5443 83.4911 59.0221 82.6216C59.1202 82.442 59.3464 82.3755 59.5259 82.4746C59.7061 82.5731 59.7715 82.7979 59.6734 82.9769C59.1989 83.8397 58.7372 84.7105 58.2874 85.5886C58.222 85.7176 58.0912 85.7915 57.9564 85.7915ZM234.636 83.1385C234.505 83.1385 234.377 83.0693 234.31 82.9463C233.836 82.0854 233.35 81.2319 232.852 80.3871C232.748 80.2108 232.807 79.984 232.984 79.8802C233.161 79.7757 233.388 79.8356 233.492 80.0119C233.995 80.8634 234.485 81.7229 234.962 82.5904C235.061 82.77 234.995 82.9942 234.814 83.0926C234.758 83.1239 234.696 83.1385 234.636 83.1385ZM61.1942 79.9534C61.1294 79.9534 61.0634 79.9367 61.004 79.9008C60.8278 79.7957 60.7704 79.5689 60.8759 79.3932C61.3863 78.5411 61.9095 77.6976 62.4447 76.862C62.5548 76.6891 62.785 76.6392 62.9572 76.7496C63.13 76.86 63.1807 77.0889 63.0699 77.2605C62.5388 78.09 62.0196 78.9276 61.5125 79.7724C61.4431 79.8888 61.3203 79.9534 61.1942 79.9534ZM231.235 77.4195C231.112 77.4195 230.993 77.3589 230.922 77.2485C230.391 76.421 229.849 75.6014 229.295 74.7911C229.18 74.6222 229.223 74.392 229.393 74.2769C229.562 74.1618 229.793 74.2051 229.908 74.374C230.467 75.1909 231.013 76.0165 231.548 76.8507C231.658 77.023 231.608 77.2519 231.435 77.3616C231.372 77.4009 231.304 77.4195 231.235 77.4195ZM64.8149 74.3474C64.7422 74.3474 64.6688 74.3261 64.6041 74.2816C64.4352 74.1651 64.3932 73.9343 64.51 73.7667C65.0765 72.9511 65.6544 72.1442 66.2443 71.3465C66.3651 71.1822 66.5986 71.1463 66.7634 71.2687C66.9283 71.3898 66.9636 71.6213 66.8415 71.7863C66.2563 72.5772 65.6824 73.3788 65.1205 74.1884C65.0485 74.2915 64.933 74.3474 64.8149 74.3474ZM227.457 71.9373C227.343 71.9373 227.23 71.8854 227.158 71.7863C226.574 70.9953 225.977 70.2136 225.369 69.4406C225.243 69.2797 225.271 69.0468 225.432 68.9211C225.594 68.7947 225.827 68.8233 225.953 68.9843C226.565 69.7626 227.166 70.5503 227.756 71.3479C227.878 71.5122 227.842 71.7444 227.677 71.8654C227.611 71.914 227.534 71.9373 227.457 71.9373ZM68.802 68.9963C68.7213 68.9963 68.6399 68.9697 68.5711 68.9158C68.411 68.7887 68.3843 68.5559 68.5117 68.3956C69.131 67.6206 69.7609 66.8542 70.4029 66.0978C70.5357 65.9415 70.7712 65.9229 70.926 66.0539C71.0828 66.1856 71.1022 66.4191 70.9701 66.5755C70.3335 67.3259 69.7075 68.0862 69.093 68.8566C69.0196 68.9484 68.9115 68.9963 68.802 68.9963ZM223.32 66.7145C223.215 66.7145 223.11 66.6699 223.037 66.5835C222.4 65.8331 221.753 65.0913 221.095 64.3602C220.958 64.2079 220.971 63.9737 221.123 63.8374C221.275 63.7003 221.51 63.713 221.647 63.8653C222.311 64.6024 222.962 65.3488 223.604 66.1051C223.736 66.2615 223.717 66.495 223.56 66.6267C223.49 66.6859 223.404 66.7145 223.32 66.7145ZM73.1361 63.9245C73.0467 63.9245 72.9573 63.8926 72.8859 63.828C72.7344 63.6903 72.7237 63.4562 72.8619 63.3052C73.5312 62.5727 74.2111 61.8503 74.9018 61.1378C75.0446 60.9921 75.2795 60.9875 75.427 61.1292C75.5744 61.2715 75.5784 61.5057 75.4356 61.6527C74.7503 62.3592 74.0757 63.0763 73.411 63.8041C73.337 63.8839 73.2369 63.9245 73.1361 63.9245ZM218.842 61.7758C218.744 61.7758 218.648 61.7379 218.575 61.6627C217.89 60.9562 217.194 60.2591 216.489 59.5725C216.342 59.4302 216.339 59.1953 216.482 59.049C216.626 58.9026 216.861 58.9006 217.007 59.0423C217.719 59.7342 218.42 60.436 219.109 61.1485C219.252 61.2955 219.248 61.5297 219.1 61.672C219.027 61.7412 218.935 61.7758 218.842 61.7758ZM77.7959 59.1528C77.6984 59.1528 77.601 59.1149 77.5283 59.039C77.3861 58.892 77.3908 58.6572 77.5389 58.5161C78.255 57.8303 78.981 57.1544 79.717 56.4898C79.8692 56.3528 80.104 56.3641 80.2415 56.5158C80.379 56.6674 80.3676 56.9016 80.2162 57.0386C79.4855 57.6986 78.7641 58.3691 78.0534 59.0497C77.9814 59.1182 77.8886 59.1528 77.7959 59.1528ZM214.043 57.1424C213.953 57.1424 213.865 57.1105 213.793 57.0466C213.062 56.3867 212.322 55.7368 211.571 55.0982C211.415 54.9651 211.397 54.7323 211.53 54.5759C211.663 54.4203 211.898 54.4023 212.053 54.5347C212.81 55.178 213.556 55.8326 214.292 56.4978C214.444 56.6348 214.456 56.8697 214.318 57.0207C214.245 57.1012 214.144 57.1424 214.043 57.1424ZM82.7626 54.7017C82.6565 54.7017 82.5517 54.6571 82.4776 54.57C82.3455 54.4136 82.3662 54.1801 82.523 54.0484C83.2831 53.4118 84.0524 52.7858 84.8305 52.1718C84.9927 52.0447 85.2256 52.0727 85.3523 52.2323C85.4798 52.3926 85.4524 52.6255 85.2916 52.7525C84.5189 53.3625 83.7548 53.9832 83.0008 54.6159C82.932 54.6731 82.8473 54.7017 82.7626 54.7017ZM208.943 52.8364C208.862 52.8364 208.782 52.8104 208.713 52.7565C207.939 52.1458 207.156 51.5465 206.364 50.9591C206.2 50.8373 206.166 50.6052 206.289 50.4408C206.411 50.2779 206.644 50.2426 206.809 50.3657C207.606 50.9577 208.395 51.5611 209.174 52.1764C209.335 52.3035 209.362 52.5363 209.235 52.696C209.161 52.7878 209.053 52.8364 208.943 52.8364ZM88.0122 50.5912C87.8981 50.5912 87.7853 50.5386 87.7126 50.4395C87.5911 50.2745 87.6272 50.043 87.7926 49.9226C88.5927 49.3379 89.4015 48.7651 90.2189 48.2036C90.3884 48.0886 90.6193 48.1305 90.7354 48.2981C90.8515 48.4664 90.8095 48.6966 90.6407 48.813C89.8286 49.3711 89.0258 49.9392 88.2317 50.5193C88.165 50.5686 88.0883 50.5912 88.0122 50.5912ZM203.565 48.8762C203.492 48.8762 203.419 48.8549 203.355 48.811C202.542 48.2529 201.72 47.7074 200.89 47.1732C200.718 47.0628 200.668 46.8333 200.779 46.6616C200.89 46.4893 201.12 46.4408 201.293 46.5512C202.129 47.0894 202.956 47.6389 203.776 48.201C203.944 48.3167 203.987 48.5476 203.87 48.7159C203.799 48.8197 203.683 48.8762 203.565 48.8762ZM93.5221 46.8399C93.3993 46.8399 93.2792 46.7794 93.2084 46.6683C93.0983 46.496 93.1497 46.2671 93.3225 46.1574C94.1593 45.6272 95.0041 45.1096 95.8576 44.6047C96.0331 44.5003 96.262 44.5575 96.3661 44.7338C96.4709 44.9094 96.4128 45.1362 96.2366 45.2407C95.3898 45.7423 94.551 46.2565 93.7209 46.782C93.6589 46.8213 93.5901 46.8399 93.5221 46.8399ZM197.931 45.2813C197.867 45.2813 197.801 45.2646 197.742 45.2294C196.894 44.7271 196.037 44.2368 195.172 43.7592C194.993 43.6594 194.928 43.4346 195.027 43.2563C195.127 43.0773 195.353 43.0128 195.532 43.1119C196.403 43.5936 197.267 44.0872 198.121 44.5934C198.297 44.6979 198.355 44.9247 198.25 45.1003C198.182 45.2161 198.058 45.2813 197.931 45.2813ZM99.2675 43.4652C99.136 43.4652 99.0086 43.3953 98.9412 43.2723C98.8431 43.0926 98.9092 42.8685 99.0893 42.77C99.9588 42.2977 100.836 41.8373 101.721 41.3903C101.903 41.2958 102.128 41.3703 102.22 41.5526C102.313 41.7349 102.24 41.9577 102.057 42.0502C101.179 42.4946 100.308 42.9509 99.445 43.4199C99.3883 43.4505 99.3275 43.4652 99.2675 43.4652ZM192.067 42.0688C192.011 42.0688 191.954 42.0562 191.9 42.0289C191.02 41.5845 190.131 41.1528 189.236 40.733C189.05 40.6466 188.97 40.4257 189.058 40.2408C189.144 40.0558 189.366 39.9767 189.552 40.0632C190.454 40.4856 191.349 40.9206 192.236 41.3683C192.419 41.4608 192.492 41.6837 192.4 41.8659C192.334 41.995 192.203 42.0688 192.067 42.0688ZM105.224 40.4829C105.083 40.4829 104.949 40.4031 104.886 40.268C104.8 40.0824 104.881 39.8623 105.068 39.7771C105.966 39.364 106.872 38.9642 107.785 38.577C107.974 38.4965 108.192 38.5837 108.272 38.7726C108.353 38.9609 108.265 39.1784 108.076 39.2582C107.17 39.6427 106.271 40.0399 105.379 40.4497C105.329 40.4723 105.275 40.4829 105.224 40.4829ZM185.995 39.2556C185.947 39.2556 185.898 39.2462 185.851 39.2263C184.942 38.8418 184.026 38.4699 183.103 38.1114C182.912 38.0375 182.817 37.8226 182.892 37.6317C182.967 37.4408 183.184 37.3463 183.372 37.4215C184.302 37.7827 185.225 38.1566 186.14 38.5444C186.329 38.6242 186.417 38.8418 186.337 39.03C186.278 39.1711 186.14 39.2556 185.995 39.2556ZM111.362 37.9058C111.212 37.9058 111.071 37.8153 111.015 37.6676C110.942 37.4767 111.037 37.2632 111.229 37.19C112.156 36.8374 113.09 36.4975 114.029 36.1715C114.224 36.1037 114.434 36.2061 114.502 36.399C114.569 36.592 114.467 36.8028 114.274 36.8707C113.341 37.1947 112.415 37.5313 111.494 37.8818C111.45 37.8978 111.406 37.9058 111.362 37.9058ZM179.746 36.8554C179.706 36.8554 179.664 36.8487 179.624 36.8348C178.69 36.5121 177.75 36.2028 176.805 35.9074C176.609 35.8462 176.501 35.6387 176.561 35.4438C176.623 35.2488 176.828 35.1397 177.026 35.2009C177.979 35.499 178.926 35.8103 179.866 36.1349C180.06 36.2021 180.163 36.413 180.096 36.6059C180.043 36.7596 179.9 36.8554 179.746 36.8554ZM117.679 35.7404C117.52 35.7404 117.373 35.638 117.324 35.479C117.264 35.2834 117.374 35.0765 117.57 35.0167C118.519 34.7266 119.473 34.4506 120.432 34.1878C120.63 34.1339 120.834 34.2497 120.889 34.4472C120.943 34.6448 120.826 34.8484 120.628 34.9023C119.676 35.1624 118.729 35.4364 117.787 35.7245C117.751 35.7351 117.715 35.7404 117.679 35.7404ZM173.354 34.8836C173.322 34.8836 173.289 34.8796 173.256 34.8703C172.306 34.6122 171.351 34.3674 170.391 34.1366C170.191 34.0887 170.068 33.8891 170.117 33.6902C170.165 33.4913 170.366 33.3695 170.565 33.4174C171.532 33.6496 172.495 33.8957 173.452 34.1565C173.65 34.2104 173.767 34.414 173.713 34.6109C173.667 34.7752 173.517 34.8836 173.354 34.8836ZM124.128 34.0042C123.959 34.0042 123.807 33.8891 123.767 33.7181C123.72 33.5192 123.844 33.3203 124.044 33.2738C125.009 33.0482 125.979 32.8367 126.955 32.6391C127.16 32.6032 127.353 32.7283 127.393 32.9285C127.433 33.1294 127.303 33.3243 127.102 33.3649C126.134 33.5605 125.171 33.7707 124.212 33.9942C124.184 34.0009 124.156 34.0042 124.128 34.0042ZM166.854 33.3483C166.83 33.3483 166.805 33.3463 166.781 33.3409C165.816 33.1474 164.846 32.9671 163.872 32.8008C163.67 32.7668 163.534 32.5753 163.569 32.3737C163.604 32.1721 163.793 32.0371 163.997 32.0717C164.978 32.2386 165.955 32.4203 166.927 32.6152C167.128 32.6557 167.259 32.8507 167.218 33.0509C167.182 33.2265 167.027 33.3483 166.854 33.3483ZM130.679 32.7036C130.5 32.7036 130.343 32.5753 130.314 32.3936C130.28 32.1921 130.417 32.0012 130.62 31.9686C131.597 31.8082 132.58 31.6619 133.568 31.5302C133.767 31.5029 133.958 31.6453 133.985 31.8482C134.012 32.0504 133.87 32.2366 133.666 32.2639C132.686 32.3943 131.711 32.5393 130.74 32.6983C130.72 32.7023 130.699 32.7036 130.679 32.7036ZM160.265 32.2513C160.248 32.2513 160.232 32.25 160.215 32.248C159.24 32.1189 158.261 32.0045 157.278 31.904C157.073 31.8827 156.925 31.7011 156.946 31.4982C156.967 31.2947 157.152 31.151 157.353 31.1676C158.344 31.2687 159.331 31.3851 160.313 31.5149C160.516 31.5415 160.659 31.7277 160.632 31.9306C160.607 32.1162 160.448 32.2513 160.265 32.2513ZM137.303 31.8442C137.114 31.8442 136.953 31.7011 136.934 31.5095C136.915 31.306 137.065 31.125 137.268 31.1058C138.254 31.0113 139.245 30.9301 140.238 30.8649C140.44 30.8596 140.62 31.006 140.633 31.2095C140.647 31.4138 140.492 31.59 140.288 31.6033C139.301 31.6685 138.318 31.7484 137.339 31.8422C137.327 31.8435 137.315 31.8442 137.303 31.8442ZM153.618 31.596C153.609 31.596 153.601 31.5954 153.593 31.5954C152.612 31.5308 151.627 31.4816 150.639 31.4457C150.434 31.4384 150.274 31.2667 150.281 31.0625C150.288 30.8583 150.463 30.6893 150.665 30.7059C151.662 30.7412 152.653 30.7918 153.642 30.8556C153.846 30.8689 154.001 31.0452 153.988 31.2494C153.975 31.4463 153.811 31.596 153.618 31.596ZM143.971 31.4257C143.772 31.4257 143.606 31.2667 143.6 31.0665C143.594 30.8623 143.756 30.692 143.96 30.6853C144.95 30.656 145.944 30.6407 146.941 30.6407C147.145 30.6407 147.312 30.8064 147.312 31.0113C147.312 31.2155 147.145 31.3818 146.941 31.3818C145.951 31.3818 144.965 31.3971 143.982 31.4264C143.978 31.4257 143.975 31.4257 143.971 31.4257Z" fill="#181818"/>
<path d="M36.0247 200.855H6.43675C2.88139 200.855 0 197.982 0 194.438C0 190.893 2.88206 188.021 6.43675 188.021H36.0247C39.5801 188.021 42.4615 190.894 42.4615 194.438C42.4615 197.982 39.5794 200.855 36.0247 200.855Z" fill="#FFD900"/>
<path d="M88.2913 18.6306H58.7034C55.148 18.6306 52.2666 15.7575 52.2666 12.2137C52.2666 8.66936 55.1487 5.79688 58.7034 5.79688H88.2913C91.8467 5.79688 94.7281 8.67003 94.7281 12.2137C94.7288 15.7581 91.8467 18.6306 88.2913 18.6306Z" fill="#FFD900"/>
<path d="M75.345 35.185H16.9405C16.5301 35.185 16.1978 34.8535 16.1978 34.4441C16.1978 34.0347 16.5301 33.7032 16.9405 33.7032H75.345C75.7547 33.7032 76.0877 34.0347 76.0877 34.4441C76.0877 34.8535 75.7547 35.185 75.345 35.185Z" fill="#181818"/>
<path d="M252.651 20.1088H219.249C218.839 20.1088 218.506 19.7773 218.506 19.368C218.506 18.9586 218.839 18.6271 219.249 18.6271H252.651C253.061 18.6271 253.393 18.9586 253.393 19.368C253.393 19.7773 253.061 20.1088 252.651 20.1088Z" fill="#181818"/>
<path d="M293.257 135.698H269.468C269.057 135.698 268.725 135.366 268.725 134.957C268.725 134.547 269.057 134.216 269.468 134.216H293.257C293.667 134.216 294 134.547 294 134.957C294 135.366 293.667 135.698 293.257 135.698Z" fill="#181818"/>
<path d="M48.753 220.443H23.5845C23.1741 220.443 22.8418 220.112 22.8418 219.703C22.8418 219.293 23.1741 218.962 23.5845 218.962H48.753C49.1634 218.962 49.4957 219.293 49.4957 219.703C49.4957 220.112 49.1634 220.443 48.753 220.443Z" fill="#181818"/>
<path d="M99.0818 247.483C89.0856 247.483 79.0688 247.417 69.1014 247.286C68.691 247.281 68.3634 246.945 68.3687 246.536C68.3741 246.126 68.7344 245.814 69.1214 245.806C89.0443 246.069 109.163 246.069 128.919 245.806C128.922 245.806 128.925 245.806 128.929 245.806C129.334 245.806 129.665 246.13 129.671 246.536C129.676 246.945 129.348 247.281 128.938 247.286C119.053 247.417 109.079 247.483 99.0818 247.483Z" fill="#181818"/>
<path d="M56.9874 247.286H46.7105C46.3001 247.286 45.9678 246.955 45.9678 246.545C45.9678 246.136 46.3001 245.805 46.7105 245.805H56.9874C57.3972 245.805 57.7302 246.136 57.7302 246.545C57.7302 246.955 57.3972 247.286 56.9874 247.286Z" fill="#181818"/>
<path d="M36.1692 135.942H14.3672C13.9568 135.942 13.6245 135.61 13.6245 135.201C13.6245 134.791 13.9568 134.46 14.3672 134.46H36.1692C36.5796 134.46 36.9119 134.791 36.9119 135.201C36.9119 135.61 36.5789 135.942 36.1692 135.942Z" fill="#181818"/>
<path d="M132.96 257.448C134.465 257.448 135.685 256.232 135.685 254.731C135.685 253.231 134.465 252.014 132.96 252.014C131.455 252.014 130.234 253.231 130.234 254.731C130.234 256.232 131.455 257.448 132.96 257.448Z" fill="#F3CF67"/>
<path d="M277.05 96.278C278.555 96.278 279.775 95.0616 279.775 93.5612C279.775 92.0607 278.555 90.8444 277.05 90.8444C275.544 90.8444 274.324 92.0607 274.324 93.5612C274.324 95.0616 275.544 96.278 277.05 96.278Z" fill="#F3CF67"/>
<path d="M17.0929 145.663C17.0929 147.163 15.873 148.379 14.3675 148.379C12.862 148.379 11.6421 147.163 11.6421 145.663C11.6421 144.162 12.8626 142.946 14.3675 142.946C15.873 142.946 17.0929 144.163 17.0929 145.663Z" stroke="#F3CF67" stroke-width="0.667333" stroke-miterlimit="10"/>
<path d="M34.1868 63.8046C35.692 63.8046 36.9122 62.5883 36.9122 61.0878C36.9122 59.5873 35.692 58.371 34.1868 58.371C32.6816 58.371 31.4614 59.5873 31.4614 61.0878C31.4614 62.5883 32.6816 63.8046 34.1868 63.8046Z" stroke="#F3CF67" stroke-width="0.667333" stroke-miterlimit="10"/>
<path d="M114.629 21.4444C116.134 21.4444 117.354 20.228 117.354 18.7276C117.354 17.2271 116.134 16.0107 114.629 16.0107C113.124 16.0107 111.903 17.2271 111.903 18.7276C111.903 20.228 113.124 21.4444 114.629 21.4444Z" stroke="#F3CF67" stroke-width="0.667333" stroke-miterlimit="10"/>
<path d="M201.263 26.4203C203.07 15.4303 195.598 5.06135 184.574 3.26059C173.55 1.45984 163.148 8.90917 161.342 19.8991C159.535 30.8891 167.008 41.258 178.032 43.0588C189.056 44.8595 199.457 37.4102 201.263 26.4203Z" fill="#F2D42C"/>
<path d="M181.307 40.7855C171.553 40.7855 163.619 32.8759 163.619 23.1528C163.619 13.4303 171.554 5.52002 181.307 5.52002C191.059 5.52002 198.993 13.4297 198.993 23.1528C198.993 32.8752 191.059 40.7855 181.307 40.7855ZM181.307 8.08384C172.971 8.08384 166.19 14.844 166.19 23.1528C166.19 31.4622 172.971 38.2224 181.307 38.2224C189.641 38.2224 196.422 31.4622 196.422 23.1528C196.422 14.844 189.641 8.08384 181.307 8.08384Z" fill="white"/>
<path d="M180.47 32.5371V12.8935H181.728V32.5371H180.47ZM184.706 18.7866C184.613 18.0091 184.24 17.4054 183.585 16.9757C182.93 16.546 182.127 16.3312 181.176 16.3312C180.48 16.3312 179.871 16.4437 179.35 16.6688C178.833 16.8939 178.429 17.2034 178.137 17.5973C177.851 17.9912 177.708 18.4388 177.708 18.9401C177.708 19.3596 177.807 19.7202 178.007 20.022C178.211 20.3187 178.472 20.5668 178.789 20.7663C179.107 20.9607 179.439 21.1218 179.787 21.2497C180.135 21.3725 180.455 21.4723 180.746 21.549L182.342 21.9787C182.751 22.0861 183.207 22.2345 183.708 22.4237C184.214 22.613 184.698 22.8714 185.158 23.1987C185.624 23.521 186.007 23.9354 186.309 24.4418C186.611 24.9482 186.762 25.5698 186.762 26.3064C186.762 27.1556 186.539 27.9229 186.094 28.6084C185.654 29.2939 185.01 29.8387 184.161 30.2428C183.317 30.6469 182.291 30.849 181.084 30.849C179.958 30.849 178.984 30.6674 178.16 30.3042C177.342 29.941 176.697 29.4346 176.227 28.7849C175.761 28.1352 175.498 27.3807 175.436 26.5213H177.401C177.452 27.1147 177.651 27.6058 177.999 27.9945C178.352 28.3782 178.797 28.6647 179.334 28.8539C179.876 29.0381 180.46 29.1302 181.084 29.1302C181.81 29.1302 182.462 29.0125 183.04 28.7772C183.618 28.5368 184.076 28.2043 184.414 27.7797C184.752 27.35 184.92 26.8487 184.92 26.2757C184.92 25.7539 184.775 25.3294 184.483 25.002C184.191 24.6746 183.808 24.4086 183.332 24.2039C182.856 23.9993 182.342 23.8203 181.79 23.6668L179.856 23.1143C178.628 22.7614 177.656 22.2575 176.94 21.6027C176.224 20.9479 175.866 20.0911 175.866 19.0322C175.866 18.1523 176.104 17.385 176.58 16.7302C177.06 16.0703 177.705 15.5587 178.513 15.1955C179.327 14.8272 180.235 14.643 181.237 14.643C182.25 14.643 183.15 14.8247 183.938 15.1879C184.726 15.5459 185.35 16.037 185.81 16.6611C186.276 17.2852 186.522 17.9937 186.547 18.7866H184.706Z" fill="white"/>
<path d="M241.034 66.2527C244.425 53.4799 236.786 40.3858 223.974 37.0061C211.162 33.6265 198.027 41.2411 194.636 54.0138C191.246 66.7866 198.884 79.8808 211.696 83.2604C224.508 86.6401 237.644 79.0255 241.034 66.2527Z" fill="#F2D42C"/>
<path d="M217.837 81.045C206.266 81.045 196.852 71.6605 196.852 60.1253C196.852 48.5908 206.266 39.2063 217.837 39.2063C229.407 39.2063 238.82 48.5908 238.82 60.1253C238.82 71.6612 229.407 81.045 217.837 81.045ZM217.837 42.2478C207.948 42.2478 199.903 50.2678 199.903 60.1253C199.903 69.9834 207.948 78.0035 217.837 78.0035C227.725 78.0035 235.77 69.9834 235.77 60.1253C235.77 50.2678 227.725 42.2478 217.837 42.2478Z" fill="white"/>
<path d="M216.845 71.3447V48.0396H218.338V71.3447H216.845ZM221.87 55.0311C221.761 54.1086 221.318 53.3925 220.541 52.8827C219.764 52.3729 218.811 52.118 217.683 52.118C216.857 52.118 216.135 52.2515 215.516 52.5186C214.903 52.7856 214.423 53.1528 214.078 53.6201C213.738 54.0874 213.568 54.6184 213.568 55.2132C213.568 55.7109 213.686 56.1387 213.923 56.4968C214.166 56.8488 214.475 57.1432 214.851 57.3798C215.228 57.6105 215.622 57.8016 216.035 57.9534C216.447 58.099 216.827 58.2174 217.173 58.3084L219.066 58.8182C219.552 58.9457 220.092 59.1217 220.687 59.3462C221.288 59.5708 221.861 59.8772 222.407 60.2657C222.96 60.648 223.415 61.1396 223.773 61.7404C224.131 62.3413 224.31 63.0787 224.31 63.9526C224.31 64.9601 224.046 65.8704 223.518 66.6837C222.996 67.4969 222.231 68.1433 221.224 68.6227C220.222 69.1022 219.006 69.3419 217.573 69.3419C216.238 69.3419 215.082 69.1264 214.105 68.6955C213.134 68.2646 212.369 67.6638 211.811 66.893C211.258 66.1223 210.946 65.2271 210.873 64.2075H213.204C213.264 64.9115 213.501 65.4941 213.914 65.9554C214.332 66.4105 214.86 66.7504 215.498 66.975C216.141 67.1935 216.833 67.3027 217.573 67.3027C218.435 67.3027 219.209 67.1631 219.895 66.8839C220.58 66.5987 221.124 66.2042 221.524 65.7005C221.925 65.1907 222.125 64.5959 222.125 63.9162C222.125 63.2971 221.952 62.7934 221.606 62.405C221.26 62.0166 220.805 61.701 220.241 61.4582C219.676 61.2155 219.066 61.0031 218.411 60.821L216.117 60.1655C214.66 59.7468 213.507 59.149 212.657 58.3721C211.808 57.5953 211.383 56.5787 211.383 55.3224C211.383 54.2786 211.665 53.3682 212.229 52.5914C212.8 51.8085 213.565 51.2016 214.524 50.7707C215.489 50.3337 216.566 50.1152 217.755 50.1152C218.957 50.1152 220.025 50.3307 220.96 50.7616C221.894 51.1864 222.635 51.769 223.181 52.5095C223.733 53.2499 224.025 54.0904 224.055 55.0311H221.87Z" fill="white"/>
</svg>
