<svg width="445" height="201" viewBox="0 0 445 201" fill="none" xmlns="http://www.w3.org/2000/svg">
<rect width="445" height="201" rx="10" fill="#FFFDF2"/>
<path d="M50.0697 58V49.9494H51.0493V58H50.0697ZM52.8434 58V52.1112H53.7779V53.0458C54.0482 52.494 54.7012 52.0099 55.6696 52.0099C56.8856 52.0099 57.7413 52.6742 57.7413 54.3857V58H56.8068V54.3181C56.8068 53.2822 56.3677 52.8206 55.4219 52.8206C54.5549 52.8206 53.7779 53.3723 53.7779 54.4307V58H52.8434ZM59.3476 60.0493V52.1112H60.2821V53.1021C60.6199 52.5278 61.4194 52.0099 62.2751 52.0099C63.8177 52.0099 64.9549 53.1358 64.9549 54.9712V55.0612C64.9549 56.8628 63.8965 58.1013 62.2751 58.1013C61.3068 58.1013 60.6199 57.6172 60.2821 57.0317V60.0493H59.3476ZM62.185 57.3244C63.356 57.3244 63.9866 56.5362 63.9866 55.1063V55.0162C63.9866 53.5299 63.1646 52.7868 62.1738 52.7868C61.0816 52.7868 60.2484 53.5074 60.2484 55.0162V55.1063C60.2484 56.6151 61.0365 57.3244 62.185 57.3244ZM68.1746 58.1013C67.0036 58.1013 66.1254 57.4595 66.1254 55.8382V52.1112H67.0599V55.7931C67.0599 56.829 67.499 57.2906 68.4223 57.2906C69.2555 57.2906 70.0437 56.7389 70.0437 55.6805V52.1112H70.9783V58H70.0437V57.0655C69.7735 57.6172 69.1204 58.1013 68.1746 58.1013ZM74.4321 58.0788C73.3625 58.0788 72.8445 57.4483 72.8445 56.525V52.8994H72.0001V52.1112H72.8445V50.7713H73.7791V52.1112H75.1528V52.8994H73.7791V56.4349C73.7791 57.0092 74.0381 57.2906 74.511 57.2906C74.8037 57.2906 75.0289 57.2456 75.2316 57.1668V57.955C75.0402 58.0225 74.815 58.0788 74.4321 58.0788ZM79.703 60.0493L80.8177 57.392L78.5094 52.1112H79.5115L81.3131 56.3336L82.9457 52.1112H83.9028L80.6488 60.0493H79.703ZM87.1979 57.3244C88.3802 57.3244 89.1233 56.4349 89.1233 55.1063V55.0275C89.1233 53.665 88.3689 52.7868 87.1979 52.7868C86.0156 52.7868 85.2725 53.665 85.2725 55.0162V55.1063C85.2725 56.4462 86.0044 57.3244 87.1979 57.3244ZM87.1867 58.1013C85.509 58.1013 84.3042 56.829 84.3042 55.1063V55.0162C84.3042 53.2484 85.5315 52.0099 87.1979 52.0099C88.8643 52.0099 90.0916 53.2372 90.0916 55.0049V55.095C90.0916 56.874 88.8643 58.1013 87.1867 58.1013ZM93.3064 58.1013C92.1354 58.1013 91.2572 57.4595 91.2572 55.8382V52.1112H92.1917V55.7931C92.1917 56.829 92.6309 57.2906 93.5541 57.2906C94.3874 57.2906 95.1755 56.7389 95.1755 55.6805V52.1112H96.1101V58H95.1755V57.0655C94.9053 57.6172 94.2522 58.1013 93.3064 58.1013ZM97.7737 58V52.1112H98.7082V53.1696C99.0798 52.5053 99.5865 52.0437 100.645 52.0099V52.8881C99.4626 52.9444 98.7082 53.316 98.7082 54.7685V58H97.7737ZM104.739 58V52.8994H103.895V52.1112H104.739V51.1542C104.739 49.9606 105.325 49.2625 106.496 49.2625C106.8 49.2625 106.957 49.2963 107.194 49.3751V50.1633C107.025 50.0957 106.788 50.0394 106.529 50.0394C105.921 50.0394 105.674 50.4561 105.674 51.0528V52.1112H107.115V52.8994H105.674V58H104.739ZM110.372 57.3244C111.555 57.3244 112.298 56.4349 112.298 55.1063V55.0275C112.298 53.665 111.543 52.7868 110.372 52.7868C109.19 52.7868 108.447 53.665 108.447 55.0162V55.1063C108.447 56.4462 109.179 57.3244 110.372 57.3244ZM110.361 58.1013C108.684 58.1013 107.479 56.829 107.479 55.1063V55.0162C107.479 53.2484 108.706 52.0099 110.372 52.0099C112.039 52.0099 113.266 53.2372 113.266 55.0049V55.095C113.266 56.874 112.039 58.1013 110.361 58.1013ZM116.481 58.1013C115.31 58.1013 114.432 57.4595 114.432 55.8382V52.1112H115.366V55.7931C115.366 56.829 115.805 57.2906 116.729 57.2906C117.562 57.2906 118.35 56.7389 118.35 55.6805V52.1112H119.285V58H118.35V57.0655C118.08 57.6172 117.427 58.1013 116.481 58.1013ZM120.948 58V52.1112H121.883V53.1696C122.254 52.5053 122.761 52.0437 123.819 52.0099V52.8881C122.637 52.9444 121.883 53.316 121.883 54.7685V58H120.948ZM129.929 58.1013C128.387 58.1013 127.272 57.0092 127.272 55.1738V55.0838C127.272 53.2822 128.398 52.0099 130.019 52.0099C130.999 52.0099 131.607 52.4828 131.945 53.057V49.2963H132.879V58H131.945V56.9866C131.607 57.5609 130.785 58.1013 129.929 58.1013ZM130.031 57.3244C131.123 57.3244 131.978 56.6038 131.978 55.095V55.0049C131.978 53.4962 131.258 52.7868 130.109 52.7868C128.938 52.7868 128.24 53.6087 128.24 55.0387V55.1288C128.24 56.6151 129.04 57.3244 130.031 57.3244ZM134.568 58V52.1112H135.502V58H134.568ZM135.018 50.8839C134.68 50.8839 134.399 50.6024 134.399 50.2646C134.399 49.9269 134.68 49.6454 135.018 49.6454C135.356 49.6454 135.637 49.9269 135.637 50.2646C135.637 50.6024 135.356 50.8839 135.018 50.8839ZM139.543 60.1506C137.798 60.1506 137.032 59.3286 136.875 58.3378H137.832C137.967 59.0134 138.53 59.3624 139.532 59.3624C140.692 59.3624 141.423 58.8107 141.423 57.5496V56.6939C141.086 57.2681 140.286 57.8086 139.43 57.8086C137.888 57.8086 136.751 56.6376 136.751 55.0162V54.9374C136.751 53.3385 137.877 52.0099 139.498 52.0099C140.478 52.0099 141.086 52.4828 141.423 53.057V52.1112H142.358V57.6059C142.347 59.3174 141.187 60.1506 139.543 60.1506ZM139.532 57.0317C140.624 57.0317 141.457 56.266 141.457 54.9486V54.8698C141.457 53.5525 140.737 52.7868 139.588 52.7868C138.417 52.7868 137.719 53.6538 137.719 54.8923V54.9824C137.719 56.266 138.541 57.0317 139.532 57.0317ZM144.046 58V52.1112H144.981V58H144.046ZM144.497 50.8839C144.159 50.8839 143.878 50.6024 143.878 50.2646C143.878 49.9269 144.159 49.6454 144.497 49.6454C144.835 49.6454 145.116 49.9269 145.116 50.2646C145.116 50.6024 144.835 50.8839 144.497 50.8839ZM148.459 58.0788C147.389 58.0788 146.871 57.4483 146.871 56.525V52.8994H146.027V52.1112H146.871V50.7713H147.806V52.1112H149.179V52.8994H147.806V56.4349C147.806 57.0092 148.065 57.2906 148.538 57.2906C148.83 57.2906 149.056 57.2456 149.258 57.1668V57.955C149.067 58.0225 148.842 58.0788 148.459 58.0788ZM154.991 58.0788C153.921 58.0788 153.403 57.4483 153.403 56.525V52.8994H152.559V52.1112H153.403V50.7713H154.338V52.1112H155.711V52.8994H154.338V56.4349C154.338 57.0092 154.597 57.2906 155.07 57.2906C155.362 57.2906 155.588 57.2456 155.79 57.1668V57.955C155.599 58.0225 155.374 58.0788 154.991 58.0788ZM156.978 58V52.1112H157.912V53.1696C158.284 52.5053 158.791 52.0437 159.849 52.0099V52.8881C158.667 52.9444 157.912 53.316 157.912 54.7685V58H156.978ZM162.406 58.1013C161.314 58.1013 160.447 57.5721 160.447 56.3674C160.447 55.0049 161.888 54.5433 163.397 54.5433H164.241V54.1154C164.241 53.1809 163.881 52.7868 162.98 52.7868C162.169 52.7868 161.719 53.1246 161.629 53.8452H160.694C160.818 52.5053 161.888 52.0099 163.025 52.0099C164.151 52.0099 165.176 52.4715 165.176 54.1154V58H164.241V57.2569C163.802 57.8086 163.273 58.1013 162.406 58.1013ZM162.496 57.3582C163.487 57.3582 164.241 56.8515 164.241 55.9395V55.2076H163.431C162.248 55.2076 161.381 55.5004 161.381 56.3674C161.381 56.9754 161.674 57.3582 162.496 57.3582ZM166.786 58V52.1112H167.721V53.0458C167.991 52.494 168.644 52.0099 169.613 52.0099C170.829 52.0099 171.684 52.6742 171.684 54.3857V58H170.75V54.3181C170.75 53.2822 170.311 52.8206 169.365 52.8206C168.498 52.8206 167.721 53.3723 167.721 54.4307V58H166.786ZM175.115 58.1013C173.707 58.1013 172.863 57.392 172.806 56.1872H173.718C173.786 56.8853 174.158 57.3244 175.103 57.3244C175.993 57.3244 176.387 57.0204 176.387 56.3899C176.387 55.7706 175.925 55.5679 175.013 55.399C173.482 55.1175 172.964 54.6897 172.964 53.665C172.964 52.5729 174.034 52.0099 174.957 52.0099C176.015 52.0099 176.927 52.4377 177.085 53.7101H176.184C176.049 53.0683 175.689 52.7868 174.946 52.7868C174.27 52.7868 173.831 53.1246 173.831 53.6313C173.831 54.1605 174.124 54.3744 175.205 54.5658C176.421 54.791 177.276 55.0612 177.276 56.3111C177.276 57.3807 176.545 58.1013 175.115 58.1013ZM179.95 58.1013C178.858 58.1013 177.991 57.5721 177.991 56.3674C177.991 55.0049 179.432 54.5433 180.941 54.5433H181.786V54.1154C181.786 53.1809 181.425 52.7868 180.524 52.7868C179.714 52.7868 179.263 53.1246 179.173 53.8452H178.239C178.363 52.5053 179.432 52.0099 180.57 52.0099C181.695 52.0099 182.72 52.4715 182.72 54.1154V58H181.786V57.2569C181.346 57.8086 180.817 58.1013 179.95 58.1013ZM180.04 57.3582C181.031 57.3582 181.786 56.8515 181.786 55.9395V55.2076H180.975C179.793 55.2076 178.926 55.5004 178.926 56.3674C178.926 56.9754 179.218 57.3582 180.04 57.3582ZM186.774 58.1013C185.13 58.1013 183.892 56.9416 183.892 55.1175V55.0275C183.892 53.2259 185.175 52.0099 186.751 52.0099C187.979 52.0099 189.127 52.5729 189.307 54.0704H188.384C188.238 53.1358 187.562 52.7868 186.751 52.7868C185.682 52.7868 184.86 53.6425 184.86 55.0275V55.1175C184.86 56.5588 185.648 57.3244 186.785 57.3244C187.618 57.3244 188.373 56.8403 188.474 55.8832H189.341C189.217 57.1555 188.193 58.1013 186.774 58.1013ZM192.317 58.0788C191.248 58.0788 190.73 57.4483 190.73 56.525V52.8994H189.885V52.1112H190.73V50.7713H191.664V52.1112H193.038V52.8994H191.664V56.4349C191.664 57.0092 191.923 57.2906 192.396 57.2906C192.689 57.2906 192.914 57.2456 193.117 57.1668V57.955C192.925 58.0225 192.7 58.0788 192.317 58.0788ZM194.327 58V52.1112H195.261V58H194.327ZM194.777 50.8839C194.439 50.8839 194.158 50.6024 194.158 50.2646C194.158 49.9269 194.439 49.6454 194.777 49.6454C195.115 49.6454 195.396 49.9269 195.396 50.2646C195.396 50.6024 195.115 50.8839 194.777 50.8839ZM199.404 57.3244C200.586 57.3244 201.329 56.4349 201.329 55.1063V55.0275C201.329 53.665 200.575 52.7868 199.404 52.7868C198.221 52.7868 197.478 53.665 197.478 55.0162V55.1063C197.478 56.4462 198.21 57.3244 199.404 57.3244ZM199.392 58.1013C197.715 58.1013 196.51 56.829 196.51 55.1063V55.0162C196.51 53.2484 197.737 52.0099 199.404 52.0099C201.07 52.0099 202.297 53.2372 202.297 55.0049V55.095C202.297 56.874 201.07 58.1013 199.392 58.1013ZM203.519 58V52.1112H204.454V53.0458C204.724 52.494 205.377 52.0099 206.345 52.0099C207.561 52.0099 208.417 52.6742 208.417 54.3857V58H207.482V54.3181C207.482 53.2822 207.043 52.8206 206.098 52.8206C205.231 52.8206 204.454 53.3723 204.454 54.4307V58H203.519ZM212.778 60.0493V52.1112H213.712V53.1021C214.05 52.5278 214.85 52.0099 215.705 52.0099C217.248 52.0099 218.385 53.1358 218.385 54.9712V55.0612C218.385 56.8628 217.327 58.1013 215.705 58.1013C214.737 58.1013 214.05 57.6172 213.712 57.0317V60.0493H212.778ZM215.615 57.3244C216.786 57.3244 217.417 56.5362 217.417 55.1063V55.0162C217.417 53.5299 216.595 52.7868 215.604 52.7868C214.512 52.7868 213.679 53.5074 213.679 55.0162V55.1063C213.679 56.6151 214.467 57.3244 215.615 57.3244ZM219.635 58V52.1112H220.569V58H219.635ZM220.085 50.8839C219.747 50.8839 219.466 50.6024 219.466 50.2646C219.466 49.9269 219.747 49.6454 220.085 49.6454C220.423 49.6454 220.704 49.9269 220.704 50.2646C220.704 50.6024 220.423 50.8839 220.085 50.8839ZM222.257 58V52.1112H223.191V53.0458C223.461 52.494 224.115 52.0099 225.083 52.0099C226.299 52.0099 227.155 52.6742 227.155 54.3857V58H226.22V54.3181C226.22 53.2822 225.781 52.8206 224.835 52.8206C223.968 52.8206 223.191 53.3723 223.191 54.4307V58H222.257ZM233.306 58.0788C232.236 58.0788 231.718 57.4483 231.718 56.525V52.8994H230.874V52.1112H231.718V50.7713H232.653V52.1112H234.026V52.8994H232.653V56.4349C232.653 57.0092 232.912 57.2906 233.385 57.2906C233.677 57.2906 233.903 57.2456 234.105 57.1668V57.955C233.914 58.0225 233.689 58.0788 233.306 58.0788ZM237.747 57.3244C238.93 57.3244 239.673 56.4349 239.673 55.1063V55.0275C239.673 53.665 238.918 52.7868 237.747 52.7868C236.565 52.7868 235.822 53.665 235.822 55.0162V55.1063C235.822 56.4462 236.554 57.3244 237.747 57.3244ZM237.736 58.1013C236.058 58.1013 234.854 56.829 234.854 55.1063V55.0162C234.854 53.2484 236.081 52.0099 237.747 52.0099C239.414 52.0099 240.641 53.2372 240.641 55.0049V55.095C240.641 56.874 239.414 58.1013 237.736 58.1013ZM248.847 58.1013C247.755 58.1013 246.888 57.5721 246.888 56.3674C246.888 55.0049 248.329 54.5433 249.838 54.5433H250.683V54.1154C250.683 53.1809 250.322 52.7868 249.421 52.7868C248.611 52.7868 248.16 53.1246 248.07 53.8452H247.136C247.26 52.5053 248.329 52.0099 249.467 52.0099C250.592 52.0099 251.617 52.4715 251.617 54.1154V58H250.683V57.2569C250.243 57.8086 249.714 58.1013 248.847 58.1013ZM248.937 57.3582C249.928 57.3582 250.683 56.8515 250.683 55.9395V55.2076H249.872C248.69 55.2076 247.823 55.5004 247.823 56.3674C247.823 56.9754 248.115 57.3582 248.937 57.3582ZM255.221 58.1013C254.05 58.1013 253.171 57.4595 253.171 55.8382V52.1112H254.106V55.7931C254.106 56.829 254.545 57.2906 255.468 57.2906C256.302 57.2906 257.09 56.7389 257.09 55.6805V52.1112H258.024V58H257.09V57.0655C256.82 57.6172 256.166 58.1013 255.221 58.1013ZM261.478 58.0788C260.409 58.0788 259.891 57.4483 259.891 56.525V52.8994H259.046V52.1112H259.891V50.7713H260.825V52.1112H262.199V52.8994H260.825V56.4349C260.825 57.0092 261.084 57.2906 261.557 57.2906C261.85 57.2906 262.075 57.2456 262.278 57.1668V57.955C262.086 58.0225 261.861 58.0788 261.478 58.0788ZM263.465 58V49.2963H264.4V53.0458C264.67 52.494 265.323 52.0099 266.291 52.0099C267.507 52.0099 268.363 52.6742 268.363 54.3857V58H267.429V54.3181C267.429 53.2822 266.989 52.8206 266.044 52.8206C265.177 52.8206 264.4 53.3723 264.4 54.4307V58H263.465ZM272.379 58.1013C270.712 58.1013 269.53 56.9303 269.53 55.1175V55.0275C269.53 53.2484 270.667 52.0099 272.289 52.0099C273.651 52.0099 274.935 52.8318 274.935 54.9374V55.2414H270.499C270.544 56.5813 271.185 57.3244 272.39 57.3244C273.302 57.3244 273.831 56.9866 273.955 56.2998H274.89C274.687 57.4821 273.708 58.1013 272.379 58.1013ZM270.532 54.487H273.978C273.888 53.271 273.257 52.7868 272.289 52.7868C271.332 52.7868 270.69 53.4399 270.532 54.487ZM276.144 58V52.1112H277.078V53.0458C277.348 52.494 278.001 52.0099 278.97 52.0099C280.186 52.0099 281.042 52.6742 281.042 54.3857V58H280.107V54.3181C280.107 53.2822 279.668 52.8206 278.722 52.8206C277.855 52.8206 277.078 53.3723 277.078 54.4307V58H276.144ZM284.438 58.0788C283.368 58.0788 282.851 57.4483 282.851 56.525V52.8994H282.006V52.1112H282.851V50.7713H283.785V52.1112H285.159V52.8994H283.785V56.4349C283.785 57.0092 284.044 57.2906 284.517 57.2906C284.81 57.2906 285.035 57.2456 285.238 57.1668V57.955C285.046 58.0225 284.821 58.0788 284.438 58.0788ZM286.448 58V52.1112H287.382V58H286.448ZM286.898 50.8839C286.56 50.8839 286.279 50.6024 286.279 50.2646C286.279 49.9269 286.56 49.6454 286.898 49.6454C287.236 49.6454 287.517 49.9269 287.517 50.2646C287.517 50.6024 287.236 50.8839 286.898 50.8839ZM291.513 58.1013C289.869 58.1013 288.631 56.9416 288.631 55.1175V55.0275C288.631 53.2259 289.914 52.0099 291.491 52.0099C292.718 52.0099 293.866 52.5729 294.047 54.0704H293.123C292.977 53.1358 292.301 52.7868 291.491 52.7868C290.421 52.7868 289.599 53.6425 289.599 55.0275V55.1175C289.599 56.5588 290.387 57.3244 291.524 57.3244C292.358 57.3244 293.112 56.8403 293.213 55.8832H294.08C293.956 57.1555 292.932 58.1013 291.513 58.1013ZM296.741 58.1013C295.649 58.1013 294.782 57.5721 294.782 56.3674C294.782 55.0049 296.223 54.5433 297.732 54.5433H298.576V54.1154C298.576 53.1809 298.216 52.7868 297.315 52.7868C296.505 52.7868 296.054 53.1246 295.964 53.8452H295.03C295.153 52.5053 296.223 52.0099 297.36 52.0099C298.486 52.0099 299.511 52.4715 299.511 54.1154V58H298.576V57.2569C298.137 57.8086 297.608 58.1013 296.741 58.1013ZM296.831 57.3582C297.822 57.3582 298.576 56.8515 298.576 55.9395V55.2076H297.766C296.583 55.2076 295.716 55.5004 295.716 56.3674C295.716 56.9754 296.009 57.3582 296.831 57.3582ZM302.912 58.0788C301.842 58.0788 301.324 57.4483 301.324 56.525V52.8994H300.48V52.1112H301.324V50.7713H302.259V52.1112H303.632V52.8994H302.259V56.4349C302.259 57.0092 302.518 57.2906 302.991 57.2906C303.283 57.2906 303.509 57.2456 303.711 57.1668V57.955C303.52 58.0225 303.295 58.0788 302.912 58.0788ZM307.308 58.1013C305.642 58.1013 304.46 56.9303 304.46 55.1175V55.0275C304.46 53.2484 305.597 52.0099 307.218 52.0099C308.581 52.0099 309.864 52.8318 309.864 54.9374V55.2414H305.428C305.473 56.5813 306.115 57.3244 307.32 57.3244C308.232 57.3244 308.761 56.9866 308.885 56.2998H309.819C309.617 57.4821 308.637 58.1013 307.308 58.1013ZM305.462 54.487H308.907C308.817 53.271 308.187 52.7868 307.218 52.7868C306.261 52.7868 305.619 53.4399 305.462 54.487ZM314.357 60.0493L315.472 57.392L313.163 52.1112H314.166L315.967 56.3336L317.6 52.1112H318.557L315.303 60.0493H314.357ZM321.852 57.3244C323.034 57.3244 323.777 56.4349 323.777 55.1063V55.0275C323.777 53.665 323.023 52.7868 321.852 52.7868C320.67 52.7868 319.927 53.665 319.927 55.0162V55.1063C319.927 56.4462 320.658 57.3244 321.852 57.3244ZM321.841 58.1013C320.163 58.1013 318.958 56.829 318.958 55.1063V55.0162C318.958 53.2484 320.185 52.0099 321.852 52.0099C323.518 52.0099 324.746 53.2372 324.746 55.0049V55.095C324.746 56.874 323.518 58.1013 321.841 58.1013ZM327.96 58.1013C326.789 58.1013 325.911 57.4595 325.911 55.8382V52.1112H326.846V55.7931C326.846 56.829 327.285 57.2906 328.208 57.2906C329.041 57.2906 329.83 56.7389 329.83 55.6805V52.1112H330.764V58H329.83V57.0655C329.559 57.6172 328.906 58.1013 327.96 58.1013ZM332.428 58V52.1112H333.362V53.1696C333.734 52.5053 334.24 52.0437 335.299 52.0099V52.8881C334.117 52.9444 333.362 53.316 333.362 54.7685V58H332.428ZM340.981 58.0788C339.911 58.0788 339.393 57.4483 339.393 56.525V52.8994H338.549V52.1112H339.393V50.7713H340.328V52.1112H341.701V52.8994H340.328V56.4349C340.328 57.0092 340.587 57.2906 341.06 57.2906C341.352 57.2906 341.578 57.2456 341.78 57.1668V57.955C341.589 58.0225 341.364 58.0788 340.981 58.0788ZM342.968 58V52.1112H343.902V53.1696C344.274 52.5053 344.781 52.0437 345.839 52.0099V52.8881C344.657 52.9444 343.902 53.316 343.902 54.7685V58H342.968ZM348.396 58.1013C347.304 58.1013 346.437 57.5721 346.437 56.3674C346.437 55.0049 347.878 54.5433 349.387 54.5433H350.231V54.1154C350.231 53.1809 349.871 52.7868 348.97 52.7868C348.159 52.7868 347.709 53.1246 347.619 53.8452H346.684C346.808 52.5053 347.878 52.0099 349.015 52.0099C350.141 52.0099 351.166 52.4715 351.166 54.1154V58H350.231V57.2569C349.792 57.8086 349.263 58.1013 348.396 58.1013ZM348.486 57.3582C349.477 57.3582 350.231 56.8515 350.231 55.9395V55.2076H349.421C348.238 55.2076 347.371 55.5004 347.371 56.3674C347.371 56.9754 347.664 57.3582 348.486 57.3582ZM352.776 58V52.1112H353.711V53.0458C353.981 52.494 354.634 52.0099 355.603 52.0099C356.819 52.0099 357.674 52.6742 357.674 54.3857V58H356.74V54.3181C356.74 53.2822 356.301 52.8206 355.355 52.8206C354.488 52.8206 353.711 53.3723 353.711 54.4307V58H352.776ZM361.105 58.1013C359.697 58.1013 358.853 57.392 358.796 56.1872H359.708C359.776 56.8853 360.148 57.3244 361.093 57.3244C361.983 57.3244 362.377 57.0204 362.377 56.3899C362.377 55.7706 361.915 55.5679 361.003 55.399C359.472 55.1175 358.954 54.6897 358.954 53.665C358.954 52.5729 360.024 52.0099 360.947 52.0099C362.005 52.0099 362.917 52.4377 363.075 53.7101H362.174C362.039 53.0683 361.679 52.7868 360.936 52.7868C360.26 52.7868 359.821 53.1246 359.821 53.6313C359.821 54.1605 360.114 54.3744 361.195 54.5658C362.411 54.791 363.266 55.0612 363.266 56.3111C363.266 57.3807 362.535 58.1013 361.105 58.1013ZM365.94 58.1013C364.848 58.1013 363.981 57.5721 363.981 56.3674C363.981 55.0049 365.422 54.5433 366.931 54.5433H367.776V54.1154C367.776 53.1809 367.415 52.7868 366.514 52.7868C365.704 52.7868 365.253 53.1246 365.163 53.8452H364.229C364.353 52.5053 365.422 52.0099 366.56 52.0099C367.685 52.0099 368.71 52.4715 368.71 54.1154V58H367.776V57.2569C367.336 57.8086 366.807 58.1013 365.94 58.1013ZM366.03 57.3582C367.021 57.3582 367.776 56.8515 367.776 55.9395V55.2076H366.965C365.783 55.2076 364.916 55.5004 364.916 56.3674C364.916 56.9754 365.208 57.3582 366.03 57.3582ZM372.764 58.1013C371.12 58.1013 369.882 56.9416 369.882 55.1175V55.0275C369.882 53.2259 371.165 52.0099 372.742 52.0099C373.969 52.0099 375.117 52.5729 375.297 54.0704H374.374C374.228 53.1358 373.552 52.7868 372.742 52.7868C371.672 52.7868 370.85 53.6425 370.85 55.0275V55.1175C370.85 56.5588 371.638 57.3244 372.775 57.3244C373.608 57.3244 374.363 56.8403 374.464 55.8832H375.331C375.207 57.1555 374.183 58.1013 372.764 58.1013ZM378.307 58.0788C377.238 58.0788 376.72 57.4483 376.72 56.525V52.8994H375.875V52.1112H376.72V50.7713H377.654V52.1112H379.028V52.8994H377.654V56.4349C377.654 57.0092 377.913 57.2906 378.386 57.2906C378.679 57.2906 378.904 57.2456 379.107 57.1668V57.955C378.915 58.0225 378.69 58.0788 378.307 58.0788ZM380.317 58V52.1112H381.251V58H380.317ZM380.767 50.8839C380.429 50.8839 380.148 50.6024 380.148 50.2646C380.148 49.9269 380.429 49.6454 380.767 49.6454C381.105 49.6454 381.386 49.9269 381.386 50.2646C381.386 50.6024 381.105 50.8839 380.767 50.8839ZM385.394 57.3244C386.576 57.3244 387.319 56.4349 387.319 55.1063V55.0275C387.319 53.665 386.565 52.7868 385.394 52.7868C384.211 52.7868 383.468 53.665 383.468 55.0162V55.1063C383.468 56.4462 384.2 57.3244 385.394 57.3244ZM385.382 58.1013C383.705 58.1013 382.5 56.829 382.5 55.1063V55.0162C382.5 53.2484 383.727 52.0099 385.394 52.0099C387.06 52.0099 388.287 53.2372 388.287 55.0049V55.095C388.287 56.874 387.06 58.1013 385.382 58.1013ZM389.509 58V52.1112H390.444V53.0458C390.714 52.494 391.367 52.0099 392.335 52.0099C393.551 52.0099 394.407 52.6742 394.407 54.3857V58H393.472V54.3181C393.472 53.2822 393.033 52.8206 392.088 52.8206C391.221 52.8206 390.444 53.3723 390.444 54.4307V58H389.509Z" fill="black" fill-opacity="0.5"/>
<g filter="url(#filter0_d_1536_8811)">
<rect x="83.514" y="83.2229" width="56.2981" height="70.6683" rx="5.62981" fill="black" fill-opacity="0.1" shape-rendering="crispEdges"/>
<rect x="83.8659" y="83.5748" width="55.5944" height="69.9646" rx="5.27795" stroke="black" stroke-opacity="0.1" stroke-width="0.703726" shape-rendering="crispEdges"/>
<path d="M107.454 124.557V122.839C111.549 119.993 113.596 117.645 113.596 115.795C113.596 114.707 112.851 114.163 111.362 114.163C110.103 114.163 108.914 114.478 107.797 115.108V113.046C108.914 112.473 110.103 112.187 111.362 112.187C114.369 112.187 115.872 113.39 115.872 115.795C115.872 117.914 114.232 120.176 110.95 122.581H115.872V124.557H107.454Z" fill="#181818"/>
</g>
<g filter="url(#filter1_d_1536_8811)">
<rect x="157.405" y="83.2229" width="56.2981" height="70.6683" rx="5.62981" fill="black" fill-opacity="0.1" shape-rendering="crispEdges"/>
<rect x="157.757" y="83.5748" width="55.5944" height="69.9646" rx="5.27795" stroke="black" stroke-opacity="0.1" stroke-width="0.703726" shape-rendering="crispEdges"/>
<path d="M181.62 112.702C182.765 112.359 183.968 112.187 185.228 112.187C188.292 112.187 189.824 113.304 189.824 115.537C189.824 116.889 189.285 117.819 188.209 118.329C189.285 118.816 189.824 119.747 189.824 121.121C189.824 123.469 188.292 124.643 185.228 124.643C183.968 124.643 182.765 124.471 181.62 124.128V122.066C182.765 122.467 183.968 122.667 185.228 122.667C186.774 122.667 187.547 122.152 187.547 121.121C187.547 119.918 186.998 119.317 185.898 119.317H182.909V117.341H185.872C186.989 117.341 187.547 116.74 187.547 115.537C187.547 114.621 186.774 114.163 185.228 114.163C183.968 114.163 182.765 114.363 181.62 114.764V112.702Z" fill="#181818"/>
</g>
<g filter="url(#filter2_d_1536_8811)">
<rect x="231.297" y="83.2229" width="56.2981" height="70.6683" rx="5.62981" fill="black" fill-opacity="0.1" shape-rendering="crispEdges"/>
<rect x="231.648" y="83.5748" width="55.5944" height="69.9646" rx="5.27795" stroke="black" stroke-opacity="0.1" stroke-width="0.703726" shape-rendering="crispEdges"/>
<g filter="url(#filter3_f_1536_8811)">
<path d="M263.2 124.557H260.923V121.894H254.721V120.176L259.746 112.273H262.186L257.324 120.09H260.923V115.984H263.2V120.09L264.471 121.258V121.894H263.2V124.557Z" fill="#181818"/>
</g>
</g>
<g filter="url(#filter4_d_1536_8811)">
<rect x="305.188" y="83.2229" width="56.2981" height="70.6683" rx="5.62981" fill="black" fill-opacity="0.1" shape-rendering="crispEdges"/>
<rect x="305.54" y="83.5748" width="55.5944" height="69.9646" rx="5.27795" stroke="black" stroke-opacity="0.1" stroke-width="0.703726" shape-rendering="crispEdges"/>
<g filter="url(#filter5_f_1536_8811)">
<path d="M329.858 112.273H337.194V114.077H331.816L331.61 117.101C331.937 116.975 332.412 116.912 333.036 116.912C336.129 116.912 337.675 118.172 337.675 120.691C337.675 123.326 336.071 124.643 332.864 124.643C331.719 124.643 330.574 124.471 329.428 124.128V122.238C330.574 122.639 331.748 122.839 332.95 122.839C334.582 122.839 335.399 122.123 335.399 120.691C335.399 119.374 334.611 118.716 333.036 118.716C331.748 118.716 330.545 118.859 329.428 119.145L329.858 112.273Z" fill="#181818"/>
</g>
</g>
<defs>
<filter id="filter0_d_1536_8811" x="69.4395" y="71.9633" width="84.4471" height="98.8173" filterUnits="userSpaceOnUse" color-interpolation-filters="sRGB">
<feFlood flood-opacity="0" result="BackgroundImageFix"/>
<feColorMatrix in="SourceAlpha" type="matrix" values="0 0 0 0 0 0 0 0 0 0 0 0 0 0 0 0 0 0 127 0" result="hardAlpha"/>
<feOffset dy="2.8149"/>
<feGaussianBlur stdDeviation="7.03726"/>
<feComposite in2="hardAlpha" operator="out"/>
<feColorMatrix type="matrix" values="0 0 0 0 0 0 0 0 0 0 0 0 0 0 0 0 0 0 0.15 0"/>
<feBlend mode="normal" in2="BackgroundImageFix" result="effect1_dropShadow_1536_8811"/>
<feBlend mode="normal" in="SourceGraphic" in2="effect1_dropShadow_1536_8811" result="shape"/>
</filter>
<filter id="filter1_d_1536_8811" x="143.331" y="71.9633" width="84.4471" height="98.8173" filterUnits="userSpaceOnUse" color-interpolation-filters="sRGB">
<feFlood flood-opacity="0" result="BackgroundImageFix"/>
<feColorMatrix in="SourceAlpha" type="matrix" values="0 0 0 0 0 0 0 0 0 0 0 0 0 0 0 0 0 0 127 0" result="hardAlpha"/>
<feOffset dy="2.8149"/>
<feGaussianBlur stdDeviation="7.03726"/>
<feComposite in2="hardAlpha" operator="out"/>
<feColorMatrix type="matrix" values="0 0 0 0 0 0 0 0 0 0 0 0 0 0 0 0 0 0 0.15 0"/>
<feBlend mode="normal" in2="BackgroundImageFix" result="effect1_dropShadow_1536_8811"/>
<feBlend mode="normal" in="SourceGraphic" in2="effect1_dropShadow_1536_8811" result="shape"/>
</filter>
<filter id="filter2_d_1536_8811" x="217.222" y="71.9633" width="84.4471" height="98.8173" filterUnits="userSpaceOnUse" color-interpolation-filters="sRGB">
<feFlood flood-opacity="0" result="BackgroundImageFix"/>
<feColorMatrix in="SourceAlpha" type="matrix" values="0 0 0 0 0 0 0 0 0 0 0 0 0 0 0 0 0 0 127 0" result="hardAlpha"/>
<feOffset dy="2.8149"/>
<feGaussianBlur stdDeviation="7.03726"/>
<feComposite in2="hardAlpha" operator="out"/>
<feColorMatrix type="matrix" values="0 0 0 0 0 0 0 0 0 0 0 0 0 0 0 0 0 0 0.15 0"/>
<feBlend mode="normal" in2="BackgroundImageFix" result="effect1_dropShadow_1536_8811"/>
<feBlend mode="normal" in="SourceGraphic" in2="effect1_dropShadow_1536_8811" result="shape"/>
</filter>
<filter id="filter3_f_1536_8811" x="247.716" y="105.268" width="23.76" height="26.2941" filterUnits="userSpaceOnUse" color-interpolation-filters="sRGB">
<feFlood flood-opacity="0" result="BackgroundImageFix"/>
<feBlend mode="normal" in="SourceGraphic" in2="BackgroundImageFix" result="shape"/>
<feGaussianBlur stdDeviation="3.50248" result="effect1_foregroundBlur_1536_8811"/>
</filter>
<filter id="filter4_d_1536_8811" x="291.113" y="71.9633" width="84.4471" height="98.8173" filterUnits="userSpaceOnUse" color-interpolation-filters="sRGB">
<feFlood flood-opacity="0" result="BackgroundImageFix"/>
<feColorMatrix in="SourceAlpha" type="matrix" values="0 0 0 0 0 0 0 0 0 0 0 0 0 0 0 0 0 0 127 0" result="hardAlpha"/>
<feOffset dy="2.8149"/>
<feGaussianBlur stdDeviation="7.03726"/>
<feComposite in2="hardAlpha" operator="out"/>
<feColorMatrix type="matrix" values="0 0 0 0 0 0 0 0 0 0 0 0 0 0 0 0 0 0 0.15 0"/>
<feBlend mode="normal" in2="BackgroundImageFix" result="effect1_dropShadow_1536_8811"/>
<feBlend mode="normal" in="SourceGraphic" in2="effect1_dropShadow_1536_8811" result="shape"/>
</filter>
<filter id="filter5_f_1536_8811" x="322.423" y="105.268" width="22.2567" height="26.38" filterUnits="userSpaceOnUse" color-interpolation-filters="sRGB">
<feFlood flood-opacity="0" result="BackgroundImageFix"/>
<feBlend mode="normal" in="SourceGraphic" in2="BackgroundImageFix" result="shape"/>
<feGaussianBlur stdDeviation="3.50248" result="effect1_foregroundBlur_1536_8811"/>
</filter>
</defs>
</svg>
