<svg width="500" height="590" viewBox="0 0 500 590" fill="none" xmlns="http://www.w3.org/2000/svg">
<rect width="500" height="590" rx="8" fill="#FAFAFA"/>
<g filter="url(#filter0_bd_1252_16840)">
<rect x="29" y="205" width="441" height="179" rx="10" fill="white" fill-opacity="0.1" shape-rendering="crispEdges"/>
<rect x="29.5" y="205.5" width="440" height="178" rx="9.5" stroke="url(#paint0_linear_1252_16840)" shape-rendering="crispEdges"/>
<path d="M57.55 233.64C54.82 233.64 53.672 232.282 53.532 230.392H55.324C55.45 231.4 55.856 232.24 57.55 232.24C58.656 232.24 59.44 231.624 59.44 230.7C59.44 229.776 58.978 229.426 57.354 229.16C54.96 228.838 53.826 228.11 53.826 226.234C53.826 224.596 55.226 223.364 57.312 223.364C59.468 223.364 60.756 224.344 60.952 226.262H59.244C59.062 225.212 58.46 224.764 57.312 224.764C56.178 224.764 55.59 225.31 55.59 226.08C55.59 226.892 55.926 227.298 57.662 227.55C60.014 227.872 61.232 228.544 61.232 230.546C61.232 232.282 59.762 233.64 57.55 233.64ZM65.8347 233.64C63.6787 233.64 62.1247 232.226 62.1247 229.916V229.804C62.1247 227.536 63.6787 226.024 65.7647 226.024C67.5847 226.024 69.2227 227.102 69.2227 229.72V230.21H63.8607C63.9167 231.596 64.6167 232.38 65.8767 232.38C66.8987 232.38 67.4307 231.974 67.5567 231.26H69.1947C68.9567 232.8 67.7107 233.64 65.8347 233.64ZM63.8887 229.076H67.5427C67.4587 227.816 66.8147 227.256 65.7647 227.256C64.7427 227.256 64.0567 227.942 63.8887 229.076ZM72.9478 233.626C71.4918 233.626 70.7358 232.842 70.7358 231.456V227.452H69.7558V226.178H70.7358V224.568H72.4298V226.178H74.0398V227.452H72.4298V231.302C72.4298 231.946 72.7378 232.24 73.2698 232.24C73.6058 232.24 73.8578 232.198 74.0958 232.1V233.444C73.8298 233.542 73.4658 233.626 72.9478 233.626ZM78.4417 233.5V222.79H80.1357V233.5H78.4417ZM81.9625 233.5V226.178H83.6565V233.5H81.9625ZM82.7885 224.974C82.2285 224.974 81.7805 224.554 81.7805 224.008C81.7805 223.448 82.2285 223.028 82.7885 223.028C83.3485 223.028 83.7965 223.448 83.7965 224.008C83.7965 224.554 83.3485 224.974 82.7885 224.974ZM85.4413 233.5V226.178H87.1353V227.298C87.4853 226.612 88.2833 226.024 89.3613 226.024C90.3133 226.024 91.0693 226.43 91.4333 227.34C91.9933 226.43 93.0013 226.024 93.9113 226.024C95.2553 226.024 96.3473 226.85 96.3473 228.866V233.5H94.6533V228.978C94.6533 227.9 94.1913 227.438 93.3513 227.438C92.5113 227.438 91.7413 227.998 91.7413 229.118V233.5H90.0473V228.978C90.0473 227.9 89.5713 227.438 88.7453 227.438C87.9053 227.438 87.1353 227.998 87.1353 229.118V233.5H85.4413ZM98.0548 233.5V226.178H99.7488V233.5H98.0548ZM98.8808 224.974C98.3208 224.974 97.8728 224.554 97.8728 224.008C97.8728 223.448 98.3208 223.028 98.8808 223.028C99.4408 223.028 99.8888 223.448 99.8888 224.008C99.8888 224.554 99.4408 224.974 98.8808 224.974ZM104.026 233.626C102.57 233.626 101.814 232.842 101.814 231.456V227.452H100.834V226.178H101.814V224.568H103.508V226.178H105.118V227.452H103.508V231.302C103.508 231.946 103.816 232.24 104.348 232.24C104.684 232.24 104.936 232.198 105.174 232.1V233.444C104.908 233.542 104.544 233.626 104.026 233.626ZM109.478 236.006V226.178H111.172V227.354C111.578 226.654 112.488 226.024 113.566 226.024C115.4 226.024 116.814 227.382 116.814 229.748V229.86C116.814 232.212 115.456 233.64 113.566 233.64C112.404 233.64 111.564 233.066 111.172 232.352V236.006H109.478ZM113.146 232.296C114.392 232.296 115.078 231.456 115.078 229.888V229.776C115.078 228.152 114.238 227.354 113.132 227.354C111.956 227.354 111.116 228.152 111.116 229.776V229.888C111.116 231.526 111.914 232.296 113.146 232.296ZM121.277 233.64C119.121 233.64 117.567 232.226 117.567 229.916V229.804C117.567 227.536 119.121 226.024 121.207 226.024C123.027 226.024 124.665 227.102 124.665 229.72V230.21H119.303C119.359 231.596 120.059 232.38 121.319 232.38C122.341 232.38 122.873 231.974 122.999 231.26H124.637C124.399 232.8 123.153 233.64 121.277 233.64ZM119.331 229.076H122.985C122.901 227.816 122.257 227.256 121.207 227.256C120.185 227.256 119.499 227.942 119.331 229.076ZM125.898 233.5V226.178H127.592V227.55C128.054 226.626 128.74 226.08 129.972 226.066V227.648C128.488 227.662 127.592 228.138 127.592 229.692V233.5H125.898ZM136.73 233.626C135.274 233.626 134.518 232.842 134.518 231.456V227.452H133.538V226.178H134.518V224.568H136.212V226.178H137.822V227.452H136.212V231.302C136.212 231.946 136.52 232.24 137.052 232.24C137.388 232.24 137.64 232.198 137.878 232.1V233.444C137.612 233.542 137.248 233.626 136.73 233.626ZM139.126 233.5V226.178H140.82V227.55C141.282 226.626 141.968 226.08 143.2 226.066V227.648C141.716 227.662 140.82 228.138 140.82 229.692V233.5H139.126ZM146.192 233.64C144.848 233.64 143.742 232.996 143.742 231.47C143.742 229.762 145.394 229.146 147.494 229.146H148.404V228.768C148.404 227.788 148.068 227.298 147.074 227.298C146.192 227.298 145.758 227.718 145.674 228.446H144.036C144.176 226.738 145.534 226.024 147.172 226.024C148.81 226.024 150.098 226.696 150.098 228.698V233.5H148.432V232.604C147.956 233.234 147.312 233.64 146.192 233.64ZM146.598 232.422C147.634 232.422 148.404 231.876 148.404 230.938V230.21H147.536C146.248 230.21 145.422 230.504 145.422 231.4C145.422 232.016 145.758 232.422 146.598 232.422ZM151.76 233.5V226.178H153.454V227.34C153.804 226.626 154.616 226.024 155.82 226.024C157.29 226.024 158.326 226.878 158.326 228.894V233.5H156.632V229.048C156.632 227.942 156.184 227.438 155.176 227.438C154.224 227.438 153.454 228.026 153.454 229.188V233.5H151.76ZM162.503 233.64C160.613 233.64 159.507 232.772 159.437 231.218H161.033C161.117 231.96 161.495 232.394 162.489 232.394C163.399 232.394 163.805 232.072 163.805 231.456C163.805 230.854 163.315 230.63 162.237 230.448C160.305 230.14 159.591 229.594 159.591 228.222C159.591 226.752 160.963 226.024 162.335 226.024C163.833 226.024 165.023 226.584 165.205 228.236H163.637C163.497 227.564 163.119 227.256 162.335 227.256C161.607 227.256 161.173 227.606 161.173 228.124C161.173 228.656 161.523 228.866 162.685 229.062C164.407 229.328 165.429 229.748 165.429 231.302C165.429 232.786 164.379 233.64 162.503 233.64ZM168.553 233.64C167.209 233.64 166.103 232.996 166.103 231.47C166.103 229.762 167.755 229.146 169.855 229.146H170.765V228.768C170.765 227.788 170.429 227.298 169.435 227.298C168.553 227.298 168.119 227.718 168.035 228.446H166.397C166.537 226.738 167.895 226.024 169.533 226.024C171.171 226.024 172.459 226.696 172.459 228.698V233.5H170.793V232.604C170.317 233.234 169.673 233.64 168.553 233.64ZM168.959 232.422C169.995 232.422 170.765 231.876 170.765 230.938V230.21H169.897C168.609 230.21 167.783 230.504 167.783 231.4C167.783 232.016 168.119 232.422 168.959 232.422ZM177.327 233.64C175.227 233.64 173.631 232.268 173.631 229.93V229.818C173.631 227.494 175.283 226.024 177.327 226.024C178.951 226.024 180.477 226.752 180.673 228.768H179.035C178.895 227.788 178.251 227.382 177.355 227.382C176.193 227.382 175.367 228.278 175.367 229.79V229.902C175.367 231.498 176.151 232.338 177.397 232.338C178.293 232.338 179.063 231.806 179.161 230.77H180.715C180.589 232.45 179.315 233.64 177.327 233.64ZM184.386 233.626C182.93 233.626 182.174 232.842 182.174 231.456V227.452H181.194V226.178H182.174V224.568H183.868V226.178H185.478V227.452H183.868V231.302C183.868 231.946 184.176 232.24 184.708 232.24C185.044 232.24 185.296 232.198 185.534 232.1V233.444C185.268 233.542 184.904 233.626 184.386 233.626ZM186.824 233.5V226.178H188.518V233.5H186.824ZM187.65 224.974C187.09 224.974 186.642 224.554 186.642 224.008C186.642 223.448 187.09 223.028 187.65 223.028C188.21 223.028 188.658 223.448 188.658 224.008C188.658 224.554 188.21 224.974 187.65 224.974ZM193.578 232.324C194.838 232.324 195.594 231.386 195.594 229.888V229.79C195.594 228.278 194.838 227.354 193.578 227.354C192.318 227.354 191.548 228.264 191.548 229.776V229.888C191.548 231.386 192.29 232.324 193.578 232.324ZM193.564 233.64C191.408 233.64 189.812 232.142 189.812 229.916V229.804C189.812 227.536 191.422 226.024 193.578 226.024C195.72 226.024 197.33 227.522 197.33 229.762V229.874C197.33 232.156 195.72 233.64 193.564 233.64ZM198.581 233.5V226.178H200.275V227.34C200.625 226.626 201.437 226.024 202.641 226.024C204.111 226.024 205.147 226.878 205.147 228.894V233.5H203.453V229.048C203.453 227.942 203.005 227.438 201.997 227.438C201.045 227.438 200.275 228.026 200.275 229.188V233.5H198.581Z" fill="black"/>
<path d="M223.001 227H223.008M222.334 229H223.001V231.667H223.668M228.251 225.18C228.718 225.445 229.004 225.942 229.001 226.479V231.335C229.001 231.874 228.706 232.371 228.229 232.633L223.729 235.48C223.506 235.602 223.255 235.667 223.001 235.667C222.746 235.667 222.496 235.602 222.273 235.48L217.773 232.633C217.54 232.506 217.345 232.318 217.209 232.09C217.073 231.861 217.002 231.6 217.001 231.335V226.478C217.001 225.939 217.296 225.442 217.773 225.18L222.273 222.527C222.503 222.4 222.761 222.333 223.023 222.333C223.285 222.333 223.543 222.4 223.773 222.527L228.273 225.18H228.251Z" stroke="black" stroke-opacity="0.5" stroke-width="1.84615" stroke-linecap="round" stroke-linejoin="round"/>
<g filter="url(#filter1_d_1252_16840)">
<rect x="53" y="255" width="393" height="113" rx="10" fill="white" fill-opacity="0.1" shape-rendering="crispEdges"/>
<path d="M237.58 301.05V297.27C232.45 296.91 230.41 294 230.11 290.37H233.83C234.07 292.32 234.73 293.97 237.58 294.33V287.58C233.14 286.83 230.83 285.21 230.83 281.4C230.83 278.07 233.5 275.58 237.58 275.31V272.61H239.59V275.34C243.46 275.7 245.86 277.71 246.22 281.43H242.68C242.35 279.6 241.42 278.55 239.59 278.25V284.4C244.03 285.12 246.61 286.62 246.61 290.67C246.61 294.18 244 296.97 239.59 297.27V301.05H237.58ZM242.92 291.03C242.92 289.32 242.2 288.48 239.59 287.91V294.33C241.6 294.06 242.92 292.8 242.92 291.03ZM234.37 281.07C234.37 282.63 234.94 283.53 237.58 284.07V278.16C235.51 278.4 234.37 279.57 234.37 281.07ZM258.663 294.12C261.963 294.12 263.553 291.6 263.553 286.74V285.69C263.553 281.13 261.813 278.37 258.603 278.37C255.363 278.37 253.593 280.95 253.593 285.72V286.8C253.593 291.66 255.453 294.12 258.663 294.12ZM258.573 297.3C253.113 297.3 249.573 293.28 249.573 286.83V285.75C249.573 279.24 253.173 275.25 258.573 275.25C264.003 275.25 267.543 279.21 267.543 285.66V286.74C267.543 293.19 264.183 297.3 258.573 297.3Z" fill="black"/>
<rect x="77" y="332" width="345" height="20" rx="10" fill="black" fill-opacity="0.1"/>
<rect x="77" y="332" width="25" height="20" rx="10" fill="#FFD900"/>
<g filter="url(#filter2_d_1252_16840)">
<path d="M92 326.577C92.6188 326.22 93.3812 326.22 94 326.577L105.856 333.423C106.475 333.78 106.856 334.44 106.856 335.155V348.845C106.856 349.56 106.475 350.22 105.856 350.577L94 357.423C93.3812 357.78 92.6188 357.78 92 357.423L80.1436 350.577C79.5248 350.22 79.1436 349.56 79.1436 348.845V335.155C79.1436 334.44 79.5248 333.78 80.1436 333.423L92 326.577Z" fill="#FFD900"/>
</g>
</g>
</g>
<defs>
<filter id="filter0_bd_1252_16840" x="8" y="186" width="483" height="221" filterUnits="userSpaceOnUse" color-interpolation-filters="sRGB">
<feFlood flood-opacity="0" result="BackgroundImageFix"/>
<feGaussianBlur in="BackgroundImageFix" stdDeviation="3"/>
<feComposite in2="SourceAlpha" operator="in" result="effect1_backgroundBlur_1252_16840"/>
<feColorMatrix in="SourceAlpha" type="matrix" values="0 0 0 0 0 0 0 0 0 0 0 0 0 0 0 0 0 0 127 0" result="hardAlpha"/>
<feOffset dy="2"/>
<feGaussianBlur stdDeviation="10.5"/>
<feComposite in2="hardAlpha" operator="out"/>
<feColorMatrix type="matrix" values="0 0 0 0 0 0 0 0 0 0 0 0 0 0 0 0 0 0 0.1 0"/>
<feBlend mode="normal" in2="effect1_backgroundBlur_1252_16840" result="effect2_dropShadow_1252_16840"/>
<feBlend mode="normal" in="SourceGraphic" in2="effect2_dropShadow_1252_16840" result="shape"/>
</filter>
<filter id="filter1_d_1252_16840" x="43" y="249" width="413" height="133" filterUnits="userSpaceOnUse" color-interpolation-filters="sRGB">
<feFlood flood-opacity="0" result="BackgroundImageFix"/>
<feColorMatrix in="SourceAlpha" type="matrix" values="0 0 0 0 0 0 0 0 0 0 0 0 0 0 0 0 0 0 127 0" result="hardAlpha"/>
<feOffset dy="4"/>
<feGaussianBlur stdDeviation="5"/>
<feComposite in2="hardAlpha" operator="out"/>
<feColorMatrix type="matrix" values="0 0 0 0 0 0 0 0 0 0 0 0 0 0 0 0 0 0 0.05 0"/>
<feBlend mode="normal" in2="BackgroundImageFix" result="effect1_dropShadow_1252_16840"/>
<feBlend mode="normal" in="SourceGraphic" in2="effect1_dropShadow_1252_16840" result="shape"/>
</filter>
<filter id="filter2_d_1252_16840" x="71.1436" y="317.309" width="45.7129" height="49.3811" filterUnits="userSpaceOnUse" color-interpolation-filters="sRGB">
<feFlood flood-opacity="0" result="BackgroundImageFix"/>
<feColorMatrix in="SourceAlpha" type="matrix" values="0 0 0 0 0 0 0 0 0 0 0 0 0 0 0 0 0 0 127 0" result="hardAlpha"/>
<feOffset dx="1"/>
<feGaussianBlur stdDeviation="4.5"/>
<feComposite in2="hardAlpha" operator="out"/>
<feColorMatrix type="matrix" values="0 0 0 0 0.170833 0 0 0 0 0.145208 0 0 0 0 0 0 0 0 0.29 0"/>
<feBlend mode="normal" in2="BackgroundImageFix" result="effect1_dropShadow_1252_16840"/>
<feBlend mode="normal" in="SourceGraphic" in2="effect1_dropShadow_1252_16840" result="shape"/>
</filter>
<linearGradient id="paint0_linear_1252_16840" x1="249.5" y1="205" x2="249.5" y2="384" gradientUnits="userSpaceOnUse">
<stop stop-color="#FFD900" stop-opacity="0.31"/>
<stop offset="1" stop-color="#D0D0D0" stop-opacity="0"/>
</linearGradient>
</defs>
</svg>
