<svg width="483" height="519" viewBox="0 0 483 519" fill="none" xmlns="http://www.w3.org/2000/svg">
<rect width="483" height="519" rx="5" fill="#FAFAFA"/>
<g filter="url(#filter0_d_1831_2125)">
<rect width="325" height="214" transform="translate(79 153)" fill="#FAFAFA"/>
<path d="M233.25 210L238.75 215.5L249.75 204.5M216.75 210C216.75 213.25 217.39 216.469 218.634 219.471C219.878 222.474 221.701 225.203 223.999 227.501C226.297 229.799 229.026 231.622 232.029 232.866C235.031 234.11 238.25 234.75 241.5 234.75C244.75 234.75 247.969 234.11 250.971 232.866C253.974 231.622 256.703 229.799 259.001 227.501C261.299 225.203 263.122 222.474 264.366 219.471C265.61 216.469 266.25 213.25 266.25 210C266.25 206.75 265.61 203.531 264.366 200.529C263.122 197.526 261.299 194.797 259.001 192.499C256.703 190.201 253.974 188.378 250.971 187.134C247.969 185.89 244.75 185.25 241.5 185.25C238.25 185.25 235.031 185.89 232.029 187.134C229.026 188.378 226.297 190.201 223.999 192.499C221.701 194.797 219.878 197.526 218.634 200.529C217.39 203.531 216.75 206.75 216.75 210Z" stroke="#FFD900" stroke-width="4" stroke-linecap="round" stroke-linejoin="round"/>
<path d="M183.675 288.275C178.775 288.275 176.525 285.975 176.3 282.4H180.175C180.35 284 181.025 285.325 183.675 285.325C185.45 285.325 186.625 284.35 186.625 282.95C186.625 281.525 185.875 281.025 183.25 280.625C178.675 280.025 176.8 278.65 176.8 275.2C176.8 272.15 179.35 269.875 183.3 269.875C187.325 269.875 189.675 271.675 190 275.225H186.275C186.025 273.6 185.075 272.85 183.3 272.85C181.525 272.85 180.625 273.675 180.625 274.875C180.625 276.15 181.2 276.75 183.95 277.15C188.275 277.7 190.5 278.875 190.5 282.575C190.5 285.75 187.9 288.275 183.675 288.275ZM197.319 288.275C194.769 288.275 192.869 286.775 192.869 283.35V274.925H196.469V282.85C196.469 284.625 197.194 285.475 198.744 285.475C200.269 285.475 201.469 284.525 201.469 282.6V274.925H205.069V288H201.469V285.95C200.794 287.275 199.469 288.275 197.319 288.275ZM214.202 288.275C210.377 288.275 207.477 285.9 207.477 281.625V281.425C207.477 277.2 210.502 274.625 214.227 274.625C217.252 274.625 220.052 275.95 220.377 279.7H216.952C216.702 278.175 215.777 277.475 214.302 277.475C212.427 277.475 211.177 278.875 211.177 281.375V281.575C211.177 284.2 212.352 285.55 214.377 285.55C215.827 285.55 217.002 284.7 217.177 283.025H220.452C220.252 286.125 218.002 288.275 214.202 288.275ZM228.655 288.275C224.83 288.275 221.93 285.9 221.93 281.625V281.425C221.93 277.2 224.955 274.625 228.68 274.625C231.705 274.625 234.505 275.95 234.83 279.7H231.405C231.155 278.175 230.23 277.475 228.755 277.475C226.88 277.475 225.63 278.875 225.63 281.375V281.575C225.63 284.2 226.805 285.55 228.83 285.55C230.28 285.55 231.455 284.7 231.63 283.025H234.905C234.705 286.125 232.455 288.275 228.655 288.275ZM243.208 288.275C239.258 288.275 236.383 285.8 236.383 281.625V281.425C236.383 277.3 239.308 274.625 243.108 274.625C246.483 274.625 249.483 276.6 249.483 281.275V282.275H240.058C240.158 284.45 241.333 285.7 243.308 285.7C244.983 285.7 245.808 284.975 246.033 283.875H249.458C249.033 286.7 246.783 288.275 243.208 288.275ZM240.108 280.05H245.958C245.833 278.075 244.833 277.125 243.108 277.125C241.483 277.125 240.383 278.2 240.108 280.05ZM256.728 288.275C253.203 288.275 251.153 286.725 251.028 283.9H254.403C254.553 285.075 255.128 285.75 256.703 285.75C258.103 285.75 258.753 285.225 258.753 284.325C258.753 283.425 257.978 283.05 256.103 282.775C252.628 282.25 251.278 281.25 251.278 278.7C251.278 275.975 253.778 274.625 256.453 274.625C259.353 274.625 261.528 275.675 261.853 278.675H258.528C258.328 277.6 257.728 277.1 256.478 277.1C255.303 277.1 254.628 277.65 254.628 278.45C254.628 279.275 255.253 279.6 257.153 279.875C260.428 280.35 262.228 281.175 262.228 283.975C262.228 286.8 260.178 288.275 256.728 288.275ZM269.277 288.275C265.752 288.275 263.702 286.725 263.577 283.9H266.952C267.102 285.075 267.677 285.75 269.252 285.75C270.652 285.75 271.302 285.225 271.302 284.325C271.302 283.425 270.527 283.05 268.652 282.775C265.177 282.25 263.827 281.25 263.827 278.7C263.827 275.975 266.327 274.625 269.002 274.625C271.902 274.625 274.077 275.675 274.402 278.675H271.077C270.877 277.6 270.277 277.1 269.027 277.1C267.852 277.1 267.177 277.65 267.177 278.45C267.177 279.275 267.802 279.6 269.702 279.875C272.977 280.35 274.777 281.175 274.777 283.975C274.777 286.8 272.727 288.275 269.277 288.275ZM277.676 288V277.5H275.951V274.925H277.676V273.425C277.676 270.375 279.451 268.85 282.351 268.85C283.126 268.85 283.651 268.925 284.226 269.1V271.825C283.876 271.7 283.426 271.6 282.901 271.6C281.751 271.6 281.276 272.325 281.276 273.325V274.925H284.126V277.5H281.276V288H277.676ZM290.703 288.275C288.153 288.275 286.253 286.775 286.253 283.35V274.925H289.853V282.85C289.853 284.625 290.578 285.475 292.128 285.475C293.653 285.475 294.853 284.525 294.853 282.6V274.925H298.453V288H294.853V285.95C294.178 287.275 292.853 288.275 290.703 288.275ZM301.761 288V269H305.361V288H301.761Z" fill="black"/>
<path d="M136.302 324V319.632L132.956 313.99H134.328L136.946 318.638L139.466 313.99H140.684L137.52 319.646V324H136.302ZM143.965 323.16C145.435 323.16 146.359 322.054 146.359 320.402V320.304C146.359 318.61 145.421 317.518 143.965 317.518C142.495 317.518 141.571 318.61 141.571 320.29V320.402C141.571 322.068 142.481 323.16 143.965 323.16ZM143.951 324.126C141.865 324.126 140.367 322.544 140.367 320.402V320.29C140.367 318.092 141.893 316.552 143.965 316.552C146.037 316.552 147.563 318.078 147.563 320.276V320.388C147.563 322.6 146.037 324.126 143.951 324.126ZM151.56 324.126C150.104 324.126 149.012 323.328 149.012 321.312V316.678H150.174V321.256C150.174 322.544 150.72 323.118 151.868 323.118C152.904 323.118 153.884 322.432 153.884 321.116V316.678H155.046V324H153.884V322.838C153.548 323.524 152.736 324.126 151.56 324.126ZM157.31 317.168L156.596 316.804L157.842 313.836L158.948 314.34L157.31 317.168ZM161.813 324L159.153 316.678H160.413L162.583 322.824L164.725 316.678H165.929L163.297 324H161.813ZM169.968 324.126C167.896 324.126 166.426 322.67 166.426 320.416V320.304C166.426 318.092 167.84 316.552 169.856 316.552C171.55 316.552 173.146 317.574 173.146 320.192V320.57H167.63C167.686 322.236 168.484 323.16 169.982 323.16C171.116 323.16 171.774 322.74 171.928 321.886H173.09C172.838 323.356 171.62 324.126 169.968 324.126ZM167.672 319.632H171.956C171.844 318.12 171.06 317.518 169.856 317.518C168.666 317.518 167.868 318.33 167.672 319.632ZM180.342 324.126C178.592 324.126 177.542 323.244 177.472 321.746H178.606C178.69 322.614 179.152 323.16 180.328 323.16C181.434 323.16 181.924 322.782 181.924 321.998C181.924 321.228 181.35 320.976 180.216 320.766C178.312 320.416 177.668 319.884 177.668 318.61C177.668 317.252 178.998 316.552 180.146 316.552C181.462 316.552 182.596 317.084 182.792 318.666H181.672C181.504 317.868 181.056 317.518 180.132 317.518C179.292 317.518 178.746 317.938 178.746 318.568C178.746 319.226 179.11 319.492 180.454 319.73C181.966 320.01 183.03 320.346 183.03 321.9C183.03 323.23 182.12 324.126 180.342 324.126ZM186.999 324.126C185.543 324.126 184.451 323.328 184.451 321.312V316.678H185.613V321.256C185.613 322.544 186.159 323.118 187.307 323.118C188.343 323.118 189.323 322.432 189.323 321.116V316.678H190.485V324H189.323V322.838C188.987 323.524 188.175 324.126 186.999 324.126ZM195.591 324.126C193.547 324.126 192.007 322.684 192.007 320.416V320.304C192.007 318.064 193.603 316.552 195.563 316.552C197.089 316.552 198.517 317.252 198.741 319.114H197.593C197.411 317.952 196.571 317.518 195.563 317.518C194.233 317.518 193.211 318.582 193.211 320.304V320.416C193.211 322.208 194.191 323.16 195.605 323.16C196.641 323.16 197.579 322.558 197.705 321.368H198.783C198.629 322.95 197.355 324.126 195.591 324.126ZM203.296 324.126C201.252 324.126 199.712 322.684 199.712 320.416V320.304C199.712 318.064 201.308 316.552 203.268 316.552C204.794 316.552 206.222 317.252 206.446 319.114H205.298C205.116 317.952 204.276 317.518 203.268 317.518C201.938 317.518 200.916 318.582 200.916 320.304V320.416C200.916 322.208 201.896 323.16 203.31 323.16C204.346 323.16 205.284 322.558 205.41 321.368H206.488C206.334 322.95 205.06 324.126 203.296 324.126ZM210.958 324.126C208.886 324.126 207.416 322.67 207.416 320.416V320.304C207.416 318.092 208.83 316.552 210.846 316.552C212.54 316.552 214.136 317.574 214.136 320.192V320.57H208.62C208.676 322.236 209.474 323.16 210.972 323.16C212.106 323.16 212.764 322.74 212.918 321.886H214.08C213.828 323.356 212.61 324.126 210.958 324.126ZM208.662 319.632H212.946C212.834 318.12 212.05 317.518 210.846 317.518C209.656 317.518 208.858 318.33 208.662 319.632ZM217.976 324.126C216.226 324.126 215.176 323.244 215.106 321.746H216.24C216.324 322.614 216.786 323.16 217.962 323.16C219.068 323.16 219.558 322.782 219.558 321.998C219.558 321.228 218.984 320.976 217.85 320.766C215.946 320.416 215.302 319.884 215.302 318.61C215.302 317.252 216.632 316.552 217.78 316.552C219.096 316.552 220.23 317.084 220.426 318.666H219.306C219.138 317.868 218.69 317.518 217.766 317.518C216.926 317.518 216.38 317.938 216.38 318.568C216.38 319.226 216.744 319.492 218.088 319.73C219.6 320.01 220.664 320.346 220.664 321.9C220.664 323.23 219.754 324.126 217.976 324.126ZM224.422 324.126C222.672 324.126 221.622 323.244 221.552 321.746H222.686C222.77 322.614 223.232 323.16 224.408 323.16C225.514 323.16 226.004 322.782 226.004 321.998C226.004 321.228 225.43 320.976 224.296 320.766C222.392 320.416 221.748 319.884 221.748 318.61C221.748 317.252 223.078 316.552 224.226 316.552C225.542 316.552 226.676 317.084 226.872 318.666H225.752C225.584 317.868 225.136 317.518 224.212 317.518C223.372 317.518 222.826 317.938 222.826 318.568C222.826 319.226 223.19 319.492 224.534 319.73C226.046 320.01 227.11 320.346 227.11 321.9C227.11 323.23 226.2 324.126 224.422 324.126ZM228.853 324V317.658H227.803V316.678H228.853V315.488C228.853 314.004 229.581 313.136 231.037 313.136C231.415 313.136 231.611 313.178 231.905 313.276V314.256C231.695 314.172 231.401 314.102 231.079 314.102C230.323 314.102 230.015 314.62 230.015 315.362V316.678H231.807V317.658H230.015V324H228.853ZM235.639 324.126C234.183 324.126 233.091 323.328 233.091 321.312V316.678H234.253V321.256C234.253 322.544 234.799 323.118 235.947 323.118C236.983 323.118 237.963 322.432 237.963 321.116V316.678H239.125V324H237.963V322.838C237.627 323.524 236.815 324.126 235.639 324.126ZM241.221 324V313.178H242.397V324H241.221ZM244.523 324V313.178H245.699V324H244.523ZM248.455 326.548L249.841 323.244L246.971 316.678H248.217L250.457 321.928L252.487 316.678H253.677L249.631 326.548H248.455ZM260.186 324.126C258.828 324.126 257.75 323.468 257.75 321.97C257.75 320.276 259.542 319.702 261.418 319.702H262.468V319.17C262.468 318.008 262.02 317.518 260.9 317.518C259.892 317.518 259.332 317.938 259.22 318.834H258.058C258.212 317.168 259.542 316.552 260.956 316.552C262.356 316.552 263.63 317.126 263.63 319.17V324H262.468V323.076C261.922 323.762 261.264 324.126 260.186 324.126ZM260.298 323.202C261.53 323.202 262.468 322.572 262.468 321.438V320.528H261.46C259.99 320.528 258.912 320.892 258.912 321.97C258.912 322.726 259.276 323.202 260.298 323.202ZM268.391 324.126C266.473 324.126 265.087 322.768 265.087 320.486V320.374C265.087 318.134 266.487 316.552 268.503 316.552C269.721 316.552 270.477 317.14 270.897 317.854V313.178H272.059V324H270.897V322.74C270.477 323.454 269.455 324.126 268.391 324.126ZM268.517 323.16C269.875 323.16 270.939 322.264 270.939 320.388V320.276C270.939 318.4 270.043 317.518 268.615 317.518C267.159 317.518 266.291 318.54 266.291 320.318V320.43C266.291 322.278 267.285 323.16 268.517 323.16ZM276.888 324.126C274.97 324.126 273.584 322.768 273.584 320.486V320.374C273.584 318.134 274.984 316.552 277 316.552C278.218 316.552 278.974 317.14 279.394 317.854V313.178H280.556V324H279.394V322.74C278.974 323.454 277.952 324.126 276.888 324.126ZM277.014 323.16C278.372 323.16 279.436 322.264 279.436 320.388V320.276C279.436 318.4 278.54 317.518 277.112 317.518C275.656 317.518 274.788 318.54 274.788 320.318V320.43C274.788 322.278 275.782 323.16 277.014 323.16ZM285.624 324.126C283.552 324.126 282.082 322.67 282.082 320.416V320.304C282.082 318.092 283.496 316.552 285.512 316.552C287.206 316.552 288.802 317.574 288.802 320.192V320.57H283.286C283.342 322.236 284.14 323.16 285.638 323.16C286.772 323.16 287.43 322.74 287.584 321.886H288.746C288.494 323.356 287.276 324.126 285.624 324.126ZM283.328 319.632H287.612C287.5 318.12 286.716 317.518 285.512 317.518C284.322 317.518 283.524 318.33 283.328 319.632ZM293.063 324.126C291.145 324.126 289.759 322.768 289.759 320.486V320.374C289.759 318.134 291.159 316.552 293.175 316.552C294.393 316.552 295.149 317.14 295.569 317.854V313.178H296.731V324H295.569V322.74C295.149 323.454 294.127 324.126 293.063 324.126ZM293.189 323.16C294.547 323.16 295.611 322.264 295.611 320.388V320.276C295.611 318.4 294.715 317.518 293.287 317.518C291.831 317.518 290.963 318.54 290.963 320.318V320.43C290.963 322.278 291.957 323.16 293.189 323.16ZM306.251 324.16C303.131 324.16 301.819 322.608 301.659 320.448H303.707C303.851 321.6 304.315 322.56 306.251 322.56C307.515 322.56 308.411 321.856 308.411 320.8C308.411 319.744 307.883 319.344 306.027 319.04C303.291 318.672 301.995 317.84 301.995 315.696C301.995 313.824 303.595 312.416 305.979 312.416C308.443 312.416 309.915 313.536 310.139 315.728H308.187C307.979 314.528 307.291 314.016 305.979 314.016C304.683 314.016 304.011 314.64 304.011 315.52C304.011 316.448 304.395 316.912 306.379 317.2C309.067 317.568 310.459 318.336 310.459 320.624C310.459 322.608 308.779 324.16 306.251 324.16ZM314.327 322.32H315.575C318.135 322.32 319.367 320.848 319.367 318.32V318.192C319.367 315.728 318.247 314.24 315.559 314.24H314.327V322.32ZM312.199 324V312.56H315.671C319.655 312.56 321.591 314.832 321.591 318.16V318.304C321.591 321.632 319.655 324 315.639 324H312.199ZM328.437 324.16C324.773 324.16 322.725 321.728 322.725 318.352V318.224C322.725 314.816 325.093 312.384 328.437 312.384C330.885 312.384 333.061 313.504 333.365 316.24H331.237C330.981 314.72 329.957 314.064 328.469 314.064C326.229 314.064 324.933 315.728 324.933 318.24V318.368C324.933 320.816 326.069 322.496 328.469 322.496C330.613 322.496 331.493 321.2 331.557 319.616H328.677V318.016H333.653V319.072C333.653 322.24 331.669 324.16 328.437 324.16ZM340.902 324.098C339.572 324.098 338.928 323.314 338.928 322.166V317.658H337.878V316.678H338.928V315.012H340.09V316.678H341.798V317.658H340.09V322.054C340.09 322.768 340.412 323.118 341 323.118C341.364 323.118 341.644 323.062 341.896 322.964V323.944C341.658 324.028 341.378 324.098 340.902 324.098ZM346.425 323.16C347.895 323.16 348.819 322.054 348.819 320.402V320.304C348.819 318.61 347.881 317.518 346.425 317.518C344.955 317.518 344.031 318.61 344.031 320.29V320.402C344.031 322.068 344.941 323.16 346.425 323.16ZM346.411 324.126C344.325 324.126 342.827 322.544 342.827 320.402V320.29C342.827 318.092 344.353 316.552 346.425 316.552C348.497 316.552 350.023 318.078 350.023 320.276V320.388C350.023 322.6 348.497 324.126 346.411 324.126ZM200.755 341.548L202.141 338.244L199.271 331.678H200.517L202.757 336.928L204.787 331.678H205.977L201.931 341.548H200.755ZM210.074 338.16C211.544 338.16 212.468 337.054 212.468 335.402V335.304C212.468 333.61 211.53 332.518 210.074 332.518C208.604 332.518 207.68 333.61 207.68 335.29V335.402C207.68 337.068 208.59 338.16 210.074 338.16ZM210.06 339.126C207.974 339.126 206.476 337.544 206.476 335.402V335.29C206.476 333.092 208.002 331.552 210.074 331.552C212.146 331.552 213.672 333.078 213.672 335.276V335.388C213.672 337.6 212.146 339.126 210.06 339.126ZM217.669 339.126C216.213 339.126 215.121 338.328 215.121 336.312V331.678H216.283V336.256C216.283 337.544 216.829 338.118 217.977 338.118C219.013 338.118 219.993 337.432 219.993 336.116V331.678H221.155V339H219.993V337.838C219.657 338.524 218.845 339.126 217.669 339.126ZM223.224 339V331.678H224.386V332.994C224.848 332.168 225.478 331.594 226.794 331.552V332.644C225.324 332.714 224.386 333.176 224.386 334.982V339H223.224ZM230.96 339L234.404 328.99H236L239.388 339H238.184L237.204 336.116H233.074L232.108 339H230.96ZM235.146 329.998L233.41 335.15H236.882L235.146 329.998ZM243.619 339.126C241.575 339.126 240.035 337.684 240.035 335.416V335.304C240.035 333.064 241.631 331.552 243.591 331.552C245.117 331.552 246.545 332.252 246.769 334.114H245.621C245.439 332.952 244.599 332.518 243.591 332.518C242.261 332.518 241.239 333.582 241.239 335.304V335.416C241.239 337.208 242.219 338.16 243.633 338.16C244.669 338.16 245.607 337.558 245.733 336.368H246.811C246.657 337.95 245.383 339.126 243.619 339.126ZM251.323 339.126C249.279 339.126 247.739 337.684 247.739 335.416V335.304C247.739 333.064 249.335 331.552 251.295 331.552C252.821 331.552 254.249 332.252 254.473 334.114H253.325C253.143 332.952 252.303 332.518 251.295 332.518C249.965 332.518 248.943 333.582 248.943 335.304V335.416C248.943 337.208 249.923 338.16 251.337 338.16C252.373 338.16 253.311 337.558 253.437 336.368H254.515C254.361 337.95 253.087 339.126 251.323 339.126ZM259.042 338.16C260.512 338.16 261.436 337.054 261.436 335.402V335.304C261.436 333.61 260.498 332.518 259.042 332.518C257.572 332.518 256.648 333.61 256.648 335.29V335.402C256.648 337.068 257.558 338.16 259.042 338.16ZM259.028 339.126C256.942 339.126 255.444 337.544 255.444 335.402V335.29C255.444 333.092 256.97 331.552 259.042 331.552C261.114 331.552 262.64 333.078 262.64 335.276V335.388C262.64 337.6 261.114 339.126 259.028 339.126ZM266.637 339.126C265.181 339.126 264.089 338.328 264.089 336.312V331.678H265.251V336.256C265.251 337.544 265.797 338.118 266.945 338.118C267.981 338.118 268.961 337.432 268.961 336.116V331.678H270.123V339H268.961V337.838C268.625 338.524 267.813 339.126 266.637 339.126ZM272.191 339V331.678H273.353V332.84C273.689 332.154 274.501 331.552 275.705 331.552C277.217 331.552 278.281 332.378 278.281 334.506V339H277.119V334.422C277.119 333.134 276.573 332.56 275.397 332.56C274.319 332.56 273.353 333.246 273.353 334.562V339H272.191ZM282.505 339.098C281.175 339.098 280.531 338.314 280.531 337.166V332.658H279.481V331.678H280.531V330.012H281.693V331.678H283.401V332.658H281.693V337.054C281.693 337.768 282.015 338.118 282.603 338.118C282.967 338.118 283.247 338.062 283.499 337.964V338.944C283.261 339.028 282.981 339.098 282.505 339.098Z" fill="black" fill-opacity="0.7"/>
</g>
<defs>
<filter id="filter0_d_1831_2125" x="38" y="112" width="407" height="296" filterUnits="userSpaceOnUse" color-interpolation-filters="sRGB">
<feFlood flood-opacity="0" result="BackgroundImageFix"/>
<feColorMatrix in="SourceAlpha" type="matrix" values="0 0 0 0 0 0 0 0 0 0 0 0 0 0 0 0 0 0 127 0" result="hardAlpha"/>
<feMorphology radius="2" operator="dilate" in="SourceAlpha" result="effect1_dropShadow_1831_2125"/>
<feOffset/>
<feGaussianBlur stdDeviation="19.5"/>
<feComposite in2="hardAlpha" operator="out"/>
<feColorMatrix type="matrix" values="0 0 0 0 0 0 0 0 0 0 0 0 0 0 0 0 0 0 0.1 0"/>
<feBlend mode="normal" in2="BackgroundImageFix" result="effect1_dropShadow_1831_2125"/>
<feBlend mode="normal" in="SourceGraphic" in2="effect1_dropShadow_1831_2125" result="shape"/>
</filter>
</defs>
</svg>
