<svg width="64" height="64" viewBox="0 0 64 64" fill="none" xmlns="http://www.w3.org/2000/svg">
<path d="M24 40L32 32M37.3333 26.6667L40 24M24.3947 24.3867C24.2045 24.5717 24.074 24.8094 24.0202 25.0692C23.9663 25.329 23.9915 25.599 24.0925 25.8443C24.1935 26.0897 24.3657 26.2992 24.5869 26.4457C24.808 26.5923 25.068 26.6693 25.3334 26.6667C25.682 26.6674 26.017 26.5314 26.2667 26.2881M37.728 37.7201C37.5378 37.905 37.4074 38.1427 37.3535 38.4025C37.2996 38.6623 37.3248 38.9323 37.4258 39.1777C37.5269 39.423 37.699 39.6325 37.9202 39.7791C38.1414 39.9256 38.4014 40.0026 38.6667 40.0001C39.0153 40.0007 39.3504 39.8648 39.6 39.6214M15.0427 15.0162C10.5382 19.5139 8.005 25.6168 8.00025 31.9823C7.9955 38.3478 10.5196 44.4544 15.0173 48.9589C19.5151 53.4633 25.6179 55.9965 31.9834 56.0013C38.3489 56.006 44.4556 53.4819 48.96 48.9842M53.44 42.8029C55.715 38.2958 56.5107 33.1861 55.7139 28.2007C54.9171 23.2153 52.5685 18.6081 49.0021 15.0346C45.4357 11.4611 40.8332 9.1033 35.8493 8.29664C30.8655 7.48997 25.7542 8.27552 21.2427 10.5415M8 8L56 56" stroke="black" stroke-opacity="0.5" stroke-width="4" stroke-linecap="round" stroke-linejoin="round"/>
</svg>
