<svg width="35" height="35" viewBox="0 0 35 35" fill="none" xmlns="http://www.w3.org/2000/svg">
<path d="M11.6667 16.0418V23.3335M11.6667 11.6668V11.6814M17.5 23.3335V16.0418M23.3333 23.3335V18.9585C23.3333 18.1849 23.026 17.4431 22.4791 16.8961C21.9321 16.3491 21.1902 16.0418 20.4167 16.0418C19.6431 16.0418 18.9012 16.3491 18.3543 16.8961C17.8073 17.4431 17.5 18.1849 17.5 18.9585M5.83333 8.75016C5.83333 7.97661 6.14062 7.23475 6.6876 6.68777C7.23458 6.14079 7.97645 5.8335 8.74999 5.8335H26.25C27.0235 5.8335 27.7654 6.14079 28.3124 6.68777C28.8594 7.23475 29.1667 7.97661 29.1667 8.75016V26.2502C29.1667 27.0237 28.8594 27.7656 28.3124 28.3126C27.7654 28.8595 27.0235 29.1668 26.25 29.1668H8.74999C7.97645 29.1668 7.23458 28.8595 6.6876 28.3126C6.14062 27.7656 5.83333 27.0237 5.83333 26.2502V8.75016Z" stroke="black" stroke-width="2" stroke-linecap="round" stroke-linejoin="round"/>
</svg>
