<svg width="35" height="35" viewBox="0 0 35 35" fill="none" xmlns="http://www.w3.org/2000/svg">
<path d="M22.6041 24.7918C22.6041 26.2502 24.7916 29.1668 25.5208 29.1668C27.7083 29.1668 29.6522 26.7358 30.6249 24.7918C31.5976 22.3608 31.3541 16.2854 28.4374 8.021C26.3126 6.54079 24.0624 6.06683 21.8749 5.8335L20.4574 8.63787C18.5017 8.30026 16.5026 8.30026 14.5468 8.63787L13.1249 5.8335C10.9374 6.06683 8.68723 6.54079 6.56244 8.021C3.64577 16.2854 3.40223 22.3608 4.37494 24.7918C5.34764 26.7358 7.2916 29.1668 9.4791 29.1668C10.2083 29.1668 12.3958 26.2502 12.3958 24.7918M10.2083 24.0627C15.3125 25.521 19.6875 25.521 24.7917 24.0627M11.6667 17.5002C11.6667 17.8869 11.8203 18.2579 12.0938 18.5314C12.3673 18.8048 12.7382 18.9585 13.125 18.9585C13.5118 18.9585 13.8827 18.8048 14.1562 18.5314C14.4297 18.2579 14.5833 17.8869 14.5833 17.5002C14.5833 17.1134 14.4297 16.7425 14.1562 16.469C13.8827 16.1955 13.5118 16.0418 13.125 16.0418C12.7382 16.0418 12.3673 16.1955 12.0938 16.469C11.8203 16.7425 11.6667 17.1134 11.6667 17.5002ZM20.4167 17.5002C20.4167 17.8869 20.5703 18.2579 20.8438 18.5314C21.1173 18.8048 21.4882 18.9585 21.875 18.9585C22.2618 18.9585 22.6327 18.8048 22.9062 18.5314C23.1797 18.2579 23.3333 17.8869 23.3333 17.5002C23.3333 17.1134 23.1797 16.7425 22.9062 16.469C22.6327 16.1955 22.2618 16.0418 21.875 16.0418C21.4882 16.0418 21.1173 16.1955 20.8438 16.469C20.5703 16.7425 20.4167 17.1134 20.4167 17.5002Z" stroke="black" stroke-width="2" stroke-linecap="round" stroke-linejoin="round"/>
</svg>
