<svg width="64" height="64" viewBox="0 0 64 64" fill="none" xmlns="http://www.w3.org/2000/svg">
<path d="M55.4667 34.6671C54.9836 33.8291 54.2817 33.1383 53.4362 32.6686C52.5907 32.1988 51.6334 31.9679 50.6667 32.0004H45.3333C43.9188 32.0004 42.5623 32.5623 41.5621 33.5625C40.5619 34.5627 40 35.9193 40 37.3338C40 38.7482 40.5619 40.1048 41.5621 41.105C42.5623 42.1052 43.9188 42.6671 45.3333 42.6671H50.6667C52.0812 42.6671 53.4377 43.229 54.4379 44.2292C55.4381 45.2294 56 46.5859 56 48.0004C56 49.4149 55.4381 50.7715 54.4379 51.7717C53.4377 52.7718 52.0812 53.3338 50.6667 53.3338H45.3333C44.3666 53.3663 43.4093 53.1353 42.5638 52.6656C41.7183 52.1959 41.0164 51.5051 40.5333 50.6671M48 29.3333V56M18.6667 13.3333C18.6667 14.7478 18.1048 16.1044 17.1046 17.1046C16.1044 18.1048 14.7478 18.6667 13.3333 18.6667C11.9188 18.6667 10.5623 18.1048 9.5621 17.1046C8.5619 16.1044 8 14.7478 8 13.3333C8 11.9188 8.5619 10.5623 9.5621 9.5621C10.5623 8.5619 11.9188 8 13.3333 8C14.7478 8 16.1044 8.5619 17.1046 9.5621C18.1048 10.5623 18.6667 11.9188 18.6667 13.3333ZM18.6667 13.3333H40M18.6667 13.3333V34.6667C18.6667 36.7884 19.5095 38.8232 21.0098 40.3235C22.5101 41.8238 24.5449 42.6667 26.6667 42.6667H29.3333M40 13.3333C40 14.7478 40.5619 16.1044 41.5621 17.1046C42.5623 18.1048 43.9188 18.6667 45.3333 18.6667C46.7478 18.6667 48.1044 18.1048 49.1046 17.1046C50.1048 16.1044 50.6667 14.7478 50.6667 13.3333C50.6667 11.9188 50.1048 10.5623 49.1046 9.5621C48.1044 8.5619 46.7478 8 45.3333 8C43.9188 8 42.5623 8.5619 41.5621 9.5621C40.5619 10.5623 40 11.9188 40 13.3333Z" stroke="black" stroke-opacity="0.5" stroke-width="4" stroke-linecap="round" stroke-linejoin="round"/>
</svg>
