<svg width="64" height="64" viewBox="0 0 64 64" fill="none" xmlns="http://www.w3.org/2000/svg">
<path d="M45.3333 24.0002V18.6668C45.3333 17.2523 44.7714 15.8958 43.7712 14.8956C42.771 13.8954 41.4145 13.3335 40 13.3335H13.3333C11.9188 13.3335 10.5623 13.8954 9.5621 14.8956C8.5619 15.8958 8 17.2523 8 18.6668V34.6668C8 36.0813 8.5619 37.4379 9.5621 38.4381C10.5623 39.4383 11.9188 40.0002 13.3333 40.0002H18.6667M18.6667 29.3335C18.6667 27.919 19.2286 26.5625 20.2288 25.5623C21.229 24.5621 22.5855 24.0002 24 24.0002H50.6667C52.0812 24.0002 53.4377 24.5621 54.4379 25.5623C55.4381 26.5625 56 27.919 56 29.3335V45.3335C56 46.748 55.4381 48.1045 54.4379 49.1047C53.4377 50.1049 52.0812 50.6668 50.6667 50.6668H24C22.5855 50.6668 21.229 50.1049 20.2288 49.1047C19.2286 48.1045 18.6667 46.748 18.6667 45.3335V29.3335ZM32 37.3335C32 38.748 32.5619 40.1045 33.5621 41.1047C34.5623 42.1049 35.9188 42.6668 37.3333 42.6668C38.7478 42.6668 40.1044 42.1049 41.1046 41.1047C42.1048 40.1045 42.6667 38.748 42.6667 37.3335C42.6667 35.919 42.1048 34.5625 41.1046 33.5623C40.1044 32.5621 38.7478 32.0002 37.3333 32.0002C35.9188 32.0002 34.5623 32.5621 33.5621 33.5623C32.5619 34.5625 32 35.919 32 37.3335Z" stroke="black" stroke-opacity="0.5" stroke-width="4" stroke-linecap="round" stroke-linejoin="round"/>
</svg>
