<svg width="64" height="64" viewBox="0 0 64 64" fill="none" xmlns="http://www.w3.org/2000/svg">
<path d="M56 29.3333V21.3333C56 19.9188 55.4381 18.5623 54.4379 17.5621C53.4377 16.5619 52.0812 16 50.6667 16H34.6667M34.6667 16L42.6667 24M34.6667 16L42.6667 8M8 34.6667V42.6667C8 44.0812 8.5619 45.4377 9.5621 46.4379C10.5623 47.4381 11.9188 48 13.3333 48H29.3333M29.3333 48L21.3333 40M29.3333 48L21.3333 56M8 16C8 18.1217 8.84286 20.1566 10.3431 21.6569C11.8434 23.1571 13.8783 24 16 24C18.1217 24 20.1566 23.1571 21.6569 21.6569C23.1571 20.1566 24 18.1217 24 16C24 13.8783 23.1571 11.8434 21.6569 10.3431C20.1566 8.84286 18.1217 8 16 8C13.8783 8 11.8434 8.84286 10.3431 10.3431C8.84286 11.8434 8 13.8783 8 16ZM40 48C40 50.1217 40.8429 52.1566 42.3431 53.6569C43.8434 55.1571 45.8783 56 48 56C50.1217 56 52.1566 55.1571 53.6569 53.6569C55.1571 52.1566 56 50.1217 56 48C56 45.8783 55.1571 43.8434 53.6569 42.3431C52.1566 40.8429 50.1217 40 48 40C45.8783 40 43.8434 40.8429 42.3431 42.3431C40.8429 43.8434 40 45.8783 40 48Z" stroke="black" stroke-opacity="0.5" stroke-width="4" stroke-linecap="round" stroke-linejoin="round"/>
</svg>
