<svg width="35" height="35" viewBox="0 0 35 35" fill="none" xmlns="http://www.w3.org/2000/svg">
<path d="M24.0625 10.9377V10.9522M5.83333 11.6668C5.83333 10.1197 6.44791 8.636 7.54187 7.54204C8.63583 6.44808 10.1196 5.8335 11.6667 5.8335H23.3333C24.8804 5.8335 26.3641 6.44808 27.4581 7.54204C28.5521 8.636 29.1667 10.1197 29.1667 11.6668V23.3335C29.1667 24.8806 28.5521 26.3643 27.4581 27.4583C26.3641 28.5522 24.8804 29.1668 23.3333 29.1668H11.6667C10.1196 29.1668 8.63583 28.5522 7.54187 27.4583C6.44791 26.3643 5.83333 24.8806 5.83333 23.3335V11.6668ZM13.125 17.5002C13.125 18.6605 13.5859 19.7733 14.4064 20.5938C15.2269 21.4142 16.3397 21.8752 17.5 21.8752C18.6603 21.8752 19.7731 21.4142 20.5936 20.5938C21.4141 19.7733 21.875 18.6605 21.875 17.5002C21.875 16.3398 21.4141 15.227 20.5936 14.4066C19.7731 13.5861 18.6603 13.1252 17.5 13.1252C16.3397 13.1252 15.2269 13.5861 14.4064 14.4066C13.5859 15.227 13.125 16.3398 13.125 17.5002Z" stroke="black" stroke-width="2" stroke-linecap="round" stroke-linejoin="round"/>
</svg>
