<svg width="473" height="260" viewBox="0 0 473 260" fill="none" xmlns="http://www.w3.org/2000/svg">
<g clip-path="url(#clip0_1106_2968)">
<g clip-path="url(#clip1_1106_2968)">
<rect width="393" height="852" transform="translate(40 -58)" fill="white"/>
<path d="M221.32 22.16C217.736 22.16 215.736 19.872 215.736 16.352V16.224C215.736 12.784 218.104 10.384 221.288 10.384C223.912 10.384 225.944 11.696 226.2 14.384H224.04C223.8 12.864 222.952 12.08 221.304 12.08C219.288 12.08 217.976 13.648 217.976 16.208V16.336C217.976 18.912 219.208 20.432 221.32 20.432C222.904 20.432 224.024 19.632 224.248 18.016H226.328C225.992 20.768 224.04 22.16 221.32 22.16ZM229.962 22.16C228.426 22.16 227.162 21.424 227.162 19.68C227.162 17.728 229.05 17.024 231.45 17.024H232.49V16.592C232.49 15.472 232.106 14.912 230.97 14.912C229.962 14.912 229.466 15.392 229.37 16.224H227.498C227.658 14.272 229.21 13.456 231.082 13.456C232.954 13.456 234.426 14.224 234.426 16.512V22H232.522V20.976C231.978 21.696 231.242 22.16 229.962 22.16ZM230.426 20.768C231.61 20.768 232.49 20.144 232.49 19.072V18.24H231.498C230.026 18.24 229.082 18.576 229.082 19.6C229.082 20.304 229.466 20.768 230.426 20.768ZM236.325 22V13.632H238.261V15.2C238.789 14.144 239.573 13.52 240.981 13.504V15.312C239.285 15.328 238.261 15.872 238.261 17.648V22H236.325ZM245.344 22.16C243.248 22.16 241.664 20.672 241.664 17.952V17.824C241.664 15.152 243.248 13.456 245.424 13.456C246.784 13.456 247.632 14.08 248.096 14.912V9.76H250.032V22H248.096V20.592C247.648 21.424 246.576 22.16 245.344 22.16ZM245.824 20.624C247.168 20.624 248.16 19.728 248.16 17.856V17.728C248.16 15.888 247.312 14.976 245.904 14.976C244.48 14.976 243.648 15.968 243.648 17.776V17.904C243.648 19.744 244.576 20.624 245.824 20.624ZM254.877 22.16C252.717 22.16 251.453 21.168 251.373 19.392H253.197C253.293 20.24 253.725 20.736 254.861 20.736C255.901 20.736 256.365 20.368 256.365 19.664C256.365 18.976 255.805 18.72 254.573 18.512C252.365 18.16 251.549 17.536 251.549 15.968C251.549 14.288 253.117 13.456 254.685 13.456C256.397 13.456 257.757 14.096 257.965 15.984H256.173C256.013 15.216 255.581 14.864 254.685 14.864C253.853 14.864 253.357 15.264 253.357 15.856C253.357 16.464 253.757 16.704 255.085 16.928C257.053 17.232 258.221 17.712 258.221 19.488C258.221 21.184 257.021 22.16 254.877 22.16Z" fill="black"/>
<rect x="64" y="51" width="345" height="48" rx="5" fill="black" fill-opacity="0.1"/>
<g clip-path="url(#clip2_1106_2968)">
<path d="M91.6667 78.6666L94.6667 81.6666" stroke="black" stroke-opacity="0.5" stroke-linecap="round" stroke-linejoin="round"/>
<path d="M93.3333 74.3334C93.3333 71.0197 90.647 68.3334 87.3333 68.3334C84.0195 68.3334 81.3333 71.0197 81.3333 74.3334C81.3333 77.6471 84.0195 80.3334 87.3333 80.3334C90.647 80.3334 93.3333 77.6471 93.3333 74.3334Z" stroke="black" stroke-opacity="0.5" stroke-linejoin="round"/>
</g>
<path d="M108.494 79.126C105.82 79.126 104.854 77.656 104.672 75.948H105.848C106.002 77.138 106.478 78.146 108.494 78.146C109.782 78.146 110.776 77.39 110.776 76.256C110.776 75.122 110.258 74.646 108.354 74.338C106.254 74.016 105.008 73.358 105.008 71.58C105.008 70.04 106.338 68.864 108.228 68.864C110.23 68.864 111.476 69.844 111.672 71.622H110.58C110.342 70.362 109.614 69.844 108.228 69.844C106.856 69.844 106.142 70.53 106.142 71.468C106.142 72.448 106.506 72.952 108.55 73.26C110.776 73.61 111.952 74.282 111.952 76.172C111.952 77.852 110.482 79.126 108.494 79.126ZM116.669 79.126C114.597 79.126 113.127 77.67 113.127 75.416V75.304C113.127 73.092 114.541 71.552 116.557 71.552C118.251 71.552 119.847 72.574 119.847 75.192V75.57H114.331C114.387 77.236 115.185 78.16 116.683 78.16C117.817 78.16 118.475 77.74 118.629 76.886H119.791C119.539 78.356 118.321 79.126 116.669 79.126ZM114.373 74.632H118.657C118.545 73.12 117.761 72.518 116.557 72.518C115.367 72.518 114.569 73.33 114.373 74.632ZM123.253 79.126C121.895 79.126 120.817 78.468 120.817 76.97C120.817 75.276 122.609 74.702 124.485 74.702H125.535V74.17C125.535 73.008 125.087 72.518 123.967 72.518C122.959 72.518 122.399 72.938 122.287 73.834H121.125C121.279 72.168 122.609 71.552 124.023 71.552C125.423 71.552 126.697 72.126 126.697 74.17V79H125.535V78.076C124.989 78.762 124.331 79.126 123.253 79.126ZM123.365 78.202C124.597 78.202 125.535 77.572 125.535 76.438V75.528H124.527C123.057 75.528 121.979 75.892 121.979 76.97C121.979 77.726 122.343 78.202 123.365 78.202ZM128.699 79V71.678H129.861V72.994C130.323 72.168 130.953 71.594 132.269 71.552V72.644C130.799 72.714 129.861 73.176 129.861 74.982V79H128.699ZM136.516 79.126C134.472 79.126 132.932 77.684 132.932 75.416V75.304C132.932 73.064 134.528 71.552 136.488 71.552C138.014 71.552 139.442 72.252 139.666 74.114H138.518C138.336 72.952 137.496 72.518 136.488 72.518C135.158 72.518 134.136 73.582 134.136 75.304V75.416C134.136 77.208 135.116 78.16 136.53 78.16C137.566 78.16 138.504 77.558 138.63 76.368H139.708C139.554 77.95 138.28 79.126 136.516 79.126ZM141.182 79V68.178H142.344V72.84C142.68 72.154 143.492 71.552 144.696 71.552C146.208 71.552 147.272 72.378 147.272 74.506V79H146.11V74.422C146.11 73.134 145.564 72.56 144.388 72.56C143.31 72.56 142.344 73.246 142.344 74.562V79H141.182Z" fill="black" fill-opacity="0.3"/>
<rect x="64.5" y="123.5" width="344" height="65" rx="4.5" stroke="black" stroke-opacity="0.1"/>
<mask id="mask0_1106_2968" style="mask-type:alpha" maskUnits="userSpaceOnUse" x="76" y="140" width="32" height="32">
<circle cx="92" cy="156" r="16" fill="#D9D9D9"/>
</mask>
<g mask="url(#mask0_1106_2968)">
<rect x="66.8555" y="138.854" width="49.1429" height="34.2857" rx="2.13333" fill="white"/>
<mask id="mask1_1106_2968" style="mask-type:luminance" maskUnits="userSpaceOnUse" x="66" y="138" width="50" height="36">
<rect x="66.8555" y="138.854" width="49.1429" height="34.2857" rx="2.13333" fill="white"/>
</mask>
<g mask="url(#mask1_1106_2968)">
<path fill-rule="evenodd" clip-rule="evenodd" d="M115.998 138.854H66.8555V141.14H115.998V138.854ZM115.998 143.426H66.8555V145.712H115.998V143.426ZM66.8555 147.997H115.998V150.283H66.8555V147.997ZM115.998 152.569H66.8555V154.855H115.998V152.569ZM66.8555 157.14H115.998V159.426H66.8555V157.14ZM115.998 161.712H66.8555V163.997H115.998V161.712ZM66.8555 166.283H115.998V168.569H66.8555V166.283ZM115.998 170.854H66.8555V173.14H115.998V170.854Z" fill="#D02F44"/>
<rect x="66.8555" y="138.854" width="21.0612" height="16" fill="#46467F"/>
<g filter="url(#filter0_d_1106_2968)">
<path fill-rule="evenodd" clip-rule="evenodd" d="M71.5357 142.283C71.5357 142.914 71.0118 143.426 70.3656 143.426C69.7194 143.426 69.1956 142.914 69.1956 142.283C69.1956 141.652 69.7194 141.14 70.3656 141.14C71.0118 141.14 71.5357 141.652 71.5357 142.283ZM76.2159 142.283C76.2159 142.914 75.6921 143.426 75.0459 143.426C74.3996 143.426 73.8758 142.914 73.8758 142.283C73.8758 141.652 74.3996 141.14 75.0459 141.14C75.6921 141.14 76.2159 141.652 76.2159 142.283ZM79.7261 143.426C80.3723 143.426 80.8961 142.914 80.8961 142.283C80.8961 141.652 80.3723 141.14 79.7261 141.14C79.0798 141.14 78.556 141.652 78.556 142.283C78.556 142.914 79.0798 143.426 79.7261 143.426ZM85.5766 142.283C85.5766 142.914 85.0527 143.426 84.4065 143.426C83.7603 143.426 83.2365 142.914 83.2365 142.283C83.2365 141.652 83.7603 141.14 84.4065 141.14C85.0527 141.14 85.5766 141.652 85.5766 142.283ZM72.7057 145.712C73.352 145.712 73.8758 145.2 73.8758 144.569C73.8758 143.938 73.352 143.426 72.7057 143.426C72.0595 143.426 71.5357 143.938 71.5357 144.569C71.5357 145.2 72.0595 145.712 72.7057 145.712ZM78.556 144.569C78.556 145.2 78.0322 145.712 77.386 145.712C76.7397 145.712 76.2159 145.2 76.2159 144.569C76.2159 143.938 76.7397 143.426 77.386 143.426C78.0322 143.426 78.556 143.938 78.556 144.569ZM82.0664 145.712C82.7126 145.712 83.2365 145.2 83.2365 144.569C83.2365 143.938 82.7126 143.426 82.0664 143.426C81.4202 143.426 80.8964 143.938 80.8964 144.569C80.8964 145.2 81.4202 145.712 82.0664 145.712ZM85.5766 146.855C85.5766 147.486 85.0527 147.997 84.4065 147.997C83.7603 147.997 83.2365 147.486 83.2365 146.855C83.2365 146.223 83.7603 145.712 84.4065 145.712C85.0527 145.712 85.5766 146.223 85.5766 146.855ZM79.7261 147.997C80.3723 147.997 80.8961 147.486 80.8961 146.855C80.8961 146.223 80.3723 145.712 79.7261 145.712C79.0798 145.712 78.556 146.223 78.556 146.855C78.556 147.486 79.0798 147.997 79.7261 147.997ZM76.2159 146.855C76.2159 147.486 75.6921 147.997 75.0459 147.997C74.3996 147.997 73.8758 147.486 73.8758 146.855C73.8758 146.223 74.3996 145.712 75.0459 145.712C75.6921 145.712 76.2159 146.223 76.2159 146.855ZM70.3656 147.997C71.0119 147.997 71.5357 147.486 71.5357 146.855C71.5357 146.223 71.0119 145.712 70.3656 145.712C69.7194 145.712 69.1956 146.223 69.1956 146.855C69.1956 147.486 69.7194 147.997 70.3656 147.997ZM73.8758 149.14C73.8758 149.771 73.352 150.283 72.7057 150.283C72.0595 150.283 71.5357 149.771 71.5357 149.14C71.5357 148.509 72.0595 147.997 72.7057 147.997C73.352 147.997 73.8758 148.509 73.8758 149.14ZM77.386 150.283C78.0322 150.283 78.556 149.771 78.556 149.14C78.556 148.509 78.0322 147.997 77.386 147.997C76.7397 147.997 76.2159 148.509 76.2159 149.14C76.2159 149.771 76.7397 150.283 77.386 150.283ZM83.2365 149.14C83.2365 149.771 82.7126 150.283 82.0664 150.283C81.4202 150.283 80.8964 149.771 80.8964 149.14C80.8964 148.509 81.4202 147.997 82.0664 147.997C82.7126 147.997 83.2365 148.509 83.2365 149.14ZM84.4065 152.569C85.0527 152.569 85.5766 152.057 85.5766 151.426C85.5766 150.795 85.0527 150.283 84.4065 150.283C83.7603 150.283 83.2365 150.795 83.2365 151.426C83.2365 152.057 83.7603 152.569 84.4065 152.569ZM80.8961 151.426C80.8961 152.057 80.3723 152.569 79.7261 152.569C79.0798 152.569 78.556 152.057 78.556 151.426C78.556 150.795 79.0798 150.283 79.7261 150.283C80.3723 150.283 80.8961 150.795 80.8961 151.426ZM75.0459 152.569C75.6921 152.569 76.2159 152.057 76.2159 151.426C76.2159 150.795 75.6921 150.283 75.0459 150.283C74.3996 150.283 73.8758 150.795 73.8758 151.426C73.8758 152.057 74.3996 152.569 75.0459 152.569ZM71.5357 151.426C71.5357 152.057 71.0119 152.569 70.3656 152.569C69.7194 152.569 69.1956 152.057 69.1956 151.426C69.1956 150.795 69.7194 150.283 70.3656 150.283C71.0119 150.283 71.5357 150.795 71.5357 151.426Z" fill="url(#paint0_linear_1106_2968)"/>
</g>
</g>
</g>
<path d="M128.998 151.14C126.492 151.14 125.064 149.768 125.064 147.192V140.99H126.94V147.052C126.94 148.886 127.528 149.642 129.012 149.642C130.454 149.642 131.182 148.998 131.182 146.926V140.99H133.058V147.08C133.058 149.698 131.644 151.14 128.998 151.14ZM134.777 151V143.678H136.471V144.84C136.821 144.126 137.633 143.524 138.837 143.524C140.307 143.524 141.343 144.378 141.343 146.394V151H139.649V146.548C139.649 145.442 139.201 144.938 138.193 144.938C137.241 144.938 136.471 145.526 136.471 146.688V151H134.777ZM143.056 151V143.678H144.75V151H143.056ZM143.882 142.474C143.322 142.474 142.874 142.054 142.874 141.508C142.874 140.948 143.322 140.528 143.882 140.528C144.442 140.528 144.89 140.948 144.89 141.508C144.89 142.054 144.442 142.474 143.882 142.474ZM149.027 151.126C147.571 151.126 146.815 150.342 146.815 148.956V144.952H145.835V143.678H146.815V142.068H148.509V143.678H150.119V144.952H148.509V148.802C148.509 149.446 148.817 149.74 149.349 149.74C149.685 149.74 149.937 149.698 150.175 149.6V150.944C149.909 151.042 149.545 151.126 149.027 151.126ZM154.643 151.14C152.487 151.14 150.933 149.726 150.933 147.416V147.304C150.933 145.036 152.487 143.524 154.573 143.524C156.393 143.524 158.031 144.602 158.031 147.22V147.71H152.669C152.725 149.096 153.425 149.88 154.685 149.88C155.707 149.88 156.239 149.474 156.365 148.76H158.003C157.765 150.3 156.519 151.14 154.643 151.14ZM152.697 146.576H156.351C156.267 145.316 155.623 144.756 154.573 144.756C153.551 144.756 152.865 145.442 152.697 146.576ZM162.008 151.14C160.174 151.14 158.788 149.838 158.788 147.458V147.346C158.788 145.008 160.174 143.524 162.078 143.524C163.268 143.524 164.01 144.07 164.416 144.798V140.29H166.11V151H164.416V149.768C164.024 150.496 163.086 151.14 162.008 151.14ZM162.428 149.796C163.604 149.796 164.472 149.012 164.472 147.374V147.262C164.472 145.652 163.73 144.854 162.498 144.854C161.252 144.854 160.524 145.722 160.524 147.304V147.416C160.524 149.026 161.336 149.796 162.428 149.796ZM174.442 151.14C171.712 151.14 170.564 149.782 170.424 147.892H172.216C172.342 148.9 172.748 149.74 174.442 149.74C175.548 149.74 176.332 149.124 176.332 148.2C176.332 147.276 175.87 146.926 174.246 146.66C171.852 146.338 170.718 145.61 170.718 143.734C170.718 142.096 172.118 140.864 174.204 140.864C176.36 140.864 177.648 141.844 177.844 143.762H176.136C175.954 142.712 175.352 142.264 174.204 142.264C173.07 142.264 172.482 142.81 172.482 143.58C172.482 144.392 172.818 144.798 174.554 145.05C176.906 145.372 178.124 146.044 178.124 148.046C178.124 149.782 176.654 151.14 174.442 151.14ZM181.998 151.126C180.542 151.126 179.786 150.342 179.786 148.956V144.952H178.806V143.678H179.786V142.068H181.48V143.678H183.09V144.952H181.48V148.802C181.48 149.446 181.788 149.74 182.32 149.74C182.656 149.74 182.908 149.698 183.146 149.6V150.944C182.88 151.042 182.516 151.126 181.998 151.126ZM186.381 151.14C185.037 151.14 183.931 150.496 183.931 148.97C183.931 147.262 185.583 146.646 187.683 146.646H188.593V146.268C188.593 145.288 188.257 144.798 187.263 144.798C186.381 144.798 185.947 145.218 185.863 145.946H184.225C184.365 144.238 185.723 143.524 187.361 143.524C188.999 143.524 190.287 144.196 190.287 146.198V151H188.621V150.104C188.145 150.734 187.501 151.14 186.381 151.14ZM186.787 149.922C187.823 149.922 188.593 149.376 188.593 148.438V147.71H187.725C186.437 147.71 185.611 148.004 185.611 148.9C185.611 149.516 185.947 149.922 186.787 149.922ZM194.44 151.126C192.984 151.126 192.228 150.342 192.228 148.956V144.952H191.248V143.678H192.228V142.068H193.922V143.678H195.532V144.952H193.922V148.802C193.922 149.446 194.23 149.74 194.762 149.74C195.098 149.74 195.35 149.698 195.588 149.6V150.944C195.322 151.042 194.958 151.126 194.44 151.126ZM200.056 151.14C197.9 151.14 196.346 149.726 196.346 147.416V147.304C196.346 145.036 197.9 143.524 199.986 143.524C201.806 143.524 203.444 144.602 203.444 147.22V147.71H198.082C198.138 149.096 198.838 149.88 200.098 149.88C201.12 149.88 201.652 149.474 201.778 148.76H203.416C203.178 150.3 201.932 151.14 200.056 151.14ZM198.11 146.576H201.764C201.68 145.316 201.036 144.756 199.986 144.756C198.964 144.756 198.278 145.442 198.11 146.576ZM209.735 149.53H210.827C213.067 149.53 214.145 148.242 214.145 146.03V145.918C214.145 143.762 213.165 142.46 210.813 142.46H209.735V149.53ZM207.873 151V140.99H210.911C214.397 140.99 216.091 142.978 216.091 145.89V146.016C216.091 148.928 214.397 151 210.883 151H207.873ZM220.723 149.824C221.983 149.824 222.739 148.886 222.739 147.388V147.29C222.739 145.778 221.983 144.854 220.723 144.854C219.463 144.854 218.693 145.764 218.693 147.276V147.388C218.693 148.886 219.435 149.824 220.723 149.824ZM220.709 151.14C218.553 151.14 216.957 149.642 216.957 147.416V147.304C216.957 145.036 218.567 143.524 220.723 143.524C222.865 143.524 224.475 145.022 224.475 147.262V147.374C224.475 149.656 222.865 151.14 220.709 151.14ZM225.768 151V140.29H227.462V151H225.768ZM229.289 151V140.29H230.983V151H229.289ZM234.686 151.14C233.342 151.14 232.236 150.496 232.236 148.97C232.236 147.262 233.888 146.646 235.988 146.646H236.898V146.268C236.898 145.288 236.562 144.798 235.568 144.798C234.686 144.798 234.252 145.218 234.168 145.946H232.53C232.67 144.238 234.028 143.524 235.666 143.524C237.304 143.524 238.592 144.196 238.592 146.198V151H236.926V150.104C236.45 150.734 235.806 151.14 234.686 151.14ZM235.092 149.922C236.128 149.922 236.898 149.376 236.898 148.438V147.71H236.03C234.742 147.71 233.916 148.004 233.916 148.9C233.916 149.516 234.252 149.922 235.092 149.922ZM240.253 151V143.678H241.947V145.05C242.409 144.126 243.095 143.58 244.327 143.566V145.148C242.843 145.162 241.947 145.638 241.947 147.192V151H240.253ZM248.37 147.794V146.394H251.73V147.794H248.37ZM260.295 151.14C257.789 151.14 256.361 149.768 256.361 147.192V140.99H258.237V147.052C258.237 148.886 258.825 149.642 260.309 149.642C261.751 149.642 262.479 148.998 262.479 146.926V140.99H264.355V147.08C264.355 149.698 262.941 151.14 260.295 151.14ZM269.684 151.14C266.954 151.14 265.806 149.782 265.666 147.892H267.458C267.584 148.9 267.99 149.74 269.684 149.74C270.79 149.74 271.574 149.124 271.574 148.2C271.574 147.276 271.112 146.926 269.488 146.66C267.094 146.338 265.96 145.61 265.96 143.734C265.96 142.096 267.36 140.864 269.446 140.864C271.602 140.864 272.89 141.844 273.086 143.762H271.378C271.196 142.712 270.594 142.264 269.446 142.264C268.312 142.264 267.724 142.81 267.724 143.58C267.724 144.392 268.06 144.798 269.796 145.05C272.148 145.372 273.366 146.044 273.366 148.046C273.366 149.782 271.896 151.14 269.684 151.14ZM276.751 149.53H277.843C280.083 149.53 281.161 148.242 281.161 146.03V145.918C281.161 143.762 280.181 142.46 277.829 142.46H276.751V149.53ZM274.889 151V140.99H277.927C281.413 140.99 283.107 142.978 283.107 145.89V146.016C283.107 148.928 281.413 151 277.899 151H274.889Z" fill="black"/>
<path d="M127.42 171.62V170.096C125.368 169.952 124.684 168.764 124.54 167.384H125.548C125.668 168.32 125.956 169.148 127.42 169.28V165.944C125.836 165.644 124.888 165.08 124.888 163.64C124.888 162.392 125.92 161.42 127.42 161.324V160.244H128.128V161.336C129.568 161.468 130.468 162.284 130.624 163.676H129.688C129.508 162.752 129.016 162.272 128.128 162.152V165.152C129.892 165.464 130.804 166.028 130.804 167.576C130.804 168.944 129.688 170 128.128 170.096V171.62H127.42ZM129.808 167.648C129.808 166.76 129.436 166.34 128.128 166.064V169.28C129.088 169.184 129.808 168.536 129.808 167.648ZM125.836 163.544C125.836 164.3 126.088 164.756 127.42 165.032V162.14C126.412 162.224 125.836 162.8 125.836 163.544ZM131.511 170V169.76L134.919 166.172C135.699 165.344 136.155 164.564 136.155 163.688C136.155 162.728 135.591 162.152 134.619 162.152C133.623 162.152 132.975 162.716 132.807 164.06H131.835C131.967 162.38 132.987 161.312 134.619 161.312C136.203 161.312 137.211 162.248 137.211 163.724C137.211 164.78 136.539 165.812 135.483 166.844L133.119 169.148H137.259V170H131.511ZM142.03 170V168.2H137.734V167.864L141.658 161.42H143.05V167.348H144.238V168.2H143.05V170H142.03ZM139.054 167.348H142.03V162.212L139.054 167.348ZM147.804 170.108C145.956 170.108 145.068 169.088 144.948 167.684H145.944C146.112 168.62 146.484 169.268 147.792 169.268C148.956 169.268 149.676 168.488 149.676 167.192C149.676 165.98 148.968 165.188 147.876 165.188C146.88 165.188 146.304 165.5 145.848 166.016H145.464V161.42H150.288V162.32H146.328V164.936C146.676 164.612 147.264 164.348 148.08 164.348C149.616 164.348 150.744 165.44 150.744 167.192C150.744 169.004 149.436 170.108 147.804 170.108ZM155.305 169.244C156.805 169.244 157.573 168.092 157.573 165.92V165.44C157.573 163.448 156.733 162.152 155.281 162.152C153.829 162.152 152.965 163.352 152.965 165.464V165.944C152.965 168.116 153.877 169.244 155.305 169.244ZM155.305 170.108C153.253 170.108 151.897 168.452 151.897 165.956V165.476C151.897 162.944 153.181 161.312 155.281 161.312C157.393 161.312 158.629 163.004 158.629 165.452V165.932C158.629 168.428 157.417 170.108 155.305 170.108ZM160.199 170.06C159.779 170.06 159.431 169.724 159.431 169.292C159.431 168.86 159.779 168.524 160.199 168.524C160.619 168.524 160.967 168.86 160.967 169.292C160.967 169.724 160.619 170.06 160.199 170.06ZM164.77 170.096C163.186 170.096 162.238 169.268 162.01 167.888H163.018C163.21 168.728 163.69 169.244 164.794 169.244C166.162 169.244 166.966 168.116 166.99 165.836C166.582 166.532 165.754 166.976 164.77 166.976C163.102 166.976 161.95 165.788 161.95 164.168C161.95 162.452 163.102 161.3 164.914 161.3C166.942 161.3 167.998 162.668 167.998 165.14V165.68C167.998 168.524 166.822 170.096 164.77 170.096ZM164.926 166.16C166.078 166.16 166.894 165.416 166.894 164.3C166.894 162.896 166.066 162.116 164.914 162.116C163.786 162.116 163.018 162.908 163.018 164.12C163.018 165.356 163.762 166.16 164.926 166.16ZM172.62 169.244C174.12 169.244 174.888 168.092 174.888 165.92V165.44C174.888 163.448 174.048 162.152 172.596 162.152C171.144 162.152 170.28 163.352 170.28 165.464V165.944C170.28 168.116 171.192 169.244 172.62 169.244ZM172.62 170.108C170.568 170.108 169.212 168.452 169.212 165.956V165.476C169.212 162.944 170.496 161.312 172.596 161.312C174.708 161.312 175.944 163.004 175.944 165.452V165.932C175.944 168.428 174.732 170.108 172.62 170.108Z" fill="black" fill-opacity="0.5"/>
<rect x="64.5" y="205.5" width="344" height="65" rx="4.5" stroke="black" stroke-opacity="0.1"/>
<g clip-path="url(#clip3_1106_2968)">
<g clip-path="url(#clip4_1106_2968)">
<path d="M75.543 222H108.457V254.914H75.543V222Z" fill="#012169"/>
<path d="M108.457 222V226.114L96.243 238.457L108.457 250.479V254.914H104.15L91.8715 242.829L79.9144 254.914H75.543V250.543L87.5001 238.521L75.543 226.757V222H79.5287L91.8715 234.086L103.829 222H108.457Z" fill="white"/>
<path d="M87.3715 242.829L88.0787 245.014L78.243 254.914H75.543V254.721L87.3715 242.829ZM95.343 242.057L98.8144 242.571L108.457 252.021V254.914L95.343 242.057ZM108.457 222L96.1144 234.6L95.8573 231.771L105.5 222H108.457ZM75.543 222.064L87.9501 234.214L84.1573 233.7L75.543 225.15V222.064Z" fill="#C8102E"/>
<path d="M86.8573 222V254.914H97.143V222H86.8573ZM75.543 233.314V243.6H108.457V233.314H75.543Z" fill="white"/>
<path d="M75.543 235.371V241.543H108.457V235.371H75.543ZM88.9144 222V254.914H95.0858V222H88.9144Z" fill="#C8102E"/>
</g>
</g>
<path d="M129.642 233.14C126.436 233.14 124.644 231.012 124.644 228.058V227.946C124.644 224.964 126.716 222.836 129.642 222.836C131.784 222.836 133.688 223.816 133.954 226.21H132.092C131.868 224.88 130.972 224.306 129.67 224.306C127.71 224.306 126.576 225.762 126.576 227.96V228.072C126.576 230.214 127.57 231.684 129.67 231.684C131.546 231.684 132.316 230.55 132.372 229.164H129.852V227.764H134.206V228.688C134.206 231.46 132.47 233.14 129.642 233.14ZM135.583 233V225.678H137.277V227.05C137.739 226.126 138.425 225.58 139.657 225.566V227.148C138.173 227.162 137.277 227.638 137.277 229.192V233H135.583ZM143.951 233.14C141.795 233.14 140.241 231.726 140.241 229.416V229.304C140.241 227.036 141.795 225.524 143.881 225.524C145.701 225.524 147.339 226.602 147.339 229.22V229.71H141.977C142.033 231.096 142.733 231.88 143.993 231.88C145.015 231.88 145.547 231.474 145.673 230.76H147.311C147.073 232.3 145.827 233.14 143.951 233.14ZM142.005 228.576H145.659C145.575 227.316 144.931 226.756 143.881 226.756C142.859 226.756 142.173 227.442 142.005 228.576ZM150.559 233.14C149.215 233.14 148.109 232.496 148.109 230.97C148.109 229.262 149.761 228.646 151.861 228.646H152.771V228.268C152.771 227.288 152.435 226.798 151.441 226.798C150.559 226.798 150.125 227.218 150.041 227.946H148.403C148.543 226.238 149.901 225.524 151.539 225.524C153.177 225.524 154.465 226.196 154.465 228.198V233H152.799V232.104C152.323 232.734 151.679 233.14 150.559 233.14ZM150.965 231.922C152.001 231.922 152.771 231.376 152.771 230.438V229.71H151.903C150.615 229.71 149.789 230.004 149.789 230.9C149.789 231.516 150.125 231.922 150.965 231.922ZM158.618 233.126C157.162 233.126 156.406 232.342 156.406 230.956V226.952H155.426V225.678H156.406V224.068H158.1V225.678H159.71V226.952H158.1V230.802C158.1 231.446 158.408 231.74 158.94 231.74C159.276 231.74 159.528 231.698 159.766 231.6V232.944C159.5 233.042 159.136 233.126 158.618 233.126ZM164.21 233V222.99H167.794C169.852 222.99 171.07 223.774 171.07 225.594V225.65C171.07 226.644 170.622 227.428 169.488 227.778C170.846 228.072 171.49 228.814 171.49 230.144V230.2C171.49 232.062 170.258 233 168.06 233H164.21ZM166.03 231.67H167.836C169.082 231.67 169.656 231.11 169.656 230.074V230.018C169.656 228.982 169.082 228.464 167.71 228.464H166.03V231.67ZM166.03 227.204H167.57C168.802 227.204 169.278 226.756 169.278 225.734V225.678C169.278 224.726 168.732 224.32 167.542 224.32H166.03V227.204ZM172.814 233V225.678H174.508V227.05C174.97 226.126 175.656 225.58 176.888 225.566V227.148C175.404 227.162 174.508 227.638 174.508 229.192V233H172.814ZM178.14 233V225.678H179.834V233H178.14ZM178.966 224.474C178.406 224.474 177.958 224.054 177.958 223.508C177.958 222.948 178.406 222.528 178.966 222.528C179.526 222.528 179.974 222.948 179.974 223.508C179.974 224.054 179.526 224.474 178.966 224.474ZM184.111 233.126C182.655 233.126 181.899 232.342 181.899 230.956V226.952H180.919V225.678H181.899V224.068H183.593V225.678H185.203V226.952H183.593V230.802C183.593 231.446 183.901 231.74 184.433 231.74C184.769 231.74 185.021 231.698 185.259 231.6V232.944C184.993 233.042 184.629 233.126 184.111 233.126ZM186.549 233V225.678H188.243V233H186.549ZM187.375 224.474C186.815 224.474 186.367 224.054 186.367 223.508C186.367 222.948 186.815 222.528 187.375 222.528C187.935 222.528 188.383 222.948 188.383 223.508C188.383 224.054 187.935 224.474 187.375 224.474ZM192.534 233.14C190.644 233.14 189.538 232.272 189.468 230.718H191.064C191.148 231.46 191.526 231.894 192.52 231.894C193.43 231.894 193.836 231.572 193.836 230.956C193.836 230.354 193.346 230.13 192.268 229.948C190.336 229.64 189.622 229.094 189.622 227.722C189.622 226.252 190.994 225.524 192.366 225.524C193.864 225.524 195.054 226.084 195.236 227.736H193.668C193.528 227.064 193.15 226.756 192.366 226.756C191.638 226.756 191.204 227.106 191.204 227.624C191.204 228.156 191.554 228.366 192.716 228.562C194.438 228.828 195.46 229.248 195.46 230.802C195.46 232.286 194.41 233.14 192.534 233.14ZM196.666 233V222.29H198.36V226.84C198.71 226.126 199.522 225.524 200.726 225.524C202.196 225.524 203.232 226.378 203.232 228.394V233H201.538V228.548C201.538 227.442 201.09 226.938 200.082 226.938C199.13 226.938 198.36 227.526 198.36 228.688V233H196.666ZM208.099 233V222.99H211.319C213.559 222.99 215.029 223.984 215.029 226.084V226.14C215.029 228.254 213.503 229.192 211.361 229.192H209.961V233H208.099ZM209.961 227.848H211.319C212.551 227.848 213.209 227.246 213.209 226.14V226.084C213.209 224.894 212.509 224.432 211.319 224.432H209.961V227.848ZM219.281 231.824C220.541 231.824 221.297 230.886 221.297 229.388V229.29C221.297 227.778 220.541 226.854 219.281 226.854C218.021 226.854 217.251 227.764 217.251 229.276V229.388C217.251 230.886 217.993 231.824 219.281 231.824ZM219.267 233.14C217.111 233.14 215.515 231.642 215.515 229.416V229.304C215.515 227.036 217.125 225.524 219.281 225.524C221.423 225.524 223.033 227.022 223.033 229.262V229.374C223.033 231.656 221.423 233.14 219.267 233.14ZM226.734 233.14C225.292 233.14 224.214 232.314 224.214 230.368V225.678H225.908V230.172C225.908 231.278 226.37 231.782 227.35 231.782C228.26 231.782 229.058 231.194 229.058 230.032V225.678H230.752V233H229.058V231.852C228.694 232.566 227.924 233.14 226.734 233.14ZM232.48 233V225.678H234.174V226.84C234.524 226.126 235.336 225.524 236.54 225.524C238.01 225.524 239.046 226.378 239.046 228.394V233H237.352V228.548C237.352 227.442 236.904 226.938 235.896 226.938C234.944 226.938 234.174 227.526 234.174 228.688V233H232.48ZM243.462 233.14C241.628 233.14 240.242 231.838 240.242 229.458V229.346C240.242 227.008 241.628 225.524 243.532 225.524C244.722 225.524 245.464 226.07 245.87 226.798V222.29H247.564V233H245.87V231.768C245.478 232.496 244.54 233.14 243.462 233.14ZM243.882 231.796C245.058 231.796 245.926 231.012 245.926 229.374V229.262C245.926 227.652 245.184 226.854 243.952 226.854C242.706 226.854 241.978 227.722 241.978 229.304V229.416C241.978 231.026 242.79 231.796 243.882 231.796ZM252.129 229.794V228.394H255.489V229.794H252.129ZM264.699 233.14C261.493 233.14 259.701 231.012 259.701 228.058V227.946C259.701 224.964 261.773 222.836 264.699 222.836C266.841 222.836 268.745 223.816 269.011 226.21H267.149C266.925 224.88 266.029 224.306 264.727 224.306C262.767 224.306 261.633 225.762 261.633 227.96V228.072C261.633 230.214 262.627 231.684 264.727 231.684C266.603 231.684 267.373 230.55 267.429 229.164H264.909V227.764H269.263V228.688C269.263 231.46 267.527 233.14 264.699 233.14ZM270.78 233V222.99H274.364C276.422 222.99 277.64 223.774 277.64 225.594V225.65C277.64 226.644 277.192 227.428 276.058 227.778C277.416 228.072 278.06 228.814 278.06 230.144V230.2C278.06 232.062 276.828 233 274.63 233H270.78ZM272.6 231.67H274.406C275.652 231.67 276.226 231.11 276.226 230.074V230.018C276.226 228.982 275.652 228.464 274.28 228.464H272.6V231.67ZM272.6 227.204H274.14C275.372 227.204 275.848 226.756 275.848 225.734V225.678C275.848 224.726 275.302 224.32 274.112 224.32H272.6V227.204ZM279.524 233V222.99H282.744C284.984 222.99 286.454 223.984 286.454 226.084V226.14C286.454 228.254 284.928 229.192 282.786 229.192H281.386V233H279.524ZM281.386 227.848H282.744C283.976 227.848 284.634 227.246 284.634 226.14V226.084C284.634 224.894 283.934 224.432 282.744 224.432H281.386V227.848Z" fill="black"/>
<path d="M124.384 247.272V246.576H125.272C125.464 244.74 126.58 243.312 128.476 243.312C130.12 243.312 131.212 244.284 131.404 245.94H130.42C130.252 244.788 129.532 244.128 128.476 244.128C127.192 244.128 126.448 245.088 126.292 246.576H129.16L129.028 247.272H126.268V248.208H128.848L128.716 248.904H126.304C126.46 250.38 127.192 251.256 128.5 251.256C129.616 251.256 130.336 250.584 130.528 249.288H131.5C131.308 251.064 130.168 252.108 128.5 252.108C126.664 252.108 125.488 250.764 125.272 248.904H124.384V248.208H125.236V247.272H124.384ZM135.974 251.244C137.474 251.244 138.242 250.092 138.242 247.92V247.44C138.242 245.448 137.402 244.152 135.95 244.152C134.498 244.152 133.634 245.352 133.634 247.464V247.944C133.634 250.116 134.546 251.244 135.974 251.244ZM135.974 252.108C133.922 252.108 132.566 250.452 132.566 247.956V247.476C132.566 244.944 133.85 243.312 135.95 243.312C138.062 243.312 139.298 245.004 139.298 247.452V247.932C139.298 250.428 138.086 252.108 135.974 252.108ZM140.868 252.06C140.448 252.06 140.1 251.724 140.1 251.292C140.1 250.86 140.448 250.524 140.868 250.524C141.288 250.524 141.636 250.86 141.636 251.292C141.636 251.724 141.288 252.06 140.868 252.06ZM145.853 251.244C147.353 251.244 148.121 250.092 148.121 247.92V247.44C148.121 245.448 147.281 244.152 145.829 244.152C144.377 244.152 143.513 245.352 143.513 247.464V247.944C143.513 250.116 144.425 251.244 145.853 251.244ZM145.853 252.108C143.801 252.108 142.445 250.452 142.445 247.956V247.476C142.445 244.944 143.729 243.312 145.829 243.312C147.941 243.312 149.177 245.004 149.177 247.452V247.932C149.177 250.428 147.965 252.108 145.853 252.108ZM153.781 251.244C155.281 251.244 156.049 250.092 156.049 247.92V247.44C156.049 245.448 155.209 244.152 153.757 244.152C152.305 244.152 151.441 245.352 151.441 247.464V247.944C151.441 250.116 152.353 251.244 153.781 251.244ZM153.781 252.108C151.729 252.108 150.373 250.452 150.373 247.956V247.476C150.373 244.944 151.657 243.312 153.757 243.312C155.869 243.312 157.105 245.004 157.105 247.452V247.932C157.105 250.428 155.893 252.108 153.781 252.108Z" fill="black" fill-opacity="0.5"/>
</g>
</g>
<defs>
<filter id="filter0_d_1106_2968" x="69.1956" y="141.14" width="16.3811" height="12.4953" filterUnits="userSpaceOnUse" color-interpolation-filters="sRGB">
<feFlood flood-opacity="0" result="BackgroundImageFix"/>
<feColorMatrix in="SourceAlpha" type="matrix" values="0 0 0 0 0 0 0 0 0 0 0 0 0 0 0 0 0 0 127 0" result="hardAlpha"/>
<feOffset dy="1.06667"/>
<feColorMatrix type="matrix" values="0 0 0 0 0 0 0 0 0 0 0 0 0 0 0 0 0 0 0.06 0"/>
<feBlend mode="normal" in2="BackgroundImageFix" result="effect1_dropShadow_1106_2968"/>
<feBlend mode="normal" in="SourceGraphic" in2="effect1_dropShadow_1106_2968" result="shape"/>
</filter>
<linearGradient id="paint0_linear_1106_2968" x1="69.1956" y1="141.14" x2="69.1956" y2="152.569" gradientUnits="userSpaceOnUse">
<stop stop-color="white"/>
<stop offset="1" stop-color="#F0F0F0"/>
</linearGradient>
<clipPath id="clip0_1106_2968">
<rect width="473" height="260" fill="white"/>
</clipPath>
<clipPath id="clip1_1106_2968">
<rect width="393" height="852" fill="white" transform="translate(40 -58)"/>
</clipPath>
<clipPath id="clip2_1106_2968">
<rect width="16" height="16" fill="white" transform="translate(80 67)"/>
</clipPath>
<clipPath id="clip3_1106_2968">
<rect x="76" y="222" width="32" height="32" rx="16" fill="white"/>
</clipPath>
<clipPath id="clip4_1106_2968">
<rect width="32.9143" height="32.9143" fill="white" transform="translate(75.5425 222)"/>
</clipPath>
</defs>
</svg>
